<svg width="120" height="42" viewBox="0 0 120 42" fill="none" xmlns="http://www.w3.org/2000/svg">
<g clip-path="url(#clip0)">
<path d="M93.3227 16.0554C93.3227 16.5499 93.0286 16.8698 92.2933 17.5097L90.411 19.0512L90.3815 15.4155L91.2639 16.1136C91.7051 15.5609 92.0286 15.2992 92.4992 15.2992C92.9698 15.2701 93.3227 15.5609 93.3227 16.0554ZM79.8227 21.7562L79.7639 8.81302L84.9698 16.5499L94.3815 2.23961H94.2051L90.411 2.2687H89.9992L85.1168 10.1219L80.1463 2.29778L75.7051 2.32687L75.7933 21.7562H79.8227ZM94.558 20.1565L90.411 20.1856V21.7562H94.558V20.1565ZM107.029 0H106.999L102.94 0.0290859L102.999 13.5831L94.9992 3.31579L90.3227 10.4127L90.3521 15.2992C90.9404 14.5429 91.4992 14.1357 92.558 14.1066C93.4992 14.1066 94.2051 14.5139 94.4992 15.1828L94.4698 8.98754L104.117 21.6981L107.117 21.669L107.029 4.5374C112.323 7.64959 115.882 13.3504 115.911 19.8947C115.97 29.813 107.852 37.8989 97.8227 37.9571C93.2051 37.9862 88.9698 36.2992 85.7639 33.5069H80.2051C84.2933 38.6842 90.7051 42.0291 97.8521 42C110.117 41.9418 120.058 32.0235 119.999 19.8947C119.94 11.0817 114.617 3.4903 107.029 0ZM94.558 19.0222V16.7535C94.3521 17.3061 93.8815 17.7133 93.1168 18.295L92.1462 19.0512L94.558 19.0222Z" fill="#416FF4"/>
<path d="M0.119141 25.1006H0.707376L2.58973 27.8928L4.47208 25.1006H5.06032V30.1906H4.47208V26.0895L2.58973 28.8236H2.56032L0.677964 26.0895V30.2197H0.119141V25.1006Z" fill="white"/>
<path d="M5.14706 30.3073H4.35294V26.4389L2.64706 28.9112H2.5L0.794118 26.4389V30.3073H0V25.0137H0.764706L2.58824 27.7187L4.41177 25.0137H5.17647V30.3073H5.14706ZM4.58824 30.1037H4.94118V25.2173H4.52941L2.58824 28.0968L0.647059 25.2173H0.235294V30.1037H0.588235V25.7408L2.58824 28.6494L4.58824 25.7408V30.1037V30.1037Z" fill="white"/>
<path d="M6.56055 25.1006H7.14878V30.1906H6.56055V25.1006Z" fill="white"/>
<path d="M7.23552 30.3073H6.44141V25.0137H7.23552V30.3073ZM6.6767 30.1037H7.02964V25.2173H6.6767V30.1037Z" fill="white"/>
<path d="M8.64844 25.1006H9.20726L12.4426 29.1726V25.1006H13.0014V30.1906H12.5308L9.20726 26.0313V30.2197H8.64844V25.1006V25.1006Z" fill="white"/>
<path d="M13.1175 30.3073H12.4999L9.32341 26.3516V30.3364H8.5293V25.0137H9.23518L12.3234 28.8821V25.0137H13.1175V30.3073ZM12.5881 30.1037H12.8822V25.2173H12.5293V29.522L9.14694 25.2173H8.76459V30.1037H9.11753V25.7117L12.5881 30.1037Z" fill="white"/>
<path d="M14.2363 27.6898C14.2363 26.2646 15.2952 25.043 16.8834 25.043C18.4422 25.043 19.501 26.2646 19.501 27.6607C19.501 29.0568 18.4422 30.3075 16.854 30.3075C15.2657 30.3075 14.2363 29.0859 14.2363 27.6898ZM18.8834 27.6898C18.8834 26.5263 18.0304 25.5665 16.854 25.5665C15.6775 25.5665 14.8246 26.4973 14.8246 27.6607C14.8246 28.8241 15.6775 29.7549 16.854 29.7549C18.0599 29.7549 18.8834 28.8241 18.8834 27.6898Z" fill="white"/>
<path d="M16.8525 30.3947C15.2937 30.3947 14.1172 29.2313 14.1172 27.6606V27.6315C14.1172 26.09 15.3231 24.8975 16.8525 24.8975C18.4113 24.8975 19.5878 26.0609 19.5878 27.6315C19.6172 29.2022 18.4113 30.3947 16.8525 30.3947ZM16.8819 25.1301C15.4701 25.1301 14.3525 26.2354 14.3525 27.6606V27.6897C14.3525 29.1149 15.4407 30.1911 16.8525 30.1911C18.2642 30.1911 19.3819 29.0858 19.3819 27.6606C19.3819 26.2063 18.3231 25.1301 16.8819 25.1301ZM16.8819 29.8711C15.676 29.8711 14.7348 28.9113 14.7348 27.6606C14.7348 26.3808 15.6466 25.4501 16.8525 25.4501C18.0584 25.4501 18.9995 26.4099 18.9995 27.6606V27.6897C18.9995 28.9404 18.0878 29.8711 16.8819 29.8711ZM16.8525 25.6537C15.7642 25.6537 14.9407 26.4972 14.9407 27.6315C14.9407 28.795 15.7642 29.6385 16.8525 29.6385C17.9407 29.6385 18.7642 28.795 18.7642 27.6606V27.6315C18.7937 26.5263 17.9701 25.6537 16.8525 25.6537Z" fill="white"/>
<path d="M20.7363 25.1006H22.9422C23.5893 25.1006 24.0893 25.3042 24.4128 25.6241C24.6775 25.8859 24.8246 26.2349 24.8246 26.6421V26.6712C24.8246 27.5147 24.2363 28.0092 23.4128 28.1546L25.001 30.2488H24.2952L22.7952 28.2709H21.3246V30.2488H20.7363V25.1006V25.1006ZM22.8834 27.7183C23.6481 27.7183 24.2069 27.3111 24.2069 26.6712C24.2069 26.0313 23.7069 25.6532 22.8834 25.6532H21.2952V27.7183H22.8834Z" fill="white"/>
<path d="M25.2054 30.3073H24.2054L22.7054 28.3295H21.4113V30.3073H20.6172V25.0137H22.9407C23.5878 25.0137 24.1172 25.2173 24.4701 25.5663C24.7348 25.8281 24.9113 26.2353 24.9113 26.6425C24.9113 27.4278 24.4113 28.0095 23.5878 28.2131L25.2054 30.3073ZM24.3231 30.1037H24.7642L23.2054 28.0677L23.3819 28.0386C24.2054 27.8932 24.7054 27.3987 24.7054 26.6716C24.7054 26.2935 24.5878 25.9735 24.3525 25.7408C24.029 25.4209 23.5584 25.2754 22.9701 25.2754H20.8525V30.1619H21.2054V28.184H22.8525L24.3231 30.1037ZM22.8819 27.835H21.176V25.5372H22.8819C23.7642 25.5372 24.3231 25.9444 24.3231 26.6425C24.3231 27.3696 23.7642 27.835 22.8819 27.835ZM21.4113 27.6023H22.8819C23.6172 27.6023 24.0878 27.2242 24.0878 26.6716C24.0878 26.0898 23.6466 25.7699 22.8819 25.7699H21.4113V27.6023Z" fill="white"/>
<path d="M26.1191 25.1006H26.7074V30.1906H26.1191V25.1006Z" fill="white"/>
<path d="M26.7941 30.3073H26V25.0137H26.7941V30.3073ZM26.2059 30.1037H26.5588V25.2173H26.2059V30.1037Z" fill="white"/>
<path d="M29.5595 25.6534H27.8242V25.1299H31.883V25.6534H30.1477V30.2199H29.5595V25.6534V25.6534Z" fill="white"/>
<path d="M30.2639 30.3073H29.4404V25.7408H27.7051V25.0137H31.9698V25.7699H30.2345V30.3073H30.2639ZM29.6757 30.1037H30.058V25.5372H31.7933V25.2173H27.9404V25.5372H29.6757V30.1037Z" fill="white"/>
<path d="M34.5865 28.1837L32.4395 25.1006H33.1453L34.8806 27.6601L36.6453 25.1006H37.3218L35.1748 28.1837V30.2197H34.5865V28.1837V28.1837Z" fill="white"/>
<path d="M35.2932 30.3073H34.4697V28.2131L32.2344 25.0137H33.205L34.8814 27.486L36.5873 25.0137H37.5285L35.2932 28.2131V30.3073ZM34.705 30.1037H35.0873V28.1549L37.1167 25.2173H36.705L34.8814 27.8641L33.0873 25.2173H32.6461L34.6756 28.1549V30.1037H34.705Z" fill="white"/>
<path d="M40.4727 25.1006H41.0609L42.9432 27.8928L44.8256 25.1006H45.4138V30.1906H44.8256V26.0895L42.9432 28.8236H42.9138L41.0315 26.0895V30.2197H40.4727V25.1006Z" fill="white"/>
<path d="M45.5006 30.3073H44.7065V26.4389L43.0006 28.9112H42.8535L41.1476 26.4389V30.3073H40.3535V25.0137H41.1182L42.9418 27.7187L44.7653 25.0137H45.53V30.3073H45.5006ZM44.9123 30.1037H45.2653V25.2173H44.8535L42.9123 28.0968L40.9712 25.2173H40.5594V30.1037H40.9123V25.7408L42.9123 28.6494L44.9123 25.7408V30.1037Z" fill="white"/>
<path d="M46.6191 27.6898C46.6191 26.2646 47.678 25.043 49.2662 25.043C50.825 25.043 51.8838 26.2646 51.8838 27.6607C51.8838 29.0568 50.825 30.3075 49.2368 30.3075C47.678 30.3075 46.6191 29.0859 46.6191 27.6898ZM51.2956 27.6898C51.2956 26.5263 50.4427 25.5665 49.2662 25.5665C48.0897 25.5665 47.2368 26.4973 47.2368 27.6607C47.2368 28.8241 48.0897 29.7549 49.2662 29.7549C50.4427 29.7549 51.2956 28.8241 51.2956 27.6898Z" fill="white"/>
<path d="M49.2353 30.3947C47.6765 30.3947 46.5 29.2313 46.5 27.6606V27.6315C46.5 26.09 47.7059 24.8975 49.2353 24.8975C50.7941 24.8975 51.9706 26.0609 51.9706 27.6315C52 29.2022 50.7941 30.3947 49.2353 30.3947ZM49.2647 25.1301C47.8529 25.1301 46.7353 26.2354 46.7353 27.6606V27.6897C46.7353 29.1149 47.8235 30.1911 49.2353 30.1911C50.6471 30.1911 51.7647 29.0858 51.7647 27.6606C51.7647 26.2063 50.7059 25.1301 49.2647 25.1301ZM49.2647 29.8711C48.0588 29.8711 47.1176 28.9113 47.1176 27.6606C47.1176 26.3808 48.0294 25.4501 49.2353 25.4501C50.4412 25.4501 51.3824 26.4099 51.3824 27.6606V27.6897C51.3824 28.9404 50.4706 29.8711 49.2647 29.8711ZM49.2353 25.6537C48.1471 25.6537 47.3235 26.4972 47.3235 27.6315C47.3235 28.795 48.1471 29.6385 49.2353 29.6385C50.3235 29.6385 51.1471 28.795 51.1471 27.6606V27.6315C51.1765 26.5263 50.3529 25.6537 49.2353 25.6537Z" fill="white"/>
<path d="M52.3809 25.1006H53.0279L54.8514 29.4926L56.7044 25.1006H57.322L55.1162 30.2488H54.5867L52.3809 25.1006Z" fill="white"/>
<path d="M55.1757 30.3655H54.5286L52.2051 25.0137H53.0874L54.8521 29.2311L56.6168 25.0137H57.4698L55.1757 30.3655ZM54.6757 30.1328H55.058L57.1757 25.2173H56.7639L54.8521 29.7838L52.9404 25.2173H52.5286L54.6757 30.1328Z" fill="white"/>
<path d="M58.3536 25.1006H62.0595V25.6241H58.9125V27.3693H61.736V27.8928H58.9125V29.6671H62.0889V30.1906H58.3242V25.1006H58.3536Z" fill="white"/>
<path d="M62.205 30.3073H58.2344V25.0137H62.1756V25.7699H59.0285V27.2824H61.852V28.0386H59.0285V29.6092H62.205V30.3073V30.3073ZM58.4403 30.1037H61.9697V29.7838H58.8226V27.7768H61.6461V27.4569H58.8226V25.5081H61.9697V25.1882H58.4697V30.1037H58.4403Z" fill="white"/>
<path d="M62.9414 29.4636L63.2943 29.0273C63.8238 29.5218 64.3532 29.7545 65.0591 29.7545C65.7649 29.7545 66.2061 29.3763 66.2061 28.8819V28.8528C66.2061 28.3874 65.9414 28.0966 64.8532 27.893C63.6767 27.6312 63.1179 27.2531 63.1179 26.4096V26.3805C63.1179 25.5661 63.8238 24.9844 64.8238 24.9844C65.5885 24.9844 66.1179 25.188 66.6473 25.6243L66.2943 26.0606C65.8238 25.6824 65.3238 25.5079 64.7943 25.5079C64.1179 25.5079 63.7061 25.886 63.7061 26.3223C63.7061 26.8168 63.9708 27.0786 65.1179 27.3112C66.2649 27.573 66.7943 27.9802 66.7943 28.7655C66.7943 29.6381 66.0591 30.2198 65.0296 30.2198C64.2355 30.278 63.5591 30.0162 62.9414 29.4636Z" fill="white"/>
<path d="M65.0596 30.3943C64.2361 30.3943 63.5302 30.1326 62.8832 29.5509L62.7949 29.4927L63.2949 28.911L63.3832 28.9982C63.942 29.4927 64.4126 29.6963 65.089 29.6963C65.7067 29.6963 66.1185 29.4054 66.1185 28.9401C66.1185 28.5329 65.9126 28.2711 64.8537 28.0675C63.7655 27.8348 63.0302 27.4858 63.0302 26.4968C63.0302 25.6243 63.7949 24.9844 64.8243 24.9844C65.5596 24.9844 66.1185 25.188 66.7067 25.6243L66.7949 25.6824L66.3243 26.2932L66.2361 26.2351C65.7949 25.886 65.3243 25.7115 64.8243 25.7115C64.2361 25.7115 63.8243 26.0024 63.8243 26.4387C63.8243 26.8459 64.0302 27.1076 65.1479 27.3403C66.3832 27.6021 66.9126 28.0675 66.9126 28.8819C66.9126 29.7545 66.1479 30.3943 65.0596 30.3943ZM63.089 29.4636C63.6773 29.9581 64.2949 30.1907 65.0302 30.1907C66.0302 30.1907 66.6773 29.6672 66.6773 28.8528C66.6773 28.1256 66.2067 27.7475 65.089 27.5148C63.9714 27.2822 63.589 26.9913 63.589 26.4096C63.589 25.857 64.089 25.4497 64.7949 25.4497C65.3243 25.4497 65.7949 25.6243 66.2655 25.9442L66.4714 25.6824C65.9714 25.3043 65.4714 25.1589 64.8243 25.1589C63.9126 25.1589 63.2361 25.7115 63.2361 26.4387C63.2361 27.1949 63.6773 27.573 64.8832 27.8057C65.942 28.0384 66.3243 28.3002 66.3243 28.8819C66.3243 29.4636 65.7949 29.8708 65.0596 29.8708C64.3832 29.8708 63.8537 29.6672 63.2949 29.2018L63.089 29.4636Z" fill="white"/>
<path d="M70.207 25.1006H70.7659L74.0012 29.1726V25.1006H74.56V30.1906H74.0894L70.7659 26.0022V30.1906H70.207V25.1006Z" fill="white"/>
<path d="M74.6761 30.3073H74.0585L74.0291 30.2782L70.882 26.3516V30.3364H70.0879V25.0137H70.7938L73.882 28.8821V25.0137H74.6761V30.3073ZM74.1467 30.1037H74.4408V25.2173H74.1173V29.522L70.7055 25.2173H70.3232V30.1037H70.6761V25.7117L74.1467 30.1037Z" fill="white"/>
<path d="M76.0312 25.1006H79.7666V25.6241H76.6195V27.3693H79.443V27.8928H76.6195V29.6671H79.796V30.1906H76.0312V25.1006Z" fill="white"/>
<path d="M79.8827 30.3073H75.9121V25.0137H79.8533V25.7699H76.7062V27.2824H79.5298V28.0386H76.7062V29.6092H79.8827V30.3073ZM76.118 30.1037H79.6474V29.7838H76.4709V27.7768H79.2945V27.4569H76.4709V25.5081H79.618V25.1882H76.118V30.1037Z" fill="white"/>
<path d="M82.3251 25.6534H80.5898V25.1299H84.6487V25.6534H82.9134V30.2199H82.3251V25.6534V25.6534Z" fill="white"/>
<path d="M83.0295 30.3073H82.206V25.7408H80.4707V25.0137H84.7354V25.7699H83.0001V30.3073H83.0295ZM82.4413 30.1037H82.8236V25.5372H84.5589V25.2173H80.7354V25.5372H82.4707V30.1037H82.4413Z" fill="white"/>
<path d="M85.3223 25.1006H85.9693L87.4399 29.3471L88.8517 25.1006H89.3223L90.734 29.3471L92.2046 25.1006H92.8223L90.9693 30.2488H90.4693L89.0576 26.1186L87.6458 30.2488H87.1458L85.3223 25.1006Z" fill="white"/>
<path d="M91.0581 30.3655H90.4111L89.0875 26.468L87.7346 30.3655H87.0875L85.1758 25.0137H86.0581L87.4405 29.0275L88.764 25.0137H89.4111L90.7346 29.0275L92.117 25.0137H92.9699L91.0581 30.3655ZM90.5875 30.1328H90.9111L92.6758 25.2173H92.2934L90.7346 29.6965L89.2346 25.1882H88.9111L87.4111 29.6965L85.8817 25.2173H85.4699L87.2346 30.1328H87.5581L89.0581 25.7699L90.5875 30.1328Z" fill="white"/>
<path d="M93.3848 27.6898C93.3848 26.2646 94.4436 25.043 96.0318 25.043C97.5907 25.043 98.6495 26.2646 98.6495 27.6607C98.6495 29.0568 97.5907 30.3075 96.0024 30.3075C94.4436 30.3075 93.3848 29.0859 93.3848 27.6898ZM98.0612 27.6898C98.0612 26.5263 97.2083 25.5665 96.0318 25.5665C94.8554 25.5665 94.0024 26.4973 94.0024 27.6607C94.0024 28.8241 94.8554 29.7549 96.0318 29.7549C97.2083 29.7549 98.0612 28.8241 98.0612 27.6898Z" fill="white"/>
<path d="M96.0302 30.3947C94.4714 30.3947 93.2949 29.2313 93.2949 27.6606V27.6315C93.2949 26.09 94.5008 24.8975 96.0302 24.8975C97.589 24.8975 98.7655 26.0609 98.7655 27.6315C98.7655 29.2022 97.5596 30.3947 96.0302 30.3947ZM96.0302 25.1301C94.6184 25.1301 93.5008 26.2354 93.5008 27.6606V27.6897C93.5008 29.1149 94.589 30.1911 96.0008 30.1911C97.4126 30.1911 98.5302 29.0858 98.5302 27.6606C98.5302 26.2063 97.4714 25.1301 96.0302 25.1301ZM96.0302 29.8711C94.8243 29.8711 93.8832 28.9113 93.8832 27.6606C93.8832 26.3808 94.7949 25.4501 96.0008 25.4501C97.2067 25.4501 98.1479 26.4099 98.1479 27.6606V27.6897C98.1479 28.9404 97.2361 29.8711 96.0302 29.8711ZM96.0302 25.6537C94.942 25.6537 94.1184 26.4972 94.1184 27.6315C94.1184 28.795 94.942 29.6385 96.0302 29.6385C97.1184 29.6385 97.942 28.795 97.942 27.6606V27.6315C97.942 26.5263 97.1184 25.6537 96.0302 25.6537Z" fill="white"/>
<path d="M99.8848 25.1006H102.091C102.738 25.1006 103.238 25.3042 103.561 25.6241C103.826 25.8859 103.973 26.2349 103.973 26.6421V26.6712C103.973 27.5147 103.385 28.0092 102.561 28.1546L104.149 30.2488H103.444L101.944 28.2709H100.473V30.2488H99.8848V25.1006V25.1006ZM102.061 27.7183C102.826 27.7183 103.385 27.3111 103.385 26.6712C103.385 26.0313 102.885 25.6532 102.061 25.6532H100.473V27.7183H102.061Z" fill="white"/>
<path d="M104.383 30.3073H103.383L101.883 28.3295H100.589V30.3073H99.7949V25.0137H102.118C102.766 25.0137 103.295 25.2173 103.648 25.5663C103.913 25.8281 104.089 26.2353 104.089 26.6425C104.089 27.4278 103.589 28.0095 102.766 28.2131L104.383 30.3073ZM103.501 30.1037H103.942L102.383 28.0677L102.56 28.0386C103.383 27.8932 103.883 27.3987 103.883 26.6716C103.883 26.2935 103.766 25.9735 103.53 25.7408C103.207 25.4209 102.736 25.2754 102.148 25.2754H100.001V30.1619H100.354V28.184H102.001L103.501 30.1037ZM102.06 27.835H100.354V25.5372H102.06C102.942 25.5372 103.501 25.9444 103.501 26.6425C103.501 27.3696 102.913 27.835 102.06 27.835ZM100.589 27.6023H102.06C102.795 27.6023 103.266 27.2242 103.266 26.6716C103.266 26.0898 102.824 25.7699 102.06 25.7699H100.589V27.6023Z" fill="white"/>
<path d="M105.207 25.1006H105.795V28.1546L108.766 25.1006H109.531L107.325 27.3402L109.619 30.2197H108.884L106.913 27.7474L105.825 28.8527V30.2197H105.236V25.1006H105.207Z" fill="white"/>
<path d="M109.823 30.3073H108.823L106.882 27.8932L105.911 28.8821V30.3073H105.117V25.0137H105.911V27.8932L108.705 25.0137H109.764L107.441 27.3696L109.823 30.3073ZM108.911 30.1037H109.352L107.117 27.3405L109.205 25.2173H108.764L105.647 28.4167V25.2173H105.294V30.1037H105.647V28.7948L106.852 27.5732L108.911 30.1037Z" fill="white"/>
</g>
<defs>
<clipPath id="clip0">
<rect width="120" height="42" fill="white"/>
</clipPath>
</defs>
</svg>
