<svg width="113" height="42" viewBox="0 0 113 42" fill="none" xmlns="http://www.w3.org/2000/svg">
<path d="M111.395 36.7352C111.395 37.7918 111.06 38.8051 110.462 39.5518C109.864 40.2985 109.054 40.7175 108.209 40.7164L3.93085 40.7164C2.17088 40.7187 0.742527 38.9364 0.740234 36.7352V4.9864C0.742527 2.78434 2.17021 1.00057 3.93085 1H108.208C109.968 1 111.395 2.78494 111.395 4.9864L111.395 36.7352L111.395 36.7352Z" fill="black" stroke="white" stroke-opacity="0.2" stroke-width="0.803125"/>
<path fill-rule="evenodd" clip-rule="evenodd" d="M23.4658 9.45581C23.6038 10.7047 23.1068 11.9355 22.3804 12.8401C21.6224 13.7306 20.4099 14.4118 19.2288 14.3241C19.0743 13.1223 19.6727 11.8444 20.3425 11.0648C21.0997 10.18 22.4145 9.50216 23.4658 9.45581ZM27.332 16.6607C27.2002 16.739 25.0161 18.0372 25.04 20.6848H25.04C25.0682 23.8812 27.8491 24.939 27.8823 24.9506C27.8657 25.0251 27.4469 26.4768 26.4038 27.9492C25.5328 29.2461 24.6203 30.5149 23.1708 30.5372C22.4817 30.553 22.0164 30.3559 21.5316 30.1504C21.0258 29.9362 20.4988 29.7129 19.6744 29.7129C18.8006 29.7129 18.2502 29.9434 17.7196 30.1657C17.2604 30.358 16.816 30.5442 16.1895 30.5695C14.8091 30.62 13.7544 29.1857 12.8518 27.8995C11.0475 25.275 9.6429 20.5036 11.5262 17.2567C12.4387 15.6643 14.1026 14.6388 15.8812 14.6115C16.6644 14.5956 17.4156 14.8962 18.0741 15.1597C18.5776 15.3612 19.027 15.541 19.3951 15.541C19.7184 15.541 20.1552 15.3684 20.6642 15.1672C21.4665 14.8501 22.4483 14.462 23.4484 14.5668C24.1324 14.5867 26.0789 14.8358 27.3347 16.6591L27.332 16.6607Z" fill="white"/>
<path fill-rule="evenodd" clip-rule="evenodd" d="M72.1871 29.5826C72.8412 28.9941 73.1703 28.2318 73.1703 27.2941C73.1703 26.5335 72.9459 25.8954 72.4946 25.3839C72.0467 24.8724 71.3469 24.4271 70.3944 24.0448C69.6182 23.7402 69.0813 23.4563 68.7871 23.1956C68.448 22.9125 68.2776 22.5517 68.2776 22.1171C68.2776 21.7232 68.4272 21.3913 68.7223 21.119C69.073 20.8144 69.5633 20.6613 70.1883 20.6613C70.9795 20.6613 71.6868 20.8302 72.3135 21.1678L72.7581 19.7294C72.0924 19.3809 71.2538 19.2063 70.2473 19.2063C69.1204 19.2063 68.2145 19.4951 67.5313 20.0728C66.8481 20.6514 66.5057 21.3913 66.5057 22.2951C66.5057 23.6789 67.4748 24.7309 69.4113 25.4501C70.1235 25.7108 70.6305 25.9947 70.9372 26.2993C71.2422 26.6047 71.3976 26.9796 71.3976 27.4274C71.3976 27.9273 71.2098 28.3278 70.8383 28.6275C70.4676 28.9262 69.9481 29.0769 69.28 29.0769C68.3508 29.0769 67.4972 28.8485 66.7201 28.3899L66.3104 29.8607C67.0301 30.3184 67.9842 30.5468 69.1744 30.5468C70.4626 30.5468 71.4674 30.2248 72.1871 29.5826ZM44.6012 30.3846H42.7137L41.6798 27.1493H38.0861L37.1013 30.3846H35.2637L38.825 19.3702H41.0241L44.6012 30.3846ZM41.368 25.7912L40.433 22.9151C40.3341 22.6213 40.148 21.9294 39.8754 20.8402H39.8421C39.7324 21.3086 39.557 22.0006 39.3168 22.9151L38.3976 25.7912H41.368ZM52.6363 29.5174C53.3735 28.7336 53.7417 27.666 53.7417 26.3152C53.7417 25.106 53.4267 24.131 52.7992 23.3887C52.1709 22.6479 51.3855 22.2779 50.4447 22.2779C49.2412 22.2779 48.3445 22.7522 47.7535 23.7007H47.7203L47.6214 22.4418H46.0631C46.1063 23.334 46.1287 24.2039 46.1287 25.0522V33.6044H47.9006V29.4371C48.3619 30.1886 49.1215 30.5636 50.1779 30.5636C51.1561 30.5636 51.9764 30.2151 52.6363 29.5174ZM51.9365 26.3796C51.9365 25.6066 51.7619 24.9693 51.4112 24.4669C51.0281 23.9446 50.5136 23.6831 49.8687 23.6831C49.4315 23.6831 49.0342 23.8288 48.6794 24.116C48.3236 24.4056 48.0909 24.7839 47.9821 25.2523C47.9335 25.4275 47.9058 25.6078 47.8998 25.7895V27.1145C47.8998 27.6914 48.0776 28.1789 48.4334 28.5778C48.7891 28.9751 49.2512 29.1746 49.8196 29.1746C50.487 29.1746 51.0065 28.9172 51.378 28.4065C51.7503 27.8942 51.9365 27.2188 51.9365 26.3796ZM61.8091 29.5174C62.5463 28.7336 62.9145 27.666 62.9145 26.3152C62.9145 25.106 62.5987 24.131 61.972 23.3887C61.342 22.6479 60.5566 22.2779 59.6167 22.2779C58.4124 22.2779 57.5156 22.7522 56.9255 23.7007H56.8923L56.7934 22.4418H55.2351C55.2783 23.334 55.3007 24.2039 55.3007 25.0522V33.6044H57.0726V29.4371C57.5339 30.1886 58.2935 30.5636 59.3499 30.5636C60.3289 30.5636 61.1484 30.2151 61.8091 29.5174ZM61.1084 26.3796C61.1084 25.6066 60.9331 24.9693 60.5823 24.4669C60.1992 23.9446 59.6864 23.6831 59.0415 23.6831C58.6043 23.6831 58.2071 23.8288 57.8505 24.116C57.4948 24.4056 57.2629 24.7839 57.1541 25.2523C57.1 25.4708 57.0709 25.6488 57.0709 25.7895V27.1145C57.0709 27.6914 57.2496 28.1789 57.6037 28.5778C57.9594 28.9743 58.4215 29.1746 58.9916 29.1746C59.6598 29.1746 60.1793 28.9172 60.5499 28.4065C60.9223 27.8942 61.1084 27.2188 61.1084 26.3796ZM79.0438 23.7661H77.0907V27.6222C77.0907 28.6029 77.4348 29.0921 78.1246 29.0921C78.4412 29.0921 78.7039 29.0656 78.9116 29.0101L78.9607 30.3501C78.6116 30.48 78.152 30.5454 77.5827 30.5454C76.883 30.5454 76.3361 30.3327 75.9413 29.9073C75.5482 29.4819 75.3504 28.7693 75.3504 27.7662V23.7628H74.1868V22.4386H75.3504V20.9844L77.0907 20.4613V22.4386H79.0438L79.0438 23.7661ZM86.7881 29.3543C87.4879 28.5705 87.8386 27.5683 87.8386 26.3475C87.8386 25.159 87.5003 24.1906 86.8205 23.4407C86.1091 22.6677 85.1691 22.2804 83.9989 22.2804C82.7846 22.2804 81.8189 22.6727 81.1017 23.4573C80.3861 24.2411 80.027 25.2492 80.027 26.4799C80.027 27.656 80.3744 28.631 81.0692 29.4048C81.764 30.177 82.6957 30.5635 83.8676 30.5635C85.0818 30.5635 86.0559 30.1613 86.7881 29.3543ZM86.0018 26.3881C86.0018 25.6606 85.8439 25.0366 85.5273 24.5143C85.1558 23.8837 84.6238 23.5683 83.9349 23.5683C83.2251 23.5683 82.6807 23.8837 82.3101 24.5143C81.9926 25.0366 81.8347 25.6714 81.8347 26.4212C81.8347 27.1496 81.9926 27.7753 82.3101 28.2959C82.6932 28.9265 83.2276 29.2419 83.9199 29.2419C84.5973 29.2419 85.1283 28.9199 85.5123 28.2801C85.8381 27.7455 86.0018 27.1173 86.0018 26.3881ZM93.0421 23.9448C93.2294 23.9442 93.4163 23.9605 93.6006 23.9937L93.599 22.3102C93.4677 22.2895 93.3197 22.2779 93.156 22.2779C92.6942 22.2786 92.245 22.4278 91.8752 22.7033C91.4713 23.0187 91.1771 23.44 90.9893 23.9622H90.9402L90.8754 22.4426H89.332C89.368 23.2756 89.3852 24.1093 89.3836 24.943V30.384H91.1555V26.2167C91.1555 25.5852 91.3034 25.0622 91.5977 24.6483C91.9367 24.1782 92.4188 23.9448 93.0421 23.9448ZM101.525 26.0369C101.53 26.3051 101.508 26.5732 101.46 26.8372H96.1446C96.1645 27.6219 96.4222 28.2227 96.9159 28.6366C97.3639 29.0057 97.9431 29.1911 98.6546 29.1911C99.4416 29.1911 100.16 29.0669 100.805 28.8162L101.083 30.0403C100.328 30.368 99.4374 30.5311 98.4094 30.5311C97.1727 30.5311 96.202 30.1685 95.4955 29.4452C94.7908 28.721 94.4375 27.7477 94.4375 26.5285C94.4375 25.3317 94.7658 24.3344 95.4232 23.539C96.1114 22.6899 97.0414 22.2653 98.2116 22.2653C99.361 22.2653 100.231 22.6899 100.822 23.539C101.29 24.2119 101.525 25.0462 101.525 26.0369ZM99.4915 24.2227C99.7317 24.6043 99.8481 25.0553 99.8356 25.5792L96.1455 25.5776C96.1995 25.0454 96.3749 24.5869 96.6699 24.2053C97.029 23.7253 97.501 23.4861 98.0803 23.4861C98.7128 23.4861 99.1848 23.7311 99.4915 24.2227Z" fill="white"/>
<path fill-rule="evenodd" clip-rule="evenodd" d="M59.0831 15.4276H58.2112V9.7334H59.0831V15.4276ZM36.3008 15.4123C36.6557 15.4528 37.082 15.4768 37.5749 15.4768C39.6634 15.4768 40.7688 14.4655 40.7688 12.5933C40.7688 10.9703 39.833 9.97461 37.8009 9.97461C37.2987 9.97318 36.7971 10.0108 36.3008 10.0872V15.4123ZM37.171 10.7124C37.3647 10.6727 37.5982 10.6561 37.8725 10.6561C39.1632 10.6561 39.8488 11.3555 39.8488 12.616C39.8488 14.0296 39.0909 14.7845 37.7594 14.7845C37.4768 14.7845 37.2758 14.777 37.171 14.7605V10.7124ZM43.6852 15.5161C42.5399 15.5161 41.7977 14.6645 41.7977 13.5082C41.7977 12.3032 42.5557 11.4441 43.75 11.4441C44.8786 11.4441 45.6374 12.2552 45.6374 13.4445C45.6374 14.6645 44.8553 15.5161 43.6852 15.5161ZM42.6861 13.4837C42.6861 12.6643 43.0892 12.0783 43.7183 12.0783C44.3308 12.0783 44.7339 12.6726 44.7339 13.4671C44.7339 14.2468 44.3225 14.8733 43.71 14.8733C43.0975 14.8733 42.6861 14.2873 42.6861 13.4837ZM52.1683 11.5243L50.9424 15.4275H50.1437L49.6359 13.7325C49.5097 13.3179 49.4045 12.8972 49.3209 12.472L49.3043 12.472C49.2403 12.8974 49.119 13.3236 48.9902 13.7325L48.45 15.4275H47.6429L46.4894 11.5243H47.3845L47.8283 13.3799C47.933 13.8219 48.0211 14.239 48.0942 14.633H48.1109C48.1748 14.3044 48.2796 13.8939 48.4333 13.3882L48.9902 11.5251H49.6999L50.2327 13.3485C50.3615 13.7904 50.4662 14.2241 50.5477 14.6338H50.5709C50.6275 14.2324 50.7164 13.8062 50.8369 13.3485L51.3131 11.5251L52.1683 11.5243ZM55.8102 15.4276H56.6812H56.6812L56.682 13.0903C56.682 12.0706 56.1418 11.4441 55.319 11.4441C54.7863 11.4441 54.3109 11.7089 54.0765 12.126H54.0524L54.0117 11.5235H53.2454C53.2695 11.9249 53.2778 12.2949 53.2778 12.64V15.4276H54.1488V13.106C54.1488 12.592 54.5037 12.1501 55.0198 12.1501C55.5443 12.1501 55.8102 12.496 55.8102 13.1863V15.4276ZM60.3713 13.5082C60.3713 14.6645 61.1143 15.5161 62.2587 15.5161C63.4281 15.5161 64.211 14.6645 64.2102 13.4445C64.2102 12.2552 63.4522 11.4441 62.3227 11.4441C61.1293 11.4441 60.3713 12.3032 60.3713 13.5082ZM62.2911 12.0783C61.662 12.0783 61.2589 12.6643 61.2589 13.4837C61.2589 14.2873 61.6712 14.8733 62.282 14.8733C62.8954 14.8733 63.3059 14.2468 63.3059 13.4671C63.3068 12.6726 62.9045 12.0783 62.2911 12.0783ZM67.5811 14.9781L67.6442 15.4276H67.6443L68.4296 15.4284C68.3906 15.1958 68.3731 14.8904 68.3731 14.4964V13.0588C68.3731 11.982 67.8562 11.4441 66.8323 11.4441C66.3012 11.4441 65.849 11.5566 65.4867 11.7817L65.6637 12.352C65.9621 12.1592 66.3012 12.0623 66.6876 12.0623C67.2279 12.0623 67.5013 12.3197 67.5013 12.8337V12.9057C66.0493 12.9057 65.2108 13.4039 65.2108 14.3673C65.2108 15.0261 65.7094 15.5161 66.4117 15.5161C66.9037 15.5161 67.2919 15.3398 67.5578 14.9781H67.5811ZM67.5245 13.4835C66.5571 13.4835 66.0718 13.7169 66.0718 14.2706C66.0718 14.6802 66.3219 14.8805 66.6694 14.8805C67.1123 14.8805 67.5245 14.5437 67.5245 14.086V13.4835ZM72.5619 14.8011L72.6026 15.4276H73.3781C73.3548 15.1065 73.3456 14.7531 73.3456 14.3757V9.7334H72.4738V11.9739H72.4564C72.2469 11.6196 71.8754 11.4433 71.351 11.4433C70.3603 11.4433 69.6347 12.3033 69.6347 13.524C69.6347 14.6886 70.3345 15.5162 71.2795 15.5162C71.8671 15.5162 72.2876 15.2745 72.5378 14.8011H72.5619ZM72.4739 13.1314C72.4739 12.5851 72.1107 12.1192 71.5563 12.1192C70.9106 12.1192 70.5158 12.6894 70.5158 13.4922C70.5158 14.2793 70.9255 14.8181 71.5389 14.8181C72.0866 14.8181 72.4739 14.3439 72.4739 13.7819V13.1314ZM76.9868 13.5082C76.9868 14.6645 77.729 15.5161 78.8734 15.5161C80.0444 15.5161 80.8265 14.6645 80.8257 13.4445C80.8257 12.2552 80.0677 11.4441 78.9382 11.4441C77.7447 11.4441 76.9868 12.3032 76.9868 13.5082ZM78.9057 12.0783C78.2774 12.0783 77.8743 12.6643 77.8743 13.4837C77.8743 14.2873 78.2857 14.8733 78.8974 14.8733C79.5108 14.8733 79.9213 14.2468 79.9213 13.4671C79.923 12.6726 79.5199 12.0783 78.9057 12.0783ZM84.6378 15.4279H85.5097V13.0898C85.5097 12.0701 84.9686 11.4436 84.1458 11.4436C83.6139 11.4436 83.1377 11.7093 82.9042 12.1264H82.8801L82.8393 11.5239H82.0731C82.0972 11.9253 82.1055 12.2952 82.1055 12.6404V15.4279H82.9773V13.1063C82.9773 12.5924 83.3313 12.1504 83.8475 12.1504C84.3719 12.1504 84.6378 12.4964 84.6378 13.1866V15.4279ZM91.3699 12.1751H90.4117V14.0704C90.4117 14.5529 90.5796 14.7938 90.9186 14.7938C91.0724 14.7938 91.2012 14.7772 91.3051 14.7532L91.3292 15.412C91.1605 15.4766 90.9344 15.5089 90.6535 15.5089C89.967 15.5089 89.5564 15.1314 89.5564 14.1432V12.1751H88.9846V11.5245H89.5564V10.8094L90.4117 10.552V11.5237H91.3699V12.1751ZM95.1107 15.4276H95.9809V13.1061C95.9809 12.0856 95.4739 11.4433 94.6445 11.4433C94.1375 11.4433 93.7402 11.6527 93.466 12.0781H93.4485V9.7334H92.5784V15.4276H93.4485V13.0746C93.4485 12.4564 93.8691 12.151 94.3203 12.151C94.8456 12.151 95.1107 12.5044 95.1107 13.2029V15.4276ZM100.705 13.6845H98.091C98.1076 14.4236 98.5988 14.8408 99.326 14.8408C99.7125 14.8408 100.068 14.7762 100.382 14.6562L100.518 15.2587C100.147 15.4193 99.7108 15.4996 99.203 15.4996C97.9771 15.4996 97.2516 14.7282 97.2516 13.5322C97.2516 12.3355 97.9946 11.4358 99.1049 11.4358C100.106 11.4358 100.735 12.1749 100.735 13.2914C100.74 13.4232 100.73 13.5551 100.705 13.6845ZM99.0443 12.0384C98.544 12.0384 98.1483 12.4721 98.0919 13.0664ZM98.0919 13.0664H99.9062Z" fill="white"/>
</svg>
