<svg width="155" height="55" viewBox="0 0 155 55" fill="none" xmlns="http://www.w3.org/2000/svg">
<g clip-path="url(#clip0)">
<path d="M120.543 21.0249C120.543 21.6724 120.163 22.0914 119.214 22.9294L116.782 24.9481L116.744 20.187L117.884 21.1011C118.454 20.3774 118.872 20.0346 119.48 20.0346C120.087 19.9965 120.543 20.3774 120.543 21.0249ZM103.106 28.4903L103.03 11.5409L109.754 21.6724L121.911 2.93283H121.683L116.782 2.97091H116.25L109.944 13.2548L103.524 3.009L97.7871 3.04709L97.9011 28.4903H103.106ZM122.139 26.3954L116.782 26.4335V28.4903H122.139V26.3954ZM138.247 0H138.209L132.966 0.0380886L133.042 17.7874L122.709 4.34211L116.668 13.6357L116.706 20.0346C117.466 19.0443 118.188 18.5111 119.555 18.473C120.771 18.473 121.683 19.0062 122.063 19.8823L122.025 11.7694L134.486 28.4141L138.361 28.376L138.247 5.94183C145.085 10.0173 149.682 17.4827 149.72 26.0526C149.796 39.0409 139.31 49.6295 126.356 49.7057C120.391 49.7438 114.921 47.5346 110.78 43.8781H103.6C108.88 50.6579 117.162 55.0381 126.394 55C142.236 54.9238 155.076 41.9356 155 26.0526C154.924 14.5118 148.048 4.57064 138.247 0ZM122.139 24.91V21.9391C121.873 22.6627 121.265 23.196 120.277 23.9578L119.024 24.9481L122.139 24.91Z" fill="#416FF4"/>
<path d="M0.152344 32.8705H0.912148L3.34352 36.527L5.77489 32.8705H6.5347V39.536H5.77489V34.1655L3.34352 37.7458H3.30553L0.874157 34.1655V39.5741H0.152344V32.8705Z" fill="#4B5259"/>
<path d="M6.64829 39.6884H5.62255V34.6226L3.41912 37.8601H3.22917L1.02574 34.6226V39.6884H0V32.7562H0.987745L3.34314 36.2985L5.69853 32.7562H6.68628V39.6884H6.64829ZM5.92647 39.4217H6.38235V33.0228H5.85049L3.34314 36.7936L0.835784 33.0228H0.303922V39.4217H0.759804V33.7084L3.34314 37.5173L5.92647 33.7084V39.4217V39.4217Z" fill="#4B5259"/>
<path d="M8.47266 32.8705H9.23246V39.536H8.47266V32.8705Z" fill="#4B5259"/>
<path d="M9.34605 39.6884H8.32031V32.7562H9.34605V39.6884ZM8.62423 39.4217H9.08012V33.0228H8.62423V39.4217Z" fill="#4B5259"/>
<path d="M11.1699 32.8705H11.8917L16.0707 38.2029V32.8705H16.7925V39.536H16.1846L11.8917 34.0893V39.5741H11.1699V32.8705V32.8705Z" fill="#4B5259"/>
<path d="M16.944 39.6884H16.1463L12.0433 34.5083V39.7264H11.0176V32.7562H11.9293L15.9183 37.822V32.7562H16.944V39.6884ZM16.2602 39.4217H16.6401V33.0228H16.1842V38.66L11.8154 33.0228H11.3215V39.4217H11.7774V33.6704L16.2602 39.4217Z" fill="#4B5259"/>
<path d="M18.3867 36.2604C18.3867 34.394 19.7544 32.7943 21.8058 32.7943C23.8193 32.7943 25.187 34.394 25.187 36.2223C25.187 38.0505 23.8193 39.6884 21.7678 39.6884C19.7164 39.6884 18.3867 38.0886 18.3867 36.2604ZM24.3892 36.2604C24.3892 34.7368 23.2875 33.4799 21.7678 33.4799C20.2482 33.4799 19.1465 34.6987 19.1465 36.2223C19.1465 37.7458 20.2482 38.9647 21.7678 38.9647C23.3254 38.9647 24.3892 37.7458 24.3892 36.2604Z" fill="#4B5259"/>
<path d="M21.7675 39.8026C19.754 39.8026 18.2344 38.2791 18.2344 36.2223V36.1842C18.2344 34.1655 19.792 32.6039 21.7675 32.6039C23.7809 32.6039 25.3006 34.1274 25.3006 36.1842C25.3385 38.241 23.7809 39.8026 21.7675 39.8026ZM21.8055 32.9086C19.9819 32.9086 18.5383 34.356 18.5383 36.2223V36.2604C18.5383 38.1267 19.9439 39.536 21.7675 39.536C23.591 39.536 25.0346 38.0886 25.0346 36.2223C25.0346 34.3179 23.667 32.9086 21.8055 32.9086ZM21.8055 39.117C20.2479 39.117 19.0322 37.8601 19.0322 36.2223C19.0322 34.5464 20.2099 33.3276 21.7675 33.3276C23.3251 33.3276 24.5408 34.5845 24.5408 36.2223V36.2604C24.5408 37.8982 23.3631 39.117 21.8055 39.117ZM21.7675 33.5942C20.3618 33.5942 19.2981 34.6988 19.2981 36.1842C19.2981 37.7078 20.3618 38.8123 21.7675 38.8123C23.1731 38.8123 24.2368 37.7078 24.2368 36.2223V36.1842C24.2748 34.7368 23.2111 33.5942 21.7675 33.5942Z" fill="#4B5259"/>
<path d="M26.7832 32.8705H29.6325C30.4683 32.8705 31.1141 33.1371 31.532 33.5561C31.8739 33.8989 32.0638 34.3559 32.0638 34.8892V34.9273C32.0638 36.0318 31.304 36.6794 30.2403 36.8698L32.2918 39.6122H31.38L29.4425 37.0221H27.543V39.6122H26.7832V32.8705V32.8705ZM29.5565 36.2985C30.5442 36.2985 31.266 35.7652 31.266 34.9273C31.266 34.0893 30.6202 33.5942 29.5565 33.5942H27.505V36.2985H29.5565Z" fill="#4B5259"/>
<path d="M32.5573 39.6884H31.2657L29.3282 37.0983H27.6566V39.6884H26.6309V32.7562H29.6321C30.4679 32.7562 31.1517 33.0228 31.6076 33.4799C31.9495 33.8227 32.1774 34.3559 32.1774 34.8892C32.1774 35.9176 31.5316 36.6794 30.4679 36.946L32.5573 39.6884ZM31.4176 39.4217H31.9875L29.974 36.7555L30.2019 36.7174C31.2657 36.527 31.9115 35.8795 31.9115 34.9273C31.9115 34.4321 31.7595 34.0132 31.4556 33.7084C31.0377 33.2895 30.4299 33.099 29.6701 33.099H26.9348V39.4979H27.3907V36.9079H29.5181L31.4176 39.4217ZM29.5561 36.4508H27.3527V33.4418H29.5561C30.6958 33.4418 31.4176 33.9751 31.4176 34.8892C31.4176 35.8414 30.6958 36.4508 29.5561 36.4508ZM27.6566 36.1461H29.5561C30.5059 36.1461 31.1137 35.651 31.1137 34.9273C31.1137 34.1655 30.5439 33.7465 29.5561 33.7465H27.6566V36.1461Z" fill="#4B5259"/>
<path d="M33.7363 32.8705H34.4961V39.536H33.7363V32.8705Z" fill="#4B5259"/>
<path d="M34.6097 39.6884H33.584V32.7562H34.6097V39.6884ZM33.8499 39.4217H34.3058V33.0228H33.8499V39.4217Z" fill="#4B5259"/>
<path d="M38.1809 33.5942H35.9395V32.9086H41.1821V33.5942H38.9407V39.5741H38.1809V33.5942V33.5942Z" fill="#4B5259"/>
<path d="M39.0923 39.6884H38.0285V33.7084H35.7871V32.7562H41.2957V33.7465H39.0543V39.6884H39.0923ZM38.3325 39.4217H38.8263V33.4418H41.0677V33.0228H36.091V33.4418H38.3325V39.4217Z" fill="#4B5259"/>
<path d="M44.6756 36.9079L41.9023 32.8705H42.8141L45.0555 36.2223L47.335 32.8705H48.2087L45.4354 36.9079V39.5741H44.6756V36.9079V36.9079Z" fill="#4B5259"/>
<path d="M45.5877 39.6884H44.524V36.946L41.6367 32.7562H42.8904L45.0558 35.9938L47.2593 32.7562H48.475L45.5877 36.946V39.6884ZM44.8279 39.4217H45.3218V36.8698L47.9431 33.0228H47.4112L45.0558 36.4889L42.7384 33.0228H42.1686L44.7899 36.8698V39.4217H44.8279Z" fill="#4B5259"/>
<path d="M52.2754 32.8705H53.0352L55.4666 36.527L57.8979 32.8705H58.6577V39.536H57.8979V34.1655L55.4666 37.7458H55.4286L52.9972 34.1655V39.5741H52.2754V32.8705Z" fill="#4B5259"/>
<path d="M58.7713 39.6884H57.7456V34.6226L55.5422 37.8601H55.3522L53.1488 34.6226V39.6884H52.123V32.7562H53.1108L55.4662 36.2985L57.8216 32.7562H58.8093V39.6884H58.7713ZM58.0115 39.4217H58.4674V33.0228H57.9356L55.4282 36.7936L52.9208 33.0228H52.389V39.4217H52.8449V33.7084L55.4282 37.5173L58.0115 33.7084V39.4217Z" fill="#4B5259"/>
<path d="M60.2148 36.2604C60.2148 34.394 61.5825 32.7943 63.634 32.7943C65.6474 32.7943 67.0151 34.394 67.0151 36.2223C67.0151 38.0505 65.6474 39.6884 63.596 39.6884C61.5825 39.6884 60.2148 38.0886 60.2148 36.2604ZM66.2553 36.2604C66.2553 34.7368 65.1536 33.4799 63.634 33.4799C62.1144 33.4799 61.0126 34.6987 61.0126 36.2223C61.0126 37.7458 62.1144 38.9647 63.634 38.9647C65.1536 38.9647 66.2553 37.7458 66.2553 36.2604Z" fill="#4B5259"/>
<path d="M63.5956 39.8026C61.5821 39.8026 60.0625 38.2791 60.0625 36.2223V36.1842C60.0625 34.1655 61.6201 32.6039 63.5956 32.6039C65.6091 32.6039 67.1287 34.1274 67.1287 36.1842C67.1667 38.241 65.6091 39.8026 63.5956 39.8026ZM63.6336 32.9086C61.81 32.9086 60.3664 34.356 60.3664 36.2223V36.2604C60.3664 38.1267 61.7721 39.536 63.5956 39.536C65.4191 39.536 66.8627 38.0886 66.8627 36.2223C66.8627 34.3179 65.4951 32.9086 63.6336 32.9086ZM63.6336 39.117C62.076 39.117 60.8603 37.8601 60.8603 36.2223C60.8603 34.5464 62.038 33.3276 63.5956 33.3276C65.1532 33.3276 66.3689 34.5845 66.3689 36.2223V36.2604C66.3689 37.8982 65.1912 39.117 63.6336 39.117ZM63.5956 33.5942C62.1899 33.5942 61.1262 34.6988 61.1262 36.1842C61.1262 37.7078 62.1899 38.8123 63.5956 38.8123C65.0012 38.8123 66.0649 37.7078 66.0649 36.2223V36.1842C66.1029 34.7368 65.0392 33.5942 63.5956 33.5942Z" fill="#4B5259"/>
<path d="M67.6602 32.8705H68.4959L70.8513 38.6219L73.2447 32.8705H74.0425L71.1932 39.6122H70.5094L67.6602 32.8705Z" fill="#4B5259"/>
<path d="M71.2687 39.7645H70.4329L67.4316 32.7562H68.5713L70.8508 38.2791L73.1302 32.7562H74.2319L71.2687 39.7645ZM70.6228 39.4598H71.1167L73.852 33.0228H73.3201L70.8508 39.0028L68.3814 33.0228H67.8495L70.6228 39.4598Z" fill="#4B5259"/>
<path d="M75.3739 32.8705H80.1607V33.5561H76.0957V35.8414H79.7428V36.527H76.0957V38.8504H80.1987V39.536H75.3359V32.8705H75.3739Z" fill="#4B5259"/>
<path d="M80.3494 39.6884H75.2207V32.7562H80.3114V33.7465H76.2464V35.7271H79.8935V36.7174H76.2464V38.7742H80.3494V39.6884V39.6884ZM75.4866 39.4217H80.0455V39.0028H75.9805V36.3746H79.6276V35.9557H75.9805V33.4037H80.0455V32.9848H75.5246V39.4217H75.4866Z" fill="#4B5259"/>
<path d="M81.2988 38.5838L81.7547 38.0125C82.4385 38.66 83.1224 38.9647 84.0341 38.9647C84.9459 38.9647 85.5157 38.4695 85.5157 37.822V37.7839C85.5157 37.1745 85.1738 36.7936 83.7682 36.527C82.2486 36.1842 81.5268 35.6891 81.5268 34.5845V34.5464C81.5268 33.4799 82.4385 32.7181 83.7302 32.7181C84.7179 32.7181 85.4018 32.9848 86.0856 33.5561L85.6297 34.1274C85.0219 33.6323 84.376 33.4037 83.6922 33.4037C82.8184 33.4037 82.2866 33.8989 82.2866 34.4702C82.2866 35.1177 82.6285 35.4605 84.1101 35.7652C85.5917 36.108 86.2756 36.6413 86.2756 37.6697C86.2756 38.8123 85.3258 39.5741 83.9961 39.5741C82.9704 39.6503 82.0966 39.3075 81.2988 38.5838Z" fill="#4B5259"/>
<path d="M84.0346 39.8026C82.9709 39.8026 82.0591 39.4598 81.2233 38.6981L81.1094 38.6219L81.7552 37.8601L81.8692 37.9744C82.591 38.6219 83.1988 38.8885 84.0726 38.8885C84.8704 38.8885 85.4023 38.5076 85.4023 37.8982C85.4023 37.365 85.1363 37.0222 83.7687 36.7555C82.3631 36.4508 81.4133 35.9938 81.4133 34.6987C81.4133 33.5561 82.401 32.7181 83.7307 32.7181C84.6805 32.7181 85.4023 32.9848 86.1621 33.5561L86.276 33.6323L85.6682 34.4321L85.5542 34.356C84.9844 33.8989 84.3765 33.6704 83.7307 33.6704C82.9709 33.6704 82.439 34.0512 82.439 34.6226C82.439 35.1558 82.705 35.4986 84.1486 35.8033C85.7442 36.1461 86.428 36.7555 86.428 37.822C86.428 38.9647 85.4403 39.8026 84.0346 39.8026ZM81.4893 38.5838C82.2491 39.2313 83.0469 39.536 83.9966 39.536C85.2883 39.536 86.1241 38.8504 86.1241 37.7839C86.1241 36.8317 85.5162 36.3366 84.0726 36.0319C82.629 35.7271 82.1351 35.3463 82.1351 34.5845C82.1351 33.8608 82.7809 33.3276 83.6927 33.3276C84.3765 33.3276 84.9844 33.5561 85.5922 33.9751L85.8581 33.6323C85.2123 33.1371 84.5665 32.9467 83.7307 32.9467C82.553 32.9467 81.6792 33.6704 81.6792 34.6226C81.6792 35.6129 82.2491 36.108 83.8067 36.4127C85.1743 36.7174 85.6682 37.0602 85.6682 37.822C85.6682 38.5838 84.9844 39.117 84.0346 39.117C83.1608 39.117 82.477 38.8504 81.7552 38.241L81.4893 38.5838Z" fill="#4B5259"/>
<path d="M90.6836 32.8705H91.4054L95.5843 38.2029V32.8705H96.3062V39.536H95.6983L91.4054 34.0512V39.536H90.6836V32.8705Z" fill="#4B5259"/>
<path d="M96.4577 39.6884H95.6599L95.6219 39.6503L91.557 34.5083V39.7264H90.5312V32.7562H91.443L95.432 37.822V32.7562H96.4577V39.6884ZM95.7739 39.4217H96.1538V33.0228H95.7359V38.66L91.329 33.0228H90.8352V39.4217H91.2911V33.6704L95.7739 39.4217Z" fill="#4B5259"/>
<path d="M98.2051 32.8705H103.03V33.5561H98.9649V35.8414H102.612V36.527H98.9649V38.8504H103.068V39.536H98.2051V32.8705Z" fill="#4B5259"/>
<path d="M103.181 39.6884H98.0527V32.7562H103.143V33.7465H99.0785V35.7271H102.726V36.7174H99.0785V38.7742H103.181V39.6884ZM98.3187 39.4217H102.877V39.0028H98.7745V36.3746H102.422V35.9557H98.7745V33.4037H102.84V32.9848H98.3187V39.4217Z" fill="#4B5259"/>
<path d="M106.335 33.5942H104.094V32.9086H109.336V33.5942H107.095V39.5741H106.335V33.5942V33.5942Z" fill="#4B5259"/>
<path d="M107.247 39.6884H106.183V33.7084H103.941V32.7562H109.45V33.7465H107.209V39.6884H107.247ZM106.487 39.4217H106.981V33.4418H109.222V33.0228H104.283V33.4418H106.525V39.4217H106.487Z" fill="#4B5259"/>
<path d="M110.209 32.8705H111.045L112.944 38.4314L114.768 32.8705H115.376L117.199 38.4314L119.099 32.8705H119.896L117.503 39.6122H116.857L115.034 34.2036L113.21 39.6122H112.564L110.209 32.8705Z" fill="#4B5259"/>
<path d="M117.618 39.7645H116.782L115.072 34.6607L113.325 39.7645H112.489L110.02 32.7562H111.159L112.945 38.0125L114.654 32.7562H115.49L117.2 38.0125L118.985 32.7562H120.087L117.618 39.7645ZM117.01 39.4598H117.428L119.707 33.0228H119.213L117.2 38.8885L115.262 32.9848H114.844L112.907 38.8885L110.931 33.0228H110.399L112.679 39.4598H113.097L115.034 33.7465L117.01 39.4598Z" fill="#4B5259"/>
<path d="M120.621 36.2604C120.621 34.394 121.989 32.7943 124.04 32.7943C126.054 32.7943 127.421 34.394 127.421 36.2223C127.421 38.0505 126.054 39.6884 124.002 39.6884C121.989 39.6884 120.621 38.0886 120.621 36.2604ZM126.662 36.2604C126.662 34.7368 125.56 33.4799 124.04 33.4799C122.521 33.4799 121.419 34.6987 121.419 36.2223C121.419 37.7458 122.521 38.9647 124.04 38.9647C125.56 38.9647 126.662 37.7458 126.662 36.2604Z" fill="#4B5259"/>
<path d="M124.039 39.8026C122.025 39.8026 120.506 38.2791 120.506 36.2223V36.1842C120.506 34.1655 122.063 32.6039 124.039 32.6039C126.052 32.6039 127.572 34.1274 127.572 36.1842C127.572 38.241 126.014 39.8026 124.039 39.8026ZM124.039 32.9086C122.215 32.9086 120.772 34.356 120.772 36.2223V36.2604C120.772 38.1267 122.177 39.536 124.001 39.536C125.824 39.536 127.268 38.0886 127.268 36.2223C127.268 34.3179 125.9 32.9086 124.039 32.9086ZM124.039 39.117C122.481 39.117 121.266 37.8601 121.266 36.2223C121.266 34.5464 122.443 33.3276 124.001 33.3276C125.559 33.3276 126.774 34.5845 126.774 36.2223V36.2604C126.774 37.8982 125.597 39.117 124.039 39.117ZM124.039 33.5942C122.633 33.5942 121.57 34.6988 121.57 36.1842C121.57 37.7078 122.633 38.8123 124.039 38.8123C125.445 38.8123 126.508 37.7078 126.508 36.2223V36.1842C126.508 34.7368 125.445 33.5942 124.039 33.5942Z" fill="#4B5259"/>
<path d="M129.016 32.8705H131.865C132.701 32.8705 133.346 33.1371 133.764 33.5561C134.106 33.8989 134.296 34.3559 134.296 34.8892V34.9273C134.296 36.0318 133.536 36.6794 132.473 36.8698L134.524 39.6122H133.612L131.675 37.0221H129.775V39.6122H129.016V32.8705V32.8705ZM131.827 36.2985C132.815 36.2985 133.536 35.7652 133.536 34.9273C133.536 34.0893 132.891 33.5942 131.827 33.5942H129.775V36.2985H131.827Z" fill="#4B5259"/>
<path d="M134.827 39.6884H133.535L131.598 37.0983H129.926V39.6884H128.9V32.7562H131.902C132.737 32.7562 133.421 33.0228 133.877 33.4799C134.219 33.8227 134.447 34.3559 134.447 34.8892C134.447 35.9176 133.801 36.6794 132.737 36.946L134.827 39.6884ZM133.687 39.4217H134.257L132.244 36.7555L132.471 36.7174C133.535 36.527 134.181 35.8795 134.181 34.9273C134.181 34.4321 134.029 34.0132 133.725 33.7084C133.307 33.2895 132.699 33.099 131.94 33.099H129.166V39.4979H129.622V36.9079H131.75L133.687 39.4217ZM131.826 36.4508H129.622V33.4418H131.826C132.965 33.4418 133.687 33.9751 133.687 34.8892C133.687 35.8414 132.927 36.4508 131.826 36.4508ZM129.926 36.1461H131.826C132.775 36.1461 133.383 35.651 133.383 34.9273C133.383 34.1655 132.813 33.7465 131.826 33.7465H129.926V36.1461Z" fill="#4B5259"/>
<path d="M135.893 32.8705H136.652V36.8698L140.489 32.8705H141.477L138.628 35.8033L141.591 39.5741H140.641L138.096 36.3366L136.69 37.7839V39.5741H135.931V32.8705H135.893Z" fill="#4B5259"/>
<path d="M141.856 39.6884H140.564L138.057 36.527L136.803 37.822V39.6884H135.777V32.7562H136.803V36.527L140.412 32.7562H141.78L138.779 35.8414L141.856 39.6884ZM140.678 39.4217H141.248L138.361 35.8033L141.058 33.0228H140.488L136.461 37.2126V33.0228H136.005V39.4217H136.461V37.7077L138.019 36.108L140.678 39.4217Z" fill="#4B5259"/>
</g>
<defs>
<clipPath id="clip0">
<rect width="155" height="55" fill="white"/>
</clipPath>
</defs>
</svg>
