<svg width="117" height="42" viewBox="0 0 117 42" fill="none" xmlns="http://www.w3.org/2000/svg">
<path d="M115.663 37.1903C115.663 38.2677 115.315 39.3009 114.694 40.0624C114.074 40.8239 113.232 41.2511 112.355 41.25L4.08118 41.25C2.25377 41.2523 0.770691 39.4349 0.768311 37.1903V4.81505C0.770691 2.56954 2.25308 0.750582 4.08118 0.75H112.354C114.182 0.75 115.663 2.57016 115.663 4.81505L115.663 37.1902L115.663 37.1903Z" fill="black" stroke="white" stroke-opacity="0.2"/>
<path fill-rule="evenodd" clip-rule="evenodd" d="M24.3648 9.37207C24.5081 10.6456 23.992 11.9006 23.2378 12.8231C22.4508 13.7312 21.1918 14.4258 19.9655 14.3364C19.805 13.1109 20.4263 11.8078 21.1219 11.0128C21.908 10.1106 23.2732 9.41933 24.3648 9.37207ZM28.3792 16.7188C28.2423 16.7987 25.9744 18.1225 25.9993 20.8224H25.9993C26.0286 24.0818 28.916 25.1604 28.9506 25.1722C28.9333 25.2482 28.4984 26.7286 27.4154 28.23C26.511 29.5525 25.5635 30.8463 24.0585 30.8691C23.343 30.8852 22.8599 30.6842 22.3564 30.4747C21.8313 30.2562 21.2841 30.0285 20.4281 30.0285C19.5208 30.0285 18.9494 30.2636 18.3984 30.4903C17.9216 30.6864 17.4602 30.8762 16.8097 30.902C15.3763 30.9535 14.2813 29.4909 13.3441 28.1794C11.4706 25.5031 10.0122 20.6375 11.9677 17.3266C12.9152 15.7028 14.6428 14.6571 16.4895 14.6292C17.3028 14.613 18.0827 14.9195 18.7665 15.1882C19.2893 15.3937 19.7559 15.577 20.1381 15.577C20.4738 15.577 20.9273 15.401 21.4559 15.1958C22.2888 14.8725 23.3083 14.4768 24.3467 14.5836C25.0569 14.6039 27.078 14.8579 28.3819 16.7172L28.3792 16.7188Z" fill="white"/>
<path fill-rule="evenodd" clip-rule="evenodd" d="M74.9538 29.8964C75.633 29.2964 75.9747 28.519 75.9747 27.5628C75.9747 26.7872 75.7417 26.1365 75.2731 25.6149C74.808 25.0933 74.0814 24.6393 73.0924 24.2493C72.2864 23.9388 71.729 23.6493 71.4235 23.3834C71.0714 23.0948 70.8945 22.7268 70.8945 22.2837C70.8945 21.882 71.0498 21.5435 71.3562 21.2659C71.7203 20.9553 72.2295 20.7992 72.8784 20.7992C73.6999 20.7992 74.4343 20.9713 75.085 21.3157L75.5466 19.8488C74.8554 19.4935 73.9847 19.3154 72.9397 19.3154C71.7695 19.3154 70.8289 19.61 70.1196 20.1991C69.4102 20.789 69.0547 21.5435 69.0547 22.4652C69.0547 23.8763 70.0609 24.949 72.0716 25.6824C72.8111 25.9483 73.3375 26.2378 73.6559 26.5484C73.9726 26.8598 74.134 27.2421 74.134 27.6987C74.134 28.2085 73.939 28.6169 73.5533 28.9225C73.1684 29.2272 72.629 29.3808 71.9352 29.3808C70.9704 29.3808 70.0842 29.1478 69.2773 28.6802L68.8519 30.18C69.5992 30.6467 70.5899 30.8797 71.8256 30.8797C73.1632 30.8797 74.2065 30.5514 74.9538 29.8964ZM46.3108 30.7141H44.351L43.2775 27.415H39.5461L38.5235 30.7141H36.6155L40.3132 19.4824H42.5966L46.3108 30.7141ZM42.9539 26.0302L41.9831 23.0974C41.8804 22.7978 41.6871 22.0922 41.404 20.9815H41.3695C41.2556 21.4592 41.0735 22.1648 40.8241 23.0974L39.8697 26.0302H42.9539ZM54.6538 29.8298C55.4192 29.0305 55.8015 27.9418 55.8015 26.5644C55.8015 25.3313 55.4744 24.3371 54.8229 23.5801C54.1705 22.8247 53.355 22.4474 52.3782 22.4474C51.1286 22.4474 50.1975 22.931 49.5839 23.8982H49.5494L49.4467 22.6145H47.8287C47.8736 23.5244 47.8969 24.4114 47.8969 25.2765V33.9973H49.7367V29.7479C50.2156 30.5142 51.0044 30.8965 52.1012 30.8965C53.1168 30.8965 53.9686 30.5412 54.6538 29.8298ZM53.9272 26.6301C53.9272 25.8419 53.7459 25.192 53.3818 24.6797C52.984 24.1471 52.4498 23.8804 51.7801 23.8804C51.3262 23.8804 50.9137 24.029 50.5453 24.3218C50.1759 24.6172 49.9343 25.0029 49.8212 25.4806C49.7708 25.6593 49.7421 25.8431 49.7358 26.0284V27.3796C49.7358 27.9678 49.9205 28.4649 50.2898 28.8718C50.6592 29.2769 51.139 29.4803 51.7292 29.4803C52.4222 29.4803 52.9615 29.2178 53.3473 28.6971C53.7339 28.1746 53.9272 27.4859 53.9272 26.6301ZM64.1781 29.8298C64.9436 29.0305 65.3259 27.9418 65.3259 26.5644C65.3259 25.3313 64.9979 24.3371 64.3473 23.5801C63.6932 22.8247 62.8777 22.4474 61.9017 22.4474C60.6513 22.4474 59.7201 22.931 59.1075 23.8982H59.0729L58.9702 22.6145H57.3522C57.3971 23.5244 57.4204 24.4114 57.4204 25.2765V33.9973H59.2602V29.7479C59.7391 30.5142 60.5279 30.8965 61.6247 30.8965C62.6412 30.8965 63.4921 30.5412 64.1781 29.8298ZM63.4507 26.6301C63.4507 25.8419 63.2686 25.192 62.9045 24.6797C62.5066 24.1471 61.9742 23.8804 61.3045 23.8804C60.8506 23.8804 60.4382 24.029 60.0679 24.3218C59.6986 24.6172 59.4578 25.0029 59.3448 25.4806C59.2887 25.7034 59.2585 25.8849 59.2585 26.0284V27.3796C59.2585 27.9678 59.444 28.4649 59.8116 28.8718C60.181 29.276 60.6608 29.4803 61.2528 29.4803C61.9466 29.4803 62.4859 29.2178 62.8708 28.6971C63.2574 28.1746 63.4507 27.4859 63.4507 26.6301ZM82.0732 23.965H80.0453V27.8971C80.0453 28.8972 80.4025 29.396 81.1188 29.396C81.4476 29.396 81.7202 29.369 81.936 29.3124L81.9869 30.6789C81.6245 30.8114 81.1473 30.878 80.5561 30.878C79.8295 30.878 79.2617 30.6611 78.8518 30.2273C78.4436 29.7935 78.2382 29.0668 78.2382 28.0439V23.9616H77.0301V22.6112H78.2382V21.1284L80.0453 20.595V22.6112H82.0732L82.0732 23.965ZM90.1142 29.6635C90.8408 28.8643 91.205 27.8422 91.205 26.5973C91.205 25.3854 90.8537 24.3979 90.1478 23.6333C89.4092 22.845 88.4332 22.45 87.2181 22.45C85.9573 22.45 84.9546 22.8501 84.2099 23.6502C83.4669 24.4494 83.0941 25.4774 83.0941 26.7324C83.0941 27.9317 83.4548 28.9259 84.1762 29.715C84.8976 30.5025 85.865 30.8966 87.0818 30.8966C88.3426 30.8966 89.3539 30.4864 90.1142 29.6635ZM89.2978 26.6387C89.2978 25.8968 89.1338 25.2605 88.805 24.7279C88.4193 24.0848 87.867 23.7632 87.1516 23.7632C86.4147 23.7632 85.8494 24.0848 85.4646 24.7279C85.1349 25.2605 84.9709 25.9078 84.9709 26.6724C84.9709 27.4151 85.1349 28.0532 85.4646 28.5841C85.8624 29.2272 86.4172 29.5487 87.1361 29.5487C87.8394 29.5487 88.3908 29.2204 88.7895 28.568C89.1278 28.0228 89.2978 27.3822 89.2978 26.6387ZM96.6079 24.1472C96.8023 24.1466 96.9964 24.1632 97.1878 24.197L97.1861 22.4804C97.0497 22.4593 96.8961 22.4474 96.7261 22.4474C96.2466 22.4481 95.7802 22.6003 95.3963 22.8812C94.9769 23.2028 94.6714 23.6324 94.4764 24.1649H94.4255L94.3581 22.6154H92.7556C92.793 23.4648 92.8108 24.3149 92.8092 25.1651V30.7134H94.649V26.4639C94.649 25.82 94.8026 25.2866 95.1081 24.8646C95.4602 24.3852 95.9607 24.1472 96.6079 24.1472ZM105.416 26.2808C105.421 26.5544 105.398 26.8277 105.349 27.097H99.8293C99.85 27.8971 100.117 28.5098 100.63 28.9318C101.095 29.3082 101.697 29.4973 102.435 29.4973C103.253 29.4973 103.998 29.3707 104.669 29.1149L104.957 30.3632C104.173 30.6974 103.248 30.8637 102.181 30.8637C100.897 30.8637 99.8888 30.494 99.1553 29.7564C98.4235 29.0179 98.0568 28.0253 98.0568 26.7822C98.0568 25.5618 98.3976 24.5448 99.0802 23.7337C99.7948 22.8678 100.76 22.4348 101.975 22.4348C103.169 22.4348 104.072 22.8678 104.686 23.7337C105.172 24.4198 105.416 25.2706 105.416 26.2808ZM103.304 24.4309C103.554 24.82 103.675 25.2799 103.662 25.8142L99.8302 25.8125C99.8862 25.2698 100.068 24.8022 100.375 24.4132C100.747 23.9237 101.238 23.6798 101.839 23.6798C102.496 23.6798 102.986 23.9296 103.304 24.4309Z" fill="white"/>
<path fill-rule="evenodd" clip-rule="evenodd" d="M61.3469 15.4619H60.4416V9.65527H61.3469V15.4619ZM37.6917 15.4458C38.0601 15.4872 38.5028 15.5117 39.0146 15.5117C41.1831 15.5117 42.3309 14.4803 42.3309 12.5712C42.3309 10.9162 41.3592 9.90087 39.2493 9.90087C38.7278 9.89941 38.207 9.93779 37.6917 10.0156V15.4458ZM38.5952 10.6536C38.7962 10.6131 39.0387 10.5962 39.3235 10.5962C40.6637 10.5962 41.3756 11.3094 41.3756 12.5948C41.3756 14.0363 40.5886 14.806 39.2061 14.806C38.9127 14.806 38.7039 14.7984 38.5952 14.7815V10.6536ZM45.359 15.5521C44.1698 15.5521 43.3992 14.6836 43.3992 13.5046C43.3992 12.2758 44.1862 11.3997 45.4263 11.3997C46.5982 11.3997 47.386 12.2268 47.386 13.4396C47.386 14.6836 46.574 15.5521 45.359 15.5521ZM44.3217 13.4793C44.3217 12.6438 44.7402 12.0462 45.3935 12.0462C46.0295 12.0462 46.448 12.6522 46.448 13.4624C46.448 14.2575 46.0208 14.8964 45.3849 14.8964C44.7489 14.8964 44.3217 14.2988 44.3217 13.4793ZM54.1671 11.4815L52.8943 15.4618H52.065L51.5377 13.7333C51.4066 13.3105 51.2974 12.8815 51.2106 12.4479L51.1934 12.4479C51.1269 12.8817 51.0009 13.3164 50.8672 13.7333L50.3063 15.4618H49.4683L48.2706 11.4815H49.2L49.6608 13.3738C49.7695 13.8244 49.861 14.2498 49.9369 14.6515H49.9542C50.0206 14.3165 50.1294 13.8979 50.289 13.3822L50.8672 11.4824H51.6042L52.1573 13.3417C52.2911 13.7924 52.3998 14.2346 52.4844 14.6524H52.5085C52.5672 14.2431 52.6595 13.8084 52.7847 13.3417L53.2791 11.4824L54.1671 11.4815ZM57.9486 15.4618H58.8529H58.8529L58.8538 13.0784C58.8538 12.0386 58.2929 11.3997 57.4386 11.3997C56.8854 11.3997 56.3918 11.6698 56.1485 12.0951H56.1234L56.0811 11.4807H55.2855C55.3105 11.8901 55.3192 12.2673 55.3192 12.6193V15.4618H56.2235V13.0944C56.2235 12.5703 56.592 12.1196 57.1279 12.1196C57.6724 12.1196 57.9486 12.4724 57.9486 13.1763V15.4618ZM62.6844 13.5046C62.6844 14.6836 63.4559 15.5521 64.6442 15.5521C65.8584 15.5521 66.6713 14.6836 66.6704 13.4396C66.6704 12.2268 65.8834 11.3997 64.7107 11.3997C63.4715 11.3997 62.6844 12.2758 62.6844 13.5046ZM64.6779 12.0462C64.0246 12.0462 63.6061 12.6438 63.6061 13.4793C63.6061 14.2988 64.0341 14.8964 64.6684 14.8964C65.3052 14.8964 65.7315 14.2575 65.7315 13.4624C65.7324 12.6522 65.3147 12.0462 64.6779 12.0462ZM70.1705 15.0035L70.2361 15.4618L71.0516 15.4626C71.0111 15.2255 70.9929 14.9141 70.9929 14.5123V13.0463C70.9929 11.9483 70.4562 11.3997 69.393 11.3997C68.8416 11.3997 68.3721 11.5145 67.9959 11.7441L68.1797 12.3256C68.4895 12.1289 68.8416 12.0302 69.2429 12.0302C69.8038 12.0302 70.0877 12.2926 70.0877 12.8168V12.8902C68.5801 12.8902 67.7094 13.3983 67.7094 14.3807C67.7094 15.0525 68.2272 15.5521 68.9564 15.5521C69.4672 15.5521 69.8702 15.3723 70.1464 15.0035H70.1705ZM70.1119 13.4794C69.1074 13.4794 68.6034 13.7174 68.6034 14.282C68.6034 14.6998 68.8632 14.9041 69.2239 14.9041C69.6839 14.9041 70.1119 14.5606 70.1119 14.0938V13.4794ZM75.3422 14.823L75.3845 15.4619H76.1897C76.1655 15.1344 76.156 14.774 76.156 14.3892V9.65527H75.2507V11.9399H75.2326C75.0152 11.5787 74.6294 11.3989 74.0849 11.3989C73.0563 11.3989 72.3029 12.2758 72.3029 13.5207C72.3029 14.7082 73.0295 15.5522 74.0107 15.5522C74.6208 15.5522 75.0574 15.3057 75.3172 14.823H75.3422ZM75.2507 13.1198C75.2507 12.5628 74.8736 12.0876 74.298 12.0876C73.6275 12.0876 73.2176 12.6691 73.2176 13.4878C73.2176 14.2904 73.6431 14.8398 74.2799 14.8398C74.8486 14.8398 75.2507 14.3562 75.2507 13.7832V13.1198ZM79.9366 13.5046C79.9366 14.6836 80.7072 15.5521 81.8955 15.5521C83.1114 15.5521 83.9234 14.6836 83.9225 13.4396C83.9225 12.2268 83.1355 11.3997 81.9628 11.3997C80.7236 11.3997 79.9366 12.2758 79.9366 13.5046ZM81.9291 12.0462C81.2767 12.0462 80.8582 12.6438 80.8582 13.4793C80.8582 14.2988 81.2853 14.8964 81.9205 14.8964C82.5573 14.8964 82.9836 14.2575 82.9836 13.4624C82.9854 12.6522 82.5668 12.0462 81.9291 12.0462ZM87.8809 15.4619H88.7861V13.0776C88.7861 12.0379 88.2243 11.399 87.37 11.399C86.8177 11.399 86.3233 11.6699 86.0808 12.0952H86.0557L86.0134 11.4808H85.2178C85.2429 11.8902 85.2515 12.2674 85.2515 12.6194V15.4619H86.1567V13.0945C86.1567 12.5704 86.5243 12.1197 87.0602 12.1197C87.6047 12.1197 87.8809 12.4725 87.8809 13.1764V15.4619ZM94.8708 12.1451H93.8758V14.0778C93.8758 14.5699 94.0502 14.8155 94.4022 14.8155C94.5619 14.8155 94.6956 14.7986 94.8035 14.7741L94.8285 15.4459C94.6534 15.5117 94.4186 15.5446 94.1269 15.5446C93.4142 15.5446 92.9879 15.1598 92.9879 14.1521V12.1451H92.3941V11.4817H92.9879V10.7525L93.8758 10.49V11.4809H94.8708V12.1451ZM98.7549 15.4619H99.6585V13.0945C99.6585 12.0539 99.132 11.3989 98.2708 11.3989C97.7445 11.3989 97.332 11.6125 97.0472 12.0463H97.0291V9.65527H96.1256V15.4619H97.0291V13.0624C97.0291 12.432 97.4657 12.1205 97.9343 12.1205C98.4797 12.1205 98.7549 12.4809 98.7549 13.1932V15.4619ZM104.564 13.6844H101.85C101.867 14.4381 102.377 14.8634 103.132 14.8634C103.533 14.8634 103.902 14.7976 104.229 14.6752L104.369 15.2896C103.984 15.4534 103.531 15.5352 103.004 15.5352C101.731 15.5352 100.978 14.7487 100.978 13.5291C100.978 12.3087 101.749 11.3913 102.902 11.3913C103.942 11.3913 104.595 12.145 104.595 13.2835C104.6 13.4179 104.59 13.5524 104.564 13.6844ZM102.839 12.0058C102.32 12.0058 101.909 12.448 101.85 13.054ZM101.85 13.054H103.734Z" fill="white"/>
</svg>
