<svg width="133" height="49" viewBox="0 0 133 49" fill="none" xmlns="http://www.w3.org/2000/svg">
<path d="M131.65 43.3977C131.65 44.6513 131.253 45.8535 130.546 46.7394C129.84 47.6254 128.882 48.1225 127.884 48.1211L4.6455 48.1212C2.56553 48.1239 0.877465 46.0093 0.874756 43.3977V5.72963C0.877465 3.11701 2.56473 1.00068 4.6455 1H127.883C129.963 1 131.649 3.11773 131.649 5.72963L131.65 43.3977L131.65 43.3977Z" fill="black" stroke="white" stroke-opacity="0.5"/>
<path fill-rule="evenodd" clip-rule="evenodd" d="M27.7333 11.0322C27.8963 12.514 27.3089 13.9742 26.4505 15.0475C25.5547 16.1041 24.1216 16.9122 22.7259 16.8081C22.5432 15.3823 23.2504 13.8662 24.0421 12.9412C24.9369 11.8914 26.4907 11.0872 27.7333 11.0322ZM32.3019 19.5801C32.1461 19.673 29.5648 21.2132 29.5931 24.3545C29.6265 28.1468 32.913 29.4017 32.9523 29.4155C32.9326 29.5039 32.4376 31.2262 31.2049 32.9731C30.1755 34.5119 29.097 36.0172 27.3841 36.0437C26.5697 36.0625 26.0198 35.8286 25.4468 35.5848C24.8491 35.3306 24.2262 35.0657 23.2518 35.0657C22.2192 35.0657 21.5688 35.3392 20.9417 35.6029C20.399 35.8311 19.8738 36.052 19.1334 36.082C17.5019 36.1419 16.2555 34.4402 15.1888 32.9142C13.0564 29.8004 11.3964 24.1394 13.6222 20.2872C14.7006 18.3979 16.667 17.1812 18.769 17.1488C19.6946 17.1299 20.5824 17.4865 21.3606 17.7992C21.9557 18.0382 22.4868 18.2516 22.9218 18.2516C23.3039 18.2516 23.8201 18.0468 24.4217 17.808C25.3698 17.4318 26.5301 16.9715 27.7121 17.0958C28.5205 17.1194 30.8208 17.4149 32.305 19.5782L32.3019 19.5801Z" fill="white"/>
<path fill-rule="evenodd" clip-rule="evenodd" d="M85.3128 34.9114C86.0858 34.2133 86.4748 33.3089 86.4748 32.1963C86.4748 31.2939 86.2096 30.5368 85.6762 29.9299C85.1468 29.3231 84.3198 28.7948 83.1941 28.3411C82.2768 27.9798 81.6422 27.643 81.2945 27.3336C80.8938 26.9978 80.6925 26.5697 80.6925 26.0541C80.6925 25.5867 80.8692 25.1929 81.2179 24.8699C81.6324 24.5085 82.2119 24.3269 82.9506 24.3269C83.8856 24.3269 84.7215 24.5272 85.4621 24.9278L85.9876 23.2212C85.2008 22.8078 84.2098 22.6006 83.0203 22.6006C81.6884 22.6006 80.6178 22.9433 79.8104 23.6287C79.003 24.3151 78.5984 25.1929 78.5984 26.2653C78.5984 27.9071 79.7436 29.1552 82.0322 30.0085C82.8739 30.3178 83.4731 30.6546 83.8355 31.016C84.196 31.3783 84.3797 31.8232 84.3797 32.3544C84.3797 32.9475 84.1577 33.4228 83.7187 33.7782C83.2806 34.1327 82.6667 34.3114 81.877 34.3114C80.7789 34.3114 79.7701 34.0404 78.8518 33.4964L78.3675 35.2414C79.2181 35.7844 80.3457 36.0554 81.7523 36.0554C83.2747 36.0554 84.4622 35.6734 85.3128 34.9114ZM52.7111 35.8628H50.4804L49.2585 32.0243H45.0114L43.8475 35.8628H41.6758L45.8846 22.7948H48.4836L52.7111 35.8628ZM48.8899 30.413L47.7849 27.0007C47.668 26.6522 47.448 25.8312 47.1258 24.539H47.0865C46.9568 25.0947 46.7496 25.9157 46.4657 27.0007L45.3794 30.413H48.8899ZM62.2068 34.8338C63.0781 33.9039 63.5132 32.6372 63.5132 31.0346C63.5132 29.6 63.1409 28.4432 62.3993 27.5624C61.6568 26.6835 60.7286 26.2446 59.6167 26.2446C58.1945 26.2446 57.1346 26.8073 56.4363 27.9326H56.397L56.2801 26.439H54.4384C54.4895 27.4976 54.516 28.5296 54.516 29.5361V39.6827H56.6101V34.7386C57.1553 35.6302 58.053 36.075 59.3014 36.075C60.4575 36.075 61.4269 35.6616 62.2068 34.8338ZM61.3799 31.111C61.3799 30.1939 61.1736 29.4378 60.7591 28.8417C60.3063 28.2221 59.6983 27.9118 58.9361 27.9118C58.4195 27.9118 57.95 28.0846 57.5306 28.4253C57.1102 28.769 56.8352 29.2178 56.7065 29.7736C56.649 29.9814 56.6164 30.1954 56.6092 30.4109V31.983C56.6092 32.6674 56.8194 33.2458 57.2398 33.7191C57.6602 34.1904 58.2063 34.4271 58.8782 34.4271C59.6669 34.4271 60.2808 34.1217 60.7199 33.5158C61.1599 32.908 61.3799 32.1067 61.3799 31.111ZM73.0475 34.8338C73.9187 33.9039 74.3538 32.6372 74.3538 31.0346C74.3538 29.6 73.9806 28.4432 73.24 27.5624C72.4955 26.6835 71.5673 26.2446 70.4564 26.2446C69.0331 26.2446 67.9733 26.8073 67.276 27.9326H67.2367L67.1198 26.439H65.2781C65.3292 27.4976 65.3557 28.5296 65.3557 29.5361V39.6827H67.4498V34.7386C67.9949 35.6302 68.8927 36.075 70.1411 36.075C71.2982 36.075 72.2666 35.6616 73.0475 34.8338ZM72.2194 31.111C72.2194 30.1939 72.0122 29.4378 71.5977 28.8417C71.1449 28.2221 70.5389 27.9118 69.7767 27.9118C69.26 27.9118 68.7905 28.0846 68.3691 28.4253C67.9488 28.769 67.6747 29.2178 67.5461 29.7736C67.4822 30.0328 67.4478 30.2439 67.4478 30.4109V31.983C67.4478 32.6674 67.659 33.2458 68.0774 33.7191C68.4978 34.1895 69.0439 34.4271 69.7177 34.4271C70.5074 34.4271 71.1213 34.1217 71.5594 33.5158C71.9994 32.908 72.2194 32.1067 72.2194 31.111ZM93.4167 28.0102H91.1085V32.5851C91.1085 33.7487 91.5152 34.3291 92.3304 34.3291C92.7046 34.3291 93.015 34.2977 93.2605 34.2319L93.3185 35.8217C92.906 35.9758 92.3628 36.0534 91.69 36.0534C90.863 36.0534 90.2167 35.801 89.7501 35.2963C89.2855 34.7916 89.0517 33.9461 89.0517 32.756V28.0062H87.6766V26.4351H89.0517V24.7098L91.1085 24.0892V26.4351H93.4168L93.4167 28.0102ZM102.568 34.6404C103.396 33.7104 103.81 32.5213 103.81 31.0729C103.81 29.6628 103.41 28.5139 102.607 27.6242C101.766 26.7071 100.655 26.2475 99.2722 26.2475C97.8371 26.2475 96.6958 26.713 95.8482 27.6439C95.0025 28.5738 94.5782 29.7698 94.5782 31.23C94.5782 32.6254 94.9887 33.7821 95.8098 34.7002C96.631 35.6164 97.7321 36.075 99.117 36.075C100.552 36.075 101.703 35.5978 102.568 34.6404ZM101.639 31.121C101.639 30.2579 101.453 29.5175 101.079 28.8979C100.639 28.1496 100.011 27.7755 99.1966 27.7755C98.3578 27.7755 97.7144 28.1496 97.2764 28.8979C96.9012 29.5175 96.7145 30.2706 96.7145 31.1603C96.7145 32.0244 96.9012 32.7668 97.2764 33.3844C97.7292 34.1327 98.3607 34.5068 99.1789 34.5068C99.9794 34.5068 100.607 34.1248 101.061 33.3658C101.446 32.7314 101.639 31.9861 101.639 31.121ZM109.96 28.2223C110.182 28.2215 110.403 28.2409 110.62 28.2802L110.618 26.2829C110.463 26.2584 110.288 26.2446 110.095 26.2446C109.549 26.2454 109.018 26.4224 108.581 26.7493C108.104 27.1235 107.756 27.6233 107.534 28.2429H107.476L107.4 26.44H105.576C105.618 27.4283 105.638 28.4174 105.637 29.4065V35.8619H107.731V30.9178C107.731 30.1685 107.906 29.5479 108.253 29.0569C108.654 28.4992 109.224 28.2223 109.96 28.2223ZM119.985 30.7047C119.991 31.0229 119.965 31.3409 119.909 31.6542H113.627C113.65 32.5851 113.955 33.298 114.538 33.789C115.068 34.227 115.752 34.4469 116.593 34.4469C117.523 34.4469 118.372 34.2996 119.135 34.0021L119.463 35.4544C118.571 35.8433 117.518 36.0367 116.303 36.0367C114.842 36.0367 113.694 35.6066 112.859 34.7484C112.027 33.8892 111.609 32.7344 111.609 31.288C111.609 29.868 111.997 28.6848 112.774 27.7411C113.587 26.7336 114.686 26.2299 116.069 26.2299C117.428 26.2299 118.456 26.7336 119.155 27.7411C119.708 28.5394 119.985 29.5293 119.985 30.7047ZM117.582 28.5523C117.866 29.005 118.003 29.5401 117.989 30.1617L113.628 30.1598C113.691 29.5284 113.899 28.9843 114.247 28.5317C114.672 27.9621 115.23 27.6784 115.914 27.6784C116.662 27.6784 117.22 27.969 117.582 28.5523Z" fill="white"/>
<path fill-rule="evenodd" clip-rule="evenodd" d="M69.8258 18.1172H68.7954V11.3613H69.8258V18.1172ZM42.9011 18.0987C43.3205 18.1468 43.8244 18.1753 44.4069 18.1753C46.8752 18.1753 48.1816 16.9753 48.1816 14.7541C48.1816 12.8285 47.0756 11.6472 44.674 11.6472C44.0805 11.6455 43.4877 11.6901 42.9011 11.7807V18.0987ZM43.9293 12.523C44.1582 12.4758 44.4341 12.4562 44.7583 12.4562C46.2837 12.4562 47.094 13.2859 47.094 14.7815C47.094 16.4587 46.1982 17.3542 44.6247 17.3542C44.2907 17.3542 44.0531 17.3454 43.9293 17.3257V12.523ZM51.6287 18.2222C50.2752 18.2222 49.398 17.2118 49.398 15.84C49.398 14.4103 50.2938 13.391 51.7053 13.391C53.0391 13.391 53.9359 14.3533 53.9359 15.7644C53.9359 17.2118 53.0116 18.2222 51.6287 18.2222ZM50.4473 15.8106C50.4473 14.8384 50.9237 14.1432 51.6673 14.1432C52.3911 14.1432 52.8675 14.8483 52.8675 15.791C52.8675 16.716 52.3813 17.4593 51.6574 17.4593C50.9335 17.4593 50.4473 16.7641 50.4473 15.8106ZM61.6539 13.4863L60.2051 18.1172H59.2612L58.6611 16.1062C58.5118 15.6143 58.3876 15.1151 58.2888 14.6107L58.2691 14.6107C58.1935 15.1154 58.0501 15.6211 57.8979 16.1062L57.2594 18.1172H56.3057L54.9424 13.4863H56.0002L56.5247 15.6879C56.6485 16.2122 56.7526 16.7071 56.839 17.1745H56.8587C56.9343 16.7847 57.0581 16.2977 57.2398 15.6977L57.8979 13.4873H58.7367L59.3663 15.6505C59.5185 16.1749 59.6423 16.6895 59.7386 17.1755H59.766C59.8329 16.6993 59.9379 16.1936 60.0804 15.6505L60.6432 13.4873L61.6539 13.4863ZM65.9576 18.1172H66.987H66.987L66.988 15.3441C66.988 14.1343 66.3496 13.391 65.3772 13.391C64.7475 13.391 64.1857 13.7052 63.9088 14.2001H63.8803L63.8321 13.4853H62.9265C62.955 13.9615 62.9648 14.4004 62.9648 14.8099V18.1172H63.9942V15.3628C63.9942 14.753 64.4136 14.2286 65.0236 14.2286C65.6434 14.2286 65.9576 14.6391 65.9576 15.458V18.1172ZM71.3486 15.84C71.3486 17.2118 72.2268 18.2222 73.5792 18.2222C74.9613 18.2222 75.8865 17.2118 75.8855 15.7644C75.8855 14.3533 74.9897 13.391 73.6549 13.391C72.2444 13.391 71.3486 14.4103 71.3486 15.84ZM73.6167 14.1432C72.8732 14.1432 72.3968 14.8384 72.3968 15.8106C72.3968 16.7641 72.884 17.4593 73.6059 17.4593C74.3308 17.4593 74.816 16.716 74.816 15.791C74.817 14.8483 74.3416 14.1432 73.6167 14.1432ZM79.8688 17.584L79.9434 18.1172L80.8716 18.1182C80.8255 17.8422 80.8048 17.4799 80.8048 17.0125V15.3068C80.8048 14.0293 80.1939 13.391 78.9838 13.391C78.3562 13.391 77.8218 13.5245 77.3936 13.7916L77.6028 14.4682C77.9554 14.2394 78.3562 14.1245 78.8129 14.1245C79.4513 14.1245 79.7745 14.4299 79.7745 15.0397V15.1251C78.0585 15.1251 77.0675 15.7163 77.0675 16.8593C77.0675 17.6409 77.6568 18.2222 78.4868 18.2222C79.0683 18.2222 79.527 18.0131 79.8413 17.584H79.8688ZM79.8026 15.8107C78.6592 15.8107 78.0856 16.0876 78.0856 16.7445C78.0856 17.2306 78.3813 17.4682 78.7919 17.4682C79.3154 17.4682 79.8026 17.0686 79.8026 16.5255V15.8107ZM85.7555 17.3739L85.8037 18.1172H86.7201C86.6926 17.7362 86.6818 17.3169 86.6818 16.8691V11.3613H85.6514V14.0195H85.6308C85.3833 13.5992 84.9442 13.3901 84.3244 13.3901C83.1536 13.3901 82.2961 14.4103 82.2961 15.8587C82.2961 17.2403 83.1232 18.2223 84.2399 18.2223C84.9344 18.2223 85.4314 17.9356 85.727 17.3739H85.7555ZM85.6517 15.3924C85.6517 14.7443 85.2225 14.1914 84.5674 14.1914C83.8042 14.1914 83.3376 14.868 83.3376 15.8205C83.3376 16.7544 83.8219 17.3936 84.5467 17.3936C85.194 17.3936 85.6517 16.8309 85.6517 16.1642V15.3924ZM90.985 15.84C90.985 17.2118 91.8621 18.2222 93.2146 18.2222C94.5985 18.2222 95.5228 17.2118 95.5218 15.7644C95.5218 14.3533 94.6261 13.391 93.2912 13.391C91.8807 13.391 90.985 14.4103 90.985 15.84ZM93.2532 14.1432C92.5106 14.1432 92.0343 14.8384 92.0343 15.8106C92.0343 16.7641 92.5205 17.4593 93.2434 17.4593C93.9683 17.4593 94.4535 16.716 94.4535 15.791C94.4555 14.8483 93.9791 14.1432 93.2532 14.1432ZM100.027 18.1173H101.058V15.3433C101.058 14.1335 100.418 13.3902 99.4458 13.3902C98.8172 13.3902 98.2544 13.7054 97.9784 14.2003H97.9499L97.9018 13.4854H96.9962C97.0247 13.9617 97.0345 14.4006 97.0345 14.8101V18.1173H98.0648V15.3629C98.0648 14.7531 98.4832 14.2287 99.0932 14.2287C99.713 14.2287 100.027 14.6392 100.027 15.4582V18.1173ZM107.983 14.2583H106.85V16.507C106.85 17.0795 107.049 17.3652 107.449 17.3652C107.631 17.3652 107.783 17.3456 107.906 17.3171L107.935 18.0987C107.735 18.1753 107.468 18.2136 107.136 18.2136C106.325 18.2136 105.84 17.7659 105.84 16.5934V14.2583H105.164V13.4865H105.84V12.6381L106.85 12.3327V13.4855H107.983V14.2583ZM112.404 18.1172H113.432V15.3628C113.432 14.1521 112.833 13.3901 111.853 13.3901C111.254 13.3901 110.784 13.6385 110.46 14.1432H110.439V11.3613H109.411V18.1172H110.439V15.3255C110.439 14.592 110.936 14.2296 111.47 14.2296C112.09 14.2296 112.404 14.6489 112.404 15.4777V18.1172ZM119.015 16.0493H115.926C115.946 16.9261 116.526 17.421 117.386 17.421C117.842 17.421 118.263 17.3445 118.634 17.2021L118.794 17.9169C118.356 18.1074 117.84 18.2027 117.24 18.2027C115.792 18.2027 114.934 17.2875 114.934 15.8686C114.934 14.4487 115.812 13.3813 117.124 13.3813C118.308 13.3813 119.051 14.2582 119.051 15.5828C119.057 15.7391 119.045 15.8957 119.015 16.0493ZM117.053 14.0961C116.462 14.0961 115.995 14.6107 115.928 15.3157ZM115.928 15.3157H118.072Z" fill="white"/>
</svg>
