<svg width="208" height="74" viewBox="0 0 208 74" fill="none" xmlns="http://www.w3.org/2000/svg">
<g clip-path="url(#clip0)">
<path d="M161.76 28.2881C161.76 29.1593 161.25 29.723 159.976 30.8504L156.713 33.5665L156.662 27.1607L158.191 28.3906C158.956 27.4169 159.517 26.9557 160.332 26.9557C161.148 26.9044 161.76 27.4169 161.76 28.2881ZM138.36 38.3324L138.258 15.5277L147.281 29.1593L163.595 3.94598H163.289L156.713 3.99723H155.999L147.536 17.8338L138.921 4.04848L131.223 4.09972L131.376 38.3324H138.36ZM163.901 35.5139L156.713 35.5651V38.3324H163.901V35.5139ZM185.517 0H185.466L178.43 0.0512465L178.532 23.9321L164.666 5.84211L156.56 18.3463L156.611 26.9557C157.631 25.6233 158.599 24.9058 160.434 24.8546C162.066 24.8546 163.289 25.572 163.799 26.7507L163.748 15.8352L180.47 38.2299L185.67 38.1787L185.517 7.99446C194.693 13.4778 200.862 23.5222 200.913 35.0526C201.015 52.5277 186.944 66.7742 169.56 66.8767C161.556 66.928 154.215 63.9557 148.658 59.036H139.023C146.109 68.1579 157.223 74.0512 169.611 74C190.87 73.8975 208.101 56.4224 207.999 35.0526C207.897 19.5249 198.67 6.14959 185.517 0ZM163.901 33.5152V29.518C163.544 30.4917 162.729 31.2091 161.403 32.2341L159.721 33.5665L163.901 33.5152Z" fill="#416FF4"/>
<path d="M0.205078 44.2256H1.22469L4.48743 49.1453L7.75018 44.2256H8.76979V53.1937H7.75018V45.968L4.48743 50.7851H4.43645L1.17371 45.968V53.245H0.205078V44.2256Z" fill="white"/>
<path d="M8.92157 53.3991H7.5451V46.5833L4.58824 50.9393H4.33333L1.37647 46.5833V53.3991H0V44.0723H1.32549L4.48628 48.8382L7.64706 44.0723H8.97255V53.3991H8.92157ZM7.95294 53.0404H8.56471V44.431H7.85098L4.48628 49.5044L1.12157 44.431H0.407843V53.0404H1.01961V45.3534L4.48628 50.4781L7.95294 45.3534V53.0404V53.0404Z" fill="white"/>
<path d="M11.3691 44.2256H12.3887V53.1937H11.3691V44.2256Z" fill="white"/>
<path d="M12.5405 53.3991H11.1641V44.0723H12.5405V53.3991ZM11.5719 53.0404H12.1837V44.431H11.5719V53.0404Z" fill="white"/>
<path d="M14.9902 44.2256H15.9589L21.5667 51.4001V44.2256H22.5353V53.1937H21.7196L15.9589 45.8655V53.245H14.9902V44.2256V44.2256Z" fill="white"/>
<path d="M22.7381 53.3991H21.6675L16.1616 46.4296V53.4504H14.7852V44.0723H16.0087L21.3616 50.8881V44.0723H22.7381V53.3991ZM21.8204 53.0404H22.3303V44.431H21.7185V52.0155L15.8557 44.431H15.193V53.0404H15.8048V45.3022L21.8204 53.0404Z" fill="white"/>
<path d="M24.6758 48.7865C24.6758 46.2754 26.5111 44.123 29.264 44.123C31.966 44.123 33.8013 46.2754 33.8013 48.7352C33.8013 51.1951 31.966 53.3987 29.213 53.3987C26.4601 53.3987 24.6758 51.2463 24.6758 48.7865ZM32.7307 48.7865C32.7307 46.7366 31.2523 45.0455 29.213 45.0455C27.1738 45.0455 25.6954 46.6854 25.6954 48.7352C25.6954 50.7851 27.1738 52.425 29.213 52.425C31.3032 52.425 32.7307 50.7851 32.7307 48.7865Z" fill="white"/>
<path d="M29.2119 53.5528C26.5099 53.5528 24.4707 51.5029 24.4707 48.7356V48.6844C24.4707 45.9683 26.5609 43.8672 29.2119 43.8672C31.9138 43.8672 33.9531 45.917 33.9531 48.6844C34.004 51.4517 31.9138 53.5528 29.2119 53.5528ZM29.2629 44.2772C26.8158 44.2772 24.8785 46.2245 24.8785 48.7356V48.7869C24.8785 51.2979 26.7648 53.1941 29.2119 53.1941C31.6589 53.1941 33.5962 51.2467 33.5962 48.7356C33.5962 46.1733 31.7609 44.2772 29.2629 44.2772ZM29.2629 52.6303C27.1727 52.6303 25.5413 50.9392 25.5413 48.7356C25.5413 46.4808 27.1217 44.8409 29.2119 44.8409C31.3021 44.8409 32.9335 46.532 32.9335 48.7356V48.7869C32.9335 50.9905 31.3531 52.6303 29.2629 52.6303ZM29.2119 45.1996C27.3256 45.1996 25.8982 46.6857 25.8982 48.6844C25.8982 50.7342 27.3256 52.2204 29.2119 52.2204C31.0982 52.2204 32.5256 50.7342 32.5256 48.7356V48.6844C32.5766 46.737 31.1491 45.1996 29.2119 45.1996Z" fill="white"/>
<path d="M35.9414 44.2256H39.7649C40.8865 44.2256 41.7532 44.5843 42.314 45.148C42.7728 45.6092 43.0277 46.2242 43.0277 46.9417V46.9929C43.0277 48.479 42.0081 49.3502 40.5806 49.6065L43.3336 53.2962H42.11L39.51 49.8115H36.961V53.2962H35.9414V44.2256V44.2256ZM39.663 48.8378C40.9885 48.8378 41.9571 48.1203 41.9571 46.9929C41.9571 45.8655 41.0904 45.1993 39.663 45.1993H36.91V48.8378H39.663Z" fill="white"/>
<path d="M43.6893 53.3991H41.9559L39.3559 49.9144H37.1128V53.3991H35.7363V44.0723H39.7638C40.8853 44.0723 41.803 44.431 42.4148 45.046C42.8736 45.5072 43.1795 46.2246 43.1795 46.9421C43.1795 48.3257 42.3128 49.3507 40.8853 49.7094L43.6893 53.3991ZM42.1599 53.0404H42.9246L40.2226 49.4532L40.5285 49.4019C41.9559 49.1457 42.8226 48.2745 42.8226 46.9933C42.8226 46.3271 42.6187 45.7634 42.2108 45.3534C41.6501 44.7897 40.8344 44.5335 39.8148 44.5335H36.1442V53.1429H36.7559V49.6581H39.6108L42.1599 53.0404ZM39.6618 49.0432H36.705V44.9947H39.6618C41.1912 44.9947 42.1599 45.7122 42.1599 46.9421C42.1599 48.2232 41.1912 49.0432 39.6618 49.0432ZM37.1128 48.6332H39.6618C40.9363 48.6332 41.752 47.967 41.752 46.9933C41.752 45.9684 40.9873 45.4047 39.6618 45.4047H37.1128V48.6332Z" fill="white"/>
<path d="M45.2715 44.2256H46.2911V53.1937H45.2715V44.2256Z" fill="white"/>
<path d="M46.4429 53.3991H45.0664V44.0723H46.4429V53.3991ZM45.4233 53.0404H46.035V44.431H45.4233V53.0404Z" fill="white"/>
<path d="M51.2364 45.1998H48.2285V44.2773H55.2638V45.1998H52.256V53.2455H51.2364V45.1998V45.1998Z" fill="white"/>
<path d="M52.4587 53.3991H51.0313V45.3534H48.0234V44.0723H55.4156V45.4047H52.4078V53.3991H52.4587ZM51.4391 53.0404H52.1019V44.9947H55.1097V44.431H48.4313V44.9947H51.4391V53.0404Z" fill="white"/>
<path d="M59.954 49.6577L56.2324 44.2256H57.456L60.4638 48.7353L63.5226 44.2256H64.6952L60.9736 49.6577V53.245H59.954V49.6577V49.6577Z" fill="white"/>
<path d="M61.177 53.3991H59.7495V49.7094L55.875 44.0723H57.5574L60.4632 48.4282L63.4201 44.0723H65.0515L61.177 49.7094V53.3991ZM60.1574 53.0404H60.8201V49.6069L64.3377 44.431H63.624L60.4632 49.0944L57.3534 44.431H56.5887L60.1064 49.6069V53.0404H60.1574Z" fill="white"/>
<path d="M70.1504 44.2256H71.17L74.4327 49.1453L77.6955 44.2256H78.7151V53.1937H77.6955V45.968L74.4327 50.7851H74.3818L71.119 45.968V53.245H70.1504V44.2256Z" fill="white"/>
<path d="M78.8669 53.3991H77.4904V46.5833L74.5336 50.9393H74.2786L71.3218 46.5833V53.3991H69.9453V44.0723H71.2708L74.4316 48.8382L77.5924 44.0723H78.9179V53.3991H78.8669ZM77.8473 53.0404H78.459V44.431H77.7453L74.3806 49.5044L71.0159 44.431H70.3022V53.0404H70.9139V45.3534L74.3806 50.4781L77.8473 45.3534V53.0404Z" fill="white"/>
<path d="M80.8047 48.7865C80.8047 46.2754 82.64 44.123 85.3929 44.123C88.0949 44.123 89.9302 46.2754 89.9302 48.7352C89.9302 51.1951 88.0949 53.3987 85.3419 53.3987C82.64 53.3987 80.8047 51.2463 80.8047 48.7865ZM88.9106 48.7865C88.9106 46.7366 87.4321 45.0455 85.3929 45.0455C83.3537 45.0455 81.8753 46.6854 81.8753 48.7352C81.8753 50.7851 83.3537 52.425 85.3929 52.425C87.4321 52.425 88.9106 50.7851 88.9106 48.7865Z" fill="white"/>
<path d="M85.3408 53.5528C82.6388 53.5528 80.5996 51.5029 80.5996 48.7356V48.6844C80.5996 45.9683 82.6898 43.8672 85.3408 43.8672C88.0427 43.8672 90.082 45.917 90.082 48.6844C90.1329 51.4517 88.0427 53.5528 85.3408 53.5528ZM85.3918 44.2772C82.9447 44.2772 81.0074 46.2245 81.0074 48.7356V48.7869C81.0074 51.2979 82.8937 53.1941 85.3408 53.1941C87.7878 53.1941 89.7251 51.2467 89.7251 48.7356C89.7251 46.1733 87.8898 44.2772 85.3918 44.2772ZM85.3918 52.6303C83.3016 52.6303 81.6702 50.9392 81.6702 48.7356C81.6702 46.4808 83.2506 44.8409 85.3408 44.8409C87.431 44.8409 89.0623 46.532 89.0623 48.7356V48.7869C89.0623 50.9905 87.482 52.6303 85.3918 52.6303ZM85.3408 45.1996C83.4545 45.1996 82.0271 46.6857 82.0271 48.6844C82.0271 50.7342 83.4545 52.2204 85.3408 52.2204C87.2271 52.2204 88.6545 50.7342 88.6545 48.7356V48.6844C88.7055 46.737 87.278 45.1996 85.3408 45.1996Z" fill="white"/>
<path d="M90.7969 44.2256H91.9184L95.0792 51.9638L98.291 44.2256H99.3616L95.5381 53.2962H94.6204L90.7969 44.2256Z" fill="white"/>
<path d="M95.6393 53.5016H94.5177L90.4902 44.0723H92.0196L95.0785 51.503L98.1373 44.0723H99.6157L95.6393 53.5016ZM94.7726 53.0917H95.4353L99.1059 44.431H98.3922L95.0785 52.4767L91.7647 44.431H91.051L94.7726 53.0917Z" fill="white"/>
<path d="M101.147 44.2256H107.57V45.148H102.115V48.2228H107.009V49.1453H102.115V52.2713H107.621V53.1937H101.096V44.2256H101.147Z" fill="white"/>
<path d="M107.824 53.3991H100.941V44.0723H107.773V45.4047H102.318V48.0695H107.212V49.4019H102.318V52.1692H107.824V53.3991V53.3991ZM101.298 53.0404H107.416V52.4767H101.961V48.9407H106.855V48.377H101.961V44.9435H107.416V44.3797H101.349V53.0404H101.298Z" fill="white"/>
<path d="M109.1 51.9125L109.711 51.1438C110.629 52.015 111.547 52.4249 112.77 52.4249C113.994 52.4249 114.758 51.7587 114.758 50.8875V50.8363C114.758 50.0164 114.3 49.5039 112.413 49.1452C110.374 48.6839 109.405 48.0177 109.405 46.5316V46.4803C109.405 45.0454 110.629 44.0205 112.362 44.0205C113.688 44.0205 114.605 44.3792 115.523 45.1479L114.911 45.9166C114.096 45.2504 113.229 44.9429 112.311 44.9429C111.139 44.9429 110.425 45.6091 110.425 46.3778C110.425 47.249 110.884 47.7103 112.872 48.1202C114.86 48.5815 115.778 49.2989 115.778 50.6826C115.778 52.22 114.504 53.2449 112.719 53.2449C111.343 53.3474 110.17 52.8862 109.1 51.9125Z" fill="white"/>
<path d="M112.769 53.5524C111.342 53.5524 110.118 53.0911 108.997 52.0662L108.844 51.9637L109.71 50.9388L109.863 51.0925C110.832 51.9637 111.648 52.3224 112.82 52.3224C113.891 52.3224 114.605 51.81 114.605 50.99C114.605 50.2726 114.248 49.8114 112.412 49.4526C110.526 49.0427 109.252 48.4277 109.252 46.6853C109.252 45.1479 110.577 44.0205 112.361 44.0205C113.636 44.0205 114.605 44.3792 115.624 45.1479L115.777 45.2504L114.961 46.3266L114.808 46.2241C114.044 45.6091 113.228 45.3017 112.361 45.3017C111.342 45.3017 110.628 45.8141 110.628 46.5828C110.628 47.3003 110.985 47.7615 112.922 48.1715C115.063 48.6327 115.981 49.4526 115.981 50.8875C115.981 52.4249 114.656 53.5524 112.769 53.5524ZM109.354 51.9125C110.373 52.7837 111.444 53.1936 112.718 53.1936C114.452 53.1936 115.573 52.2712 115.573 50.8363C115.573 49.5551 114.757 48.8889 112.82 48.479C110.883 48.069 110.22 47.5565 110.22 46.5316C110.22 45.5579 111.087 44.8405 112.31 44.8405C113.228 44.8405 114.044 45.1479 114.859 45.7116L115.216 45.2504C114.35 44.5842 113.483 44.328 112.361 44.328C110.781 44.328 109.608 45.3017 109.608 46.5828C109.608 47.9152 110.373 48.5815 112.463 48.9914C114.299 49.4014 114.961 49.8626 114.961 50.8875C114.961 51.9125 114.044 52.6299 112.769 52.6299C111.597 52.6299 110.679 52.2712 109.71 51.4513L109.354 51.9125Z" fill="white"/>
<path d="M121.691 44.2256H122.66L128.268 51.4001V44.2256H129.237V53.1937H128.421L122.66 45.8142V53.1937H121.691V44.2256Z" fill="white"/>
<path d="M129.439 53.3991H128.369L128.318 53.3479L122.863 46.4296V53.4504H121.486V44.0723H122.71L128.063 50.8881V44.0723H129.439V53.3991ZM128.522 53.0404H129.031V44.431H128.471V52.0155L122.557 44.431H121.894V53.0404H122.506V45.3022L128.522 53.0404Z" fill="white"/>
<path d="M131.785 44.2256H138.26V45.148H132.805V48.2228H137.699V49.1453H132.805V52.2713H138.311V53.1937H131.785V44.2256Z" fill="white"/>
<path d="M138.462 53.3991H131.58V44.0723H138.411V45.4047H132.957V48.0695H137.851V49.4019H132.957V52.1692H138.462V53.3991ZM131.937 53.0404H138.055V52.4767H132.549V48.9407H137.443V48.377H132.549V44.9435H138.004V44.3797H131.937V53.0404Z" fill="white"/>
<path d="M142.695 45.1998H139.688V44.2773H146.723V45.1998H143.715V53.2455H142.695V45.1998V45.1998Z" fill="white"/>
<path d="M143.918 53.3991H142.49V45.3534H139.482V44.0723H146.875V45.4047H143.867V53.3991H143.918ZM142.898 53.0404H143.561V44.9947H146.569V44.431H139.941V44.9947H142.949V53.0404H142.898Z" fill="white"/>
<path d="M147.895 44.2256H149.016L151.565 51.7076L154.012 44.2256H154.828L157.275 51.7076L159.824 44.2256H160.895L157.683 53.2962H156.816L154.369 46.0192L151.922 53.2962H151.055L147.895 44.2256Z" fill="white"/>
<path d="M157.835 53.5016H156.713L154.419 46.6346L152.074 53.5016H150.952L147.639 44.0723H149.168L151.564 51.1443L153.858 44.0723H154.98L157.274 51.1443L159.67 44.0723H161.148L157.835 53.5016ZM157.019 53.0917H157.58L160.639 44.431H159.976L157.274 52.323L154.674 44.3797H154.113L151.513 52.323L148.862 44.431H148.148L151.207 53.0917H151.768L154.368 45.4047L157.019 53.0917Z" fill="white"/>
<path d="M161.863 48.7865C161.863 46.2754 163.699 44.123 166.452 44.123C169.153 44.123 170.989 46.2754 170.989 48.7352C170.989 51.1951 169.153 53.3987 166.401 53.3987C163.699 53.3987 161.863 51.2463 161.863 48.7865ZM169.969 48.7865C169.969 46.7366 168.491 45.0455 166.452 45.0455C164.412 45.0455 162.934 46.6854 162.934 48.7352C162.934 50.7851 164.412 52.425 166.452 52.425C168.491 52.425 169.969 50.7851 169.969 48.7865Z" fill="white"/>
<path d="M166.45 53.5528C163.748 53.5528 161.709 51.5029 161.709 48.7356V48.6844C161.709 45.9683 163.799 43.8672 166.45 43.8672C169.152 43.8672 171.191 45.917 171.191 48.6844C171.191 51.4517 169.101 53.5528 166.45 53.5528ZM166.45 44.2772C164.003 44.2772 162.066 46.2245 162.066 48.7356V48.7869C162.066 51.2979 163.952 53.1941 166.399 53.1941C168.846 53.1941 170.783 51.2467 170.783 48.7356C170.783 46.1733 168.948 44.2772 166.45 44.2772ZM166.45 52.6303C164.36 52.6303 162.729 50.9392 162.729 48.7356C162.729 46.4808 164.309 44.8409 166.399 44.8409C168.489 44.8409 170.121 46.532 170.121 48.7356V48.7869C170.121 50.9905 168.54 52.6303 166.45 52.6303ZM166.45 45.1996C164.564 45.1996 163.136 46.6857 163.136 48.6844C163.136 50.7342 164.564 52.2204 166.45 52.2204C168.336 52.2204 169.764 50.7342 169.764 48.7356V48.6844C169.764 46.737 168.336 45.1996 166.45 45.1996Z" fill="white"/>
<path d="M173.131 44.2256H176.954C178.076 44.2256 178.943 44.5843 179.503 45.148C179.962 45.6092 180.217 46.2242 180.217 46.9417V46.9929C180.217 48.479 179.197 49.3502 177.77 49.6065L180.523 53.2962H179.299L176.699 49.8115H174.15V53.2962H173.131V44.2256V44.2256ZM176.903 48.8378C178.229 48.8378 179.197 48.1203 179.197 46.9929C179.197 45.8655 178.331 45.1993 176.903 45.1993H174.15V48.8378H176.903Z" fill="white"/>
<path d="M180.93 53.3991H179.196L176.596 49.9144H174.353V53.3991H172.977V44.0723H177.004C178.126 44.0723 179.043 44.431 179.655 45.046C180.114 45.5072 180.42 46.2246 180.42 46.9421C180.42 48.3257 179.553 49.3507 178.126 49.7094L180.93 53.3991ZM179.4 53.0404H180.165L177.463 49.4532L177.769 49.4019C179.196 49.1457 180.063 48.2745 180.063 46.9933C180.063 46.3271 179.859 45.7634 179.451 45.3534C178.89 44.7897 178.075 44.5335 177.055 44.5335H173.333V53.1429H173.945V49.6581H176.8L179.4 53.0404ZM176.902 49.0432H173.945V44.9947H176.902C178.431 44.9947 179.4 45.7122 179.4 46.9421C179.4 48.2232 178.38 49.0432 176.902 49.0432ZM174.353 48.6332H176.902C178.177 48.6332 178.992 47.967 178.992 46.9933C178.992 45.9684 178.228 45.4047 176.902 45.4047H174.353V48.6332Z" fill="white"/>
<path d="M182.357 44.2256H183.377V49.6065L188.526 44.2256H189.852L186.028 48.1716L190.004 53.245H188.73L185.314 48.889L183.428 50.8364V53.245H182.408V44.2256H182.357Z" fill="white"/>
<path d="M190.36 53.3991H188.627L185.262 49.1457L183.58 50.8881V53.3991H182.203V44.0723H183.58V49.1457L188.423 44.0723H190.258L186.231 48.2232L190.36 53.3991ZM188.78 53.0404H189.544L185.67 48.172L189.289 44.431H188.525L183.121 50.0681V44.431H182.509V53.0404H183.121V50.7343L185.211 48.582L188.78 53.0404Z" fill="white"/>
</g>
<defs>
<clipPath id="clip0">
<rect width="208" height="74" fill="white"/>
</clipPath>
</defs>
</svg>
