<svg width="288" height="42" viewBox="0 0 288 42" fill="none" xmlns="http://www.w3.org/2000/svg">
<g clip-path="url(#clip0)">
<path d="M177.323 15.5554C177.323 16.0499 177.029 16.3698 176.293 17.0097L174.411 18.5512L174.382 14.9155L175.264 15.6136C175.705 15.0609 176.029 14.7992 176.499 14.7992C176.97 14.7701 177.323 15.0609 177.323 15.5554ZM163.823 21.2562L163.764 8.31302L168.97 16.0499L178.382 1.73961H178.205L174.411 1.7687H173.999L169.117 9.62188L164.146 1.79778L159.705 1.82687L159.793 21.2562H163.823ZM178.558 19.6565L174.411 19.6856V21.2562H178.558V19.6565ZM191.029 -0.5H190.999L186.94 -0.470914L186.999 13.0831L178.999 2.81579L174.323 9.91274L174.352 14.7992C174.94 14.0429 175.499 13.6357 176.558 13.6066C177.499 13.6066 178.205 14.0139 178.499 14.6828L178.47 8.48754L188.117 21.1981L191.117 21.169L191.029 4.0374C196.323 7.14959 199.882 12.8504 199.911 19.3947C199.97 29.313 191.852 37.3989 181.823 37.4571C177.205 37.4862 172.97 35.7992 169.764 33.0069H164.205C168.293 38.1842 174.705 41.5291 181.852 41.5C194.117 41.4418 204.058 31.5235 203.999 19.3947C203.94 10.5817 198.617 2.9903 191.029 -0.5ZM178.558 18.5222V16.2535C178.352 16.8061 177.882 17.2133 177.117 17.795L176.146 18.5512L178.558 18.5222Z" fill="#416FF4"/>
<path d="M84.1191 24.6008H84.7074L86.5897 27.3931L88.4721 24.6008H89.0603V29.6909H88.4721V25.5897L86.5897 28.3238H86.5603L84.678 25.5897V29.7199H84.1191V24.6008Z" fill="white"/>
<path d="M89.1471 29.8073H88.3529V25.9389L86.6471 28.4112H86.5L84.7941 25.9389V29.8073H84V24.5137H84.7647L86.5882 27.2187L88.4118 24.5137H89.1765V29.8073H89.1471ZM88.5882 29.6037H88.9412V24.7173H88.5294L86.5882 27.5968L84.6471 24.7173H84.2353V29.6037H84.5882V25.2408L86.5882 28.1494L88.5882 25.2408V29.6037V29.6037Z" fill="white"/>
<path d="M90.5605 24.6008H91.1488V29.6909H90.5605V24.6008Z" fill="white"/>
<path d="M91.2355 29.8073H90.4414V24.5137H91.2355V29.8073ZM90.6767 29.6037H91.0296V24.7173H90.6767V29.6037Z" fill="white"/>
<path d="M92.6484 24.6008H93.2073L96.4426 28.6729V24.6008H97.0014V29.6909H96.5308L93.2073 25.5316V29.7199H92.6484V24.6008V24.6008Z" fill="white"/>
<path d="M97.1175 29.8073H96.4999L93.3234 25.8516V29.8364H92.5293V24.5137H93.2352L96.3234 28.3821V24.5137H97.1175V29.8073ZM96.5881 29.6037H96.8822V24.7173H96.5293V29.022L93.1469 24.7173H92.7646V29.6037H93.1175V25.2117L96.5881 29.6037Z" fill="white"/>
<path d="M98.2363 27.1898C98.2363 25.7646 99.2952 24.543 100.883 24.543C102.442 24.543 103.501 25.7646 103.501 27.1607C103.501 28.5568 102.442 29.8075 100.854 29.8075C99.2657 29.8075 98.2363 28.5859 98.2363 27.1898ZM102.883 27.1898C102.883 26.0263 102.03 25.0665 100.854 25.0665C99.6775 25.0665 98.8246 25.9973 98.8246 27.1607C98.8246 28.3241 99.6775 29.2549 100.854 29.2549C102.06 29.2549 102.883 28.3241 102.883 27.1898Z" fill="white"/>
<path d="M100.852 29.8947C99.2937 29.8947 98.1172 28.7313 98.1172 27.1606V27.1315C98.1172 25.59 99.3231 24.3975 100.852 24.3975C102.411 24.3975 103.588 25.5609 103.588 27.1315C103.617 28.7022 102.411 29.8947 100.852 29.8947ZM100.882 24.6301C99.4701 24.6301 98.3525 25.7354 98.3525 27.1606V27.1897C98.3525 28.6149 99.4407 29.6911 100.852 29.6911C102.264 29.6911 103.382 28.5858 103.382 27.1606C103.382 25.7063 102.323 24.6301 100.882 24.6301ZM100.882 29.3711C99.676 29.3711 98.7348 28.4113 98.7348 27.1606C98.7348 25.8808 99.6466 24.9501 100.852 24.9501C102.058 24.9501 103 25.9099 103 27.1606V27.1897C103 28.4404 102.088 29.3711 100.882 29.3711ZM100.852 25.1537C99.7642 25.1537 98.9407 25.9972 98.9407 27.1315C98.9407 28.295 99.7642 29.1385 100.852 29.1385C101.941 29.1385 102.764 28.295 102.764 27.1606V27.1315C102.794 26.0263 101.97 25.1537 100.852 25.1537Z" fill="white"/>
<path d="M104.736 24.6008H106.942C107.589 24.6008 108.089 24.8044 108.413 25.1244C108.678 25.3861 108.825 25.7352 108.825 26.1424V26.1715C108.825 27.015 108.236 27.5094 107.413 27.6549L109.001 29.749H108.295L106.795 27.7712H105.325V29.749H104.736V24.6008V24.6008ZM106.883 27.2186C107.648 27.2186 108.207 26.8114 108.207 26.1715C108.207 25.5316 107.707 25.1535 106.883 25.1535H105.295V27.2186H106.883Z" fill="white"/>
<path d="M109.205 29.8073H108.205L106.705 27.8295H105.411V29.8073H104.617V24.5137H106.941C107.588 24.5137 108.117 24.7173 108.47 25.0663C108.735 25.3281 108.911 25.7353 108.911 26.1425C108.911 26.9278 108.411 27.5095 107.588 27.7131L109.205 29.8073ZM108.323 29.6037H108.764L107.205 27.5677L107.382 27.5386C108.205 27.3932 108.705 26.8987 108.705 26.1716C108.705 25.7935 108.588 25.4735 108.352 25.2408C108.029 24.9209 107.558 24.7754 106.97 24.7754H104.852V29.6619H105.205V27.684H106.852L108.323 29.6037ZM106.882 27.335H105.176V25.0372H106.882C107.764 25.0372 108.323 25.4444 108.323 26.1425C108.323 26.8696 107.764 27.335 106.882 27.335ZM105.411 27.1023H106.882C107.617 27.1023 108.088 26.7242 108.088 26.1716C108.088 25.5898 107.647 25.2699 106.882 25.2699H105.411V27.1023Z" fill="white"/>
<path d="M110.119 24.6008H110.707V29.6909H110.119V24.6008Z" fill="white"/>
<path d="M110.794 29.8073H110V24.5137H110.794V29.8073ZM110.206 29.6037H110.559V24.7173H110.206V29.6037Z" fill="white"/>
<path d="M113.56 25.1534H111.824V24.6299H115.883V25.1534H114.148V29.7199H113.56V25.1534V25.1534Z" fill="white"/>
<path d="M114.264 29.8073H113.44V25.2408H111.705V24.5137H115.97V25.2699H114.234V29.8073H114.264ZM113.676 29.6037H114.058V25.0372H115.793V24.7173H111.94V25.0372H113.676V29.6037Z" fill="white"/>
<path d="M118.587 27.6839L116.439 24.6008H117.145L118.881 27.1604L120.645 24.6008H121.322L119.175 27.6839V29.7199H118.587V27.6839V27.6839Z" fill="white"/>
<path d="M119.293 29.8073H118.47V27.7131L116.234 24.5137H117.205L118.881 26.986L120.587 24.5137H121.528L119.293 27.7131V29.8073ZM118.705 29.6037H119.087V27.6549L121.117 24.7173H120.705L118.881 27.3641L117.087 24.7173H116.646L118.676 27.6549V29.6037H118.705Z" fill="white"/>
<path d="M124.473 24.6008H125.061L126.943 27.3931L128.826 24.6008H129.414V29.6909H128.826V25.5897L126.943 28.3238H126.914L125.031 25.5897V29.7199H124.473V24.6008Z" fill="white"/>
<path d="M129.501 29.8073H128.706V25.9389L127.001 28.4112H126.854L125.148 25.9389V29.8073H124.354V24.5137H125.118L126.942 27.2187L128.765 24.5137H129.53V29.8073H129.501ZM128.912 29.6037H129.265V24.7173H128.854L126.912 27.5968L124.971 24.7173H124.559V29.6037H124.912V25.2408L126.912 28.1494L128.912 25.2408V29.6037Z" fill="white"/>
<path d="M130.619 27.1898C130.619 25.7646 131.678 24.543 133.266 24.543C134.825 24.543 135.884 25.7646 135.884 27.1607C135.884 28.5568 134.825 29.8075 133.237 29.8075C131.678 29.8075 130.619 28.5859 130.619 27.1898ZM135.296 27.1898C135.296 26.0263 134.443 25.0665 133.266 25.0665C132.09 25.0665 131.237 25.9973 131.237 27.1607C131.237 28.3241 132.09 29.2549 133.266 29.2549C134.443 29.2549 135.296 28.3241 135.296 27.1898Z" fill="white"/>
<path d="M133.235 29.8947C131.676 29.8947 130.5 28.7313 130.5 27.1606V27.1315C130.5 25.59 131.706 24.3975 133.235 24.3975C134.794 24.3975 135.971 25.5609 135.971 27.1315C136 28.7022 134.794 29.8947 133.235 29.8947ZM133.265 24.6301C131.853 24.6301 130.735 25.7354 130.735 27.1606V27.1897C130.735 28.6149 131.824 29.6911 133.235 29.6911C134.647 29.6911 135.765 28.5858 135.765 27.1606C135.765 25.7063 134.706 24.6301 133.265 24.6301ZM133.265 29.3711C132.059 29.3711 131.118 28.4113 131.118 27.1606C131.118 25.8808 132.029 24.9501 133.235 24.9501C134.441 24.9501 135.382 25.9099 135.382 27.1606V27.1897C135.382 28.4404 134.471 29.3711 133.265 29.3711ZM133.235 25.1537C132.147 25.1537 131.324 25.9972 131.324 27.1315C131.324 28.295 132.147 29.1385 133.235 29.1385C134.324 29.1385 135.147 28.295 135.147 27.1606V27.1315C135.176 26.0263 134.353 25.1537 133.235 25.1537Z" fill="white"/>
<path d="M136.381 24.6008H137.028L138.851 28.9928L140.704 24.6008H141.322L139.116 29.749H138.587L136.381 24.6008Z" fill="white"/>
<path d="M139.176 29.8655H138.529L136.205 24.5137H137.087L138.852 28.7311L140.617 24.5137H141.47L139.176 29.8655ZM138.676 29.6328H139.058L141.176 24.7173H140.764L138.852 29.2838L136.94 24.7173H136.529L138.676 29.6328Z" fill="white"/>
<path d="M142.354 24.6008H146.06V25.1244H142.912V26.8695H145.736V27.3931H142.912V29.1673H146.089V29.6909H142.324V24.6008H142.354Z" fill="white"/>
<path d="M146.205 29.8073H142.234V24.5137H146.176V25.2699H143.028V26.7824H145.852V27.5386H143.028V29.1092H146.205V29.8073V29.8073ZM142.44 29.6037H145.97V29.2838H142.823V27.2768H145.646V26.9569H142.823V25.0081H145.97V24.6882H142.47V29.6037H142.44Z" fill="white"/>
<path d="M146.941 28.9638L147.294 28.5276C147.824 29.022 148.353 29.2547 149.059 29.2547C149.765 29.2547 150.206 28.8766 150.206 28.3821V28.353C150.206 27.8877 149.941 27.5968 148.853 27.3932C147.677 27.1314 147.118 26.7533 147.118 25.9098V25.8807C147.118 25.0663 147.824 24.4846 148.824 24.4846C149.588 24.4846 150.118 24.6882 150.647 25.1245L150.294 25.5608C149.824 25.1827 149.324 25.0082 148.794 25.0082C148.118 25.0082 147.706 25.3863 147.706 25.8226C147.706 26.317 147.971 26.5788 149.118 26.8115C150.265 27.0733 150.794 27.4805 150.794 28.2658C150.794 29.1384 150.059 29.7201 149.03 29.7201C148.236 29.7782 147.559 29.5165 146.941 28.9638Z" fill="white"/>
<path d="M149.06 29.8946C148.236 29.8946 147.53 29.6328 146.883 29.0511L146.795 28.9929L147.295 28.4112L147.383 28.4985C147.942 28.9929 148.413 29.1965 149.089 29.1965C149.707 29.1965 150.118 28.9057 150.118 28.4403C150.118 28.0331 149.913 27.7713 148.854 27.5677C147.766 27.335 147.03 26.986 147.03 25.9971C147.03 25.1245 147.795 24.4846 148.824 24.4846C149.56 24.4846 150.118 24.6882 150.707 25.1245L150.795 25.1827L150.324 25.7935L150.236 25.7353C149.795 25.3863 149.324 25.2118 148.824 25.2118C148.236 25.2118 147.824 25.5026 147.824 25.9389C147.824 26.3461 148.03 26.6079 149.148 26.8406C150.383 27.1023 150.913 27.5677 150.913 28.3821C150.913 29.2547 150.148 29.8946 149.06 29.8946ZM147.089 28.9638C147.677 29.4583 148.295 29.691 149.03 29.691C150.03 29.691 150.677 29.1674 150.677 28.353C150.677 27.6259 150.207 27.2478 149.089 27.0151C147.971 26.7824 147.589 26.4915 147.589 25.9098C147.589 25.3572 148.089 24.95 148.795 24.95C149.324 24.95 149.795 25.1245 150.266 25.4445L150.471 25.1827C149.971 24.8046 149.471 24.6591 148.824 24.6591C147.913 24.6591 147.236 25.2118 147.236 25.9389C147.236 26.6951 147.677 27.0733 148.883 27.3059C149.942 27.5386 150.324 27.8004 150.324 28.3821C150.324 28.9638 149.795 29.371 149.06 29.371C148.383 29.371 147.854 29.1674 147.295 28.7021L147.089 28.9638Z" fill="white"/>
<path d="M154.207 24.6008H154.766L158.001 28.6729V24.6008H158.56V29.6909H158.089L154.766 25.5025V29.6909H154.207V24.6008Z" fill="white"/>
<path d="M158.676 29.8073H158.058L158.029 29.7782L154.882 25.8516V29.8364H154.088V24.5137H154.794L157.882 28.3821V24.5137H158.676V29.8073ZM158.147 29.6037H158.441V24.7173H158.117V29.022L154.706 24.7173H154.323V29.6037H154.676V25.2117L158.147 29.6037Z" fill="white"/>
<path d="M160.031 24.6008H163.767V25.1244H160.619V26.8695H163.443V27.3931H160.619V29.1673H163.796V29.6909H160.031V24.6008Z" fill="white"/>
<path d="M163.883 29.8073H159.912V24.5137H163.853V25.2699H160.706V26.7824H163.53V27.5386H160.706V29.1092H163.883V29.8073ZM160.118 29.6037H163.647V29.2838H160.471V27.2768H163.294V26.9569H160.471V25.0081H163.618V24.6882H160.118V29.6037Z" fill="white"/>
<path d="M166.325 25.1534H164.59V24.6299H168.649V25.1534H166.913V29.7199H166.325V25.1534V25.1534Z" fill="white"/>
<path d="M167.03 29.8073H166.206V25.2408H164.471V24.5137H168.735V25.2699H167V29.8073H167.03ZM166.441 29.6037H166.824V25.0372H168.559V24.7173H164.735V25.0372H166.471V29.6037H166.441Z" fill="white"/>
<path d="M169.322 24.6008H169.969L171.44 28.8474L172.852 24.6008H173.322L174.734 28.8474L176.205 24.6008H176.822L174.969 29.749H174.469L173.058 25.6188L171.646 29.749H171.146L169.322 24.6008Z" fill="white"/>
<path d="M175.058 29.8655H174.411L173.088 25.968L171.735 29.8655H171.088L169.176 24.5137H170.058L171.44 28.5275L172.764 24.5137H173.411L174.735 28.5275L176.117 24.5137H176.97L175.058 29.8655ZM174.588 29.6328H174.911L176.676 24.7173H176.293L174.735 29.1965L173.235 24.6882H172.911L171.411 29.1965L169.882 24.7173H169.47L171.235 29.6328H171.558L173.058 25.2699L174.588 29.6328Z" fill="white"/>
<path d="M177.385 27.1898C177.385 25.7646 178.444 24.543 180.032 24.543C181.591 24.543 182.649 25.7646 182.649 27.1607C182.649 28.5568 181.591 29.8075 180.002 29.8075C178.444 29.8075 177.385 28.5859 177.385 27.1898ZM182.061 27.1898C182.061 26.0263 181.208 25.0665 180.032 25.0665C178.855 25.0665 178.002 25.9973 178.002 27.1607C178.002 28.3241 178.855 29.2549 180.032 29.2549C181.208 29.2549 182.061 28.3241 182.061 27.1898Z" fill="white"/>
<path d="M180.03 29.8947C178.471 29.8947 177.295 28.7313 177.295 27.1606V27.1315C177.295 25.59 178.501 24.3975 180.03 24.3975C181.589 24.3975 182.766 25.5609 182.766 27.1315C182.766 28.7022 181.56 29.8947 180.03 29.8947ZM180.03 24.6301C178.618 24.6301 177.501 25.7354 177.501 27.1606V27.1897C177.501 28.6149 178.589 29.6911 180.001 29.6911C181.413 29.6911 182.53 28.5858 182.53 27.1606C182.53 25.7063 181.471 24.6301 180.03 24.6301ZM180.03 29.3711C178.824 29.3711 177.883 28.4113 177.883 27.1606C177.883 25.8808 178.795 24.9501 180.001 24.9501C181.207 24.9501 182.148 25.9099 182.148 27.1606V27.1897C182.148 28.4404 181.236 29.3711 180.03 29.3711ZM180.03 25.1537C178.942 25.1537 178.118 25.9972 178.118 27.1315C178.118 28.295 178.942 29.1385 180.03 29.1385C181.118 29.1385 181.942 28.295 181.942 27.1606V27.1315C181.942 26.0263 181.118 25.1537 180.03 25.1537Z" fill="white"/>
<path d="M183.885 24.6008H186.091C186.738 24.6008 187.238 24.8044 187.561 25.1244C187.826 25.3861 187.973 25.7352 187.973 26.1424V26.1715C187.973 27.015 187.385 27.5094 186.561 27.6549L188.149 29.749H187.444L185.944 27.7712H184.473V29.749H183.885V24.6008V24.6008ZM186.061 27.2186C186.826 27.2186 187.385 26.8114 187.385 26.1715C187.385 25.5316 186.885 25.1535 186.061 25.1535H184.473V27.2186H186.061Z" fill="white"/>
<path d="M188.383 29.8073H187.383L185.883 27.8295H184.589V29.8073H183.795V24.5137H186.118C186.766 24.5137 187.295 24.7173 187.648 25.0663C187.913 25.3281 188.089 25.7353 188.089 26.1425C188.089 26.9278 187.589 27.5095 186.766 27.7131L188.383 29.8073ZM187.501 29.6037H187.942L186.383 27.5677L186.56 27.5386C187.383 27.3932 187.883 26.8987 187.883 26.1716C187.883 25.7935 187.766 25.4735 187.53 25.2408C187.207 24.9209 186.736 24.7754 186.148 24.7754H184.001V29.6619H184.354V27.684H186.001L187.501 29.6037ZM186.06 27.335H184.354V25.0372H186.06C186.942 25.0372 187.501 25.4444 187.501 26.1425C187.501 26.8696 186.913 27.335 186.06 27.335ZM184.589 27.1023H186.06C186.795 27.1023 187.266 26.7242 187.266 26.1716C187.266 25.5898 186.824 25.2699 186.06 25.2699H184.589V27.1023Z" fill="white"/>
<path d="M189.207 24.6008H189.795V27.6548L192.766 24.6008H193.531L191.325 26.8404L193.619 29.7199H192.884L190.913 27.2476L189.825 28.3529V29.7199H189.236V24.6008H189.207Z" fill="white"/>
<path d="M193.823 29.8073H192.823L190.882 27.3932L189.911 28.3821V29.8073H189.117V24.5137H189.911V27.3932L192.705 24.5137H193.764L191.441 26.8696L193.823 29.8073ZM192.911 29.6037H193.352L191.117 26.8405L193.205 24.7173H192.764L189.647 27.9167V24.7173H189.294V29.6037H189.647V28.2948L190.852 27.0732L192.911 29.6037Z" fill="white"/>
</g>
<defs>
<clipPath id="clip0">
<rect width="288" height="42" fill="white"/>
</clipPath>
</defs>
</svg>
