<svg width="42" height="40" viewBox="0 0 42 40" fill="none" xmlns="http://www.w3.org/2000/svg">
<g clip-path="url(#clip0)">
<path d="M16.75 15.3333C16.75 15.8056 16.4722 16.1111 15.7777 16.7222L14 18.1944L13.9722 14.7222L14.8055 15.3889C15.2222 14.8611 15.5278 14.6111 15.9722 14.6111C16.4166 14.5833 16.75 14.8611 16.75 15.3333ZM3.99997 20.7778L3.94442 8.41667L8.86108 15.8056L17.75 2.13889H17.5833L14 2.16667H13.6111L8.99997 9.66667L4.30553 2.19444L0.111084 2.22222L0.194422 20.7778H3.99997ZM17.9166 19.25L14 19.2778V20.7778H17.9166V19.25ZM29.6944 0H29.6666L25.8333 0.0277778L25.8889 12.9722L18.3333 3.16667L13.9166 9.94444L13.9444 14.6111C14.5 13.8889 15.0278 13.5 16.0278 13.4722C16.9166 13.4722 17.5833 13.8611 17.8611 14.5L17.8333 8.58333L26.9444 20.7222L29.7778 20.6944L29.6944 4.33333C34.6944 7.30556 38.0555 12.75 38.0833 19C38.1389 28.4722 30.4722 36.1944 21 36.25C16.6389 36.2778 12.6389 34.6667 9.61109 32H4.36109C8.2222 36.9444 14.2778 40.1389 21.0278 40.1111C32.6111 40.0556 42 30.5833 41.9444 19C41.8889 10.5833 36.8611 3.33333 29.6944 0ZM17.9166 18.1667V16C17.7222 16.5278 17.2778 16.9167 16.5555 17.4722L15.6389 18.1944L17.9166 18.1667Z" fill="#4B5259"/>
</g>
<defs>
<clipPath id="clip0">
<rect width="41.9444" height="40" fill="white"/>
</clipPath>
</defs>
</svg>
