<svg width="42" height="40" viewBox="0 0 42 40" fill="none" xmlns="http://www.w3.org/2000/svg">
<g clip-path="url(#clip0)">
<path d="M16.7482 15.3317C16.7482 15.8039 16.4705 16.1094 15.7761 16.7205L13.9985 18.1925L13.9707 14.7207L14.804 15.3873C15.2206 14.8595 15.5261 14.6096 15.9705 14.6096C16.4149 14.5818 16.7482 14.8595 16.7482 15.3317ZM3.99956 20.7756L3.94402 8.41578L8.86016 15.8039L17.7481 2.13866H17.5815L13.9985 2.16644H13.6097L8.99903 9.66564L4.30509 2.19421L0.111084 2.22199L0.194414 20.7756H3.99956ZM17.9148 19.248L13.9985 19.2757V20.7756H17.9148V19.248ZM29.6913 0H29.6635L25.8306 0.0277748L25.8861 12.9708L18.3314 3.16633L13.9152 9.94339L13.943 14.6096C14.4985 13.8874 15.0262 13.4986 16.0261 13.4708C16.9149 13.4708 17.5815 13.8596 17.8592 14.4985L17.8314 8.58242L26.9416 20.72L29.7746 20.6923L29.6913 4.33287C34.6907 7.30478 38.0515 12.7486 38.0793 18.998C38.1348 28.4692 30.469 36.1906 20.9978 36.2462C16.6371 36.2739 12.6375 34.663 9.61008 31.9966H4.36064C8.22134 36.9405 14.2763 40.1346 21.0255 40.1069C32.6076 40.0513 41.9955 30.5801 41.94 18.998C41.8844 10.5822 36.8572 3.33298 29.6913 0ZM17.9148 18.1647V15.9983C17.7203 16.526 17.2759 16.9149 16.5538 17.4704L15.6372 18.1925L17.9148 18.1647Z" fill="white"/>
</g>
<defs>
<clipPath id="clip0">
<rect width="41.94" height="39.9958" fill="white"/>
</clipPath>
</defs>
</svg>
