<svg width="26" height="24" viewBox="0 0 26 24" fill="none" xmlns="http://www.w3.org/2000/svg">
<g clip-path="url(#clip0)">
<path d="M10.05 9.2C10.05 9.48333 9.88332 9.66667 9.46665 10.0333L8.39998 10.9167L8.38332 8.83333L8.88332 9.23333C9.13332 8.91667 9.31665 8.76667 9.58332 8.76667C9.84999 8.75 10.05 8.91667 10.05 9.2ZM2.39998 12.4667L2.36665 5.05L5.31665 9.48333L10.65 1.28333H10.55L8.39998 1.3H8.16665L5.39998 5.8L2.58332 1.31667L0.0666504 1.33333L0.116653 12.4667H2.39998ZM10.75 11.55L8.39998 11.5667V12.4667H10.75V11.55ZM17.8167 0H17.8L15.5 0.0166667L15.5333 7.78333L11 1.9L8.34999 5.96667L8.36665 8.76667C8.69999 8.33333 9.01665 8.1 9.61665 8.08333C10.15 8.08333 10.55 8.31667 10.7166 8.7L10.7 5.15L16.1667 12.4333L17.8667 12.4167L17.8167 2.6C20.8167 4.38333 22.8333 7.65 22.85 11.4C22.8833 17.0833 18.2833 21.7167 12.6 21.75C9.98332 21.7667 7.58332 20.8 5.76665 19.2H2.61665C4.93332 22.1667 8.56665 24.0833 12.6167 24.0667C19.5667 24.0333 25.2 18.35 25.1667 11.4C25.1333 6.35 22.1167 2 17.8167 0ZM10.75 10.9V9.6C10.6333 9.91667 10.3667 10.15 9.93332 10.4833L9.38332 10.9167L10.75 10.9Z" fill="white"/>
</g>
<defs>
<clipPath id="clip0">
<rect width="25.1667" height="24" fill="white"/>
</clipPath>
</defs>
</svg>
