<svg width="338" height="211" viewBox="0 0 338 211" fill="none" xmlns="http://www.w3.org/2000/svg">
<g clip-path="url(#clip0)">
<path opacity="0.12" fill-rule="evenodd" clip-rule="evenodd" d="M291.541 264.891C351.854 204.577 351.854 106.79 291.541 46.4767C231.227 -13.8367 133.44 -13.8367 73.1269 46.4767C12.8135 106.79 12.8135 204.577 73.1269 264.891C133.44 325.204 231.227 325.204 291.541 264.891Z" fill="#D8D8D8" fill-opacity="0.01" stroke="url(#paint0_linear)" stroke-width="4.43071"/>
<path opacity="0.06" fill-rule="evenodd" clip-rule="evenodd" d="M310.12 164.943C310.809 79.6497 242.223 9.94784 156.93 9.25942C71.6368 8.57099 1.93493 77.1567 1.24651 162.45C0.55808 247.743 69.1438 317.445 154.437 318.133C239.73 318.822 309.432 250.236 310.12 164.943Z" fill="url(#paint1_linear)"/>
</g>
<defs>
<linearGradient id="paint0_linear" x1="-27.2601" y1="158.624" x2="185.274" y2="371.157" gradientUnits="userSpaceOnUse">
<stop stop-color="#F97468" stop-opacity="0.01"/>
<stop offset="1" stop-color="#416FF4"/>
</linearGradient>
<linearGradient id="paint1_linear" x1="1.24651" y1="162.45" x2="310.12" y2="164.943" gradientUnits="userSpaceOnUse">
<stop stop-color="#FF6D55"/>
<stop offset="1" stop-color="#416FF4"/>
</linearGradient>
<clipPath id="clip0">
<rect width="338" height="210.142" fill="white"/>
</clipPath>
</defs>
</svg>
