<svg width="164" height="46" viewBox="0 0 164 46" fill="none" xmlns="http://www.w3.org/2000/svg">
<path d="M7.56457 34.8871L7.50812 19.211L13.8028 28.5607L25.1783 11.233H24.9525L20.3515 11.261H19.8434L13.9439 20.7786L7.93153 11.317L2.56836 11.345L2.68127 34.8871H7.56457Z" fill="url(#paint0_linear)"/>
<path fill-rule="evenodd" clip-rule="evenodd" d="M19.8711 24.316V34.9991H26.5779V28.8518H30.7103C32.8556 28.8518 34.7186 28.5047 36.2993 27.8105C37.88 27.0939 39.0995 26.0861 39.9576 24.7872C40.8157 23.4884 41.2447 21.9544 41.2447 20.1852C41.2447 18.416 40.8157 16.882 39.9576 15.5832C39.0995 14.2619 37.88 13.2541 36.2993 12.5599C34.7186 11.8433 32.8556 11.485 30.7103 11.485H28.243L19.8711 24.316ZM33.4201 22.7382C32.7201 23.3204 31.6814 23.6115 30.3039 23.6115H26.5779V16.7253H30.3039C31.6814 16.7253 32.7201 17.0276 33.4201 17.6322C34.1202 18.2369 34.4702 19.0879 34.4702 20.1852C34.4702 21.2825 34.1202 22.1335 33.4201 22.7382ZM103.297 34.9991L110.986 11.485H104.584L99.6048 26.6348L94.8288 11.485H88.6639L83.6508 26.5004L78.8748 11.485H71.9647L79.6538 34.9991H86.8348L91.577 20.6891L96.1159 34.9991H103.297ZM132.99 29.8596V34.9991H113.954V11.485H132.55V16.6245H120.593V20.5883H131.127V25.5599H120.593V29.8596H132.99ZM143.983 28.7511H147.641L151.943 34.9991H159.124L154.009 27.6089C155.5 26.8923 156.64 25.907 157.431 24.6529C158.244 23.3764 158.65 21.8872 158.65 20.1852C158.65 18.416 158.221 16.882 157.363 15.5832C156.505 14.2619 155.285 13.2541 153.705 12.5599C152.124 11.8433 150.261 11.485 148.116 11.485H137.276V34.9991H143.983V28.7511ZM150.825 17.6322C151.525 18.2369 151.875 19.0879 151.875 20.1852C151.875 21.2825 151.525 22.1335 150.825 22.7382C150.125 23.3204 149.087 23.6115 147.709 23.6115H143.983V16.7253H147.709C149.087 16.7253 150.125 17.0276 150.825 17.6322Z" fill="white"/>
<path opacity="0.2" d="M71.1323 24.7816C71.1323 32.2797 65.003 38.3582 57.4421 38.3582C49.8813 38.3582 43.752 32.2797 43.752 24.7816C43.752 17.2834 49.8813 11.205 57.4421 11.205C65.003 11.205 71.1323 17.2834 71.1323 24.7816ZM46.1046 24.7816C46.1046 30.9912 51.1806 36.0251 57.4421 36.0251C63.7037 36.0251 68.7797 30.9912 68.7797 24.7816C68.7797 18.5719 63.7037 13.538 57.4421 13.538C51.1806 13.538 46.1046 18.5719 46.1046 24.7816Z" fill="white"/>
<path d="M57.4422 10.6451C59.9361 10.6451 62.3863 11.294 64.5482 12.5268C66.7101 13.7597 68.508 15.5335 69.7624 17.671C71.0168 19.8085 71.6838 22.235 71.6968 24.7081C71.7097 27.1812 71.0682 29.6144 69.8363 31.7648C68.6044 33.9151 66.8252 35.7073 64.6763 36.9624C62.5275 38.2175 60.0842 38.8916 57.5905 38.9173C55.0967 38.943 52.6399 38.3195 50.4652 37.109C48.2905 35.8985 46.474 34.1434 45.1973 32.0189L47.9989 30.363C48.9835 32.0014 50.3843 33.355 52.0615 34.2885C53.7386 35.2221 55.6334 35.703 57.5566 35.6831C59.4797 35.6633 61.364 35.1434 63.0212 34.1755C64.6784 33.2076 66.0505 31.8254 67.0006 30.1671C67.9507 28.5087 68.4454 26.6322 68.4354 24.7249C68.4254 22.8176 67.911 20.9463 66.9436 19.2979C65.9762 17.6494 64.5897 16.2815 62.9224 15.3307C61.2551 14.3799 59.3655 13.8795 57.4422 13.8795V10.6451Z" fill="#FF6D55"/>
<path opacity="0.2" d="M66.868 24.6545C66.868 29.8878 62.59 34.1303 57.3129 34.1303C52.0358 34.1303 47.7578 29.8878 47.7578 24.6545C47.7578 19.4212 52.0358 15.1787 57.3129 15.1787C62.59 15.1787 66.868 19.4212 66.868 24.6545ZM49.7725 24.6545C49.7725 28.7844 53.1484 32.1324 57.3129 32.1324C61.4773 32.1324 64.8533 28.7844 64.8533 24.6545C64.8533 20.5246 61.4773 17.1766 57.3129 17.1766C53.1484 17.1766 49.7725 20.5246 49.7725 24.6545Z" fill="white"/>
<path d="M57.4415 14.8441C59.6945 14.8441 61.8779 15.6188 63.6195 17.0363C65.3611 18.4537 66.5532 20.4262 66.9928 22.6176C67.4323 24.809 67.0921 27.0837 66.03 29.0542C64.9679 31.0247 63.2498 32.5691 61.1682 33.4241C59.0867 34.2792 56.7706 34.392 54.6146 33.7434C52.4586 33.0948 50.5961 31.7249 49.3443 29.8672C48.0926 28.0094 47.5292 25.7787 47.75 23.5551C47.9709 21.3315 48.9623 19.2527 50.5554 17.6728L52.2356 19.3389C51.0311 20.5334 50.2816 22.105 50.1146 23.786C49.9477 25.4671 50.3737 27.1535 51.32 28.558C52.2663 29.9625 53.6744 30.9982 55.3043 31.4885C56.9343 31.9789 58.6853 31.8936 60.2589 31.2471C61.8326 30.6007 63.1316 29.4332 63.9345 27.9435C64.7374 26.4537 64.9947 24.734 64.6624 23.0773C64.3301 21.4206 63.4288 19.9294 62.1121 18.8578C60.7954 17.7862 59.1448 17.2005 57.4415 17.2005V14.8441Z" fill="#7E75E9"/>
<path opacity="0.2" d="M62.8615 24.5016C62.8615 27.6247 60.3085 30.1565 57.1592 30.1565C54.01 30.1565 51.457 27.6247 51.457 24.5016C51.457 21.3785 54.01 18.8467 57.1592 18.8467C60.3085 18.8467 62.8615 21.3785 62.8615 24.5016ZM53.124 24.5016C53.124 26.7117 54.9306 28.5034 57.1592 28.5034C59.3879 28.5034 61.1945 26.7117 61.1945 24.5016C61.1945 22.2915 59.3879 20.4998 57.1592 20.4998C54.9306 20.4998 53.124 22.2915 53.124 24.5016Z" fill="white"/>
<path d="M57.3008 18.4832C58.5297 18.4832 59.7283 18.862 60.7307 19.5672C61.733 20.2724 62.4896 21.2692 62.8956 22.4195C63.3017 23.5699 63.3371 24.8169 62.9971 25.9881C62.657 27.1593 61.9583 28.1968 60.9976 28.9569C60.037 29.717 58.8618 30.1622 57.6347 30.2309C56.4077 30.2995 55.1895 29.9883 54.1487 29.3402C53.1078 28.6921 52.2959 27.7392 51.8251 26.6134C51.3544 25.4875 51.2481 24.2444 51.5211 23.0561L53.4927 23.5015C53.3128 24.2844 53.3828 25.1035 53.693 25.8453C54.0032 26.5871 54.5381 27.2149 55.2239 27.6419C55.9097 28.0689 56.7124 28.274 57.5208 28.2288C58.3293 28.1835 59.1036 27.8902 59.7366 27.3894C60.3695 26.8885 60.8299 26.205 61.0539 25.4333C61.278 24.6616 61.2546 23.84 60.9871 23.082C60.7196 22.3241 60.2211 21.6674 59.5607 21.2027C58.9002 20.738 58.1105 20.4884 57.3008 20.4884V18.4832Z" fill="#6FCF97"/>
<defs>
<linearGradient id="paint0_linear" x1="7.19971" y1="12.5694" x2="15.9782" y2="26.4796" gradientUnits="userSpaceOnUse">
<stop stop-color="#27AAE1"/>
<stop offset="1" stop-color="#2B3990"/>
</linearGradient>
</defs>
</svg>
