<svg width="80" height="80" viewBox="0 0 80 80" fill="none" xmlns="http://www.w3.org/2000/svg">
<circle opacity="0.15" cx="40" cy="40.0001" r="40" fill="#95A0AE"/>
<path d="M45.0003 46.6667C46.7684 46.6667 48.4641 45.9643 49.7144 44.7141C50.9646 43.4638 51.667 41.7682 51.667 40V30C51.667 28.2319 50.9646 26.5362 49.7144 25.286C48.4641 24.0358 46.7684 23.3334 45.0003 23.3334H28.3337C26.5655 23.3334 24.8699 24.0358 23.6196 25.286C22.3694 26.5362 21.667 28.2319 21.667 30V50.8334C21.667 51.0544 21.7548 51.2664 21.9111 51.4226C22.0674 51.5789 22.2793 51.6667 22.5003 51.6667C22.6093 51.6661 22.7171 51.6436 22.8173 51.6007C22.9175 51.5578 23.008 51.4952 23.0837 51.4167L26.417 48.0834C26.8909 47.622 27.4516 47.2592 28.0667 47.016C28.6818 46.7728 29.339 46.6541 30.0003 46.6667H45.0003ZM41.667 34.1667C41.667 33.9457 41.7548 33.7337 41.9111 33.5775C42.0673 33.4212 42.2793 33.3334 42.5003 33.3334H44.167C44.388 33.3334 44.6 33.4212 44.7562 33.5775C44.9125 33.7337 45.0003 33.9457 45.0003 34.1667V35.8334C45.0003 36.0544 44.9125 36.2664 44.7562 36.4226C44.6 36.5789 44.388 36.6667 44.167 36.6667H42.5003C42.2793 36.6667 42.0673 36.5789 41.9111 36.4226C41.7548 36.2664 41.667 36.0544 41.667 35.8334V34.1667ZM35.0003 34.1667C35.0003 33.9457 35.0881 33.7337 35.2444 33.5775C35.4007 33.4212 35.6126 33.3334 35.8337 33.3334H37.5003C37.7213 33.3334 37.9333 33.4212 38.0896 33.5775C38.2459 33.7337 38.3337 33.9457 38.3337 34.1667V35.8334C38.3337 36.0544 38.2459 36.2664 38.0896 36.4226C37.9333 36.5789 37.7213 36.6667 37.5003 36.6667H35.8337C35.6126 36.6667 35.4007 36.5789 35.2444 36.4226C35.0881 36.2664 35.0003 36.0544 35.0003 35.8334V34.1667ZM28.3337 35.8334V34.1667C28.3337 33.9457 28.4215 33.7337 28.5777 33.5775C28.734 33.4212 28.946 33.3334 29.167 33.3334H30.8337C31.0547 33.3334 31.2666 33.4212 31.4229 33.5775C31.5792 33.7337 31.667 33.9457 31.667 34.1667V35.8334C31.667 36.0544 31.5792 36.2664 31.4229 36.4226C31.2666 36.5789 31.0547 36.6667 30.8337 36.6667H29.167C28.946 36.6667 28.734 36.5789 28.5777 36.4226C28.4215 36.2664 28.3337 36.0544 28.3337 35.8334ZM55.0003 30V43.3334C55.0003 45.1015 54.2979 46.7972 53.0477 48.0474C51.7975 49.2977 50.1018 50 48.3337 50H28.3337C28.3337 50.8841 28.6848 51.7319 29.31 52.3571C29.9351 52.9822 30.7829 53.3334 31.667 53.3334H50.0003C50.6595 53.3318 51.3125 53.4605 51.9218 53.7122C52.531 53.9639 53.0845 54.3336 53.5503 54.8L56.8837 58.1334C56.9593 58.2119 57.0499 58.2744 57.15 58.3174C57.2502 58.3603 57.358 58.3827 57.467 58.3834C57.688 58.3834 57.9 58.2956 58.0562 58.1393C58.2125 57.983 58.3003 57.7711 58.3003 57.55V33.3334C58.3004 32.4551 57.9538 31.6122 57.3358 30.9881C56.7179 30.3639 55.8786 30.0088 55.0003 30V30Z" fill="#95A0AE"/>
</svg>
