<svg width="80" height="80" viewBox="0 0 80 80" fill="none" xmlns="http://www.w3.org/2000/svg">
<circle cx="40" cy="40.0001" r="40" fill="#E5F1FF"/>
<path d="M50.1498 37.0335L38.4832 56.0668C38.3705 56.2488 38.2136 56.3992 38.0271 56.5042C37.8406 56.6091 37.6305 56.665 37.4165 56.6668H37.0832C36.9677 56.6666 36.8534 56.6428 36.7474 56.597C36.6413 56.5511 36.5458 56.4841 36.4665 56.4001C36.3877 56.3159 36.3276 56.2158 36.2903 56.1067C36.253 55.9975 36.2392 55.8817 36.2498 55.7668L37.1832 45.0001H31.2332C31.0131 44.9978 30.7975 44.9381 30.6076 44.827C30.4176 44.716 30.2598 44.5574 30.1498 44.3668L29.8332 43.8168C29.7551 43.6888 29.7139 43.5417 29.7139 43.3918C29.7139 43.2419 29.7551 43.0948 29.8332 42.9668L41.4998 23.9335C41.6154 23.7466 41.7776 23.5931 41.9704 23.4879C42.1633 23.3827 42.3802 23.3295 42.5998 23.3335H42.9332C43.0487 23.3337 43.1629 23.3574 43.269 23.4033C43.375 23.4491 43.4706 23.5161 43.5498 23.6001C43.6286 23.6844 43.6887 23.7844 43.726 23.8936C43.7634 24.0027 43.7772 24.1186 43.7665 24.2335L42.8165 35.0001H48.7665C48.9865 35.0025 49.2021 35.0622 49.3921 35.1732C49.5821 35.2843 49.7398 35.4429 49.8498 35.6335L50.1665 36.1835C50.242 36.313 50.2804 36.4609 50.2775 36.6108C50.2746 36.7607 50.2304 36.907 50.1498 37.0335V37.0335Z" fill="#27AAE1"/>
</svg>
