<svg width="80" height="80" viewBox="0 0 80 80" fill="none" xmlns="http://www.w3.org/2000/svg">
<circle cx="40" cy="40.0001" r="40" fill="#EAFAF3"/>
<path d="M53.3333 25.0001H50.9833C50.5461 25.002 50.1271 25.1755 49.8167 25.4835L37.85 37.4501C36.6912 36.9322 35.4359 36.6652 34.1667 36.6668C32.3537 36.6668 30.5814 37.2044 29.0739 38.2117C27.5665 39.2189 26.3916 40.6505 25.6978 42.3255C25.004 44.0005 24.8224 45.8436 25.1761 47.6218C25.5298 49.3999 26.4029 51.0333 27.6849 52.3153C28.9668 53.5973 30.6002 54.4703 32.3783 54.824C34.1565 55.1777 35.9996 54.9962 37.6746 54.3024C39.3496 53.6085 40.7812 52.4336 41.7885 50.9262C42.7957 49.4187 43.3333 47.6465 43.3333 45.8335C43.3305 44.5717 43.0696 43.3239 42.5667 42.1668L44.0333 40.7001C44.3412 40.3897 44.5148 39.9707 44.5167 39.5335V38.3335C44.517 38.002 44.6489 37.6843 44.8833 37.4501L45.3167 37.0168C45.5509 36.7823 45.8686 36.6504 46.2 36.6501H49.1667C49.3877 36.6501 49.5996 36.5623 49.7559 36.406C49.9122 36.2498 50 36.0378 50 35.8168V32.8835C50.0003 32.552 50.1322 32.2343 50.3667 32.0001H50.45C50.5198 31.9043 50.6097 31.8249 50.7133 31.7674C50.8169 31.7098 50.9318 31.6755 51.05 31.6668H54.1667C54.3877 31.6668 54.5996 31.579 54.7559 31.4227C54.9122 31.2664 55 31.0545 55 30.8335V26.6668C55 26.2248 54.8244 25.8008 54.5118 25.4883C54.1993 25.1757 53.7754 25.0001 53.3333 25.0001V25.0001ZM32.4 50.9335C31.7407 50.9335 31.0963 50.738 30.5481 50.3717C29.9999 50.0054 29.5727 49.4848 29.3204 48.8757C29.0681 48.2666 29.0021 47.5964 29.1307 46.9498C29.2593 46.3032 29.5768 45.7093 30.043 45.2431C30.5092 44.7769 31.1031 44.4595 31.7497 44.3308C32.3963 44.2022 33.0665 44.2682 33.6756 44.5205C34.2847 44.7728 34.8053 45.2001 35.1716 45.7482C35.5378 46.2964 35.7333 46.9409 35.7333 47.6001C35.7333 48.0379 35.6471 48.4713 35.4796 48.8757C35.3121 49.2802 35.0666 49.6476 34.757 49.9571C34.4475 50.2667 34.08 50.5122 33.6756 50.6797C33.2712 50.8472 32.8377 50.9335 32.4 50.9335Z" fill="#2DCA8C"/>
</svg>
