<svg width="80" height="80" viewBox="0 0 80 80" fill="none" xmlns="http://www.w3.org/2000/svg">
<circle cx="40" cy="40.0001" r="40" fill="#FFE3DE"/>
<path d="M39.9997 23.3334C36.7033 23.3334 33.481 24.3109 30.7402 26.1422C27.9994 27.9736 25.8632 30.5765 24.6017 33.622C23.3402 36.6674 23.0102 40.0185 23.6533 43.2515C24.2963 46.4846 25.8837 49.4543 28.2146 51.7852C30.5454 54.116 33.5152 55.7034 36.7482 56.3465C39.9812 56.9895 43.3323 56.6595 46.3777 55.398C49.4232 54.1366 52.0261 52.0004 53.8575 49.2595C55.6889 46.5187 56.6663 43.2964 56.6663 40C56.6663 37.8113 56.2352 35.6441 55.3977 33.622C54.5601 31.5999 53.3324 29.7626 51.7848 28.2149C50.2371 26.6673 48.3998 25.4396 46.3777 24.602C44.3556 23.7645 42.1884 23.3334 39.9997 23.3334V23.3334ZM53.333 40H48.333C48.3255 38.5413 47.9351 37.1101 47.201 35.8495C46.4669 34.5889 45.4147 33.5432 44.1497 32.8167V32.8167L46.6663 28.4667C48.6913 29.6358 50.3731 31.3168 51.5433 33.3411C52.7134 35.3654 53.3306 37.6619 53.333 40V40ZM34.9997 40C34.9997 39.0111 35.2929 38.0444 35.8423 37.2222C36.3917 36.3999 37.1726 35.7591 38.0863 35.3806C38.9999 35.0022 40.0052 34.9032 40.9751 35.0961C41.945 35.289 42.836 35.7652 43.5352 36.4645C44.2345 37.1638 44.7107 38.0547 44.9036 39.0246C45.0965 39.9945 44.9975 40.9998 44.6191 41.9135C44.2406 42.8271 43.5998 43.608 42.7775 44.1574C41.9553 44.7068 40.9886 45 39.9997 45C38.6736 45 37.4018 44.4733 36.4641 43.5356C35.5265 42.5979 34.9997 41.3261 34.9997 40ZM33.333 28.4667L35.833 32.7834C34.5662 33.5148 33.5143 34.5667 32.7829 35.8335C32.0515 37.1003 31.6664 38.5373 31.6663 40H26.6663C26.6687 37.6619 27.286 35.3654 28.4561 33.3411C29.6262 31.3168 31.3081 29.6358 33.333 28.4667V28.4667ZM33.333 51.5334L35.833 47.2167C37.0905 47.9752 38.5311 48.3761 39.9997 48.3761C41.4682 48.3761 42.9089 47.9752 44.1663 47.2167L46.6663 51.5334C44.6422 52.7118 42.3419 53.3327 39.9997 53.3327C37.6575 53.3327 35.3571 52.7118 33.333 51.5334V51.5334Z" fill="#FF6D55"/>
</svg>
