<svg width="530" height="483" viewBox="0 0 530 483" fill="none" xmlns="http://www.w3.org/2000/svg">
<path opacity="0.08" fill-rule="evenodd" clip-rule="evenodd" d="M260.941 461.791C188.956 514.837 86.2724 462.148 89.722 372.708C89.722 371.52 89.8411 370.329 89.8411 369.26C96.6236 256.262 -62.8265 236.764 28.0934 183.004C119.013 129.244 22.0159 91.4226 113.286 55.2659C204.655 19.1189 256.419 -55.5662 368.019 69.6663C469.636 183.728 546.383 138.531 526.988 235.702C523.264 253.785 521.31 272.188 521.154 290.65C521.035 321.218 505.923 375.332 407.404 396.622C354.509 407.708 304.581 429.923 260.94 461.791L260.941 461.791Z" fill="#FF6D55"/>
</svg>
