<svg width="489" height="523" viewBox="0 0 489 523" fill="none" xmlns="http://www.w3.org/2000/svg">
<path opacity="0.12" fill-rule="evenodd" clip-rule="evenodd" d="M366.086 473.402C338.464 444.792 311.106 416.859 270.271 406.555C240.521 399.182 209.135 402.445 181.53 415.78C145.633 433.161 115.208 470.728 72.7728 471.263C50.1233 471.581 28.7293 460.863 15.3938 442.519C-19.4344 394.657 10.8569 343.853 46.6202 307.222C88.5209 264.173 142.167 227.54 141.9 160.827C141.767 121.389 117.613 78.8809 130.959 39.3007C150.442 -18.723 225.841 -0.271339 267.741 17.776C305.639 34.2199 342.071 51.6008 376.367 74.8655C394.25 86.8843 410.931 101.739 420.405 121.124C443.758 168.719 400.254 200.94 387.178 243.187C380.4 265.491 381.82 289.49 391.18 310.836C407.727 350.143 438.687 381.693 466.178 413.513C492.467 443.86 504.076 502.015 456.169 520.065C434.283 528.355 412.545 517.926 396.118 503.22C385.834 493.859 375.961 483.563 366.086 473.402V473.402Z" fill="#27AAE1"/>
</svg>
