<svg width="24" height="25" viewBox="0 0 24 25" fill="none" xmlns="http://www.w3.org/2000/svg">
<mask id="path-1-inside-1" fill="white">
<path d="M2 13V12C2 11.8674 2.05268 11.7402 2.14645 11.6464C2.24021 11.5527 2.36739 11.5 2.5 11.5H18.67L14.22 7.05997C14.1731 7.01349 14.1359 6.95819 14.1106 6.89726C14.0852 6.83633 14.0721 6.77098 14.0721 6.70497C14.0721 6.63897 14.0852 6.57362 14.1106 6.51269C14.1359 6.45176 14.1731 6.39646 14.22 6.34997L14.93 5.64997C14.9765 5.60311 15.0318 5.56591 15.0927 5.54053C15.1536 5.51514 15.219 5.50208 15.285 5.50208C15.351 5.50208 15.4164 5.51514 15.4773 5.54053C15.5382 5.56591 15.5935 5.60311 15.64 5.64997L21.78 11.78C21.9207 11.9205 21.9998 12.1111 22 12.31V12.69C21.9977 12.8884 21.9189 13.0783 21.78 13.22L15.64 19.35C15.5935 19.3968 15.5382 19.434 15.4773 19.4594C15.4164 19.4848 15.351 19.4979 15.285 19.4979C15.219 19.4979 15.1536 19.4848 15.0927 19.4594C15.0318 19.434 14.9765 19.3968 14.93 19.35L14.22 18.64C14.1734 18.5943 14.1364 18.5399 14.1112 18.4798C14.0859 18.4197 14.0729 18.3552 14.0729 18.29C14.0729 18.2248 14.0859 18.1602 14.1112 18.1002C14.1364 18.0401 14.1734 17.9856 14.22 17.94L18.67 13.5H2.5C2.36739 13.5 2.24021 13.4473 2.14645 13.3535C2.05268 13.2598 2 13.1326 2 13Z"/>
</mask>
<path d="M2 13V12C2 11.8674 2.05268 11.7402 2.14645 11.6464C2.24021 11.5527 2.36739 11.5 2.5 11.5H18.67L14.22 7.05997C14.1731 7.01349 14.1359 6.95819 14.1106 6.89726C14.0852 6.83633 14.0721 6.77098 14.0721 6.70497C14.0721 6.63897 14.0852 6.57362 14.1106 6.51269C14.1359 6.45176 14.1731 6.39646 14.22 6.34997L14.93 5.64997C14.9765 5.60311 15.0318 5.56591 15.0927 5.54053C15.1536 5.51514 15.219 5.50208 15.285 5.50208C15.351 5.50208 15.4164 5.51514 15.4773 5.54053C15.5382 5.56591 15.5935 5.60311 15.64 5.64997L21.78 11.78C21.9207 11.9205 21.9998 12.1111 22 12.31V12.69C21.9977 12.8884 21.9189 13.0783 21.78 13.22L15.64 19.35C15.5935 19.3968 15.5382 19.434 15.4773 19.4594C15.4164 19.4848 15.351 19.4979 15.285 19.4979C15.219 19.4979 15.1536 19.4848 15.0927 19.4594C15.0318 19.434 14.9765 19.3968 14.93 19.35L14.22 18.64C14.1734 18.5943 14.1364 18.5399 14.1112 18.4798C14.0859 18.4197 14.0729 18.3552 14.0729 18.29C14.0729 18.2248 14.0859 18.1602 14.1112 18.1002C14.1364 18.0401 14.1734 17.9856 14.22 17.94L18.67 13.5H2.5C2.36739 13.5 2.24021 13.4473 2.14645 13.3535C2.05268 13.2598 2 13.1326 2 13Z" fill="#416FF4"/>
<path d="M18.67 11.5V12.5H21.0881L19.3763 10.7921L18.67 11.5ZM14.22 7.05997L14.9263 6.35207L14.9242 6.34997L14.22 7.05997ZM14.22 6.34997L13.5179 5.63787L13.5158 5.63997L14.22 6.34997ZM14.93 5.64997L15.6321 6.36212L15.64 6.35418L14.93 5.64997ZM15.64 5.64997L14.93 6.35418L14.9335 6.35766L15.64 5.64997ZM21.78 11.78L22.4867 11.0724L22.4865 11.0723L21.78 11.78ZM22 12.31H23V12.3091L22 12.31ZM22 12.69L23 12.7016V12.69H22ZM21.78 13.22L22.4866 13.9277L22.4942 13.9199L21.78 13.22ZM15.64 19.35L14.9335 18.6423L14.93 18.6458L15.64 19.35ZM14.93 19.35L15.64 18.6458L15.6371 18.6429L14.93 19.35ZM14.22 18.64L14.9271 17.9328L14.9199 17.9257L14.22 18.64ZM14.22 17.94L14.9199 18.6543L14.9263 18.6479L14.22 17.94ZM18.67 13.5L19.3763 14.2079L21.0881 12.5H18.67V13.5ZM3 13V12H1V13H3ZM3 12C3 12.1326 2.94732 12.2598 2.85355 12.3535L1.43934 10.9393C1.15804 11.2206 1 11.6021 1 12H3ZM2.85355 12.3535C2.75978 12.4473 2.63261 12.5 2.5 12.5V10.5C2.10218 10.5 1.72065 10.658 1.43934 10.9393L2.85355 12.3535ZM2.5 12.5H18.67V10.5H2.5V12.5ZM19.3763 10.7921L14.9263 6.35207L13.5137 7.76788L17.9637 12.2079L19.3763 10.7921ZM14.9242 6.34997C14.9711 6.39646 15.0083 6.45176 15.0336 6.51269L13.1875 7.28184C13.2636 7.46463 13.3752 7.63053 13.5158 7.76997L14.9242 6.34997ZM15.0336 6.51269C15.059 6.57361 15.0721 6.63896 15.0721 6.70497H13.0721C13.0721 6.903 13.1113 7.09906 13.1875 7.28184L15.0336 6.51269ZM15.0721 6.70497C15.0721 6.77099 15.059 6.83634 15.0336 6.89726L13.1875 6.12811C13.1113 6.31089 13.0721 6.50695 13.0721 6.70497H15.0721ZM15.0336 6.89726C15.0083 6.95819 14.9711 7.01349 14.9242 7.05997L13.5158 5.63997C13.3752 5.77942 13.2636 5.94532 13.1875 6.12811L15.0336 6.89726ZM14.9221 7.06208L15.6321 6.36208L14.2279 4.93787L13.5179 5.63787L14.9221 7.06208ZM15.64 6.35418C15.5935 6.40104 15.5382 6.43824 15.4773 6.46362L14.7081 4.61744C14.5253 4.69359 14.3594 4.80518 14.22 4.94577L15.64 6.35418ZM15.4773 6.46362C15.4164 6.48901 15.351 6.50208 15.285 6.50208V4.50208C15.087 4.50208 14.8909 4.54128 14.7081 4.61744L15.4773 6.46362ZM15.285 6.50208C15.219 6.50208 15.1536 6.48901 15.0927 6.46362L15.8619 4.61744C15.6791 4.54128 15.483 4.50208 15.285 4.50208V6.50208ZM15.0927 6.46362C15.0318 6.43824 14.9765 6.40104 14.93 6.35418L16.35 4.94577C16.2106 4.80518 16.0447 4.69359 15.8619 4.61744L15.0927 6.46362ZM14.9335 6.35766L21.0735 12.4877L22.4865 11.0723L16.3465 4.94229L14.9335 6.35766ZM21.0733 12.4875C21.0264 12.4407 21.0001 12.3771 21 12.3109L23 12.3091C22.9996 11.8451 22.815 11.4003 22.4867 11.0724L21.0733 12.4875ZM21 12.31V12.69H23V12.31H21ZM21.0001 12.6784C21.0008 12.6191 21.0243 12.5624 21.0658 12.5201L22.4942 13.9199C22.8135 13.5941 22.9946 13.1577 22.9999 12.7016L21.0001 12.6784ZM21.0735 12.5123L14.9335 18.6423L16.3465 20.0577L22.4865 13.9277L21.0735 12.5123ZM14.93 18.6458C14.9765 18.5989 15.0318 18.5617 15.0927 18.5363L15.8619 20.3825C16.0447 20.3064 16.2106 20.1948 16.35 20.0542L14.93 18.6458ZM15.0927 18.5363C15.1536 18.5109 15.219 18.4979 15.285 18.4979V20.4979C15.483 20.4979 15.6791 20.4587 15.8619 20.3825L15.0927 18.5363ZM15.285 18.4979C15.351 18.4979 15.4164 18.5109 15.4773 18.5363L14.7081 20.3825C14.8909 20.4587 15.087 20.4979 15.285 20.4979V18.4979ZM15.4773 18.5363C15.5382 18.5617 15.5935 18.5989 15.64 18.6458L14.22 20.0542C14.3594 20.1948 14.5253 20.3064 14.7081 20.3825L15.4773 18.5363ZM15.6371 18.6429L14.9271 17.9329L13.5129 19.3471L14.2229 20.0571L15.6371 18.6429ZM14.9199 17.9257C14.9683 17.9732 15.0068 18.0298 15.0331 18.0924L13.1893 18.8672C13.2661 19.0499 13.3786 19.2155 13.5201 19.3543L14.9199 17.9257ZM15.0331 18.0924C15.0594 18.155 15.0729 18.2221 15.0729 18.29H13.0729C13.0729 18.4882 13.1125 18.6844 13.1893 18.8672L15.0331 18.0924ZM15.0729 18.29C15.0729 18.3578 15.0594 18.425 15.0331 18.4875L13.1893 17.7128C13.1125 17.8955 13.0729 18.0917 13.0729 18.29H15.0729ZM15.0331 18.4875C15.0068 18.5501 14.9683 18.6068 14.9199 18.6543L13.5201 17.2257C13.3786 17.3644 13.2661 17.53 13.1893 17.7128L15.0331 18.4875ZM14.9263 18.6479L19.3763 14.2079L17.9637 12.7921L13.5137 17.2321L14.9263 18.6479ZM18.67 12.5H2.5V14.5H18.67V12.5ZM2.5 12.5C2.63261 12.5 2.75978 12.5527 2.85355 12.6464L1.43934 14.0606C1.72065 14.3419 2.10218 14.5 2.5 14.5V12.5ZM2.85355 12.6464C2.94732 12.7402 3 12.8674 3 13H1C1 13.3978 1.15804 13.7793 1.43934 14.0606L2.85355 12.6464Z" fill="#416FF4" mask="url(#path-1-inside-1)"/>
</svg>
