<svg width="25" height="25" viewBox="0 0 25 25" fill="none" xmlns="http://www.w3.org/2000/svg">
<mask id="path-1-inside-1" fill="white">
<path d="M2.76758 13.1374V12.1374C2.76758 12.0048 2.82026 11.8776 2.91402 11.7839C3.00779 11.6901 3.13497 11.6374 3.26758 11.6374H19.4376L14.9876 7.19743C14.9407 7.15094 14.9035 7.09564 14.8781 7.03471C14.8527 6.97378 14.8397 6.90843 14.8397 6.84243C14.8397 6.77642 14.8527 6.71107 14.8781 6.65014C14.9035 6.58921 14.9407 6.53391 14.9876 6.48743L15.6976 5.78743C15.7441 5.74056 15.7994 5.70336 15.8603 5.67798C15.9212 5.6526 15.9866 5.63953 16.0526 5.63953C16.1186 5.63953 16.1839 5.6526 16.2449 5.67798C16.3058 5.70336 16.3611 5.74056 16.4076 5.78743L22.5476 11.9174C22.6883 12.0579 22.7674 12.2486 22.7676 12.4474V12.8274C22.7653 13.0258 22.6865 13.2157 22.5476 13.3574L16.4076 19.4874C16.3611 19.5343 16.3058 19.5715 16.2449 19.5969C16.1839 19.6223 16.1186 19.6353 16.0526 19.6353C15.9866 19.6353 15.9212 19.6223 15.8603 19.5969C15.7994 19.5715 15.7441 19.5343 15.6976 19.4874L14.9876 18.7774C14.941 18.7318 14.904 18.6773 14.8788 18.6172C14.8535 18.5571 14.8405 18.4926 14.8405 18.4274C14.8405 18.3622 14.8535 18.2977 14.8788 18.2376C14.904 18.1775 14.941 18.123 14.9876 18.0774L19.4376 13.6374H3.26758C3.13497 13.6374 3.00779 13.5847 2.91402 13.491C2.82026 13.3972 2.76758 13.27 2.76758 13.1374Z"/>
</mask>
<path d="M2.76758 13.1374V12.1374C2.76758 12.0048 2.82026 11.8776 2.91402 11.7839C3.00779 11.6901 3.13497 11.6374 3.26758 11.6374H19.4376L14.9876 7.19743C14.9407 7.15094 14.9035 7.09564 14.8781 7.03471C14.8527 6.97378 14.8397 6.90843 14.8397 6.84243C14.8397 6.77642 14.8527 6.71107 14.8781 6.65014C14.9035 6.58921 14.9407 6.53391 14.9876 6.48743L15.6976 5.78743C15.7441 5.74056 15.7994 5.70336 15.8603 5.67798C15.9212 5.6526 15.9866 5.63953 16.0526 5.63953C16.1186 5.63953 16.1839 5.6526 16.2449 5.67798C16.3058 5.70336 16.3611 5.74056 16.4076 5.78743L22.5476 11.9174C22.6883 12.0579 22.7674 12.2486 22.7676 12.4474V12.8274C22.7653 13.0258 22.6865 13.2157 22.5476 13.3574L16.4076 19.4874C16.3611 19.5343 16.3058 19.5715 16.2449 19.5969C16.1839 19.6223 16.1186 19.6353 16.0526 19.6353C15.9866 19.6353 15.9212 19.6223 15.8603 19.5969C15.7994 19.5715 15.7441 19.5343 15.6976 19.4874L14.9876 18.7774C14.941 18.7318 14.904 18.6773 14.8788 18.6172C14.8535 18.5571 14.8405 18.4926 14.8405 18.4274C14.8405 18.3622 14.8535 18.2977 14.8788 18.2376C14.904 18.1775 14.941 18.123 14.9876 18.0774L19.4376 13.6374H3.26758C3.13497 13.6374 3.00779 13.5847 2.91402 13.491C2.82026 13.3972 2.76758 13.27 2.76758 13.1374Z" fill="#FF6D55"/>
<path d="M19.4376 11.6374V12.6374H21.8556L20.1439 10.9295L19.4376 11.6374ZM14.9876 7.19743L15.6939 6.48952L15.6918 6.48743L14.9876 7.19743ZM14.9876 6.48743L14.2855 5.77532L14.2834 5.77743L14.9876 6.48743ZM15.6976 5.78743L16.3997 6.49957L16.4076 6.49163L15.6976 5.78743ZM16.4076 5.78743L15.6976 6.49164L15.701 6.49511L16.4076 5.78743ZM22.5476 11.9174L23.2542 11.2099L23.2541 11.2097L22.5476 11.9174ZM22.7676 12.4474H23.7676V12.4465L22.7676 12.4474ZM22.7676 12.8274L23.7676 12.839V12.8274H22.7676ZM22.5476 13.3574L23.2542 14.0651L23.2618 14.0573L22.5476 13.3574ZM16.4076 19.4874L15.701 18.7797L15.6976 18.7832L16.4076 19.4874ZM15.6976 19.4874L16.4076 18.7832L16.4047 18.7803L15.6976 19.4874ZM14.9876 18.7774L15.6947 18.0703L15.6874 18.0631L14.9876 18.7774ZM14.9876 18.0774L15.6875 18.7917L15.6939 18.7853L14.9876 18.0774ZM19.4376 13.6374L20.1439 14.3453L21.8556 12.6374H19.4376V13.6374ZM3.76758 13.1374V12.1374H1.76758V13.1374H3.76758ZM3.76758 12.1374C3.76758 12.27 3.7149 12.3972 3.62113 12.491L2.20692 11.0768C1.92561 11.3581 1.76758 11.7396 1.76758 12.1374H3.76758ZM3.62113 12.491C3.52736 12.5847 3.40018 12.6374 3.26758 12.6374V10.6374C2.86976 10.6374 2.48822 10.7955 2.20692 11.0768L3.62113 12.491ZM3.26758 12.6374H19.4376V10.6374H3.26758V12.6374ZM20.1439 10.9295L15.6939 6.48952L14.2813 7.90533L18.7313 12.3453L20.1439 10.9295ZM15.6918 6.48743C15.7386 6.53391 15.7758 6.58921 15.8012 6.65014L13.955 7.41929C14.0312 7.60208 14.1428 7.76798 14.2834 7.90743L15.6918 6.48743ZM15.8012 6.65014C15.8266 6.71106 15.8397 6.77641 15.8397 6.84243H13.8397C13.8397 7.04045 13.8789 7.23651 13.955 7.41929L15.8012 6.65014ZM15.8397 6.84243C15.8397 6.90844 15.8266 6.97379 15.8012 7.03471L13.955 6.26556C13.8789 6.44834 13.8397 6.6444 13.8397 6.84243H15.8397ZM15.8012 7.03471C15.7758 7.09564 15.7386 7.15094 15.6918 7.19743L14.2834 5.77743C14.1428 5.91687 14.0312 6.08277 13.955 6.26556L15.8012 7.03471ZM15.6897 7.19953L16.3997 6.49953L14.9955 5.07532L14.2855 5.77532L15.6897 7.19953ZM16.4076 6.49163C16.3611 6.53849 16.3058 6.57569 16.2449 6.60107L15.4757 4.75489C15.2929 4.83104 15.127 4.94263 14.9876 5.08322L16.4076 6.49163ZM16.2449 6.60107C16.1839 6.62646 16.1186 6.63953 16.0526 6.63953V4.63953C15.8546 4.63953 15.6585 4.67873 15.4757 4.75489L16.2449 6.60107ZM16.0526 6.63953C15.9866 6.63953 15.9212 6.62646 15.8603 6.60107L16.6294 4.75489C16.4467 4.67873 16.2506 4.63953 16.0526 4.63953V6.63953ZM15.8603 6.60107C15.7994 6.57569 15.7441 6.53849 15.6976 6.49163L17.1176 5.08322C16.9781 4.94263 16.8122 4.83104 16.6294 4.75489L15.8603 6.60107ZM15.701 6.49511L21.8411 12.6251L23.2541 11.2097L17.1141 5.07974L15.701 6.49511ZM21.8409 12.625C21.794 12.5781 21.7676 12.5146 21.7676 12.4483L23.7676 12.4465C23.7672 11.9826 23.5825 11.5378 23.2542 11.2099L21.8409 12.625ZM21.7676 12.4474V12.8274H23.7676V12.4474H21.7676ZM21.7676 12.8158C21.7683 12.7565 21.7919 12.6998 21.8334 12.6575L23.2618 14.0573C23.5811 13.7316 23.7622 13.2951 23.7675 12.839L21.7676 12.8158ZM21.8411 12.6497L15.701 18.7797L17.1141 20.1951L23.2541 14.0651L21.8411 12.6497ZM15.6976 18.7832C15.7441 18.7364 15.7994 18.6992 15.8603 18.6738L16.6294 20.52C16.8122 20.4438 16.9781 20.3322 17.1176 20.1916L15.6976 18.7832ZM15.8603 18.6738C15.9212 18.6484 15.9866 18.6353 16.0526 18.6353V20.6353C16.2506 20.6353 16.4467 20.5961 16.6294 20.52L15.8603 18.6738ZM16.0526 18.6353C16.1186 18.6353 16.1839 18.6484 16.2449 18.6738L15.4757 20.52C15.6585 20.5961 15.8546 20.6353 16.0526 20.6353V18.6353ZM16.2449 18.6738C16.3058 18.6992 16.3611 18.7364 16.4076 18.7832L14.9876 20.1916C15.127 20.3322 15.2929 20.4438 15.4757 20.52L16.2449 18.6738ZM16.4047 18.7803L15.6947 18.0703L14.2805 19.4845L14.9905 20.1945L16.4047 18.7803ZM15.6874 18.0631C15.7359 18.1106 15.7744 18.1673 15.8007 18.2299L13.9569 19.0046C14.0337 19.1874 14.1461 19.353 14.2877 19.4917L15.6874 18.0631ZM15.8007 18.2299C15.827 18.2924 15.8405 18.3596 15.8405 18.4274H13.8405C13.8405 18.6257 13.8801 18.8219 13.9569 19.0046L15.8007 18.2299ZM15.8405 18.4274C15.8405 18.4953 15.827 18.5624 15.8007 18.625L13.9569 17.8502C13.8801 18.033 13.8405 18.2292 13.8405 18.4274H15.8405ZM15.8007 18.625C15.7744 18.6876 15.7359 18.7442 15.6874 18.7917L14.2877 17.3631C14.1461 17.5019 14.0337 17.6674 13.9569 17.8502L15.8007 18.625ZM15.6939 18.7853L20.1439 14.3453L18.7313 12.9295L14.2813 17.3695L15.6939 18.7853ZM19.4376 12.6374H3.26758V14.6374H19.4376V12.6374ZM3.26758 12.6374C3.40018 12.6374 3.52736 12.6901 3.62113 12.7839L2.20692 14.1981C2.48822 14.4794 2.86976 14.6374 3.26758 14.6374V12.6374ZM3.62113 12.7839C3.7149 12.8776 3.76758 13.0048 3.76758 13.1374H1.76758C1.76758 13.5352 1.92561 13.9168 2.20692 14.1981L3.62113 12.7839Z" fill="#FF6D55" mask="url(#path-1-inside-1)"/>
</svg>
