<svg width="24" height="25" viewBox="0 0 24 25" fill="none" xmlns="http://www.w3.org/2000/svg">
<g opacity="0.5">
<path d="M21.7609 6.40713C21.0336 6.73076 20.2532 6.95025 19.4332 7.04824C20.2705 6.54477 20.9113 5.74622 21.2151 4.7976C20.4297 5.26383 19.5629 5.60238 18.6392 5.7859C17.8996 4.99354 16.8475 4.5 15.6806 4.5C13.4418 4.5 11.6266 6.32283 11.6266 8.56974C11.6266 8.88841 11.6624 9.19966 11.7316 9.49728C8.36302 9.32738 5.37599 7.70669 3.37681 5.24399C3.02734 5.84417 2.82854 6.54351 2.82854 7.29003C2.82854 8.70242 3.54474 9.94864 4.6314 10.6777C3.96705 10.6554 3.34223 10.4719 2.79522 10.1669V10.2177C2.79522 12.1893 4.19304 13.8348 6.0465 14.2093C5.70692 14.3011 5.34883 14.3519 4.97838 14.3519C4.71661 14.3519 4.46346 14.3259 4.21526 14.2763C4.7314 15.8945 6.22803 17.0713 8.00125 17.1035C6.61453 18.1948 4.86601 18.8433 2.96686 18.8433C2.63965 18.8433 2.31734 18.8234 2 18.7875C3.79421 19.9444 5.92429 20.619 8.21365 20.619C15.6708 20.619 19.7469 14.4164 19.7469 9.03724L19.7333 8.51024C20.5298 7.93979 21.2188 7.22307 21.7609 6.40713Z" fill="#F2F2F2"/>
</g>
</svg>
