<svg width="24" height="25" viewBox="0 0 24 25" fill="none" xmlns="http://www.w3.org/2000/svg">
<g opacity="0.5">
<path d="M7.5 10V20C7.5 20.1326 7.44732 20.2598 7.35355 20.3536C7.25979 20.4473 7.13261 20.5 7 20.5H4.5C4.36739 20.5 4.24022 20.4473 4.14645 20.3536C4.05268 20.2598 4 20.1326 4 20V10C4 9.86739 4.05268 9.74021 4.14645 9.64645C4.24022 9.55268 4.36739 9.5 4.5 9.5H7C7.13261 9.5 7.25979 9.55268 7.35355 9.64645C7.44732 9.74021 7.5 9.86739 7.5 10ZM21 13.91C21.0167 12.8591 20.6739 11.834 20.0282 11.0047C19.3826 10.1754 18.4729 9.59154 17.45 9.35C16.754 9.20013 16.0322 9.21906 15.345 9.40521C14.6578 9.59136 14.0252 9.93932 13.5 10.42V10C13.5 9.86739 13.4473 9.74021 13.3536 9.64645C13.2598 9.55268 13.1326 9.5 13 9.5H10.5C10.3674 9.5 10.2402 9.55268 10.1464 9.64645C10.0527 9.74021 10 9.86739 10 10V20C10 20.1326 10.0527 20.2598 10.1464 20.3536C10.2402 20.4473 10.3674 20.5 10.5 20.5H13C13.1326 20.5 13.2598 20.4473 13.3536 20.3536C13.4473 20.2598 13.5 20.1326 13.5 20V14.36C13.488 13.8735 13.6479 13.3983 13.9515 13.0179C14.255 12.6375 14.6829 12.3762 15.16 12.28C15.4496 12.23 15.7467 12.2445 16.0301 12.3223C16.3135 12.4002 16.5762 12.5396 16.7997 12.7305C17.0231 12.9215 17.2017 13.1593 17.3227 13.4271C17.4437 13.6949 17.5043 13.9861 17.5 14.28V20C17.5 20.1326 17.5527 20.2598 17.6464 20.3536C17.7402 20.4473 17.8674 20.5 18 20.5H20.5C20.6326 20.5 20.7598 20.4473 20.8536 20.3536C20.9473 20.2598 21 20.1326 21 20V13.91ZM5.5 3.5C5.10444 3.5 4.71776 3.6173 4.38886 3.83706C4.05996 4.05682 3.80362 4.36918 3.65224 4.73463C3.50087 5.10009 3.46126 5.50222 3.53843 5.89018C3.6156 6.27814 3.80608 6.63451 4.08579 6.91421C4.36549 7.19392 4.72186 7.3844 5.10982 7.46157C5.49778 7.53874 5.89992 7.49913 6.26537 7.34776C6.63082 7.19638 6.94318 6.94004 7.16294 6.61114C7.3827 6.28224 7.5 5.89556 7.5 5.5C7.5 4.96957 7.28929 4.46086 6.91421 4.08579C6.53914 3.71071 6.03043 3.5 5.5 3.5Z" fill="#F2F2F2"/>
</g>
</svg>
