<svg width="24" height="25" viewBox="0 0 24 25" fill="none" xmlns="http://www.w3.org/2000/svg">
<g opacity="0.5">
<path d="M16.4806 2.5C19.5241 2.5 22.0001 4.97601 22 8.01928V16.9807C22 20.024 19.5241 22.5 16.4806 22.5H7.51916C4.4759 22.5 2 20.0241 2 16.9807V8.01928C2 4.97601 4.4759 2.5 7.51916 2.5H16.4806ZM20.2256 16.9807H20.2255V8.01928C20.2255 5.95447 18.5455 4.2745 16.4806 4.2745H7.51916C5.45435 4.2745 3.7745 5.95447 3.7745 8.01928V16.9807C3.7745 19.0456 5.45435 20.7256 7.51916 20.7255H16.4807C18.5456 20.7255 20.2256 19.0456 20.2256 16.9807ZM12 7.5C14.757 7.5 17 9.74301 17 12.5001C17 15.2571 14.757 17.5 12 17.5C9.24296 17.5 7 15.2571 7 12.5001C7 9.74301 9.24296 7.5 12 7.5ZM12 15.7782C13.8076 15.7782 15.2784 14.3077 15.2784 12.5C15.2784 10.6922 13.8077 9.22157 12 9.22157C10.1923 9.22157 8.72164 10.6922 8.72164 12.5C8.72164 14.3077 10.1924 15.7782 12 15.7782ZM17.4167 5.83333C17.7462 5.83333 18.0689 5.96629 18.3008 6.19924C18.5337 6.43106 18.6667 6.75379 18.6667 7.08333C18.6667 7.41174 18.5337 7.73447 18.3008 7.96742C18.0678 8.19924 17.7462 8.33333 17.4167 8.33333C17.0883 8.33333 16.7655 8.19924 16.5337 7.96742C16.3008 7.73447 16.1667 7.41186 16.1667 7.08333C16.1667 6.75379 16.3006 6.43106 16.5337 6.19924C16.7656 5.96629 17.0883 5.83333 17.4167 5.83333Z" fill="#F2F2F2"/>
</g>
</svg>
