<svg width="178" height="63" viewBox="0 0 178 63" fill="none" xmlns="http://www.w3.org/2000/svg">
<g clip-path="url(#clip0)">
<path d="M138.43 24.0831C138.43 24.8248 137.994 25.3047 136.903 26.2645L134.111 28.5769L134.067 23.1233L135.376 24.1704C136.03 23.3414 136.51 22.9488 137.208 22.9488C137.906 22.9051 138.43 23.3414 138.43 24.0831ZM118.405 32.6343L118.318 13.2195L126.04 24.8248L140.001 3.35942H139.739L134.111 3.40305H133.5L126.258 15.1828L118.885 3.44668L112.297 3.4903L112.428 32.6343H118.405ZM140.262 30.2348L134.111 30.2784V32.6343H140.262V30.2348ZM158.76 0H158.717L152.696 0.0436288L152.783 20.3747L140.917 4.97368L133.98 15.6191L134.024 22.9488C134.896 21.8144 135.725 21.2036 137.296 21.16C138.692 21.16 139.739 21.7708 140.175 22.7742L140.131 13.4813L154.441 32.5471L158.891 32.5035L158.76 6.80609C166.613 11.4744 171.892 20.0256 171.936 29.8421C172.023 44.7195 159.982 56.8483 145.105 56.9356C138.255 56.9792 131.973 54.4488 127.218 50.2604H118.972C125.036 58.0263 134.547 63.0436 145.149 63C163.341 62.9127 178.087 48.0353 178 29.8421C177.913 16.6226 170.016 5.23546 158.76 0ZM140.262 28.5332V25.1302C139.957 25.9591 139.259 26.5699 138.125 27.4425L136.685 28.5769L140.262 28.5332Z" fill="#416FF4"/>
<path d="M0.17627 37.6516H1.04882L3.84098 41.84L6.63313 37.6516H7.50568V45.2867H6.63313V39.135L3.84098 43.2361H3.79735L1.00519 39.135V45.3303H0.17627V37.6516Z" fill="white"/>
<path d="M7.6348 45.4612H6.45686V39.6586L3.92647 43.367H3.70833L1.17794 39.6586V45.4612H0V37.5208H1.13431L3.83922 41.5782L6.54412 37.5208H7.67843V45.4612H7.6348ZM6.80588 45.1558H7.32941V37.8262H6.71863L3.83922 42.1454L0.959804 37.8262H0.34902V45.1558H0.872549V38.6115L3.83922 42.9744L6.80588 38.6115V45.1558Z" fill="white"/>
<path d="M9.73071 37.6516H10.6033V45.2867H9.73071V37.6516Z" fill="white"/>
<path d="M10.7324 45.4612H9.55444V37.5208H10.7324V45.4612ZM9.90346 45.1558H10.427V37.8262H9.90346V45.1558Z" fill="white"/>
<path d="M12.8281 37.6516H13.657L18.4561 43.7597V37.6516H19.285V45.2867H18.5869L13.657 39.0477V45.3303H12.8281V37.6516Z" fill="white"/>
<path d="M19.4577 45.4612H18.5416L13.8298 39.5277V45.5048H12.6519V37.5208H13.6989L18.2798 43.3234V37.5208H19.4577V45.4612ZM18.6724 45.1558H19.1087V37.8262H18.5852V44.2832L13.568 37.8262H13.0009V45.1558H13.5244V38.5678L18.6724 45.1558Z" fill="white"/>
<path d="M21.1174 41.5347C21.1174 39.3969 22.688 37.5645 25.0439 37.5645C27.3562 37.5645 28.9267 39.3969 28.9267 41.491C28.9267 43.5852 27.3562 45.4613 25.0003 45.4613C22.6444 45.4613 21.1174 43.6289 21.1174 41.5347ZM28.0106 41.5347C28.0106 39.7895 26.7454 38.3498 25.0003 38.3498C23.2552 38.3498 21.99 39.7459 21.99 41.491C21.99 43.2362 23.2552 44.6323 25.0003 44.6323C26.789 44.6323 28.0106 43.2362 28.0106 41.5347Z" fill="white"/>
<path d="M24.9985 45.592C22.6863 45.592 20.9412 43.8469 20.9412 41.4909V41.4473C20.9412 39.135 22.7299 37.3462 24.9985 37.3462C27.3108 37.3462 29.0559 39.0913 29.0559 41.4473C29.0995 43.8033 27.3108 45.592 24.9985 45.592ZM25.0421 37.6952C22.948 37.6952 21.2902 39.3531 21.2902 41.4909V41.5346C21.2902 43.6724 22.9044 45.2866 24.9985 45.2866C27.0926 45.2866 28.7505 43.6287 28.7505 41.4909C28.7505 39.3095 27.1799 37.6952 25.0421 37.6952ZM25.0421 44.8067C23.2534 44.8067 21.8573 43.367 21.8573 41.4909C21.8573 39.5713 23.2098 38.1751 24.9985 38.1751C26.7872 38.1751 28.1833 39.6149 28.1833 41.4909V41.5346C28.1833 43.4106 26.8309 44.8067 25.0421 44.8067ZM24.9985 38.4805C23.3843 38.4805 22.1627 39.7458 22.1627 41.4473C22.1627 43.1925 23.3843 44.4577 24.9985 44.4577C26.6127 44.4577 27.8343 43.1924 27.8343 41.4909V41.4473C27.8779 39.7894 26.6564 38.4805 24.9985 38.4805Z" fill="white"/>
<path d="M30.759 37.6516H34.0311C34.9909 37.6516 35.7326 37.957 36.2125 38.4369C36.6051 38.8296 36.8233 39.3531 36.8233 39.9639V40.0076C36.8233 41.2728 35.9507 42.0145 34.7291 42.2326L37.085 45.3739H36.038L33.813 42.4072H31.6316V45.3739H30.759V37.6516ZM33.9438 41.5782C35.0782 41.5782 35.9071 40.9674 35.9071 40.0076C35.9071 39.0477 35.1654 38.4806 33.9438 38.4806H31.588V41.5782H33.9438Z" fill="white"/>
<path d="M37.3886 45.4612H35.9053L33.6803 42.4944H31.7607V45.4612H30.5828V37.5208H34.0293C34.9891 37.5208 35.7744 37.8262 36.298 38.3497C36.6906 38.7424 36.9524 39.3532 36.9524 39.964C36.9524 41.1419 36.2107 42.0145 34.9891 42.3199L37.3886 45.4612ZM36.0798 45.1558H36.7342L34.422 42.1018L34.6837 42.0582C35.9053 41.84 36.647 41.0983 36.647 40.0076C36.647 39.4404 36.4725 38.9605 36.1234 38.6115C35.6435 38.1316 34.9455 37.9134 34.073 37.9134H30.9318V45.2431H31.4553V42.2763H33.8984L36.0798 45.1558ZM33.9421 41.7527H31.4117V38.3061H33.9421C35.2509 38.3061 36.0798 38.9169 36.0798 39.964C36.0798 41.0547 35.2509 41.7527 33.9421 41.7527ZM31.7607 41.4037H33.9421C35.0328 41.4037 35.7308 40.8365 35.7308 40.0076C35.7308 39.135 35.0764 38.6551 33.9421 38.6551H31.7607V41.4037Z" fill="white"/>
<path d="M38.7429 37.6516H39.6155V45.2867H38.7429V37.6516Z" fill="white"/>
<path d="M39.7446 45.4612H38.5667V37.5208H39.7446V45.4612ZM38.872 45.1558H39.3956V37.8262H38.872V45.1558Z" fill="white"/>
<path d="M43.8475 38.4806H41.2734V37.6953H47.294V38.4806H44.72V45.3304H43.8475V38.4806Z" fill="white"/>
<path d="M44.8928 45.4612H43.6712V38.6115H41.0972V37.5208H47.4231V38.6551H44.8491V45.4612H44.8928ZM44.0202 45.1558H44.5874V38.3061H47.1614V37.8262H41.4462V38.3061H44.0202V45.1558Z" fill="white"/>
<path d="M51.3059 42.2763L48.1211 37.6516H49.1682L51.7422 41.4909L54.3598 37.6516H55.3633L52.1785 42.2763V45.3303H51.3059V42.2763Z" fill="white"/>
<path d="M52.3529 45.4612H51.1314V42.3199L47.8157 37.5208H49.2554L51.7421 41.2292L54.2725 37.5208H55.6686L52.3529 42.3199V45.4612ZM51.4804 45.1558H52.0475V42.2327L55.0578 37.8262H54.447L51.7421 41.7964L49.0809 37.8262H48.4265L51.4368 42.2327V45.1558H51.4804Z" fill="white"/>
<path d="M60.0332 37.6516H60.9058L63.6979 41.84L66.4901 37.6516H67.3626V45.2867H66.4901V39.135L63.6979 43.2361H63.6543L60.8621 39.135V45.3303H60.0332V37.6516Z" fill="white"/>
<path d="M67.4917 45.4612H66.3138V39.6586L63.7834 43.367H63.5653L61.0349 39.6586V45.4612H59.8569V37.5208H60.9913L63.6962 41.5782L66.4011 37.5208H67.5354V45.4612H67.4917ZM66.6192 45.1558H67.1427V37.8262H66.5319L63.6525 42.1454L60.7731 37.8262H60.1623V45.1558H60.6859V38.6115L63.6525 42.9744L66.6192 38.6115V45.1558Z" fill="white"/>
<path d="M69.1514 41.5347C69.1514 39.3969 70.722 37.5645 73.0778 37.5645C75.3901 37.5645 76.9607 39.3969 76.9607 41.491C76.9607 43.5852 75.3901 45.4613 73.0342 45.4613C70.722 45.4613 69.1514 43.6289 69.1514 41.5347ZM76.0881 41.5347C76.0881 39.7895 74.8229 38.3498 73.0778 38.3498C71.3327 38.3498 70.0675 39.7459 70.0675 41.491C70.0675 43.2362 71.3327 44.6323 73.0778 44.6323C74.8229 44.6323 76.0881 43.2362 76.0881 41.5347Z" fill="white"/>
<path d="M73.0324 45.592C70.7202 45.592 68.9751 43.8469 68.9751 41.4909V41.4473C68.9751 39.135 70.7638 37.3462 73.0324 37.3462C75.3447 37.3462 77.0898 39.0913 77.0898 41.4473C77.1334 43.8033 75.3447 45.592 73.0324 45.592ZM73.0761 37.6952C70.982 37.6952 69.3241 39.3531 69.3241 41.4909V41.5346C69.3241 43.6724 70.9383 45.2866 73.0324 45.2866C75.1266 45.2866 76.7844 43.6287 76.7844 41.4909C76.7844 39.3095 75.2138 37.6952 73.0761 37.6952ZM73.0761 44.8067C71.2874 44.8067 69.8913 43.367 69.8913 41.4909C69.8913 39.5713 71.2437 38.1751 73.0324 38.1751C74.8212 38.1751 76.2173 39.6149 76.2173 41.4909V41.5346C76.2173 43.4106 74.8648 44.8067 73.0761 44.8067ZM73.0324 38.4805C71.4182 38.4805 70.1967 39.7458 70.1967 41.4473C70.1967 43.1925 71.4182 44.4577 73.0324 44.4577C74.6467 44.4577 75.8682 43.1924 75.8682 41.4909V41.4473C75.9119 39.7894 74.6903 38.4805 73.0324 38.4805Z" fill="white"/>
<path d="M77.7004 37.6516H78.6602L81.3651 44.2396L84.1137 37.6516H85.0299L81.7578 45.3739H80.9725L77.7004 37.6516Z" fill="white"/>
<path d="M81.8451 45.5485H80.8853L77.4387 37.5208H78.7475L81.3652 43.8469L83.9828 37.5208H85.248L81.8451 45.5485ZM81.1034 45.1994H81.6706L84.8118 37.8262H84.201L81.3652 44.6759L78.5294 37.8262H77.9186L81.1034 45.1994Z" fill="white"/>
<path d="M86.5583 37.6516H92.0553V38.4369H87.3872V41.0547H91.5754V41.84H87.3872V44.5013H92.099V45.2867H86.5146V37.6516H86.5583Z" fill="white"/>
<path d="M92.272 45.4612H86.3823V37.5208H92.2284V38.6551H87.5603V40.9238H91.7485V42.0582H87.5603V44.4141H92.272V45.4612ZM86.6877 45.1558H91.923V44.6759H87.2549V41.6655H91.4431V41.1856H87.2549V38.2624H91.923V37.7825H86.7313V45.1558H86.6877Z" fill="white"/>
<path d="M93.3628 44.1959L93.8863 43.5415C94.6716 44.2831 95.4569 44.6322 96.504 44.6322C97.551 44.6322 98.2054 44.065 98.2054 43.3233V43.2797C98.2054 42.5816 97.8128 42.1453 96.1986 41.8399C94.4535 41.4473 93.6246 40.8801 93.6246 39.6149V39.5712C93.6246 38.3496 94.6716 37.4771 96.1549 37.4771C97.2893 37.4771 98.0746 37.7825 98.8599 38.4369L98.3363 39.0913C97.6383 38.5241 96.8966 38.2624 96.1113 38.2624C95.1079 38.2624 94.4971 38.8295 94.4971 39.484C94.4971 40.2257 94.8898 40.6183 96.5912 40.9674C98.2927 41.36 99.078 41.9708 99.078 43.1488C99.078 44.4577 97.9873 45.3302 96.4603 45.3302C95.2824 45.4175 94.279 45.0248 93.3628 44.1959Z" fill="white"/>
<path d="M96.5038 45.592C95.2823 45.592 94.2352 45.1994 93.2754 44.3268L93.1445 44.2395L93.8862 43.3669L94.0171 43.4978C94.846 44.2395 95.544 44.5449 96.5475 44.5449C97.4637 44.5449 98.0744 44.1086 98.0744 43.4106C98.0744 42.7998 97.769 42.4071 96.1985 42.1017C94.5842 41.7527 93.4936 41.2291 93.4936 39.7457C93.4936 38.4369 94.6279 37.4771 96.1548 37.4771C97.2455 37.4771 98.0744 37.7825 98.947 38.4369L99.0779 38.5241L98.3798 39.4403L98.2489 39.3531C97.5945 38.8295 96.8965 38.5678 96.1548 38.5678C95.2823 38.5678 94.6715 39.0041 94.6715 39.6585C94.6715 40.2693 94.9769 40.662 96.6347 41.011C98.4671 41.4036 99.2524 42.1017 99.2524 43.3233C99.2524 44.6322 98.1181 45.592 96.5038 45.592ZM93.5808 44.1959C94.4534 44.9376 95.3695 45.2866 96.4602 45.2866C97.9436 45.2866 98.9034 44.5013 98.9034 43.2797C98.9034 42.189 98.2053 41.6218 96.5475 41.2728C94.8896 40.9237 94.3225 40.4874 94.3225 39.6149C94.3225 38.7859 95.0641 38.1751 96.1112 38.1751C96.8965 38.1751 97.5945 38.4369 98.2926 38.9168L98.598 38.5241C97.8563 37.957 97.1146 37.7388 96.1548 37.7388C94.8024 37.7388 93.7989 38.5678 93.7989 39.6585C93.7989 40.7928 94.4534 41.36 96.2421 41.709C97.8127 42.0581 98.3798 42.4507 98.3798 43.3233C98.3798 44.1959 97.5945 44.8067 96.5038 44.8067C95.5004 44.8067 94.7151 44.5013 93.8862 43.8032L93.5808 44.1959Z" fill="white"/>
<path d="M104.14 37.6516H104.969L109.768 43.7596V37.6516H110.597V45.2867H109.899L104.969 39.0041V45.2867H104.14V37.6516Z" fill="white"/>
<path d="M110.77 45.4612H109.854L109.81 45.4176L105.142 39.5277V45.5048H103.964V37.5208H105.011L109.592 43.3234V37.5208H110.77V45.4612ZM109.985 45.1558H110.421V37.8262H109.941V44.2832L104.88 37.8262H104.313V45.1558H104.837V38.5678L109.985 45.1558Z" fill="white"/>
<path d="M112.779 37.6516H118.32V38.4369H113.651V41.0547H117.84V41.84H113.651V44.5013H118.363V45.2867H112.779V37.6516Z" fill="white"/>
<path d="M118.492 45.4612H112.603V37.5208H118.449V38.6551H113.78V40.9238H117.969V42.0582H113.78V44.4141H118.492V45.4612ZM112.908 45.1558H118.143V44.6759H113.431V41.6655H117.62V41.1856H113.431V38.2624H118.1V37.7825H112.908V45.1558Z" fill="white"/>
<path d="M122.115 38.4806H119.541V37.6953H125.562V38.4806H122.988V45.3304H122.115V38.4806Z" fill="white"/>
<path d="M123.16 45.4612H121.939V38.6115H119.365V37.5208H125.691V38.6551H123.117V45.4612H123.16ZM122.288 45.1558H122.855V38.3061H125.429V37.8262H119.757V38.3061H122.331V45.1558H122.288Z" fill="white"/>
<path d="M126.563 37.6516H127.523L129.705 44.0214L131.799 37.6516H132.497L134.591 44.0214L136.772 37.6516H137.688L134.94 45.3739H134.198L132.104 39.1786L130.01 45.3739H129.268L126.563 37.6516Z" fill="white"/>
<path d="M135.071 45.5485H134.111L132.148 39.7022L130.141 45.5485H129.181L126.345 37.5208H127.654L129.705 43.5415L131.668 37.5208H132.628L134.591 43.5415L136.641 37.5208H137.906L135.071 45.5485ZM134.373 45.1994H134.853L137.47 37.8262H136.903L134.591 44.545L132.366 37.7825H131.886L129.661 44.545L127.392 37.8262H126.781L129.399 45.1994H129.879L132.104 38.6551L134.373 45.1994Z" fill="white"/>
<path d="M138.519 41.5347C138.519 39.3969 140.089 37.5645 142.445 37.5645C144.757 37.5645 146.328 39.3969 146.328 41.491C146.328 43.5852 144.757 45.4613 142.401 45.4613C140.089 45.4613 138.519 43.6289 138.519 41.5347ZM145.455 41.5347C145.455 39.7895 144.19 38.3498 142.445 38.3498C140.7 38.3498 139.435 39.7459 139.435 41.491C139.435 43.2362 140.7 44.6323 142.445 44.6323C144.19 44.6323 145.455 43.2362 145.455 41.5347Z" fill="white"/>
<path d="M142.444 45.592C140.131 45.592 138.386 43.8469 138.386 41.4909V41.4473C138.386 39.135 140.175 37.3462 142.444 37.3462C144.756 37.3462 146.501 39.0913 146.501 41.4473C146.501 43.8033 144.712 45.592 142.444 45.592ZM142.444 37.6952C140.349 37.6952 138.692 39.3531 138.692 41.4909V41.5346C138.692 43.6724 140.306 45.2866 142.4 45.2866C144.494 45.2866 146.152 43.6287 146.152 41.4909C146.152 39.3095 144.581 37.6952 142.444 37.6952ZM142.444 44.8067C140.655 44.8067 139.259 43.367 139.259 41.4909C139.259 39.5713 140.611 38.1751 142.4 38.1751C144.189 38.1751 145.585 39.6149 145.585 41.4909V41.5346C145.585 43.4106 144.232 44.8067 142.444 44.8067ZM142.444 38.4805C140.829 38.4805 139.608 39.7458 139.608 41.4473C139.608 43.1925 140.829 44.4577 142.444 44.4577C144.058 44.4577 145.279 43.1924 145.279 41.4909V41.4473C145.279 39.7894 144.058 38.4805 142.444 38.4805Z" fill="white"/>
<path d="M148.16 37.6516H151.432C152.392 37.6516 153.134 37.957 153.614 38.4369C154.006 38.8296 154.224 39.3531 154.224 39.9639V40.0076C154.224 41.2728 153.352 42.0145 152.13 42.2326L154.486 45.3739H153.439L151.214 42.4072H149.033V45.3739H148.16V37.6516ZM151.389 41.5782C152.523 41.5782 153.352 40.9674 153.352 40.0076C153.352 39.0477 152.61 38.4806 151.389 38.4806H149.033V41.5782H151.389Z" fill="white"/>
<path d="M154.834 45.4612H153.35L151.125 42.4944H149.206V45.4612H148.028V37.5208H151.474C152.434 37.5208 153.22 37.8262 153.743 38.3497C154.136 38.7424 154.397 39.3532 154.397 39.964C154.397 41.1419 153.656 42.0145 152.434 42.3199L154.834 45.4612ZM153.525 45.1558H154.179L151.867 42.1018L152.129 42.0582C153.35 41.84 154.092 41.0983 154.092 40.0076C154.092 39.4404 153.918 38.9605 153.569 38.6115C153.089 38.1316 152.391 37.9134 151.518 37.9134H148.333V45.2431H148.857V42.2763H151.3L153.525 45.1558ZM151.387 41.7527H148.857V38.3061H151.387C152.696 38.3061 153.525 38.9169 153.525 39.964C153.525 41.0547 152.652 41.7527 151.387 41.7527ZM149.206 41.4037H151.387C152.478 41.4037 153.176 40.8365 153.176 40.0076C153.176 39.135 152.521 38.6551 151.387 38.6551H149.206V41.4037Z" fill="white"/>
<path d="M156.057 37.6516H156.929V42.2326L161.336 37.6516H162.47L159.198 41.011L162.601 45.3303H161.51L158.587 41.6218L156.973 43.2797V45.3303H156.101V37.6516H156.057Z" fill="white"/>
<path d="M162.905 45.4612H161.422L158.542 41.84L157.103 43.3234V45.4612H155.925V37.5208H157.103V41.84L161.247 37.5208H162.818L159.371 41.0547L162.905 45.4612ZM161.553 45.1558H162.207L158.891 41.0111L161.989 37.8262H161.334L156.71 42.6253V37.8262H156.186V45.1558H156.71V43.1925L158.499 41.3601L161.553 45.1558Z" fill="white"/>
</g>
<defs>
<clipPath id="clip0">
<rect width="178" height="63" fill="white"/>
</clipPath>
</defs>
</svg>
