<svg fill="none" height="66" viewBox="0 0 239 66" width="239" xmlns="http://www.w3.org/2000/svg" xmlns:xlink="http://www.w3.org/1999/xlink"><linearGradient id="a" gradientUnits="userSpaceOnUse" x1="10.4718" x2="23.365" y1="18.3945" y2="38.6852"><stop offset="0" stop-color="#27aae1"/><stop offset="1" stop-color="#2b3990"/></linearGradient><path d="m11.0025 51.0773-.0821-22.9566 9.1551 13.692 16.5449-25.3752h-.3284l-6.6919.041h-.7389l-8.5804 13.9379-8.7446-13.8559-7.80036.041.16422 34.4758z" fill="url(#a)"/><path clip-rule="evenodd" d="m28.9023 35.5989v15.6445h9.7546v-9.0023h6.0103c3.1202 0 5.8298-.5083 8.1288-1.5249 2.2991-1.0495 4.0726-2.5252 5.3207-4.4274 1.248-1.9021 1.8721-4.1485 1.8721-6.7393s-.6241-4.8373-1.8721-6.7394c-1.2481-1.9349-3.0216-3.4107-5.3207-4.4273-2.299-1.0495-5.0086-1.5742-8.1288-1.5742h-3.5885zm19.7062-2.3108c-1.0182.8527-2.529 1.279-4.5324 1.279h-5.4192v-10.0845h5.4192c2.0034 0 3.5142.4428 4.5324 1.3282 1.0181.8855 1.5272 2.1317 1.5272 3.7387 0 1.6069-.5091 2.8531-1.5272 3.7386zm101.6305 17.9553 11.183-34.4348h-9.311l-7.242 22.1858-6.946-22.1858h-8.966l-7.292 21.9891-6.946-21.9891h-10.05l11.183 34.4348h10.444l6.897-20.956 6.602 20.956zm43.187-7.5265v7.5265h-27.687v-34.4348h27.046v7.5265h-17.39v5.8047h15.321v7.2805h-15.321v6.2966zm15.988-1.6233h5.321l6.257 9.1498h10.444l-7.439-10.8224c2.168-1.0494 3.826-2.4924 4.976-4.3289 1.182-1.8693 1.773-4.0502 1.773-6.5426 0-2.5908-.624-4.8373-1.872-6.7394-1.248-1.9349-3.021-3.4107-5.32-4.4273-2.299-1.0495-5.009-1.5742-8.129-1.5742h-15.765v34.4348h9.754zm9.952-16.2828c1.018.8855 1.527 2.1317 1.527 3.7387 0 1.6069-.509 2.8531-1.527 3.7386-1.018.8527-2.529 1.279-4.532 1.279h-5.42v-10.0845h5.42c2.003 0 3.514.4428 4.532 1.3282z" fill="#fff" fill-rule="evenodd"/><path d="m103.457 36.2804c0 10.9805-8.9146 19.882-19.9113 19.882-10.9968 0-19.9114-8.9015-19.9114-19.882s8.9146-19.882 19.9114-19.882c10.9967 0 19.9113 8.9015 19.9113 19.882zm-36.401 0c0 9.0936 7.3827 16.4654 16.4897 16.4654s16.4893-7.3718 16.4893-16.4654c0-9.0935-7.3823-16.4653-16.4893-16.4653s-16.4897 7.3718-16.4897 16.4653z" fill="#fff" opacity=".2"/><path d="m83.5457 15.5781c3.6272 0 7.1908.9502 10.3351 2.7556 3.1444 1.8055 5.7593 4.403 7.5842 7.5333 1.824 3.1302 2.794 6.6836 2.813 10.3053.019 3.6218-.914 7.1851-2.706 10.3341-1.7917 3.149-4.3795 5.7736-7.5048 7.6116-3.1254 1.8379-6.6789 2.8251-10.3059 2.8627-3.6269.0377-7.2003-.8754-10.3632-2.6481-3.163-1.7727-5.8048-4.343-7.6618-7.4541l4.0747-2.4249c1.4321 2.3993 3.4695 4.3815 5.9088 5.7486 2.4393 1.3672 5.1951 2.0713 7.9922 2.0423s5.5376-.7903 7.9479-2.2078 4.406-3.4415 5.7878-5.8701c1.3818-2.4285 2.1014-5.1765 2.0868-7.9696-.0145-2.7931-.7627-5.5335-2.1697-7.9476-1.407-2.414-3.4237-4.4173-5.8486-5.8097-2.4249-1.3923-5.1732-2.1251-7.9705-2.1251z" fill="#ff6d55"/><path d="m97.2565 36.0915c0 7.6638-6.222 13.8766-13.8972 13.8766s-13.8971-6.2128-13.8971-13.8766c0-7.6639 6.2219-13.8767 13.8971-13.8767s13.8972 6.2128 13.8972 13.8767zm-24.8642 0c0 6.0479 4.9101 10.9508 10.967 10.9508s10.967-4.9029 10.967-10.9508c0-6.048-4.9101-10.9508-10.967-10.9508s-10.967 4.9028-10.967 10.9508z" fill="#fff" opacity=".2"/><path d="m83.5459 21.7266c3.2768 0 6.4523 1.1345 8.9854 3.2102 2.533 2.0758 4.2669 4.9643 4.9062 8.1735.6393 3.2091.1444 6.5403-1.4003 9.426s-4.0437 5.1473-7.0711 6.3994c-3.0274 1.2522-6.396 1.4174-9.5318.4676-3.1357-.9498-5.8447-2.956-7.6652-5.6765-1.8205-2.7206-2.64-5.9874-2.3188-9.2436.3212-3.2563 1.7632-6.3006 4.0803-8.6143l2.4436 2.44c-1.7518 1.7492-2.8419 4.0507-3.0847 6.5125-.2429 2.4618.3767 4.9315 1.753 6.9882 1.3764 2.0568 3.4243 3.5735 5.795 4.2915 2.3707.7181 4.9173.5932 7.2061-.3534 2.2888-.9467 4.178-2.6565 5.3458-4.838 1.1678-2.1816 1.542-4.7001 1.0587-7.1262-.4833-2.4262-1.7942-4.6099-3.7092-6.1792s-4.3157-2.427-6.793-2.427z" fill="#7e75e9"/><path d="m91.4287 35.8672c0 4.5735-3.7131 8.2812-8.2934 8.2812-4.5804 0-8.2935-3.7077-8.2935-8.2812 0-4.5736 3.7131-8.2813 8.2935-8.2813 4.5803 0 8.2934 3.7077 8.2934 8.2813zm-14.1624 0c0 3.2365 2.6276 5.8603 5.869 5.8603 3.2413 0 5.869-2.6238 5.869-5.8603 0-3.2366-2.6277-5.8604-5.869-5.8604-3.2414 0-5.869 2.6238-5.869 5.8604z" fill="#fff" opacity=".2"/><path d="m83.3404 27.0547c1.7875 0 3.5308.5547 4.9886 1.5875 1.4579 1.0327 2.5582 2.4924 3.1488 4.177.5905 1.6846.6421 3.5109.1475 5.226-.4945 1.7152-1.5108 3.2344-2.908 4.3476-1.3973 1.1131-3.1065 1.765-4.8911 1.8656s-3.5565-.3552-5.0703-1.3043-2.6947-2.3446-3.3794-3.9933c-.6846-1.6487-.8392-3.4691-.4422-5.2094l2.8675.6522c-.2615 1.1467-.1597 2.3461.2914 3.4324s1.2292 2.0057 2.2266 2.6311c.9974.6253 2.1648.9256 3.3407.8594 1.1758-.0663 2.302-.4959 3.2226-1.2293s1.5902-1.7344 1.9161-2.8645c.3258-1.1301.2918-2.3333-.0973-3.4433-.3891-1.1099-1.114-2.0717-2.0746-2.7521-.9605-.6805-2.1091-1.046-3.2869-1.046z" fill="#6fcf97"/></svg>