<svg width="80" height="80" viewBox="0 0 80 80" fill="none" xmlns="http://www.w3.org/2000/svg">
<circle opacity="0.12" cx="40" cy="40" r="40" fill="#2DCA8C"/>
<path d="M52.0003 29.3333H44.0003C43.2421 29.3359 42.4931 29.5002 41.8033 29.8152C41.1135 30.1302 40.4989 30.5886 40.0003 31.16C39.5018 30.5886 38.8871 30.1302 38.1973 29.8152C37.5076 29.5002 36.7586 29.3359 36.0003 29.3333H28.0003C27.6467 29.3333 27.3076 29.4738 27.0575 29.7238C26.8075 29.9739 26.667 30.313 26.667 30.6666V48C26.667 48.3536 26.8075 48.6927 27.0575 48.9428C27.3076 49.1928 27.6467 49.3333 28.0003 49.3333H35.4537C35.8034 49.3348 36.1386 49.4737 36.387 49.72L36.947 50.28C37.1953 50.5263 37.5305 50.6652 37.8803 50.6666H42.1203C42.4701 50.6652 42.8053 50.5263 43.0537 50.28L43.6137 49.72C43.862 49.4737 44.1972 49.3348 44.547 49.3333H52.0003C52.3539 49.3333 52.6931 49.1928 52.9431 48.9428C53.1932 48.6927 53.3337 48.3536 53.3337 48V30.6666C53.3337 30.313 53.1932 29.9739 52.9431 29.7238C52.6931 29.4738 52.3539 29.3333 52.0003 29.3333ZM38.667 46.0533C37.8568 45.5833 36.937 45.335 36.0003 45.3333H29.3337V32H36.0003C36.7076 32 37.3858 32.2809 37.8859 32.781C38.386 33.2811 38.667 33.9594 38.667 34.6666V46.0533ZM50.667 45.3333H44.0003C43.0636 45.335 42.1439 45.5833 41.3337 46.0533V34.6666C41.3337 33.9594 41.6146 33.2811 42.1147 32.781C42.6148 32.2809 43.2931 32 44.0003 32H50.667V45.3333Z" fill="#2DCA8C"/>
</svg>
