<svg width="80" height="80" viewBox="0 0 80 80" fill="none" xmlns="http://www.w3.org/2000/svg">
<circle cx="40" cy="40" r="40" fill="#FFE3DE"/>
<path fill-rule="evenodd" clip-rule="evenodd" d="M33.3337 30.6667V26.6667C33.3337 25.9303 33.9306 25.3334 34.667 25.3334H45.3337C46.07 25.3334 46.667 25.9303 46.667 26.6667V30.6667H52.0003C52.7367 30.6667 53.3337 31.2637 53.3337 32V50.6667C53.3337 51.4031 52.7367 52 52.0003 52H28.0003C27.2639 52 26.667 51.4031 26.667 50.6667V32C26.667 31.2637 27.2639 30.6667 28.0003 30.6667H33.3337ZM29.3337 45.3333V49.3333H50.667V45.3333H29.3337ZM50.667 42.6667H29.3337V33.3333H50.667V42.6667ZM36.0004 28V30.6667H44.0004V28H36.0004ZM41.3337 38.6667H38.667V41.3333H41.3337V38.6667Z" fill="#FF6D55"/>
</svg>
