<svg width="80" height="80" viewBox="0 0 80 80" fill="none" xmlns="http://www.w3.org/2000/svg">
<circle opacity="0.12" cx="40" cy="40" r="40" fill="#416FF4"/>
<path d="M46.0002 40C46.6595 40 47.3039 39.8045 47.8521 39.4383C48.4003 39.072 48.8275 38.5514 49.0798 37.9423C49.3321 37.3332 49.3981 36.663 49.2695 36.0164C49.1409 35.3698 48.8234 34.7758 48.3572 34.3097C47.891 33.8435 47.2971 33.526 46.6505 33.3974C46.0039 33.2688 45.3337 33.3348 44.7246 33.5871C44.1155 33.8394 43.5949 34.2666 43.2286 34.8148C42.8624 35.363 42.6669 36.0074 42.6669 36.6667C42.6651 37.1049 42.7501 37.5392 42.917 37.9444C43.0839 38.3496 43.3294 38.7178 43.6392 39.0276C43.9491 39.3375 44.3173 39.583 44.7225 39.7499C45.1277 39.9168 45.562 40.0018 46.0002 40ZM36.0002 38.6667C36.7913 38.6667 37.5647 38.4321 38.2225 37.9926C38.8803 37.553 39.393 36.9283 39.6957 36.1974C39.9985 35.4665 40.0777 34.6623 39.9233 33.8863C39.769 33.1104 39.388 32.3977 38.8286 31.8383C38.2692 31.2789 37.5565 30.8979 36.7806 30.7435C36.0046 30.5892 35.2004 30.6684 34.4695 30.9712C33.7386 31.2739 33.1138 31.7866 32.6743 32.4444C32.2348 33.1022 32.0002 33.8756 32.0002 34.6667C32.0002 35.7276 32.4216 36.745 33.1718 37.4951C33.9219 38.2453 34.9393 38.6667 36.0002 38.6667ZM39.6802 41.3334C38.8411 41.9468 38.1601 42.7512 37.6935 43.68L36.4269 46.2C36.1861 46.6827 36.0454 47.2091 36.0133 47.7476C35.9813 48.2861 36.0584 48.8255 36.2402 49.3334H28.0002C27.7729 49.3327 27.5496 49.2739 27.3514 49.1626C27.1532 49.0513 26.9868 48.8912 26.8679 48.6975C26.749 48.5038 26.6816 48.2829 26.6721 48.0558C26.6626 47.8287 26.7113 47.603 26.8135 47.4L28.7335 43.5467C29.0661 42.8805 29.5781 42.3204 30.2117 41.9293C30.8454 41.5383 31.5756 41.3319 32.3202 41.3334H39.6802ZM40.0002 49.3334C39.7729 49.3327 39.5496 49.2739 39.3514 49.1626C39.1532 49.0513 38.9868 48.8912 38.8679 48.6975C38.749 48.5038 38.6816 48.2829 38.6721 48.0558C38.6626 47.8287 38.7113 47.603 38.8135 47.4L40.1469 44.8667C40.4751 44.215 40.9754 43.6656 41.5935 43.2778C42.2116 42.89 42.924 42.6787 43.6535 42.6667H48.3469C49.0878 42.6665 49.8142 42.872 50.4452 43.2605C51.0761 43.6489 51.5868 44.205 51.9202 44.8667L53.1869 47.4C53.2891 47.603 53.3378 47.8287 53.3283 48.0558C53.3188 48.2829 53.2514 48.5038 53.1325 48.6975C53.0136 48.8912 52.8472 49.0513 52.649 49.1626C52.4508 49.2739 52.2275 49.3327 52.0002 49.3334H40.0002Z" fill="#416FF4"/>
</svg>
