<svg width="603" height="691" viewBox="0 0 603 691" fill="none" xmlns="http://www.w3.org/2000/svg">
<path opacity="0.12" fill-rule="evenodd" clip-rule="evenodd" d="M493.408 420.902C468.779 395.465 444.387 370.63 407.978 361.469C381.452 354.914 353.468 357.814 328.855 369.67C296.848 385.124 269.721 418.525 231.885 419.001C211.691 419.283 192.615 409.754 180.725 393.444C149.672 350.89 176.68 305.72 208.567 273.152C245.927 234.877 293.759 202.306 293.52 142.992C293.401 107.927 271.865 70.1331 283.765 34.9423C301.137 -16.6467 368.363 -0.241272 405.722 15.8046C439.513 30.425 471.996 45.8783 502.575 66.563C518.52 77.2489 533.392 90.4558 541.84 107.692C562.661 150.008 523.873 178.656 512.214 216.218C506.171 236.049 507.437 257.386 515.782 276.365C530.536 311.313 558.14 339.364 582.651 367.655C606.091 394.637 616.442 446.342 573.727 462.391C554.214 469.761 534.832 460.489 520.185 447.413C511.015 439.09 502.213 429.937 493.408 420.902Z" fill="#416FF4"/>
<path opacity="0.08" fill-rule="evenodd" clip-rule="evenodd" d="M260.941 669.791C188.956 722.837 86.2724 670.148 89.722 580.708C89.722 579.52 89.8411 578.329 89.8411 577.26C96.6236 464.262 -62.8265 444.764 28.0934 391.004C119.013 337.244 22.0159 299.423 113.286 263.266C204.655 227.119 256.419 152.434 368.019 277.666C469.636 391.728 546.383 346.531 526.988 443.702C523.264 461.785 521.31 480.188 521.154 498.65C521.035 529.218 505.923 583.332 407.404 604.622C354.509 615.708 304.581 637.923 260.94 669.791L260.941 669.791Z" fill="#FF6D55"/>
<g opacity="0.2">
<path d="M186.241 202.008L353.285 35.1785" stroke="#FF3D3D" stroke-width="5" stroke-linecap="round"/>
<path d="M293.465 32.9082L182.152 144.178" stroke="#FF3D3D" stroke-width="5" stroke-linecap="round"/>
<path d="M183.363 81.0483L232.28 32.3018" stroke="#FF3D3D" stroke-width="5" stroke-linecap="round"/>
<path d="M184.121 109.056L260.298 33.0591" stroke="#FF3D3D" stroke-width="5" stroke-linecap="round"/>
<path d="M247.123 203.069L354.65 95.5833" stroke="#FF3D3D" stroke-width="5" stroke-linecap="round"/>
<path d="M210.775 207.611L356.164 62.2783" stroke="#FF3D3D" stroke-width="5" stroke-linecap="round"/>
<path d="M182 174.305L324.36 32" stroke="#FF3D3D" stroke-width="5" stroke-linecap="round"/>
<path d="M309.225 207.302L359.505 156.89" stroke="#FF3D3D" stroke-width="5" stroke-linecap="round"/>
<path d="M279.985 204.886L356.011 128.738" stroke="#FF3D3D" stroke-width="5" stroke-linecap="round"/>
</g>
</svg>
