<svg width="140" height="52" viewBox="0 0 140 52" fill="none" xmlns="http://www.w3.org/2000/svg">
<path d="M138.702 45.669C138.702 46.9897 138.283 48.2563 137.539 49.1897C136.795 50.1232 135.786 50.6469 134.734 50.6455L4.89365 50.6455C2.70225 50.6484 0.923753 48.4205 0.920898 45.669V5.983C0.923753 3.23042 2.70141 1.00071 4.89365 1H134.733C136.925 1 138.701 3.23118 138.701 5.983L138.702 45.669L138.702 45.669Z" fill="black" stroke="white" stroke-opacity="0.2"/>
<path fill-rule="evenodd" clip-rule="evenodd" d="M29.2183 11.5693C29.3901 13.1305 28.7713 14.6689 27.8668 15.7997C26.9231 16.9129 25.4132 17.7643 23.9427 17.6547C23.7502 16.1525 24.4953 14.5551 25.3294 13.5805C26.2722 12.4746 27.9093 11.6273 29.2183 11.5693ZM34.0323 20.5751C33.8682 20.673 31.1486 22.2958 31.1784 25.6053H31.1784C31.2136 29.6007 34.6761 30.9229 34.7175 30.9374C34.6968 31.0305 34.1753 32.8452 32.8765 34.6856C31.792 36.3068 30.6558 37.8928 28.851 37.9207C27.993 37.9405 27.4136 37.694 26.8099 37.4373C26.1802 37.1694 25.524 36.8903 24.4974 36.8903C23.4095 36.8903 22.7242 37.1785 22.0635 37.4563C21.4918 37.6967 20.9384 37.9294 20.1584 37.9611C18.4395 38.0242 17.1263 36.2313 16.0024 34.6236C13.7558 31.343 12.0069 25.3787 14.3519 21.3201C15.4881 19.3296 17.5599 18.0478 19.7744 18.0136C20.7496 17.9937 21.6849 18.3694 22.5049 18.6988C23.1319 18.9507 23.6914 19.1754 24.1497 19.1754C24.5523 19.1754 25.0961 18.9597 25.73 18.7081C26.7289 18.3118 27.9513 17.8267 29.1966 17.9578C30.0483 17.9826 32.4719 18.294 34.0356 20.5731L34.0323 20.5751Z" fill="white"/>
<path fill-rule="evenodd" clip-rule="evenodd" d="M89.883 36.7282C90.6974 35.9926 91.1072 35.0397 91.1072 33.8676C91.1072 32.9168 90.8278 32.1192 90.2659 31.4798C89.7081 30.8404 88.8368 30.2838 87.6508 29.8059C86.6843 29.4251 86.0158 29.0703 85.6494 28.7444C85.2272 28.3906 85.0151 27.9395 85.0151 27.3964C85.0151 26.9039 85.2014 26.4891 85.5687 26.1487C86.0055 25.768 86.616 25.5766 87.3942 25.5766C88.3794 25.5766 89.26 25.7876 90.0403 26.2097L90.5939 24.4117C89.765 23.9761 88.7209 23.7578 87.4677 23.7578C86.0644 23.7578 84.9365 24.1189 84.0858 24.841C83.2352 25.5642 82.8088 26.4891 82.8088 27.6188C82.8088 29.3486 84.0154 30.6635 86.4266 31.5626C87.3135 31.8885 87.9447 32.2433 88.3266 32.624C88.7064 33.0058 88.8999 33.4744 88.8999 34.0342C88.8999 34.659 88.666 35.1597 88.2035 35.5343C87.7419 35.9077 87.0951 36.096 86.2631 36.096C85.1062 36.096 84.0434 35.8105 83.0758 35.2373L82.5657 37.0758C83.4618 37.6479 84.6498 37.9334 86.1317 37.9334C87.7357 37.9334 88.9868 37.531 89.883 36.7282ZM55.5347 37.7298H53.1845L51.8972 33.6857H47.4225L46.1962 37.7298H43.9082L48.3425 23.9618H51.0807L55.5347 37.7298ZM51.509 31.9888L50.3448 28.3937C50.2216 28.0264 49.9898 27.1615 49.6504 25.8H49.609C49.4724 26.3856 49.2541 27.2505 48.955 28.3937L47.8105 31.9888H51.509ZM65.5395 36.6464C66.4574 35.6667 66.9158 34.3321 66.9158 32.6437C66.9158 31.1322 66.5236 29.9134 65.7423 28.9854C64.96 28.0595 63.982 27.5971 62.8106 27.5971C61.3122 27.5971 60.1956 28.1899 59.4598 29.3755H59.4184L59.2953 27.8019H57.3549C57.4087 28.9172 57.4367 30.0045 57.4367 31.0649V41.7551H59.643V36.546C60.2173 37.4854 61.1631 37.9541 62.4784 37.9541C63.6964 37.9541 64.7178 37.5185 65.5395 36.6464ZM64.6681 32.7242C64.6681 31.7579 64.4508 30.9613 64.0141 30.3333C63.537 29.6805 62.8964 29.3535 62.0934 29.3535C61.5491 29.3535 61.0544 29.5356 60.6126 29.8946C60.1696 30.2567 59.8799 30.7295 59.7443 31.3151C59.6838 31.5341 59.6494 31.7594 59.6419 31.9865V33.6428C59.6419 34.3639 59.8633 34.9733 60.3063 35.472C60.7492 35.9686 61.3245 36.2179 62.0324 36.2179C62.8633 36.2179 63.5101 35.8961 63.9727 35.2578C64.4363 34.6174 64.6681 33.7732 64.6681 32.7242ZM76.9609 36.6464C77.8788 35.6667 78.3372 34.3321 78.3372 32.6437C78.3372 31.1322 77.944 29.9134 77.1637 28.9854C76.3793 28.0595 75.4014 27.5971 74.231 27.5971C72.7315 27.5971 71.6149 28.1899 70.8802 29.3755H70.8388L70.7156 27.8019H68.7753C68.8291 28.9172 68.8571 30.0045 68.8571 31.0649V41.7551H71.0633V36.546C71.6377 37.4854 72.5835 37.9541 73.8988 37.9541C75.1178 37.9541 76.1382 37.5185 76.9609 36.6464ZM76.0885 32.7242C76.0885 31.7579 75.8701 30.9613 75.4334 30.3333C74.9564 29.6805 74.3179 29.3535 73.5149 29.3535C72.9705 29.3535 72.4759 29.5356 72.0319 29.8946C71.589 30.2567 71.3003 30.7295 71.1647 31.3151C71.0975 31.5882 71.0612 31.8106 71.0612 31.9865V33.6428C71.0612 34.3639 71.2837 34.9733 71.7246 35.472C72.1675 35.9675 72.7429 36.2179 73.4528 36.2179C74.2848 36.2179 74.9315 35.8961 75.3931 35.2578C75.8567 34.6174 76.0885 33.7732 76.0885 32.7242ZM98.4205 29.4572H95.9886V34.2772C95.9886 35.5032 96.417 36.1146 97.2759 36.1146C97.6702 36.1146 97.9972 36.0815 98.2559 36.0122L98.317 37.6872C97.8823 37.8496 97.3101 37.9313 96.6012 37.9313C95.7299 37.9313 95.049 37.6654 94.5574 37.1337C94.0679 36.6019 93.8216 35.7111 93.8216 34.4572V29.4531H92.3729V27.7978H93.8216V25.98L95.9886 25.3262V27.7978H98.4205L98.4205 29.4572ZM108.063 36.4426C108.934 35.4628 109.371 34.21 109.371 32.684C109.371 31.1983 108.95 29.9879 108.103 29.0506C107.218 28.0843 106.047 27.6001 104.59 27.6001C103.078 27.6001 101.876 28.0905 100.983 29.0713C100.092 30.051 99.6447 31.3111 99.6447 32.8495C99.6447 34.3196 100.077 35.5384 100.942 36.5057C101.808 37.4709 102.968 37.9541 104.427 37.9541C105.939 37.9541 107.151 37.4513 108.063 36.4426ZM107.084 32.7347C107.084 31.8253 106.887 31.0453 106.493 30.3924C106.031 29.6041 105.368 29.2099 104.51 29.2099C103.627 29.2099 102.949 29.6041 102.487 30.3924C102.092 31.0453 101.895 31.8388 101.895 32.7761C101.895 33.6865 102.092 34.4686 102.487 35.1194C102.964 35.9077 103.63 36.3019 104.492 36.3019C105.335 36.3019 105.996 35.8994 106.475 35.0997C106.88 34.4314 107.084 33.6462 107.084 32.7347ZM115.85 29.6807C116.083 29.6798 116.316 29.7003 116.546 29.7417L116.544 27.6374C116.38 27.6115 116.196 27.5971 115.992 27.5971C115.417 27.5979 114.858 27.7844 114.397 28.1288C113.894 28.523 113.528 29.0496 113.294 29.7024H113.233L113.152 27.8029H111.231C111.275 28.8441 111.297 29.8862 111.295 30.9283V37.7296H113.501V32.5205C113.501 31.7312 113.685 31.0773 114.052 30.56C114.474 29.9724 115.074 29.6807 115.85 29.6807ZM126.413 32.296C126.418 32.6313 126.391 32.9664 126.332 33.2965H119.713C119.738 34.2772 120.059 35.0283 120.674 35.5456C121.231 36.007 121.953 36.2388 122.839 36.2388C123.819 36.2388 124.713 36.0836 125.517 35.7701L125.862 37.3002C124.923 37.7099 123.813 37.9137 122.533 37.9137C120.993 37.9137 119.785 37.4606 118.905 36.5564C118.028 35.6511 117.588 34.4345 117.588 32.9106C117.588 31.4146 117.996 30.1679 118.815 29.1737C119.672 28.1123 120.83 27.5815 122.287 27.5815C123.718 27.5815 124.802 28.1123 125.537 29.1737C126.12 30.0148 126.413 31.0577 126.413 32.296ZM123.881 30.0284C124.18 30.5053 124.325 31.0691 124.309 31.724L119.714 31.7219C119.782 31.0567 120 30.4836 120.367 30.0066C120.814 29.4066 121.402 29.1076 122.123 29.1076C122.911 29.1076 123.499 29.4138 123.881 30.0284Z" fill="white"/>
<path fill-rule="evenodd" clip-rule="evenodd" d="M73.5663 19.0343H72.4807V11.9165H73.5663V19.0343ZM45.1992 19.0138C45.6411 19.0645 46.172 19.0945 46.7857 19.0945C49.3862 19.0945 50.7625 17.8302 50.7625 15.4901C50.7625 13.4613 49.5973 12.2167 47.0671 12.2167C46.4418 12.2149 45.8172 12.2619 45.1992 12.3574V19.0138ZM46.2828 13.1404C46.5239 13.0907 46.8147 13.07 47.1562 13.07C48.7633 13.07 49.617 13.9442 49.617 15.5199C49.617 17.2869 48.6733 18.2304 47.0155 18.2304C46.6636 18.2304 46.4132 18.2211 46.2828 18.2004V13.1404ZM54.3937 19.145C52.9677 19.145 52.0436 18.0804 52.0436 16.6351C52.0436 15.1288 52.9874 14.0549 54.4745 14.0549C55.8798 14.0549 56.8246 15.0688 56.8246 16.5554C56.8246 18.0804 55.8508 19.145 54.3937 19.145ZM53.1499 16.6041C53.1499 15.5799 53.6517 14.8474 54.4351 14.8474C55.1978 14.8474 55.6997 15.5902 55.6997 16.5834C55.6997 17.558 55.1874 18.3412 54.4248 18.3412C53.6621 18.3412 53.1499 17.6087 53.1499 16.6041ZM64.9565 14.1553L63.4301 19.0343H62.4356L61.8033 16.9155C61.6461 16.3973 61.5152 15.8714 61.4111 15.3399L61.3904 15.3399C61.3107 15.8717 61.1596 16.4045 60.9993 16.9155L60.3266 19.0343H59.3217L57.8854 14.1553H58.9999L59.5525 16.4748C59.6829 17.0273 59.7926 17.5487 59.8837 18.0411H59.9044C59.9841 17.6304 60.1145 17.1173 60.3059 16.4852L60.9992 14.1564H61.883L62.5463 16.4355C62.7067 16.988 62.8371 17.5301 62.9385 18.0422H62.9675C63.0379 17.5404 63.1486 17.0076 63.2986 16.4355L63.8916 14.1564L64.9565 14.1553ZM69.4911 19.0343H70.5756H70.5756L70.5766 16.1127C70.5766 14.8381 69.904 14.0549 68.8795 14.0549C68.2162 14.0549 67.6242 14.386 67.3324 14.9074H67.3024L67.2517 14.1542H66.2976C66.3276 14.656 66.338 15.1184 66.338 15.5498V19.0343H67.4225V16.1323C67.4225 15.4898 67.8643 14.9374 68.507 14.9374C69.16 14.9374 69.4911 15.3698 69.4911 16.2327V19.0343ZM75.1703 16.6351C75.1703 18.0804 76.0954 19.145 77.5204 19.145C78.9764 19.145 79.9512 18.0804 79.9502 16.5554C79.9502 15.0688 79.0064 14.0549 77.6001 14.0549C76.1141 14.0549 75.1703 15.1288 75.1703 16.6351ZM77.5608 14.8474C76.7774 14.8474 76.2755 15.5799 76.2755 16.6041C76.2755 17.6087 76.7888 18.3412 77.5494 18.3412C78.3131 18.3412 78.8243 17.558 78.8243 16.5834C78.8254 15.5902 78.3245 14.8474 77.5608 14.8474ZM84.1474 18.4725L84.2261 19.0343L85.204 19.0353C85.1554 18.7446 85.1337 18.3628 85.1337 17.8704V16.0733C85.1337 14.7274 84.49 14.0549 83.2151 14.0549C82.5538 14.0549 81.9908 14.1956 81.5397 14.477L81.7601 15.1898C82.1316 14.9488 82.5538 14.8277 83.035 14.8277C83.7077 14.8277 84.0481 15.1495 84.0481 15.7919V15.8819C82.2402 15.8819 81.1961 16.5047 81.1961 17.709C81.1961 18.5325 81.817 19.145 82.6914 19.145C83.3041 19.145 83.7873 18.9246 84.1185 18.4725H84.1474ZM84.0771 16.6042C82.8725 16.6042 82.2682 16.8959 82.2682 17.5881C82.2682 18.1002 82.5797 18.3505 83.0123 18.3505C83.5638 18.3505 84.0771 17.9295 84.0771 17.3574V16.6042ZM90.3493 18.2511L90.4 19.0343H91.3655C91.3365 18.6329 91.3251 18.1912 91.3251 17.7194V11.9165H90.2396V14.7171H90.2179C89.9571 14.2743 89.4945 14.0539 88.8415 14.0539C87.608 14.0539 86.7045 15.1288 86.7045 16.6548C86.7045 18.1104 87.5759 19.145 88.7525 19.145C89.4841 19.145 90.0078 18.8429 90.3193 18.2511H90.3493ZM90.2396 16.1635C90.2396 15.4807 89.7874 14.8982 89.0972 14.8982C88.2931 14.8982 87.8016 15.611 87.8016 16.6146C87.8016 17.5984 88.3117 18.2719 89.0754 18.2719C89.7574 18.2719 90.2396 17.6791 90.2396 16.9767V16.1635ZM95.8589 16.6351C95.8589 18.0804 96.783 19.145 98.2079 19.145C99.666 19.145 100.64 18.0804 100.639 16.5554C100.639 15.0688 99.695 14.0549 98.2887 14.0549C96.8026 14.0549 95.8589 15.1288 95.8589 16.6351ZM98.2482 14.8474C97.4658 14.8474 96.9639 15.5799 96.9639 16.6041C96.9639 17.6087 97.4762 18.3412 98.2378 18.3412C99.0015 18.3412 99.5128 17.558 99.5128 16.5834C99.5148 15.5902 99.0129 14.8474 98.2482 14.8474ZM105.385 19.0344H106.471V16.1118C106.471 14.8372 105.797 14.054 104.773 14.054C104.111 14.054 103.518 14.3861 103.227 14.9075H103.197L103.146 14.1544H102.192C102.222 14.6561 102.232 15.1186 102.232 15.55V19.0344H103.318V16.1325C103.318 15.49 103.759 14.9375 104.401 14.9375C105.054 14.9375 105.385 15.37 105.385 16.2328V19.0344ZM113.768 14.9687H112.575V17.3378C112.575 17.941 112.784 18.242 113.206 18.242C113.397 18.242 113.558 18.2213 113.687 18.1913L113.717 19.0149C113.507 19.0955 113.226 19.1359 112.876 19.1359C112.021 19.1359 111.51 18.6641 111.51 17.4289V14.9687H110.798V14.1555H111.51V13.2616L112.575 12.9399V14.1545H113.768V14.9687ZM118.426 19.0343H119.509V16.1324C119.509 14.8567 118.878 14.0539 117.845 14.0539C117.214 14.0539 116.719 14.3157 116.378 14.8474H116.356V11.9165H115.272V19.0343H116.356V16.093C116.356 15.3202 116.88 14.9385 117.441 14.9385C118.096 14.9385 118.426 15.3802 118.426 16.2534V19.0343ZM125.391 16.8556H122.136C122.157 17.7794 122.769 18.3009 123.674 18.3009C124.155 18.3009 124.598 18.2202 124.989 18.0701L125.158 18.8233C124.697 19.024 124.153 19.1244 123.521 19.1244C121.995 19.1244 121.091 18.1602 121.091 16.6652C121.091 15.1692 122.016 14.0447 123.399 14.0447C124.646 14.0447 125.428 14.9685 125.428 16.3641C125.435 16.5289 125.423 16.6938 125.391 16.8556ZM123.323 14.7978C122.7 14.7978 122.208 15.3399 122.138 16.0827ZM122.138 16.0827H124.397Z" fill="white"/>
</svg>
