<svg width="377" height="432" viewBox="0 0 377 432" fill="none" xmlns="http://www.w3.org/2000/svg">
<path opacity="0.12" fill-rule="evenodd" clip-rule="evenodd" d="M308.469 263.14C293.072 247.237 277.823 231.711 255.06 225.983C238.477 221.885 220.982 223.698 205.594 231.111C185.584 240.772 168.625 261.654 144.971 261.951C132.345 262.128 120.42 256.17 112.986 245.974C93.5724 219.369 110.457 191.13 130.393 170.769C153.749 146.84 183.653 126.478 183.504 89.3957C183.429 67.474 169.965 43.8457 177.405 21.8452C188.265 -10.4073 230.294 -0.15094 253.65 9.88065C274.775 19.021 295.083 28.6822 314.201 41.6138C324.169 48.2944 333.467 56.5512 338.748 67.3267C351.765 93.7822 327.515 111.692 320.227 135.175C316.448 147.573 317.24 160.913 322.458 172.778C331.681 194.627 348.939 212.163 364.263 229.851C378.917 246.719 385.388 279.045 358.684 289.078C346.484 293.686 334.367 287.889 325.21 279.714C319.477 274.511 313.974 268.788 308.469 263.14Z" fill="#416FF4"/>
<path opacity="0.08" fill-rule="evenodd" clip-rule="evenodd" d="M163.135 418.741C118.131 451.904 53.9357 418.964 56.0923 363.048C56.0923 362.305 56.1668 361.56 56.1668 360.892C60.4071 290.248 -39.278 278.058 17.5633 244.448C74.4047 210.838 13.7638 187.193 70.8239 164.589C127.946 141.99 160.308 95.2987 230.079 173.592C293.607 244.901 341.588 216.645 329.463 277.394C327.135 288.699 325.913 300.205 325.815 311.747C325.741 330.857 316.293 364.688 254.701 377.998C221.632 384.929 190.418 398.818 163.135 418.741L163.135 418.741Z" fill="#FF6D55"/>
<g opacity="0.2">
<path d="M116.435 126.291L220.867 21.9929" stroke="#FF3D3D" stroke-width="3.1259" stroke-linecap="round"/>
<path d="M183.469 20.5735L113.879 90.1375" stroke="#FF3D3D" stroke-width="3.1259" stroke-linecap="round"/>
<path d="M114.636 50.67L145.217 20.1946" stroke="#FF3D3D" stroke-width="3.1259" stroke-linecap="round"/>
<path d="M115.109 68.1801L162.734 20.6682" stroke="#FF3D3D" stroke-width="3.1259" stroke-linecap="round"/>
<path d="M154.496 126.955L221.72 59.7571" stroke="#FF3D3D" stroke-width="3.1259" stroke-linecap="round"/>
<path d="M131.773 129.794L222.667 38.9351" stroke="#FF3D3D" stroke-width="3.1259" stroke-linecap="round"/>
<path d="M113.783 108.973L202.784 20.0059" stroke="#FF3D3D" stroke-width="3.1259" stroke-linecap="round"/>
<path d="M193.321 129.601L224.756 98.0842" stroke="#FF3D3D" stroke-width="3.1259" stroke-linecap="round"/>
<path d="M175.042 128.09L222.572 80.4839" stroke="#FF3D3D" stroke-width="3.1259" stroke-linecap="round"/>
</g>
</svg>
