<svg width="364" height="100" viewBox="0 0 364 100" fill="none" xmlns="http://www.w3.org/2000/svg">
<path d="M16.785 77.3912L16.6597 42.6086L30.6266 63.3539L55.867 24.9067H55.366L45.1571 24.9689H44.0297L30.9397 46.0869L17.5992 25.0931L5.69922 25.1552L5.94974 77.3912H16.785Z" fill="url(#paint0_linear)"/>
<path fill-rule="evenodd" clip-rule="evenodd" d="M44.0928 53.9358V77.6397H58.974V64H68.1433C72.9033 64 77.0369 63.2298 80.5443 61.6894C84.0517 60.0994 86.7573 57.8633 88.6613 54.9813C90.5653 52.0994 91.5173 48.6956 91.5173 44.7702C91.5173 40.8447 90.5653 37.441 88.6613 34.559C86.7573 31.6273 84.0517 29.3913 80.5443 27.8509C77.0369 26.2609 72.9033 25.4658 68.1433 25.4658H62.6687L44.0928 53.9358ZM74.1559 50.4348C72.6026 51.7267 70.2978 52.3727 67.2414 52.3727H58.974V37.0931H67.2414C70.2978 37.0931 72.6026 37.764 74.1559 39.1056C75.7091 40.4472 76.4858 42.3354 76.4858 44.7702C76.4858 47.2049 75.7091 49.0931 74.1559 50.4348ZM229.201 77.6397L246.262 25.4658H232.057L221.009 59.0807L210.411 25.4658H196.733L185.609 58.7826L175.012 25.4658H159.68L176.741 77.6397H192.674L203.196 45.8882L213.267 77.6397H229.201ZM295.085 66.236V77.6397H252.846V25.4658H294.108V36.8695H267.577V45.6646H290.951V56.6956H267.577V66.236H295.085ZM319.477 63.7764H327.594L337.139 77.6397H353.072L341.724 61.2422C345.031 59.6521 347.561 57.4658 349.315 54.6832C351.118 51.8509 352.02 48.5466 352.02 44.7702C352.02 40.8447 351.068 37.441 349.164 34.559C347.26 31.6273 344.555 29.3913 341.047 27.8509C337.54 26.2609 333.406 25.4658 328.646 25.4658H304.596V77.6397H319.477V63.7764ZM334.659 39.1056C336.212 40.4472 336.989 42.3354 336.989 44.7702C336.989 47.2049 336.212 49.0931 334.659 50.4348C333.106 51.7267 330.801 52.3727 327.744 52.3727H319.477V37.0931H327.744C330.801 37.0931 333.106 37.764 334.659 39.1056Z" fill="white"/>
<path opacity="0.2" d="M157.832 54.969C157.832 71.6061 144.232 85.0932 127.455 85.0932C110.679 85.0932 97.0791 71.6061 97.0791 54.969C97.0791 38.3318 110.679 24.8447 127.455 24.8447C144.232 24.8447 157.832 38.3318 157.832 54.969ZM102.299 54.969C102.299 68.7471 113.562 79.9165 127.455 79.9165C141.349 79.9165 152.612 68.7471 152.612 54.969C152.612 41.1908 141.349 30.0215 127.455 30.0215C113.562 30.0215 102.299 41.1908 102.299 54.969Z" fill="white"/>
<path d="M127.455 23.6025C132.988 23.6025 138.425 25.0422 143.222 27.7777C148.019 30.5132 152.008 34.4489 154.791 39.1917C157.575 43.9345 159.055 49.3185 159.084 54.8059C159.112 60.2934 157.689 65.6923 154.955 70.4635C152.222 75.2348 148.274 79.2114 143.506 81.9962C138.738 84.7811 133.317 86.2767 127.784 86.3338C122.251 86.3908 116.799 85.0073 111.974 82.3214C107.149 79.6355 103.118 75.7412 100.286 71.0274L106.502 67.3533C108.687 70.9886 111.795 73.9919 115.516 76.0633C119.237 78.1347 123.442 79.2017 127.709 79.1577C131.976 79.1137 136.157 77.9602 139.834 75.8125C143.511 73.6649 146.555 70.5981 148.664 66.9185C150.772 63.2389 151.869 59.0752 151.847 54.8432C151.825 50.6113 150.684 46.4591 148.537 42.8015C146.391 39.1438 143.314 36.1086 139.615 33.9989C135.915 31.8893 131.722 30.779 127.455 30.779V23.6025Z" fill="#FF6D55"/>
<path opacity="0.2" d="M148.372 54.6873C148.372 66.2992 138.88 75.7125 127.171 75.7125C115.462 75.7125 105.97 66.2992 105.97 54.6873C105.97 43.0754 115.462 33.6621 127.171 33.6621C138.88 33.6621 148.372 43.0754 148.372 54.6873ZM110.44 54.6873C110.44 63.8509 117.931 71.2794 127.171 71.2794C136.411 71.2794 143.902 63.8509 143.902 54.6873C143.902 45.5237 136.411 38.0952 127.171 38.0952C117.931 38.0952 110.44 45.5237 110.44 54.6873Z" fill="white"/>
<path d="M127.456 32.9194C132.455 32.9194 137.299 34.6384 141.163 37.7835C145.028 40.9286 147.673 45.3051 148.648 50.1675C149.623 55.0298 148.869 60.0771 146.512 64.4494C144.155 68.8216 140.343 72.2482 135.724 74.1454C131.106 76.0426 125.967 76.293 121.183 74.8539C116.399 73.4147 112.267 70.3752 109.489 66.2531C106.712 62.131 105.462 57.1814 105.952 52.2476C106.442 47.3139 108.642 42.7013 112.176 39.1957L115.904 42.8927C113.232 45.543 111.569 49.0301 111.198 52.7601C110.828 56.4901 111.773 60.232 113.873 63.3483C115.973 66.4647 119.097 68.7626 122.714 69.8506C126.33 70.9386 130.215 70.7493 133.707 69.315C137.199 67.8807 140.081 65.2902 141.862 61.9847C143.644 58.6793 144.215 54.8635 143.477 51.1875C142.74 47.5115 140.74 44.2028 137.819 41.8251C134.897 39.4474 131.235 38.1478 127.456 38.1478V32.9194Z" fill="#7E75E9"/>
<path opacity="0.2" d="M139.481 54.3476C139.481 61.2773 133.817 66.8949 126.829 66.8949C119.841 66.8949 114.177 61.2773 114.177 54.3476C114.177 47.4179 119.841 41.8003 126.829 41.8003C133.817 41.8003 139.481 47.4179 139.481 54.3476ZM117.875 54.3476C117.875 59.2515 121.884 63.2269 126.829 63.2269C131.774 63.2269 135.783 59.2515 135.783 54.3476C135.783 49.4437 131.774 45.4683 126.829 45.4683C121.884 45.4683 117.875 49.4437 117.875 54.3476Z" fill="white"/>
<path d="M127.142 40.9937C129.869 40.9937 132.528 41.8342 134.752 43.399C136.976 44.9637 138.655 47.1754 139.556 49.7278C140.457 52.2802 140.536 55.0473 139.781 57.646C139.027 60.2447 137.476 62.5466 135.345 64.2331C133.213 65.9197 130.606 66.9075 127.883 67.0599C125.16 67.2122 122.457 66.5216 120.148 65.0836C117.838 63.6456 116.037 61.5313 114.992 59.0333C113.948 56.5352 113.712 53.777 114.318 51.1402L118.692 52.1284C118.293 53.8657 118.449 55.6831 119.137 57.329C119.825 58.9749 121.012 60.3679 122.534 61.3154C124.055 62.2629 125.836 62.7179 127.63 62.6175C129.424 62.5171 131.142 61.8663 132.547 60.7551C133.951 59.6438 134.972 58.1272 135.47 56.4149C135.967 54.7027 135.915 52.8795 135.321 51.1978C134.728 49.5161 133.622 48.0589 132.156 47.0279C130.691 45.9969 128.939 45.4431 127.142 45.4431V40.9937Z" fill="#6FCF97"/>
<defs>
<linearGradient id="paint0_linear" x1="15.9754" y1="27.8718" x2="35.4535" y2="58.7362" gradientUnits="userSpaceOnUse">
<stop stop-color="#27AAE1"/>
<stop offset="1" stop-color="#2B3990"/>
</linearGradient>
</defs>
</svg>
