<svg width="174" height="48" viewBox="0 0 174 48" fill="none" xmlns="http://www.w3.org/2000/svg">
<path d="M8.02645 37.0061L7.96655 20.3741L14.645 30.2939L26.7142 11.9097H26.4746L21.5931 11.9394H21.054L14.7948 22.0373L8.41578 11.9988L2.72559 12.0285L2.84538 37.0061H8.02645Z" fill="url(#paint0_linear)"/>
<path fill-rule="evenodd" clip-rule="evenodd" d="M21.084 25.7906V37.1251H28.1997V30.603H32.5842C34.8602 30.603 36.8368 30.2348 38.5139 29.4982C40.191 28.7379 41.4848 27.6687 42.3952 26.2906C43.3057 24.9125 43.7609 23.285 43.7609 21.408C43.7609 19.5309 43.3057 17.9034 42.3952 16.5253C41.4848 15.1235 40.191 14.0543 38.5139 13.3177C36.8368 12.5574 34.8602 12.1772 32.5842 12.1772H29.9663L21.084 25.7906ZM35.4592 24.1166C34.7165 24.7343 33.6144 25.0432 32.1529 25.0432H28.1997V17.7371H32.1529C33.6144 17.7371 34.7165 18.0578 35.4592 18.6993C36.2019 19.3409 36.5733 20.2437 36.5733 21.408C36.5733 22.5722 36.2019 23.4751 35.4592 24.1166ZM109.597 37.1251L117.755 12.1772H110.962L105.679 28.2508L100.612 12.1772H94.0715L88.7527 28.1083L83.6854 12.1772H76.3541L84.512 37.1251H92.1309L97.1622 21.9426L101.978 37.1251H109.597ZM141.1 31.6722V37.1251H120.903V12.1772H140.633V17.6301H127.947V21.8356H139.124V27.1103H127.947V31.6722H141.1ZM152.764 30.4961H156.645L161.209 37.1251H168.828L163.402 29.2844C164.983 28.5241 166.193 27.4786 167.031 26.1481C167.894 24.7937 168.325 23.2137 168.325 21.408C168.325 19.5309 167.87 17.9034 166.959 16.5253C166.049 15.1235 164.755 14.0543 163.078 13.3177C161.401 12.5574 159.424 12.1772 157.148 12.1772H145.648V37.1251H152.764V30.4961ZM160.023 18.6993C160.766 19.3409 161.137 20.2437 161.137 21.408C161.137 22.5722 160.766 23.4751 160.023 24.1166C159.281 24.7343 158.179 25.0432 156.717 25.0432H152.764V17.7371H156.717C158.179 17.7371 159.281 18.0578 160.023 18.6993Z" fill="white"/>
<path opacity="0.2" d="M75.4698 26.2843C75.4698 34.2397 68.9668 40.6888 60.9449 40.6888C52.923 40.6888 46.4199 34.2397 46.4199 26.2843C46.4199 18.329 52.923 11.8799 60.9449 11.8799C68.9668 11.8799 75.4698 18.329 75.4698 26.2843ZM48.916 26.2843C48.916 32.8726 54.3015 38.2134 60.9449 38.2134C67.5883 38.2134 72.9738 32.8726 72.9738 26.2843C72.9738 19.6961 67.5883 14.3552 60.9449 14.3552C54.3015 14.3552 48.916 19.6961 48.916 26.2843Z" fill="white"/>
<path d="M60.9452 11.2861C63.5911 11.2861 66.1907 11.9745 68.4845 13.2826C70.7782 14.5906 72.6857 16.4725 74.0166 18.7404C75.3475 21.0082 76.0552 23.5827 76.0689 26.2066C76.0827 28.8305 75.4021 31.4121 74.095 33.6936C72.788 35.975 70.9003 37.8765 68.6204 39.2081C66.3405 40.5397 63.7483 41.2549 61.1025 41.2822C58.4567 41.3095 55.85 40.6479 53.5427 39.3636C51.2354 38.0793 49.3082 36.2172 47.9536 33.9632L50.926 32.2063C51.9707 33.9446 53.457 35.3807 55.2364 36.3712C57.0158 37.3617 59.0261 37.8719 61.0665 37.8508C63.1069 37.8298 65.1061 37.2782 66.8643 36.2513C68.6226 35.2243 70.0784 33.7579 71.0864 31.9984C72.0944 30.2389 72.6193 28.248 72.6087 26.2244C72.5981 24.2008 72.0523 22.2154 71.0259 20.4664C69.9996 18.7175 68.5284 17.2661 66.7595 16.2574C64.9906 15.2486 62.9858 14.7177 60.9452 14.7177L60.9452 11.2861Z" fill="#FF6D55"/>
<path opacity="0.2" d="M70.9463 26.1498C70.9463 31.7022 66.4075 36.2033 60.8086 36.2033C55.2097 36.2033 50.6709 31.7022 50.6709 26.1498C50.6709 20.5973 55.2097 16.0962 60.8086 16.0962C66.4075 16.0962 70.9463 20.5973 70.9463 26.1498ZM52.8084 26.1498C52.8084 30.5315 56.3902 34.0836 60.8086 34.0836C65.227 34.0836 68.8088 30.5315 68.8088 26.1498C68.8088 21.768 65.227 18.2159 60.8086 18.2159C56.3902 18.2159 52.8084 21.768 52.8084 26.1498Z" fill="white"/>
<path d="M60.9445 15.7412C63.3349 15.7412 65.6514 16.5632 67.4992 18.067C69.347 19.5709 70.6118 21.6637 71.0782 23.9887C71.5445 26.3137 71.1835 28.7272 70.0567 30.8178C68.9298 32.9085 67.1069 34.547 64.8985 35.4542C62.69 36.3613 60.2327 36.481 57.9452 35.7929C55.6577 35.1048 53.6816 33.6513 52.3536 31.6803C51.0256 29.7092 50.4278 27.3425 50.6621 24.9833C50.8964 22.6242 51.9483 20.4186 53.6385 18.7423L55.4211 20.5101C54.1433 21.7774 53.348 23.4448 53.1709 25.2284C52.9937 27.0119 53.4457 28.8012 54.4497 30.2913C55.4537 31.7815 56.9477 32.8803 58.677 33.4005C60.4064 33.9208 62.2641 33.8303 63.9337 33.1444C65.6033 32.4586 66.9815 31.2199 67.8334 29.6393C68.6853 28.0587 68.9582 26.2342 68.6056 24.4764C68.2531 22.7187 67.2969 21.1365 65.8999 19.9996C64.5029 18.8627 62.7517 18.2412 60.9445 18.2412L60.9445 15.7412Z" fill="#7E75E9"/>
<path opacity="0.2" d="M66.6955 25.987C66.6955 29.3006 63.9869 31.9867 60.6456 31.9867C57.3043 31.9867 54.5957 29.3006 54.5957 25.987C54.5957 22.6735 57.3043 19.9873 60.6456 19.9873C63.9869 19.9873 66.6955 22.6735 66.6955 25.987ZM56.3643 25.987C56.3643 28.3319 58.2811 30.2328 60.6456 30.2328C63.0101 30.2328 64.9269 28.3319 64.9269 25.987C64.9269 23.6421 63.0101 21.7412 60.6456 21.7412C58.2811 21.7412 56.3643 23.6421 56.3643 25.987Z" fill="white"/>
<path d="M60.795 19.6016C62.0989 19.6016 63.3706 20.0035 64.4341 20.7517C65.4976 21.4999 66.3002 22.5575 66.731 23.7779C67.1618 24.9984 67.1994 26.3215 66.8387 27.5642C66.4779 28.8068 65.7366 29.9075 64.7173 30.7139C63.698 31.5204 62.4512 31.9927 61.1494 32.0656C59.8475 32.1385 58.555 31.8082 57.4507 31.1206C56.3464 30.433 55.485 29.422 54.9855 28.2275C54.4861 27.033 54.3733 25.7141 54.6629 24.4533L56.7547 24.9259C56.5639 25.7566 56.6382 26.6256 56.9673 27.4126C57.2963 28.1996 57.8639 28.8657 58.5915 29.3188C59.3191 29.7718 60.1707 29.9894 61.0285 29.9414C61.8863 29.8934 62.7078 29.5822 63.3793 29.0508C64.0509 28.5195 64.5393 27.7943 64.777 26.9755C65.0147 26.1568 64.99 25.285 64.7061 24.4809C64.4223 23.6767 63.8934 22.9799 63.1927 22.4869C62.492 21.9939 61.6541 21.7291 60.795 21.7291L60.795 19.6016Z" fill="#6FCF97"/>
<defs>
<linearGradient id="paint0_linear" x1="7.63933" y1="13.3275" x2="16.9531" y2="28.0859" gradientUnits="userSpaceOnUse">
<stop stop-color="#27AAE1"/>
<stop offset="1" stop-color="#2B3990"/>
</linearGradient>
</defs>
</svg>
