<svg width="65" height="72" viewBox="0 0 65 72" fill="none" xmlns="http://www.w3.org/2000/svg">
<g clip-path="url(#clip0)">
<path d="M11.9931 55.7224L11.9036 30.6789L21.8829 45.6156L39.9174 17.9336H39.5594L32.265 17.9783H31.4595L22.1067 33.1833L12.5748 18.0678L4.07227 18.1125L4.25127 55.7224H11.9931Z" fill="white"/>
<path fill-rule="evenodd" clip-rule="evenodd" d="M31.5044 38.8341V55.9011H42.1371V46.0805H48.6886C52.0896 46.0805 55.0431 45.526 57.5491 44.4169C60.0552 43.2721 61.9884 41.6621 63.3488 39.5871C64.7092 37.5121 65.3894 35.0614 65.3894 32.2351C65.3894 29.4087 64.7092 26.958 63.3488 24.883C61.9884 22.7722 60.0552 21.1623 57.5491 20.0532C55.0431 18.9084 52.0896 18.3359 48.6886 18.3359H44.7768L31.5044 38.8341ZM52.9846 36.3136C51.8748 37.2438 50.228 37.7089 48.0442 37.7089H42.1371V26.7076H48.0442C50.228 26.7076 51.8748 27.1906 52.9846 28.1566C54.0944 29.1225 54.6493 30.482 54.6493 32.2351C54.6493 33.9881 54.0944 35.3476 52.9846 36.3136Z" fill="white"/>
</g>
<defs>
<clipPath id="clip0">
<rect width="65" height="72" fill="white"/>
</clipPath>
</defs>
</svg>
