<svg width="152" height="56" viewBox="0 0 152 56" fill="none" xmlns="http://www.w3.org/2000/svg">
<path d="M152 50.3865C152 51.8763 151.539 53.305 150.718 54.3579C149.897 55.4108 148.783 56.0015 147.623 56L4.38275 56C1.96519 56.0032 0.00314939 53.4902 0 50.3865V5.62081C0.0031489 2.51591 1.96427 0.00080489 4.38275 0H147.622C150.04 0 151.999 2.51676 151.999 5.62081L152 50.3865L152 50.3865Z" fill="black"/>
<path fill-rule="evenodd" clip-rule="evenodd" d="M31.2168 11.9219C31.4064 13.6829 30.7237 15.4182 29.7259 16.6937C28.6847 17.9494 27.019 18.9098 25.3968 18.7861C25.1844 17.0916 26.0064 15.2898 26.9266 14.1905C27.9666 12.943 29.7727 11.9872 31.2168 11.9219ZM36.5274 22.0803C36.3464 22.1908 33.3461 24.0212 33.379 27.7543H33.3789C33.4178 32.2612 37.2377 33.7527 37.2833 33.769C37.2605 33.874 36.6851 35.9209 35.2524 37.997C34.0559 39.8257 32.8024 41.6147 30.8114 41.6462C29.8649 41.6684 29.2257 41.3905 28.5597 41.1008C27.865 40.7987 27.141 40.4838 26.0085 40.4838C24.8083 40.4838 24.0523 40.8089 23.3234 41.1223C22.6927 41.3935 22.0822 41.6559 21.2217 41.6917C19.3254 41.7629 17.8766 39.7405 16.6368 37.927C14.1583 34.2265 12.229 27.4988 14.8159 22.9207C16.0694 20.6754 18.355 19.2295 20.7981 19.191C21.8739 19.1685 22.9058 19.5923 23.8103 19.9639C24.5021 20.248 25.1194 20.5015 25.6249 20.5015C26.069 20.5015 26.669 20.2581 27.3683 19.9744C28.4702 19.5273 29.8189 18.9802 31.1927 19.128C32.1323 19.156 34.806 19.5072 36.531 22.0781L36.5274 22.0803Z" fill="white"/>
<path fill-rule="evenodd" clip-rule="evenodd" d="M98.1438 40.3014C99.0423 39.4717 99.4943 38.3969 99.4943 37.0747C99.4943 36.0022 99.1861 35.1025 98.5662 34.3813C97.9508 33.6601 96.9896 33.0322 95.6812 32.4931C94.615 32.0636 93.8775 31.6634 93.4733 31.2958C93.0075 30.8966 92.7735 30.3879 92.7735 29.7752C92.7735 29.2197 92.979 28.7517 93.3843 28.3678C93.8661 27.9383 94.5396 27.7225 95.3981 27.7225C96.485 27.7225 97.4565 27.9605 98.3173 28.4366L98.9281 26.4084C98.0136 25.9171 96.8617 25.6709 95.4792 25.6709C93.9311 25.6709 92.6868 26.0782 91.7483 26.8927C90.8099 27.7085 90.3395 28.7517 90.3395 30.0261C90.3395 31.9773 91.6707 33.4605 94.3307 34.4746C95.3091 34.8422 96.0055 35.2425 96.4267 35.672C96.8457 36.1026 97.0592 36.6312 97.0592 37.2626C97.0592 37.9674 96.8012 38.5322 96.2909 38.9547C95.7817 39.376 95.0682 39.5884 94.1504 39.5884C92.874 39.5884 91.7015 39.2663 90.6341 38.6198L90.0713 40.6935C91.0599 41.3389 92.3705 41.661 94.0054 41.661C95.7749 41.661 97.1551 41.207 98.1438 40.3014ZM60.2502 41.4308H57.6575L56.2373 36.869H51.3008L49.948 41.4308H47.4238L52.3158 25.9005H55.3365L60.2502 41.4308ZM55.8089 34.955L54.5246 30.8998C54.3887 30.4855 54.133 29.5099 53.7585 27.9741H53.7129C53.5621 28.6346 53.3213 29.6102 52.9913 30.8998L51.7287 34.955H55.8089ZM71.2873 40.2086C72.2999 39.1035 72.8057 37.5981 72.8057 35.6935C72.8057 33.9886 72.373 32.6138 71.511 31.5671C70.648 30.5226 69.5691 30.001 68.2768 30.001C66.6237 30.001 65.3919 30.6697 64.5802 32.007H64.5345L64.3986 30.232H62.258C62.3174 31.49 62.3483 32.7166 62.3483 33.9127V45.9712H64.7822V40.0954C65.4159 41.155 66.4593 41.6837 67.9103 41.6837C69.254 41.6837 70.3808 41.1924 71.2873 40.2086ZM70.3265 35.7855C70.3265 34.6955 70.0867 33.7969 69.6049 33.0885C69.0786 32.3522 68.372 31.9834 67.4861 31.9834C66.8856 31.9834 66.3399 32.1888 65.8524 32.5937C65.3637 33.0022 65.0441 33.5355 64.8945 34.196C64.8278 34.443 64.7898 34.6973 64.7815 34.9534V36.8217C64.7815 37.6351 65.0258 38.3225 65.5145 38.885C66.0031 39.4451 66.6378 39.7264 67.4187 39.7264C68.3354 39.7264 69.049 39.3634 69.5593 38.6434C70.0707 37.9211 70.3265 36.9688 70.3265 35.7855ZM83.8876 40.2086C84.9002 39.1035 85.406 37.5981 85.406 35.6935C85.406 33.9886 84.9721 32.6138 84.1113 31.5671C83.246 30.5226 82.1671 30.001 80.876 30.001C79.2217 30.001 77.9899 30.6697 77.1793 32.007H77.1337L76.9978 30.232H74.8572C74.9166 31.49 74.9474 32.7166 74.9474 33.9127V45.9712H77.3814V40.0954C78.015 41.155 79.0585 41.6837 80.5095 41.6837C81.8543 41.6837 82.98 41.1924 83.8876 40.2086ZM82.9253 35.7855C82.9253 34.6955 82.6844 33.7969 82.2026 33.0885C81.6763 32.3522 80.9719 31.9834 80.086 31.9834C79.4855 31.9834 78.9398 32.1888 78.4501 32.5937C77.9615 33.0022 77.6429 33.5355 77.4934 34.196C77.4192 34.5041 77.3792 34.755 77.3792 34.9534V36.8217C77.3792 37.6351 77.6247 38.3225 78.111 38.885C78.5996 39.444 79.2344 39.7264 80.0175 39.7264C80.9354 39.7264 81.6489 39.3634 82.1581 38.6434C82.6696 37.9211 82.9253 36.9688 82.9253 35.7855ZM107.562 32.1002H104.879V37.5372C104.879 38.9201 105.352 39.6098 106.299 39.6098C106.734 39.6098 107.095 39.5724 107.38 39.4942L107.448 41.3836C106.968 41.5668 106.337 41.659 105.555 41.659C104.594 41.659 103.842 41.3591 103.3 40.7593C102.76 40.1594 102.488 39.1546 102.488 37.7402V32.0955H100.89V30.2284H102.488V28.178L104.879 27.4404V30.2284H107.562L107.562 32.1002ZM118.199 39.9786C119.161 38.8735 119.643 37.4603 119.643 35.739C119.643 34.0632 119.178 32.6978 118.244 31.6405C117.267 30.5505 115.976 30.0044 114.368 30.0044C112.7 30.0044 111.374 30.5576 110.388 31.6638C109.405 32.769 108.912 34.1904 108.912 35.9257C108.912 37.584 109.389 38.9587 110.344 40.0498C111.298 41.1386 112.578 41.6836 114.188 41.6836C115.856 41.6836 117.194 41.1165 118.199 39.9786ZM117.12 35.7967C117.12 34.771 116.903 33.891 116.468 33.1547C115.957 32.2654 115.227 31.8208 114.28 31.8208C113.305 31.8208 112.558 32.2654 112.048 33.1547C111.612 33.891 111.395 34.7861 111.395 35.8434C111.395 36.8704 111.612 37.7526 112.048 38.4866C112.575 39.3759 113.309 39.8205 114.26 39.8205C115.19 39.8205 115.92 39.3666 116.447 38.4645C116.895 37.7106 117.12 36.8248 117.12 35.7967ZM126.791 32.3513C127.048 32.3504 127.305 32.3734 127.558 32.4201L127.555 30.0465C127.375 30.0173 127.172 30.001 126.947 30.001C126.313 30.0019 125.696 30.2123 125.188 30.6008C124.633 31.0454 124.229 31.6394 123.971 32.3758H123.903L123.814 30.2332H121.694C121.744 31.4077 121.767 32.5831 121.765 33.7587V41.4304H124.199V35.5547C124.199 34.6643 124.402 33.9267 124.806 33.3432C125.272 32.6804 125.934 32.3513 126.791 32.3513ZM138.443 35.3023C138.449 35.6805 138.419 36.0585 138.354 36.4308H131.052C131.079 37.5371 131.433 38.3843 132.111 38.9678C132.727 39.4883 133.522 39.7497 134.5 39.7497C135.581 39.7497 136.567 39.5747 137.454 39.2211L137.835 40.947C136.799 41.4092 135.575 41.6391 134.163 41.6391C132.464 41.6391 131.131 41.1279 130.16 40.108C129.192 39.0869 128.707 37.7145 128.707 35.9955C128.707 34.3081 129.158 32.9018 130.061 31.7804C131.006 30.583 132.284 29.9844 133.891 29.9844C135.47 29.9844 136.665 30.583 137.477 31.7804C138.12 32.7291 138.443 33.9054 138.443 35.3023ZM135.65 32.7432C135.98 33.2812 136.14 33.9172 136.123 34.6559L131.054 34.6536C131.128 33.9032 131.369 33.2567 131.774 32.7187C132.267 32.0418 132.916 31.7046 133.712 31.7046C134.58 31.7046 135.229 32.05 135.65 32.7432Z" fill="white"/>
<path fill-rule="evenodd" clip-rule="evenodd" d="M80.1428 20.3424H78.9452V12.3135H80.1428V20.3424ZM48.8477 20.3194C49.3352 20.3766 49.9208 20.4104 50.5978 20.4104C53.4667 20.4104 54.9851 18.9843 54.9851 16.3446C54.9851 14.0561 53.6996 12.6523 50.9083 12.6523C50.2184 12.6502 49.5294 12.7033 48.8477 12.811V20.3194ZM50.0433 13.6946C50.3093 13.6386 50.63 13.6152 51.0068 13.6152C52.7798 13.6152 53.7216 14.6013 53.7216 16.3787C53.7216 18.3719 52.6804 19.4362 50.8515 19.4362C50.4633 19.4362 50.1871 19.4257 50.0433 19.4023V13.6946ZM58.9918 20.4681C57.4186 20.4681 56.3991 19.2673 56.3991 17.637C56.3991 15.9379 57.4403 14.7266 59.0808 14.7266C60.6311 14.7266 61.6735 15.8702 61.6735 17.5472C61.6735 19.2673 60.5992 20.4681 58.9918 20.4681ZM57.6191 17.6012C57.6191 16.4459 58.1727 15.6196 59.037 15.6196C59.8783 15.6196 60.4321 16.4575 60.4321 17.5778C60.4321 18.6771 59.8669 19.5605 59.0256 19.5605C58.1842 19.5605 57.6191 18.7343 57.6191 17.6012ZM70.6442 14.8394L68.9603 20.3429H67.8632L67.1657 17.9529C66.9922 17.3683 66.8478 16.7751 66.733 16.1756L66.7102 16.1756C66.6222 16.7754 66.4556 17.3764 66.2786 17.9529L65.5366 20.3429H64.428L62.8435 14.8394H64.073L64.6826 17.4557C64.8265 18.0789 64.9475 18.6671 65.0479 19.2226H65.0708C65.1587 18.7593 65.3025 18.1804 65.5137 17.4674L66.2786 14.8405H67.2536L67.9854 17.4114C68.1623 18.0346 68.3061 18.6461 68.4181 19.2237H68.45C68.5277 18.6577 68.6498 18.0567 68.8153 17.4114L69.4695 14.8405L70.6442 14.8394ZM75.6469 20.3433H76.8434H76.8434L76.8445 17.0477C76.8445 15.61 76.1025 14.7266 74.9722 14.7266C74.2404 14.7266 73.5874 15.1 73.2655 15.6882H73.2324L73.1764 14.8386H72.1239C72.157 15.4046 72.1684 15.9262 72.1684 16.4129V20.3433H73.3648V17.0699C73.3648 16.3452 73.8523 15.722 74.5613 15.722C75.2816 15.722 75.6469 16.2098 75.6469 17.1831V20.3433ZM81.912 17.637C81.912 19.2673 82.9327 20.4681 84.5047 20.4681C86.111 20.4681 87.1864 19.2673 87.1852 17.5472C87.1852 15.8702 86.1441 14.7266 84.5926 14.7266C82.9532 14.7266 81.912 15.9379 81.912 17.637ZM84.5489 15.6196C83.6847 15.6196 83.131 16.4459 83.131 17.6012C83.131 18.7343 83.6973 19.5605 84.5364 19.5605C85.3789 19.5605 85.9429 18.6771 85.9429 17.5778C85.944 16.4575 85.3915 15.6196 84.5489 15.6196ZM91.8158 19.7096L91.9026 20.3433H91.9026L92.9814 20.3444C92.9278 20.0165 92.9038 19.5859 92.9038 19.0304V17.0034C92.9038 15.4851 92.1937 14.7266 90.7872 14.7266C90.0577 14.7266 89.4366 14.8853 88.9389 15.2027L89.182 16.0067C89.5919 15.7348 90.0577 15.5983 90.5885 15.5983C91.3306 15.5983 91.7062 15.9612 91.7062 16.6859V16.7875C89.7118 16.7875 88.5598 17.49 88.5598 18.8484C88.5598 19.7773 89.2448 20.4681 90.2095 20.4681C90.8854 20.4681 91.4185 20.2196 91.7839 19.7096H91.8158ZM91.738 17.6016C90.4092 17.6016 89.7424 17.9307 89.7424 18.7114C89.7424 19.289 90.0861 19.5714 90.5633 19.5714C91.1718 19.5714 91.738 19.0965 91.738 18.4511V17.6016ZM98.6579 19.4589L98.7138 20.3424H99.779C99.747 19.8896 99.7345 19.3913 99.7345 18.8591V12.3135H98.5369V15.4725H98.5129C98.2252 14.973 97.7149 14.7245 96.9945 14.7245C95.6337 14.7245 94.637 15.937 94.637 17.6583C94.637 19.3002 95.5983 20.4672 96.8963 20.4672C97.7035 20.4672 98.2811 20.1265 98.6248 19.4589H98.6579ZM98.5363 17.104C98.5363 16.3338 98.0374 15.6768 97.276 15.6768C96.3889 15.6768 95.8466 16.4808 95.8466 17.6128C95.8466 18.7226 96.4095 19.4823 97.252 19.4823C98.0043 19.4823 98.5363 18.8136 98.5363 18.0212V17.104ZM104.736 17.637C104.736 19.2673 105.755 20.4681 107.327 20.4681C108.936 20.4681 110.01 19.2673 110.009 17.5472C110.009 15.8702 108.968 14.7266 107.416 14.7266C105.777 14.7266 104.736 15.9379 104.736 17.637ZM107.372 15.6196C106.509 15.6196 105.955 16.4459 105.955 17.6012C105.955 18.7343 106.52 19.5605 107.361 19.5605C108.203 19.5605 108.767 18.6771 108.767 17.5778C108.769 16.4575 108.216 15.6196 107.372 15.6196ZM115.245 20.343H116.443V17.0462C116.443 15.6085 115.7 14.7251 114.57 14.7251C113.839 14.7251 113.185 15.0997 112.864 15.6879H112.831L112.775 14.8383H111.722C111.755 15.4043 111.767 15.9259 111.767 16.4126V20.343H112.964V17.0696C112.964 16.3449 113.451 15.7217 114.16 15.7217C114.88 15.7217 115.245 16.2095 115.245 17.1828V20.343ZM124.493 15.7567H123.176V18.4291C123.176 19.1095 123.407 19.4491 123.873 19.4491C124.084 19.4491 124.261 19.4257 124.404 19.3919L124.437 20.3208C124.205 20.4118 123.894 20.4573 123.508 20.4573C122.565 20.4573 122.002 19.9252 122.002 18.5318V15.7567H121.216V14.8395H122.002V13.8312L123.176 13.4683V14.8383H124.493V15.7567ZM129.631 20.3424H130.827V17.0689C130.827 15.6301 130.13 14.7245 128.991 14.7245C128.295 14.7245 127.749 15.0197 127.372 15.6196H127.348V12.3135H126.153V20.3424H127.348V17.0246C127.348 16.1529 127.926 15.7222 128.546 15.7222C129.267 15.7222 129.631 16.2205 129.631 17.2055V20.3424ZM137.316 17.8851H133.725C133.748 18.9272 134.423 19.5153 135.422 19.5153C135.953 19.5153 136.441 19.4243 136.873 19.2551L137.059 20.1047C136.55 20.3311 135.95 20.4443 135.253 20.4443C133.569 20.4443 132.572 19.3566 132.572 17.6703C132.572 15.9829 133.593 14.7144 135.118 14.7144C136.494 14.7144 137.357 15.7565 137.357 17.3307C137.364 17.5165 137.351 17.7026 137.316 17.8851ZM135.035 15.5635C134.347 15.5635 133.804 16.175 133.726 17.0129ZM133.726 17.0129H136.218Z" fill="white"/>
</svg>
