<svg width="152" height="56" viewBox="0 0 152 56" fill="none" xmlns="http://www.w3.org/2000/svg">
<path d="M146.37 56H5.62963C2.47704 56 0 52.92 0 49V7C0 3.08 2.47704 0 5.62963 0H146.37C149.523 0 152 3.08 152 7V49C152 52.92 149.523 56 146.37 56Z" fill="black"/>
<path fill-rule="evenodd" clip-rule="evenodd" d="M80.3915 20.2372C81.4048 20.2372 82.193 19.8997 82.8685 19.2247C83.5441 18.5497 83.8819 17.7622 83.8819 16.7497C83.8819 15.7372 83.5441 14.9497 82.8685 14.2747C82.193 13.5997 81.4048 13.2622 80.3915 13.2622C79.3782 13.2622 78.59 13.5997 77.9145 14.2747C77.2389 14.9497 76.9011 15.7372 76.9011 16.7497C76.9011 17.7622 77.2389 18.5497 77.9145 19.2247C78.59 19.8997 79.3782 20.2372 80.3915 20.2372ZM67.4434 13.376V20.126H68.3434V13.376H67.4434ZM72.0596 20.126H71.2714V14.1635H69.3573V13.376H73.9736V14.1635H72.0596V20.126ZM78.5899 18.6623C79.0403 19.1123 79.7159 19.4498 80.3914 19.4498C81.067 19.4498 81.7425 19.2248 82.1929 18.6623C82.6433 18.2123 82.981 17.5373 82.981 16.7498C82.981 15.9623 82.7558 15.2873 82.1929 14.8373C81.7425 14.3873 81.067 14.0498 80.3914 14.0498C79.7159 14.0498 79.0403 14.2748 78.5899 14.8373C78.1396 15.2873 77.8018 15.9623 77.8018 16.7498C77.8018 17.5373 78.027 18.2123 78.5899 18.6623ZM85.1203 13.376V20.126H85.9084V14.6135L89.3988 20.126H90.2996V13.376H89.3988V18.6635L86.1336 13.376H85.1203Z" fill="white"/>
<path d="M82.8685 19.2247L82.7978 19.154L82.7978 19.154L82.8685 19.2247ZM82.8685 14.2747L82.7978 14.3454L82.7978 14.3454L82.8685 14.2747ZM77.9145 14.2747L77.9852 14.3454L77.9852 14.3454L77.9145 14.2747ZM77.9145 19.2247L77.9852 19.154L77.9852 19.154L77.9145 19.2247ZM67.4434 20.126H67.3434V20.226H67.4434V20.126ZM67.4434 13.376V13.276H67.3434V13.376H67.4434ZM68.3434 20.126V20.226H68.4434V20.126H68.3434ZM68.3434 13.376H68.4434V13.276H68.3434V13.376ZM71.2714 20.126H71.1714V20.226H71.2714V20.126ZM72.0596 20.126V20.226H72.1596V20.126H72.0596ZM71.2714 14.1635H71.3714V14.0635H71.2714V14.1635ZM69.3573 14.1635H69.2573V14.2635H69.3573V14.1635ZM69.3573 13.376V13.276H69.2573V13.376H69.3573ZM73.9736 13.376H74.0736V13.276H73.9736V13.376ZM73.9736 14.1635V14.2635H74.0736V14.1635H73.9736ZM72.0596 14.1635V14.0635H71.9596V14.1635H72.0596ZM78.5899 18.6623L78.661 18.5911L78.6524 18.5842L78.5899 18.6623ZM82.1929 18.6623L82.1218 18.5911L82.1148 18.5998L82.1929 18.6623ZM82.1929 14.8373L82.1218 14.9085L82.1304 14.9154L82.1929 14.8373ZM78.5899 14.8373L78.661 14.9085L78.668 14.8998L78.5899 14.8373ZM85.1203 20.126H85.0203V20.226H85.1203V20.126ZM85.1203 13.376V13.276H85.0203V13.376H85.1203ZM85.9084 20.126V20.226H86.0084V20.126H85.9084ZM85.9084 14.6135L85.9929 14.56L85.8084 14.2686V14.6135H85.9084ZM89.3988 20.126L89.3143 20.1795L89.3438 20.226H89.3988V20.126ZM90.2996 20.126V20.226H90.3996V20.126H90.2996ZM90.2996 13.376H90.3996V13.276H90.2996V13.376ZM89.3988 13.376V13.276H89.2988V13.376H89.3988ZM89.3988 18.6635L89.3137 18.716L89.4988 19.0157V18.6635H89.3988ZM86.1336 13.376L86.2187 13.3234L86.1894 13.276H86.1336V13.376ZM82.7978 19.154C82.1411 19.8102 81.3784 20.1372 80.3915 20.1372V20.3372C81.4313 20.3372 82.2449 19.9892 82.9392 19.2954L82.7978 19.154ZM83.7819 16.7497C83.7819 17.7357 83.4546 18.4978 82.7978 19.154L82.9392 19.2954C83.6336 18.6017 83.9819 17.7887 83.9819 16.7497H83.7819ZM82.7978 14.3454C83.4546 15.0017 83.7819 15.7637 83.7819 16.7497H83.9819C83.9819 15.7107 83.6336 14.8978 82.9392 14.204L82.7978 14.3454ZM80.3915 13.3622C81.3784 13.3622 82.1411 13.6892 82.7978 14.3454L82.9392 14.204C82.2449 13.5102 81.4313 13.1622 80.3915 13.1622V13.3622ZM77.9852 14.3454C78.6419 13.6892 79.4046 13.3622 80.3915 13.3622V13.1622C79.3517 13.1622 78.5381 13.5102 77.8438 14.204L77.9852 14.3454ZM77.0011 16.7497C77.0011 15.7637 77.3284 15.0017 77.9852 14.3454L77.8438 14.204C77.1494 14.8978 76.8011 15.7107 76.8011 16.7497H77.0011ZM77.9852 19.154C77.3284 18.4978 77.0011 17.7357 77.0011 16.7497H76.8011C76.8011 17.7887 77.1494 18.6017 77.8438 19.2954L77.9852 19.154ZM80.3915 20.1372C79.4046 20.1372 78.6419 19.8102 77.9852 19.154L77.8438 19.2954C78.5381 19.9892 79.3517 20.3372 80.3915 20.3372V20.1372ZM67.5434 20.126V13.376H67.3434V20.126H67.5434ZM68.3434 20.026H67.4434V20.226H68.3434V20.026ZM68.2434 13.376V20.126H68.4434V13.376H68.2434ZM67.4434 13.476H68.3434V13.276H67.4434V13.476ZM71.2714 20.226H72.0596V20.026H71.2714V20.226ZM71.1714 14.1635V20.126H71.3714V14.1635H71.1714ZM69.3573 14.2635H71.2714V14.0635H69.3573V14.2635ZM69.2573 13.376V14.1635H69.4573V13.376H69.2573ZM73.9736 13.276H69.3573V13.476H73.9736V13.276ZM74.0736 14.1635V13.376H73.8736V14.1635H74.0736ZM72.0596 14.2635H73.9736V14.0635H72.0596V14.2635ZM72.1596 20.126V14.1635H71.9596V20.126H72.1596ZM80.3914 19.3498C79.747 19.3498 79.0958 19.0264 78.6606 18.5916L78.5192 18.733C78.9848 19.1982 79.6847 19.5498 80.3914 19.5498V19.3498ZM82.1148 18.5998C81.6886 19.1321 81.046 19.3498 80.3914 19.3498V19.5498C81.0879 19.5498 81.7964 19.3175 82.2709 18.7248L82.1148 18.5998ZM82.881 16.7498C82.881 17.5083 82.5556 18.1585 82.1222 18.5916L82.2636 18.733C82.7309 18.2661 83.081 17.5663 83.081 16.7498H82.881ZM82.1304 14.9154C82.6617 15.3401 82.881 15.9808 82.881 16.7498H83.081C83.081 15.9439 82.85 15.2345 82.2553 14.7592L82.1304 14.9154ZM80.3914 14.1498C81.0358 14.1498 81.687 14.4732 82.1222 14.908L82.2636 14.7666C81.798 14.3014 81.0981 13.9498 80.3914 13.9498V14.1498ZM78.668 14.8998C79.0942 14.3675 79.7368 14.1498 80.3914 14.1498V13.9498C79.6949 13.9498 78.9864 14.1821 78.5119 14.7748L78.668 14.8998ZM77.9018 16.7498C77.9018 15.9913 78.2272 15.3411 78.6606 14.908L78.5192 14.7666C78.0519 15.2335 77.7018 15.9333 77.7018 16.7498H77.9018ZM78.6524 18.5842C78.1211 18.1595 77.9018 17.5189 77.9018 16.7498H77.7018C77.7018 17.5558 77.9328 18.2651 78.5275 18.7404L78.6524 18.5842ZM85.2203 20.126V13.376H85.0203V20.126H85.2203ZM85.9084 20.026H85.1203V20.226H85.9084V20.026ZM85.8084 14.6135V20.126H86.0084V14.6135H85.8084ZM89.4833 20.0725L85.9929 14.56L85.824 14.667L89.3143 20.1795L89.4833 20.0725ZM90.2996 20.026H89.3988V20.226H90.2996V20.026ZM90.1996 13.376V20.126H90.3996V13.376H90.1996ZM89.3988 13.476H90.2996V13.276H89.3988V13.476ZM89.4988 18.6635V13.376H89.2988V18.6635H89.4988ZM86.0485 13.4285L89.3137 18.716L89.4839 18.6109L86.2187 13.3234L86.0485 13.4285ZM85.1203 13.476H86.1336V13.276H85.1203V13.476Z" fill="white"/>
<path fill-rule="evenodd" clip-rule="evenodd" d="M53.707 31.4878V33.5128H58.5485C58.4359 34.6378 57.9855 35.5378 57.4225 36.1003C56.747 36.7753 55.6211 37.5628 53.707 37.5628C50.667 37.5628 48.4151 35.2003 48.4151 32.1628C48.4151 29.1253 50.7796 26.7628 53.707 26.7628C55.2833 26.7628 56.5218 27.4378 57.4225 28.2253L58.8862 26.7628C57.6477 25.6378 56.0714 24.7378 53.8196 24.7378C49.7663 24.7378 46.2759 28.1128 46.2759 32.1628C46.2759 36.2128 49.7663 39.5878 53.8196 39.5878C56.0714 39.5878 57.6477 38.9128 58.9988 37.4503C60.35 36.1003 60.8003 34.1878 60.8003 32.7253C60.8003 32.2753 60.8003 31.8253 60.6877 31.4878H53.707ZM66.2049 30.0254C63.5027 30.0254 61.3634 32.0504 61.3634 34.8629C61.3634 37.5629 63.5027 39.7004 66.2049 39.7004C68.9072 39.7004 71.0464 37.6754 71.0464 34.8629C71.0464 31.9379 68.9072 30.0254 66.2049 30.0254ZM71.8345 34.8629C71.8345 32.0504 73.9737 30.0254 76.6759 30.0254C79.3782 30.0254 81.5174 31.9379 81.5174 34.8629C81.5174 37.6754 79.3782 39.7004 76.6759 39.7004C73.9737 39.7004 71.8345 37.5629 71.8345 34.8629ZM73.9734 34.7502C73.9734 36.4377 75.2119 37.6752 76.6756 37.6752C78.1394 37.6752 79.3779 36.4377 79.3779 34.7502C79.3779 32.9502 78.1394 31.8252 76.6756 31.8252C75.2119 31.8252 73.9734 33.0627 73.9734 34.7502ZM63.5024 34.7502C63.5024 36.4377 64.7409 37.6752 66.2046 37.6752C67.6683 37.6752 68.9069 36.4377 68.9069 34.7502C68.9069 32.9502 67.6683 31.8252 66.2046 31.8252C64.7409 31.8252 63.5024 33.0627 63.5024 34.7502ZM100.771 30.0254C103.248 30.0254 104.374 31.9379 104.824 33.0629L105.049 33.6254L98.6316 36.3254C99.1945 37.3379 99.8701 37.7879 100.996 37.7879C102.122 37.7879 102.798 37.2254 103.36 36.4379L104.937 37.5629C104.486 38.3504 103.135 39.7004 100.996 39.7004C98.2938 39.7004 96.2671 37.5629 96.2671 34.8629C96.2671 31.9379 98.2938 30.0254 100.771 30.0254ZM98.2937 34.6377C98.2937 32.8377 99.7574 31.8252 100.771 31.8252C101.559 31.8252 102.347 32.2752 102.572 32.8377L98.2937 34.6377ZM95.141 39.25H93.0018V25.1875H95.141V39.25ZM89.6238 31.0391C89.0608 30.4766 88.1601 29.9141 87.0341 29.9141C84.6697 29.9141 82.4179 32.0516 82.4179 34.7516C82.4179 37.4516 84.5571 39.4766 87.0341 39.4766C88.1601 39.4766 89.0608 38.9141 89.5112 38.3516H89.6238V39.0266C89.6238 40.8266 88.6105 41.8391 87.0341 41.8391C85.7956 41.8391 84.8949 40.9391 84.6697 40.1516L82.8682 40.9391C83.4312 42.1766 84.7823 43.7516 87.1468 43.7516C89.6238 43.7516 91.6505 42.2891 91.6505 38.8016V30.2516H89.6238L89.6238 31.0391ZM84.4449 34.7502C84.4449 36.4377 85.6834 37.6752 87.1472 37.6752C88.6109 37.6752 89.7368 36.4377 89.7368 34.7502C89.7368 33.0627 88.6109 31.8252 87.1472 31.8252C85.6834 31.8252 84.4449 33.0627 84.4449 34.7502ZM114.62 25.1875H109.553V39.25H111.692V33.9625H114.62C116.984 33.9625 119.236 32.275 119.236 29.575C119.236 26.875 116.984 25.1875 114.62 25.1875ZM111.692 31.9391H114.732C116.196 31.9391 117.096 30.7016 117.209 29.4641C117.209 28.4516 116.308 27.1016 114.732 27.1016H111.692V31.9391ZM127.68 29.9141C126.104 29.9141 124.528 30.5891 123.965 32.0516L125.879 32.8391C126.329 32.0516 127.005 31.8266 127.793 31.8266C128.919 31.8266 129.932 32.5016 130.045 33.6266V33.7391C129.707 33.5141 128.806 33.1766 127.906 33.1766C125.879 33.1766 123.852 34.3016 123.852 36.3266C123.852 38.2391 125.541 39.4766 127.343 39.4766C128.806 39.4766 129.482 38.8016 130.045 38.1266H130.158V39.2516H132.184V33.8516C131.959 31.3766 130.045 29.9141 127.68 29.9141ZM125.766 36.4391C125.766 37.3391 126.779 37.6766 127.455 37.6766C128.581 37.6766 129.707 36.7766 129.932 35.4266C129.875 35.4038 129.819 35.3811 129.764 35.3586C129.273 35.1584 128.828 34.9766 128.018 34.9766C127.005 34.9766 125.766 35.3141 125.766 36.4391ZM139.277 30.25L136.913 36.325H136.8L134.323 30.25H132.071L135.787 38.8L133.648 43.525H135.787L141.529 30.25H139.277ZM122.501 39.25H120.362V25.1875H122.501V39.25Z" fill="white"/>
<path d="M11.7096 13.938C11.3719 14.2755 11.2593 14.838 11.2593 15.513V40.3755C11.2593 41.0505 11.4845 41.613 11.8222 41.9505L11.9348 42.063L25.8963 28.113V27.888L11.7096 13.938Z" fill="url(#paint0_linear)"/>
<path d="M30.4005 32.8374L25.7842 28.2249V27.8874L30.4005 23.2749L30.5131 23.3874L36.0301 26.5374C37.6064 27.4374 37.6064 28.8999 36.0301 29.7999L30.4005 32.8374Z" fill="url(#paint1_linear)"/>
<path d="M30.5124 32.725L25.7835 28L11.7095 42.0625C12.2724 42.625 13.0606 42.625 14.0739 42.175L30.5124 32.725" fill="url(#paint2_linear)"/>
<path d="M30.5124 23.2752L14.0739 13.9377C13.0606 13.3752 12.2724 13.4877 11.7095 14.0502L25.7835 28.0002L30.5124 23.2752H30.5124Z" fill="url(#paint3_linear)"/>
<path opacity="0.2" d="M30.3998 32.6128L14.0739 41.8378C13.1732 42.4003 12.385 42.2878 11.8221 41.8378L11.7095 41.9503L11.8221 42.0628C12.385 42.5128 13.1732 42.6253 14.0739 42.0628L30.3998 32.6128Z" fill="black"/>
<path opacity="0.12" fill-rule="evenodd" clip-rule="evenodd" d="M30.4 32.6125L36.0296 29.4625C36.7052 29.0125 37.1556 28.5625 37.1556 28C37.1556 28.5625 36.8178 29.125 36.0296 29.575L30.5126 32.725L30.4 32.6125ZM11.2796 40.7202C11.325 41.1904 11.4515 41.5795 11.7093 41.8373H11.7202C11.7528 41.8772 11.7867 41.9147 11.8218 41.9498V41.8373H11.7202C11.495 41.5615 11.3341 41.1751 11.2796 40.7202ZM11.2796 40.7202C11.2655 40.5748 11.2593 40.4217 11.2593 40.2623V40.3748C11.2593 40.4936 11.2662 40.6089 11.2796 40.7202Z" fill="black"/>
<path opacity="0.25" d="M14.0741 14.0504L36.0296 26.5379C36.7052 26.9879 37.1556 27.4379 37.1556 28.0004C37.1556 27.4379 36.8178 26.8754 36.0296 26.4254L14.0741 13.9379C12.4978 13.0379 11.2593 13.7129 11.2593 15.5129V15.6254C11.2593 13.9379 12.4978 13.1504 14.0741 14.0504Z" fill="white"/>
<defs>
<linearGradient id="paint0_linear" x1="29.458" y1="24.7971" x2="7.0905" y2="18.7443" gradientUnits="userSpaceOnUse">
<stop stop-color="#00A0FF"/>
<stop offset="0.007" stop-color="#00A1FF"/>
<stop offset="0.26" stop-color="#00BEFF"/>
<stop offset="0.512" stop-color="#00D2FF"/>
<stop offset="0.76" stop-color="#00DFFF"/>
<stop offset="1" stop-color="#00E3FF"/>
</linearGradient>
<linearGradient id="paint1_linear" x1="38.095" y1="18.8506" x2="10.851" y2="18.8506" gradientUnits="userSpaceOnUse">
<stop stop-color="#FFE000"/>
<stop offset="0.409" stop-color="#FFBD00"/>
<stop offset="0.775" stop-color="#FFA500"/>
<stop offset="1" stop-color="#FF9C00"/>
</linearGradient>
<linearGradient id="paint2_linear" x1="44.5539" y1="17.7873" x2="26.6001" y2="-12.3802" gradientUnits="userSpaceOnUse">
<stop stop-color="#FF3A44"/>
<stop offset="1" stop-color="#C31162"/>
</linearGradient>
<linearGradient id="paint3_linear" x1="15.6636" y1="56.9437" x2="23.6179" y2="43.4534" gradientUnits="userSpaceOnUse">
<stop stop-color="#32A071"/>
<stop offset="0.069" stop-color="#2DA771"/>
<stop offset="0.476" stop-color="#15CF74"/>
<stop offset="0.801" stop-color="#06E775"/>
<stop offset="1" stop-color="#00F076"/>
</linearGradient>
</defs>
</svg>
