<svg width="412" height="114" viewBox="0 0 412 114" fill="none" xmlns="http://www.w3.org/2000/svg">
<path d="M8.052 2.4H9.384V15H8.052V2.4ZM26.0136 2.4V15H24.9156L16.8156 4.776V15H15.4836V2.4H16.5816L24.6996 12.624V2.4H26.0136ZM34.5742 3.552H30.1462V2.4H40.3342V3.552H35.9062V15H34.5742V3.552ZM53.0662 15L50.1862 10.95C49.8622 10.986 49.5262 11.004 49.1782 11.004H45.7942V15H44.4622V2.4H49.1782C50.7862 2.4 52.0462 2.784 52.9582 3.552C53.8702 4.32 54.3262 5.376 54.3262 6.72C54.3262 7.704 54.0742 8.538 53.5702 9.222C53.0782 9.894 52.3702 10.38 51.4462 10.68L54.5242 15H53.0662ZM49.1422 9.87C50.3902 9.87 51.3442 9.594 52.0042 9.042C52.6642 8.49 52.9942 7.716 52.9942 6.72C52.9942 5.7 52.6642 4.92 52.0042 4.38C51.3442 3.828 50.3902 3.552 49.1422 3.552H45.7942V9.87H49.1422ZM64.978 15.108C63.73 15.108 62.596 14.832 61.576 14.28C60.568 13.716 59.776 12.948 59.2 11.976C58.636 11.004 58.354 9.912 58.354 8.7C58.354 7.488 58.636 6.396 59.2 5.424C59.776 4.452 60.568 3.69 61.576 3.138C62.596 2.574 63.73 2.292 64.978 2.292C66.226 2.292 67.348 2.568 68.344 3.12C69.352 3.672 70.144 4.44 70.72 5.424C71.296 6.396 71.584 7.488 71.584 8.7C71.584 9.912 71.296 11.01 70.72 11.994C70.144 12.966 69.352 13.728 68.344 14.28C67.348 14.832 66.226 15.108 64.978 15.108ZM64.978 13.92C65.974 13.92 66.874 13.698 67.678 13.254C68.482 12.798 69.112 12.174 69.568 11.382C70.024 10.578 70.252 9.684 70.252 8.7C70.252 7.716 70.024 6.828 69.568 6.036C69.112 5.232 68.482 4.608 67.678 4.164C66.874 3.708 65.974 3.48 64.978 3.48C63.982 3.48 63.076 3.708 62.26 4.164C61.456 4.608 60.82 5.232 60.352 6.036C59.896 6.828 59.668 7.716 59.668 8.7C59.668 9.684 59.896 10.578 60.352 11.382C60.82 12.174 61.456 12.798 62.26 13.254C63.076 13.698 63.982 13.92 64.978 13.92ZM76.5696 2.4H81.6996C83.0316 2.4 84.2076 2.67 85.2276 3.21C86.2476 3.738 87.0396 4.482 87.6036 5.442C88.1676 6.39 88.4496 7.476 88.4496 8.7C88.4496 9.924 88.1676 11.016 87.6036 11.976C87.0396 12.924 86.2476 13.668 85.2276 14.208C84.2076 14.736 83.0316 15 81.6996 15H76.5696V2.4ZM81.6276 13.848C82.7316 13.848 83.6976 13.632 84.5256 13.2C85.3536 12.756 85.9956 12.15 86.4516 11.382C86.9076 10.602 87.1356 9.708 87.1356 8.7C87.1356 7.692 86.9076 6.804 86.4516 6.036C85.9956 5.256 85.3536 4.65 84.5256 4.218C83.6976 3.774 82.7316 3.552 81.6276 3.552H77.9016V13.848H81.6276ZM98.5167 15.108C96.8847 15.108 95.6127 14.64 94.7007 13.704C93.7887 12.768 93.3327 11.406 93.3327 9.618V2.4H94.6647V9.564C94.6647 11.028 94.9947 12.12 95.6547 12.84C96.3147 13.56 97.2687 13.92 98.5167 13.92C99.7767 13.92 100.737 13.56 101.397 12.84C102.057 12.12 102.387 11.028 102.387 9.564V2.4H103.683V9.618C103.683 11.406 103.227 12.768 102.315 13.704C101.415 14.64 100.149 15.108 98.5167 15.108ZM115.169 15.108C113.921 15.108 112.793 14.832 111.785 14.28C110.789 13.728 110.003 12.966 109.427 11.994C108.863 11.01 108.581 9.912 108.581 8.7C108.581 7.488 108.863 6.396 109.427 5.424C110.003 4.44 110.795 3.672 111.803 3.12C112.811 2.568 113.939 2.292 115.187 2.292C116.123 2.292 116.987 2.448 117.779 2.76C118.571 3.072 119.243 3.528 119.795 4.128L118.949 4.974C117.965 3.978 116.723 3.48 115.223 3.48C114.227 3.48 113.321 3.708 112.505 4.164C111.689 4.62 111.047 5.244 110.579 6.036C110.123 6.828 109.895 7.716 109.895 8.7C109.895 9.684 110.123 10.572 110.579 11.364C111.047 12.156 111.689 12.78 112.505 13.236C113.321 13.692 114.227 13.92 115.223 13.92C116.735 13.92 117.977 13.416 118.949 12.408L119.795 13.254C119.243 13.854 118.565 14.316 117.761 14.64C116.969 14.952 116.105 15.108 115.169 15.108ZM124.634 2.4H125.966V15H124.634V2.4ZM142.596 2.4V15H141.498L133.398 4.776V15H132.066V2.4H133.164L141.282 12.624V2.4H142.596ZM157.582 8.7H158.86V13.506C158.272 14.022 157.576 14.418 156.772 14.694C155.968 14.97 155.122 15.108 154.234 15.108C152.974 15.108 151.84 14.832 150.832 14.28C149.824 13.728 149.032 12.966 148.456 11.994C147.88 11.01 147.592 9.912 147.592 8.7C147.592 7.488 147.88 6.396 148.456 5.424C149.032 4.44 149.824 3.672 150.832 3.12C151.84 2.568 152.98 2.292 154.252 2.292C155.212 2.292 156.094 2.448 156.898 2.76C157.702 3.06 158.38 3.51 158.932 4.11L158.104 4.956C157.108 3.972 155.842 3.48 154.306 3.48C153.286 3.48 152.362 3.708 151.534 4.164C150.718 4.608 150.076 5.232 149.608 6.036C149.14 6.828 148.906 7.716 148.906 8.7C148.906 9.684 149.14 10.572 149.608 11.364C150.076 12.156 150.718 12.78 151.534 13.236C152.35 13.692 153.268 13.92 154.288 13.92C155.584 13.92 156.682 13.596 157.582 12.948V8.7Z" fill="white"/>
<path d="M19.0046 88.2261L18.8628 48.5739L34.6762 72.2236L63.2538 28.3938H62.6865L51.1278 28.4646H49.8514L35.0308 52.5391L19.9264 28.6062L6.45312 28.677L6.73677 88.2261H19.0046Z" fill="url(#paint0_linear)"/>
<path fill-rule="evenodd" clip-rule="evenodd" d="M49.9221 61.4867V88.5093H66.7709V72.96H77.1524C82.5417 72.96 87.2219 72.082 91.193 70.326C95.1641 68.5133 98.2275 65.9642 100.383 62.6788C102.539 59.3933 103.617 55.5131 103.617 51.038C103.617 46.563 102.539 42.6827 100.383 39.3973C98.2275 36.0552 95.1641 33.5061 91.193 31.7501C87.2219 29.9374 82.5417 29.0311 77.1524 29.0311H70.9539L49.9221 61.4867ZM83.96 57.4957C82.2014 58.9685 79.5918 59.7049 76.1313 59.7049H66.7709V42.2862H76.1313C79.5918 42.2862 82.2014 43.0509 83.96 44.5804C85.7186 46.1098 86.5979 48.2624 86.5979 51.038C86.5979 53.8137 85.7186 55.9662 83.96 57.4957ZM259.504 88.5093L278.821 29.0311H262.738L250.229 67.3521L238.23 29.0311H222.743L210.149 67.0122L198.151 29.0311H180.792L200.108 88.5093H218.148L230.061 52.3126L241.464 88.5093H259.504ZM334.099 75.5091V88.5093H286.276V29.0311H332.993V42.0313H302.954V52.0577H329.419V64.6331H302.954V75.5091H334.099ZM361.716 72.7051H370.906L381.713 88.5093H399.753L386.904 69.8162C390.648 68.0035 393.513 65.5111 395.498 62.3389C397.541 59.1101 398.562 55.3431 398.562 51.038C398.562 46.563 397.484 42.6827 395.328 39.3973C393.172 36.0552 390.109 33.5061 386.138 31.7501C382.167 29.9374 377.487 29.0311 372.097 29.0311H344.867V88.5093H361.716V72.7051ZM378.905 44.5804C380.664 46.1098 381.543 48.2624 381.543 51.038C381.543 53.8137 380.664 55.9662 378.905 57.4957C377.146 58.9685 374.537 59.7049 371.076 59.7049H361.716V42.2862H371.076C374.537 42.2862 377.146 43.0509 378.905 44.5804Z" fill="white"/>
<path opacity="0.2" d="M178.699 62.6646C178.699 81.6309 163.301 97.0062 144.306 97.0062C125.312 97.0062 109.914 81.6309 109.914 62.6646C109.914 43.6982 125.312 28.323 144.306 28.323C163.301 28.323 178.699 43.6982 178.699 62.6646ZM115.824 62.6646C115.824 78.3716 128.576 91.1047 144.306 91.1047C160.037 91.1047 172.788 78.3716 172.788 62.6646C172.788 46.9575 160.037 34.2244 144.306 34.2244C128.576 34.2244 115.824 46.9575 115.824 62.6646Z" fill="white"/>
<path d="M144.306 26.9068C150.571 26.9068 156.727 28.548 162.158 31.6665C167.589 34.785 172.106 39.2717 175.257 44.6785C178.408 50.0853 180.084 56.223 180.116 62.4787C180.149 68.7344 178.537 74.8891 175.443 80.3284C172.348 85.7676 167.878 90.3009 162.48 93.4756C157.081 96.6503 150.943 98.3554 144.679 98.4204C138.414 98.4855 132.242 96.9083 126.779 93.8463C121.315 90.7844 116.752 86.3449 113.545 80.9711L120.583 76.7827C123.056 80.927 126.575 84.3507 130.789 86.7121C135.002 89.0735 139.762 90.2898 144.593 90.2397C149.425 90.1895 154.158 88.8746 158.322 86.4262C162.485 83.9779 165.932 80.4817 168.319 76.287C170.706 72.0922 171.948 67.3456 171.923 62.5212C171.898 57.6968 170.606 52.9634 168.176 48.7936C165.745 44.6239 162.262 41.1637 158.073 38.7587C153.885 36.3537 149.138 35.088 144.306 35.088L144.306 26.9068Z" fill="#FF6D55"/>
<path opacity="0.2" d="M167.988 62.3431C167.988 75.5806 157.241 86.3118 143.984 86.3118C130.727 86.3118 119.98 75.5806 119.98 62.3431C119.98 49.1055 130.727 38.3743 143.984 38.3743C157.241 38.3743 167.988 49.1055 167.988 62.3431ZM125.041 62.3431C125.041 72.7895 133.522 81.2581 143.984 81.2581C154.446 81.2581 162.927 72.7895 162.927 62.3431C162.927 51.8966 154.446 43.428 143.984 43.428C133.522 43.428 125.041 51.8966 125.041 62.3431Z" fill="white"/>
<path d="M144.306 37.528C149.966 37.528 155.451 39.4876 159.827 43.073C164.202 46.6584 167.197 51.6477 168.301 57.1908C169.405 62.7338 168.55 68.4877 165.882 73.4721C163.214 78.4564 158.898 82.3628 153.669 84.5256C148.439 86.6884 142.621 86.9738 137.205 85.3332C131.788 83.6926 127.109 80.2275 123.965 75.5283C120.82 70.8291 119.405 65.1866 119.959 59.5621C120.514 53.9376 123.005 48.6793 127.007 44.6829L131.228 48.8975C128.202 51.9188 126.319 55.8942 125.9 60.1463C125.48 64.3985 126.55 68.6643 128.928 72.2169C131.305 75.7696 134.842 78.3892 138.937 79.6295C143.032 80.8698 147.431 80.6541 151.384 79.019C155.338 77.3839 158.601 74.4306 160.618 70.6624C162.635 66.8942 163.281 62.5442 162.446 58.3536C161.612 54.1629 159.347 50.391 156.04 47.6804C152.732 44.9698 148.585 43.4883 144.306 43.4883L144.306 37.528Z" fill="#7E75E9"/>
<path opacity="0.2" d="M157.922 61.9565C157.922 69.8563 151.509 76.2604 143.597 76.2604C135.686 76.2604 129.272 69.8563 129.272 61.9565C129.272 54.0567 135.686 47.6526 143.597 47.6526C151.509 47.6526 157.922 54.0567 157.922 61.9565ZM133.46 61.9565C133.46 67.547 137.999 72.0789 143.597 72.0789C149.196 72.0789 153.735 67.547 153.735 61.9565C153.735 56.3661 149.196 51.8341 143.597 51.8341C137.999 51.8341 133.46 56.3661 133.46 61.9565Z" fill="white"/>
<path d="M143.952 46.7329C147.039 46.7329 150.05 47.6911 152.569 49.475C155.087 51.2588 156.987 53.7801 158.007 56.6898C159.027 59.5996 159.116 62.754 158.262 65.7166C157.408 68.6791 155.653 71.3033 153.239 73.2259C150.826 75.1486 147.873 76.2747 144.791 76.4484C141.708 76.6221 138.648 75.8348 136.033 74.1955C133.418 72.5561 131.379 70.1458 130.196 67.2981C129.013 64.4503 128.747 61.3059 129.432 58.3L134.385 59.4266C133.933 61.4071 134.109 63.4788 134.888 65.3552C135.668 67.2315 137.012 68.8196 138.734 69.8997C140.457 70.9799 142.474 71.4986 144.505 71.3841C146.536 71.2697 148.481 70.5277 150.071 69.2609C151.661 67.9941 152.818 66.2651 153.381 64.3132C153.943 62.3612 153.885 60.2828 153.213 58.3656C152.541 56.4485 151.288 54.7873 149.629 53.6119C147.97 52.4366 145.986 51.8052 143.952 51.8052L143.952 46.7329Z" fill="#6FCF97"/>
<defs>
<linearGradient id="paint0_linear" x1="18.088" y1="31.774" x2="40.3581" y2="66.8217" gradientUnits="userSpaceOnUse">
<stop stop-color="#27AAE1"/>
<stop offset="1" stop-color="#2B3990"/>
</linearGradient>
</defs>
</svg>
