<svg width="239" height="74" viewBox="0 0 239 74" fill="none" xmlns="http://www.w3.org/2000/svg">
<path d="M7.052 2.4H8.384V15H7.052V2.4ZM25.0136 2.4V15H23.9156L15.8156 4.776V15H14.4836V2.4H15.5816L23.6996 12.624V2.4H25.0136ZM33.5742 3.552H29.1462V2.4H39.3342V3.552H34.9062V15H33.5742V3.552ZM52.0662 15L49.1862 10.95C48.8622 10.986 48.5262 11.004 48.1782 11.004H44.7942V15H43.4622V2.4H48.1782C49.7862 2.4 51.0462 2.784 51.9582 3.552C52.8702 4.32 53.3262 5.376 53.3262 6.72C53.3262 7.704 53.0742 8.538 52.5702 9.222C52.0782 9.894 51.3702 10.38 50.4462 10.68L53.5242 15H52.0662ZM48.1422 9.87C49.3902 9.87 50.3442 9.594 51.0042 9.042C51.6642 8.49 51.9942 7.716 51.9942 6.72C51.9942 5.7 51.6642 4.92 51.0042 4.38C50.3442 3.828 49.3902 3.552 48.1422 3.552H44.7942V9.87H48.1422ZM63.978 15.108C62.73 15.108 61.596 14.832 60.576 14.28C59.568 13.716 58.776 12.948 58.2 11.976C57.636 11.004 57.354 9.912 57.354 8.7C57.354 7.488 57.636 6.396 58.2 5.424C58.776 4.452 59.568 3.69 60.576 3.138C61.596 2.574 62.73 2.292 63.978 2.292C65.226 2.292 66.348 2.568 67.344 3.12C68.352 3.672 69.144 4.44 69.72 5.424C70.296 6.396 70.584 7.488 70.584 8.7C70.584 9.912 70.296 11.01 69.72 11.994C69.144 12.966 68.352 13.728 67.344 14.28C66.348 14.832 65.226 15.108 63.978 15.108ZM63.978 13.92C64.974 13.92 65.874 13.698 66.678 13.254C67.482 12.798 68.112 12.174 68.568 11.382C69.024 10.578 69.252 9.684 69.252 8.7C69.252 7.716 69.024 6.828 68.568 6.036C68.112 5.232 67.482 4.608 66.678 4.164C65.874 3.708 64.974 3.48 63.978 3.48C62.982 3.48 62.076 3.708 61.26 4.164C60.456 4.608 59.82 5.232 59.352 6.036C58.896 6.828 58.668 7.716 58.668 8.7C58.668 9.684 58.896 10.578 59.352 11.382C59.82 12.174 60.456 12.798 61.26 13.254C62.076 13.698 62.982 13.92 63.978 13.92ZM75.5696 2.4H80.6996C82.0316 2.4 83.2076 2.67 84.2276 3.21C85.2476 3.738 86.0396 4.482 86.6036 5.442C87.1676 6.39 87.4496 7.476 87.4496 8.7C87.4496 9.924 87.1676 11.016 86.6036 11.976C86.0396 12.924 85.2476 13.668 84.2276 14.208C83.2076 14.736 82.0316 15 80.6996 15H75.5696V2.4ZM80.6276 13.848C81.7316 13.848 82.6976 13.632 83.5256 13.2C84.3536 12.756 84.9956 12.15 85.4516 11.382C85.9076 10.602 86.1356 9.708 86.1356 8.7C86.1356 7.692 85.9076 6.804 85.4516 6.036C84.9956 5.256 84.3536 4.65 83.5256 4.218C82.6976 3.774 81.7316 3.552 80.6276 3.552H76.9016V13.848H80.6276ZM97.5167 15.108C95.8847 15.108 94.6127 14.64 93.7007 13.704C92.7887 12.768 92.3327 11.406 92.3327 9.618V2.4H93.6647V9.564C93.6647 11.028 93.9947 12.12 94.6547 12.84C95.3147 13.56 96.2687 13.92 97.5167 13.92C98.7767 13.92 99.7367 13.56 100.397 12.84C101.057 12.12 101.387 11.028 101.387 9.564V2.4H102.683V9.618C102.683 11.406 102.227 12.768 101.315 13.704C100.415 14.64 99.1487 15.108 97.5167 15.108ZM114.169 15.108C112.921 15.108 111.793 14.832 110.785 14.28C109.789 13.728 109.003 12.966 108.427 11.994C107.863 11.01 107.581 9.912 107.581 8.7C107.581 7.488 107.863 6.396 108.427 5.424C109.003 4.44 109.795 3.672 110.803 3.12C111.811 2.568 112.939 2.292 114.187 2.292C115.123 2.292 115.987 2.448 116.779 2.76C117.571 3.072 118.243 3.528 118.795 4.128L117.949 4.974C116.965 3.978 115.723 3.48 114.223 3.48C113.227 3.48 112.321 3.708 111.505 4.164C110.689 4.62 110.047 5.244 109.579 6.036C109.123 6.828 108.895 7.716 108.895 8.7C108.895 9.684 109.123 10.572 109.579 11.364C110.047 12.156 110.689 12.78 111.505 13.236C112.321 13.692 113.227 13.92 114.223 13.92C115.735 13.92 116.977 13.416 117.949 12.408L118.795 13.254C118.243 13.854 117.565 14.316 116.761 14.64C115.969 14.952 115.105 15.108 114.169 15.108ZM123.634 2.4H124.966V15H123.634V2.4ZM141.596 2.4V15H140.498L132.398 4.776V15H131.066V2.4H132.164L140.282 12.624V2.4H141.596ZM156.582 8.7H157.86V13.506C157.272 14.022 156.576 14.418 155.772 14.694C154.968 14.97 154.122 15.108 153.234 15.108C151.974 15.108 150.84 14.832 149.832 14.28C148.824 13.728 148.032 12.966 147.456 11.994C146.88 11.01 146.592 9.912 146.592 8.7C146.592 7.488 146.88 6.396 147.456 5.424C148.032 4.44 148.824 3.672 149.832 3.12C150.84 2.568 151.98 2.292 153.252 2.292C154.212 2.292 155.094 2.448 155.898 2.76C156.702 3.06 157.38 3.51 157.932 4.11L157.104 4.956C156.108 3.972 154.842 3.48 153.306 3.48C152.286 3.48 151.362 3.708 150.534 4.164C149.718 4.608 149.076 5.232 148.608 6.036C148.14 6.828 147.906 7.716 147.906 8.7C147.906 9.684 148.14 10.572 148.608 11.364C149.076 12.156 149.718 12.78 150.534 13.236C151.35 13.692 152.268 13.92 153.288 13.92C154.584 13.92 155.682 13.596 156.582 12.948V8.7Z" fill="white"/>
<path d="M11.0025 59.0783L10.9204 36.1217L20.0755 49.8137L36.6204 24.4385H36.292L29.6001 24.4795H28.8612L20.2808 38.4174L11.5362 24.5615L3.73584 24.6025L3.90006 59.0783H11.0025Z" fill="url(#paint0_linear)"/>
<path fill-rule="evenodd" clip-rule="evenodd" d="M28.9023 43.5976V59.2422H38.6569V50.2399H44.6672C47.7874 50.2399 50.497 49.7316 52.796 48.715C55.0951 47.6655 56.8686 46.1897 58.1167 44.2876C59.3647 42.3855 59.9888 40.139 59.9888 37.5482C59.9888 34.9574 59.3647 32.711 58.1167 30.8089C56.8686 28.874 55.0951 27.3982 52.796 26.3815C50.497 25.3321 47.7874 24.8074 44.6672 24.8074H41.0787L28.9023 43.5976ZM48.6085 41.2869C47.5903 42.1395 46.0795 42.5659 44.0761 42.5659H38.6569V32.4814H44.0761C46.0795 32.4814 47.5903 32.9241 48.6085 33.8096C49.6266 34.6951 50.1357 35.9413 50.1357 37.5482C50.1357 39.1552 49.6266 40.4014 48.6085 41.2869ZM150.239 59.2422L161.422 24.8074H152.111L144.869 46.9932L137.923 24.8074H128.957L121.665 46.7964L114.719 24.8074H104.669L115.852 59.2422H126.296L133.193 38.2861L139.795 59.2422H150.239ZM193.426 51.7157V59.2422H165.739V24.8074H192.785V32.3338H175.395V38.1386H190.716V45.4191H175.395V51.7157H193.426ZM209.414 50.0923H214.735L220.992 59.2422H231.436L223.997 48.4198C226.165 47.3704 227.823 45.9274 228.973 44.0909C230.155 42.2215 230.746 40.0407 230.746 37.5482C230.746 34.9574 230.122 32.711 228.874 30.8089C227.626 28.874 225.853 27.3982 223.554 26.3815C221.255 25.3321 218.545 24.8074 215.425 24.8074H199.66V59.2422H209.414V50.0923ZM219.366 33.8096C220.384 34.6951 220.893 35.9413 220.893 37.5482C220.893 39.1552 220.384 40.4014 219.366 41.2869C218.348 42.1395 216.837 42.5659 214.834 42.5659H209.414V32.4814H214.834C216.837 32.4814 218.348 32.9241 219.366 33.8096Z" fill="white"/>
<path opacity="0.2" d="M103.457 44.2795C103.457 55.2601 94.5424 64.1615 83.5457 64.1615C72.5489 64.1615 63.6343 55.2601 63.6343 44.2795C63.6343 33.299 72.5489 24.3976 83.5457 24.3976C94.5424 24.3976 103.457 33.299 103.457 44.2795ZM67.056 44.2795C67.056 53.3731 74.4387 60.7449 83.5457 60.7449C92.6527 60.7449 100.035 53.3731 100.035 44.2795C100.035 35.186 92.6527 27.8142 83.5457 27.8142C74.4387 27.8142 67.056 35.186 67.056 44.2795Z" fill="white"/>
<path d="M83.5457 23.5777C87.1729 23.5777 90.7365 24.5279 93.8808 26.3333C97.0252 28.1388 99.6401 30.7363 101.465 33.8665C103.289 36.9968 104.259 40.5502 104.278 44.1719C104.297 47.7936 103.364 51.3569 101.572 54.5059C99.7803 57.655 97.1925 60.2795 94.0672 62.1175C90.9418 63.9555 87.3883 64.9426 83.7613 64.9803C80.1344 65.018 76.561 64.1049 73.3981 62.3322C70.2351 60.5595 67.5933 57.9892 65.7363 54.8781L69.811 52.4532C71.2431 54.8525 73.2805 56.8347 75.7198 58.2018C78.1591 59.5689 80.9149 60.2731 83.712 60.2441C86.5091 60.215 89.2496 59.4538 91.6599 58.0363C94.0702 56.6188 96.0659 54.5947 97.4477 52.1662C98.8295 49.7377 99.5491 46.9896 99.5345 44.1965C99.52 41.4035 98.7718 38.6631 97.3648 36.249C95.9578 33.8349 93.9411 31.8317 91.5162 30.4393C89.0913 29.0469 86.343 28.3142 83.5457 28.3142V23.5777Z" fill="#FF6D55"/>
<path opacity="0.2" d="M97.2565 44.0935C97.2565 51.7574 91.0345 57.9702 83.3593 57.9702C75.6841 57.9702 69.4622 51.7574 69.4622 44.0935C69.4622 36.4297 75.6841 30.2169 83.3593 30.2169C91.0345 30.2169 97.2565 36.4297 97.2565 44.0935ZM72.3923 44.0935C72.3923 50.1415 77.3024 55.0443 83.3593 55.0443C89.4162 55.0443 94.3263 50.1415 94.3263 44.0935C94.3263 38.0456 89.4162 33.1427 83.3593 33.1427C77.3024 33.1427 72.3923 38.0456 72.3923 44.0935Z" fill="white"/>
<path d="M83.5459 29.7268C86.8227 29.7268 89.9982 30.8614 92.5313 32.9371C95.0643 35.0129 96.7982 37.9014 97.4375 41.1106C98.0768 44.3197 97.5819 47.6509 96.0372 50.5366C94.4925 53.4223 91.9935 55.6838 88.9661 56.936C85.9387 58.1881 82.5701 58.3534 79.4343 57.4036C76.2986 56.4537 73.5896 54.4476 71.7691 51.727C69.9486 49.0064 69.1291 45.7397 69.4503 42.4834C69.7715 39.2272 71.2135 36.1828 73.5306 33.8692L75.9742 36.3092C74.2224 38.0584 73.1323 40.3599 72.8895 42.8217C72.6466 45.2834 73.2662 47.7531 74.6425 49.8099C76.0189 51.8667 78.0668 53.3834 80.4375 54.1014C82.8082 54.8195 85.3548 54.6946 87.6436 53.7479C89.9324 52.8013 91.8216 51.0915 92.9894 48.9099C94.1572 46.7283 94.5314 44.2099 94.0481 41.7838C93.5648 39.3576 92.2539 37.1738 90.3389 35.6046C88.4239 34.0353 86.0232 33.1776 83.5459 33.1776V29.7268Z" fill="#7E75E9"/>
<path opacity="0.2" d="M91.4287 43.8693C91.4287 48.4429 87.7156 52.1505 83.1353 52.1505C78.5549 52.1505 74.8418 48.4429 74.8418 43.8693C74.8418 39.2957 78.5549 35.5881 83.1353 35.5881C87.7156 35.5881 91.4287 39.2957 91.4287 43.8693ZM77.2663 43.8693C77.2663 47.1059 79.8939 49.7296 83.1353 49.7296C86.3766 49.7296 89.0043 47.1059 89.0043 43.8693C89.0043 40.6327 86.3766 38.009 83.1353 38.009C79.8939 38.009 77.2663 40.6327 77.2663 43.8693Z" fill="white"/>
<path d="M83.3404 35.0559C85.1279 35.0559 86.8712 35.6106 88.329 36.6434C89.7869 37.6761 90.8872 39.1358 91.4778 40.8204C92.0683 42.505 92.1199 44.3313 91.6253 46.0464C91.1308 47.7616 90.1145 49.2808 88.7173 50.394C87.32 51.5071 85.6108 52.159 83.8262 52.2596C82.0416 52.3602 80.2697 51.9044 78.7559 50.9553C77.2421 50.0062 76.0612 48.6107 75.3765 46.962C74.6919 45.3133 74.5373 43.4929 74.9343 41.7526L77.8018 42.4048C77.5403 43.5514 77.6421 44.7509 78.0932 45.8372C78.5443 46.9235 79.3224 47.8429 80.3198 48.4683C81.3172 49.0936 82.4846 49.3939 83.6605 49.3276C84.8363 49.2614 85.9625 48.8318 86.8831 48.0984C87.8037 47.365 88.4733 46.364 88.7992 45.2339C89.125 44.1038 89.091 42.9006 88.7019 41.7906C88.3128 40.6807 87.5879 39.7189 86.6273 39.0385C85.6668 38.358 84.5182 37.9925 83.3404 37.9925V35.0559Z" fill="#6FCF97"/>
<defs>
<linearGradient id="paint0_linear" x1="10.4718" y1="26.3955" x2="23.365" y2="46.6862" gradientUnits="userSpaceOnUse">
<stop stop-color="#27AAE1"/>
<stop offset="1" stop-color="#2B3990"/>
</linearGradient>
</defs>
</svg>
