<svg width="38" height="42" viewBox="0 0 38 42" fill="none" xmlns="http://www.w3.org/2000/svg">
<g clip-path="url(#clip0)">
<path d="M7.0115 32.5043L6.95917 17.8956L12.7933 26.6086L23.3365 10.4608H23.1272L18.8628 10.4869H18.3919L12.9241 19.3564L7.3516 10.539L2.38086 10.5651L2.48551 32.5043H7.0115Z" fill="white"/>
<path fill-rule="evenodd" clip-rule="evenodd" d="M18.418 22.6529V32.6087H24.634V26.88H28.4641C30.4524 26.88 32.1791 26.5565 33.6441 25.9096C35.1092 25.2417 36.2394 24.3026 37.0347 23.0922C37.83 21.8817 38.2277 20.4522 38.2277 18.8035C38.2277 17.1548 37.83 15.7252 37.0347 14.5148C36.2394 13.2835 35.1092 12.3444 33.6441 11.6974C32.1791 11.0296 30.4524 10.6957 28.4641 10.6957H26.1772L18.418 22.6529ZM30.9756 21.1826C30.3268 21.7252 29.3641 21.9965 28.0874 21.9965H24.634V15.5791H28.0874C29.3641 15.5791 30.3268 15.8609 30.9756 16.4244C31.6244 16.9878 31.9489 17.7809 31.9489 18.8035C31.9489 19.8261 31.6244 20.6191 30.9756 21.1826Z" fill="white"/>
</g>
<defs>
<clipPath id="clip0">
<rect width="38" height="42" fill="white"/>
</clipPath>
</defs>
</svg>
