<svg width="62" height="62" viewBox="0 0 62 62" fill="none" xmlns="http://www.w3.org/2000/svg">
<rect width="62" height="62" rx="31" fill="#27AAE1"/>
<path d="M43.5998 29.0815V42.7963C43.5998 42.9682 43.5371 43.133 43.4255 43.2546C43.3139 43.3761 43.1626 43.4444 43.0048 43.4444H42.1123C41.9545 43.4444 41.8032 43.3761 41.6916 43.2546C41.58 43.133 41.5173 42.9682 41.5173 42.7963V31.2592L33.0207 37.9222C32.7262 38.1415 32.3778 38.259 32.0211 38.2592H31.3785C31.0218 38.259 30.6734 38.1415 30.3789 37.9222L20.0616 29.8203C19.981 29.7623 19.9148 29.6834 19.8691 29.5906C19.8234 29.4978 19.7996 29.3941 19.7998 29.2889V29.0815C19.7996 28.9762 19.8234 28.8725 19.8691 28.7797C19.9148 28.6869 19.981 28.608 20.0616 28.55L30.3789 20.4481C30.6734 20.2288 31.0218 20.1113 31.3785 20.1111H32.0211C32.3778 20.1113 32.7262 20.2288 33.0207 20.4481L43.338 28.55C43.4187 28.608 43.4848 28.6869 43.5305 28.7797C43.5762 28.8725 43.6 28.9762 43.5998 29.0815V29.0815ZM32.0211 40.5277H31.3785C30.5831 40.5219 29.8077 40.2554 29.1532 39.7629L24.5598 36.1463V38.2592C24.5598 41.124 27.7609 43.4444 31.6998 43.4444C35.6387 43.4444 38.8398 41.124 38.8398 38.2592V36.1463L34.1988 39.7889C33.5576 40.268 32.7987 40.5255 32.0211 40.5277V40.5277Z" fill="white"/>
</svg>
