<svg width="62" height="62" viewBox="0 0 62 62" fill="none" xmlns="http://www.w3.org/2000/svg">
<rect width="62" height="62" rx="31" fill="#27AAE1"/>
<path d="M20.6519 32.0557V38.6253C20.6519 39.8332 21.6347 40.8151 22.8417 40.8151H38.6087C39.8167 40.8151 40.7986 39.8332 40.7986 38.6253V32.0557H20.6519V32.0557Z" fill="white"/>
<path d="M30.1699 21.8027L26.8921 22.5806L29.6382 26.6213L33.1884 25.8137L30.1699 21.8027Z" fill="white"/>
<path d="M25.981 22.7969L22.4482 23.6343L25.1654 27.6374L28.7209 26.8288L25.981 22.7969Z" fill="white"/>
<path d="M40.7846 23.6221L40.0392 20.7946C39.8675 20.1069 39.1632 19.6743 38.4686 19.8328L35.5254 20.5318L38.3179 24.6488L40.4579 24.1617C40.5743 24.1355 40.6742 24.0627 40.7355 23.9612C40.7969 23.8596 40.8144 23.7378 40.7846 23.6221Z" fill="white"/>
<path d="M34.6135 20.748L31.1001 21.5819L34.1238 25.6017L37.4008 24.8562L34.6135 20.748Z" fill="white"/>
<path d="M25.0656 27.6768L23.6641 31.1797H27.1004L28.5019 27.6768H25.0656Z" fill="white"/>
<path d="M29.4454 27.6768L28.0439 31.1797H31.4802L32.8818 27.6768H29.4454Z" fill="white"/>
<path d="M40.3619 27.6768H38.2056L36.8037 31.1816H40.8V28.1148C40.8 27.8721 40.6046 27.6768 40.3619 27.6768Z" fill="white"/>
<path d="M33.8254 27.6768L32.4238 31.1797H35.8593L37.2617 27.6768H33.8254Z" fill="white"/>
<path d="M21.5374 23.8516L20.8235 24.0206C20.4758 24.0994 20.1815 24.3105 19.9949 24.6136C19.8083 24.9176 19.7531 25.275 19.8399 25.621L20.6519 28.8304V31.1797H22.7208L24.0356 27.894L24.2493 27.8459L21.5374 23.8516Z" fill="white"/>
</svg>
