<svg width="62" height="62" viewBox="0 0 62 62" fill="none" xmlns="http://www.w3.org/2000/svg">
<rect width="62" height="62" rx="31" fill="#27AAE1"/>
<path d="M40.3333 25.1667H36.8333V22.8333C36.8333 22.2145 36.5874 21.621 36.1498 21.1834C35.7123 20.7458 35.1188 20.5 34.4999 20.5H27.4999C26.8811 20.5 26.2876 20.7458 25.85 21.1834C25.4124 21.621 25.1666 22.2145 25.1666 22.8333V25.1667H21.6666C21.0477 25.1667 20.4543 25.4125 20.0167 25.8501C19.5791 26.2877 19.3333 26.8812 19.3333 27.5V39.1667C19.3333 39.7855 19.5791 40.379 20.0167 40.8166C20.4543 41.2542 21.0477 41.5 21.6666 41.5H40.3333C40.9521 41.5 41.5456 41.2542 41.9832 40.8166C42.4208 40.379 42.6666 39.7855 42.6666 39.1667V27.5C42.6666 26.8812 42.4208 26.2877 41.9832 25.8501C41.5456 25.4125 40.9521 25.1667 40.3333 25.1667V25.1667ZM33.3333 33.3333C33.3333 33.6428 33.2103 33.9395 32.9915 34.1583C32.7728 34.3771 32.476 34.5 32.1666 34.5H29.8333C29.5238 34.5 29.2271 34.3771 29.0083 34.1583C28.7895 33.9395 28.6666 33.6428 28.6666 33.3333V32.75C28.6666 32.5953 28.728 32.4469 28.8374 32.3375C28.9468 32.2281 29.0952 32.1667 29.2499 32.1667H32.7499C32.9046 32.1667 33.053 32.2281 33.1624 32.3375C33.2718 32.4469 33.3333 32.5953 33.3333 32.75V33.3333ZM34.4999 25.1667H27.4999V22.8333H34.4999V25.1667Z" fill="white"/>
</svg>
