<svg width="62" height="62" viewBox="0 0 62 62" fill="none" xmlns="http://www.w3.org/2000/svg">
<rect width="62" height="62" rx="31" fill="#27AAE1"/>
<path fill-rule="evenodd" clip-rule="evenodd" d="M37.1599 38.2801C37.1599 38.5771 37.2779 38.862 37.4879 39.0721C37.6979 39.2821 37.9828 39.4001 38.2799 39.4001C38.5769 39.4001 38.8618 39.2821 39.0718 39.0721C39.2819 38.862 39.3999 38.5771 39.3999 38.2801V31.0001C39.3999 30.7031 39.5179 30.4182 39.7279 30.2081C39.9379 29.9981 40.2228 29.8801 40.5199 29.8801C40.8169 29.8801 41.1018 29.9981 41.3118 30.2081C41.5219 30.4182 41.6399 30.7031 41.6399 31.0001V38.2801C41.6399 39.1712 41.2859 40.0259 40.6557 40.656C40.0256 41.2861 39.171 41.6401 38.2799 41.6401H23.7199C22.8287 41.6401 21.9741 41.2861 21.344 40.656C20.7139 40.0259 20.3599 39.1712 20.3599 38.2801V22.6001C20.3599 22.006 20.5959 21.4363 21.0159 21.0162C21.436 20.5961 22.0058 20.3601 22.5999 20.3601H34.9199C35.5139 20.3601 36.0837 20.5961 36.5038 21.0162C36.9239 21.4363 37.1599 22.006 37.1599 22.6001V38.2801ZM24.5599 30.4401C24.3371 30.4401 24.1234 30.5286 23.9659 30.6861C23.8084 30.8437 23.7199 31.0573 23.7199 31.2801C23.7199 31.5029 23.8084 31.7165 23.9659 31.8741C24.1234 32.0316 24.3371 32.1201 24.5599 32.1201H32.9599C33.1826 32.1201 33.3963 32.0316 33.5538 31.8741C33.7114 31.7165 33.7999 31.5029 33.7999 31.2801C33.7999 31.0573 33.7114 30.8437 33.5538 30.6861C33.3963 30.5286 33.1826 30.4401 32.9599 30.4401H24.5599ZM24.5599 33.8001C24.3371 33.8001 24.1234 33.8886 23.9659 34.0461C23.8084 34.2037 23.7199 34.4173 23.7199 34.6401C23.7199 34.8629 23.8084 35.0765 23.9659 35.2341C24.1234 35.3916 24.3371 35.4801 24.5599 35.4801H29.0399C29.2626 35.4801 29.4763 35.3916 29.6338 35.2341C29.7914 35.0765 29.8799 34.8629 29.8799 34.6401C29.8799 34.4173 29.7914 34.2037 29.6338 34.0461C29.4763 33.8886 29.2626 33.8001 29.0399 33.8001H24.5599ZM24.8399 23.7201C24.5428 23.7201 24.2579 23.8381 24.0479 24.0481C23.8379 24.2582 23.7199 24.5431 23.7199 24.8401V27.0801C23.7199 27.3771 23.8379 27.662 24.0479 27.8721C24.2579 28.0821 24.5428 28.2001 24.8399 28.2001H32.6799C32.9769 28.2001 33.2618 28.0821 33.4718 27.8721C33.6819 27.662 33.7999 27.3771 33.7999 27.0801V24.8401C33.7999 24.5431 33.6819 24.2582 33.4718 24.0481C33.2618 23.8381 32.9769 23.7201 32.6799 23.7201H24.8399Z" fill="white"/>
</svg>
