<svg width="62" height="62" viewBox="0 0 62 62" fill="none" xmlns="http://www.w3.org/2000/svg">
<rect width="62" height="62" rx="31" fill="#27AAE1"/>
<path d="M35.2873 31.875C35.1998 32.4 34.9373 32.925 34.6748 33.45L40.2748 39.05C41.9373 37.125 43.0748 34.675 43.2498 31.875H35.2873V31.875Z" fill="white"/>
<path d="M31.875 26.7126C33.625 27.0626 34.9375 28.3751 35.2875 30.1251H43.25C42.8125 24.0876 37.9125 19.1876 31.875 18.8376V26.7126Z" fill="white"/>
<path d="M33.45 34.6751C32.75 35.1126 31.875 35.3751 31 35.3751C28.55 35.3751 26.625 33.4501 26.625 31.0001C26.625 28.9001 28.1125 27.1501 30.125 26.7126V18.8376C23.7375 19.2751 18.75 24.5251 18.75 31.0001C18.75 37.7376 24.2625 43.2501 31 43.2501C34.0625 43.2501 36.8625 42.1126 39.05 40.2751L33.45 34.6751Z" fill="white"/>
</svg>
