<svg width="62" height="62" viewBox="0 0 62 62" fill="none" xmlns="http://www.w3.org/2000/svg">
<rect width="62" height="62" rx="31" fill="#27AAE1"/>
<path d="M41.5 34.5001H40.3333C40.0239 34.5001 39.7272 34.623 39.5084 34.8418C39.2896 35.0606 39.1667 35.3573 39.1667 35.6667V39.1667C39.1667 39.7856 38.9208 40.3791 38.4832 40.8167C38.0457 41.2542 37.4522 41.5001 36.8333 41.5001H33.3333C33.0239 41.5001 32.7272 41.3772 32.5084 41.1584C32.2896 40.9396 32.1667 40.6428 32.1667 40.3334V39.1667C32.1667 38.5479 31.9208 37.9544 31.4832 37.5168C31.0457 37.0792 30.4522 36.8334 29.8333 36.8334C29.2145 36.8334 28.621 37.0792 28.1834 37.5168C27.7458 37.9544 27.5 38.5479 27.5 39.1667V40.3334C27.5 40.6428 27.3771 40.9396 27.1583 41.1584C26.9395 41.3772 26.6428 41.5001 26.3333 41.5001H22.8333C22.2145 41.5001 21.621 41.2542 21.1834 40.8167C20.7458 40.3791 20.5 39.7856 20.5 39.1667V35.6667C20.5 35.3573 20.6229 35.0606 20.8417 34.8418C21.0605 34.623 21.3572 34.5001 21.6667 34.5001H22.8333C23.4522 34.5001 24.0457 34.2542 24.4832 33.8167C24.9208 33.3791 25.1667 32.7856 25.1667 32.1667C25.1667 31.5479 24.9208 30.9544 24.4832 30.5168C24.0457 30.0792 23.4522 29.8334 22.8333 29.8334H21.6667C21.3572 29.8334 21.0605 29.7105 20.8417 29.4917C20.6229 29.2729 20.5 28.9762 20.5 28.6667V25.1667C20.5 24.5479 20.7458 23.9544 21.1834 23.5168C21.621 23.0792 22.2145 22.8334 22.8333 22.8334H26.3333C26.6428 22.8334 26.9395 22.7105 27.1583 22.4917C27.3771 22.2729 27.5 21.9762 27.5 21.6667V20.5001C27.5 19.8812 27.7458 19.2878 28.1834 18.8502C28.621 18.4126 29.2145 18.1667 29.8333 18.1667C30.4522 18.1667 31.0457 18.4126 31.4832 18.8502C31.9208 19.2878 32.1667 19.8812 32.1667 20.5001V21.6667C32.1667 21.9762 32.2896 22.2729 32.5084 22.4917C32.7272 22.7105 33.0239 22.8334 33.3333 22.8334H36.8333C37.4522 22.8334 38.0457 23.0792 38.4832 23.5168C38.9208 23.9544 39.1667 24.5479 39.1667 25.1667V28.6667C39.1667 28.9762 39.2896 29.2729 39.5084 29.4917C39.7272 29.7105 40.0239 29.8334 40.3333 29.8334H41.5C42.1188 29.8334 42.7123 30.0792 43.1499 30.5168C43.5875 30.9544 43.8333 31.5479 43.8333 32.1667C43.8333 32.7856 43.5875 33.3791 43.1499 33.8167C42.7123 34.2542 42.1188 34.5001 41.5 34.5001Z" fill="white"/>
</svg>
