<svg width="56" height="56" viewBox="0 0 56 56" fill="none" xmlns="http://www.w3.org/2000/svg">
<circle cx="28" cy="28" r="28" fill="#FF6D55"/>
<path d="M33.9993 16C32.8655 16.0353 31.7502 16.2978 30.7196 16.7719C29.689 17.246 28.764 17.922 27.9993 18.76C27.2347 17.922 26.3097 17.246 25.2791 16.7719C24.2485 16.2978 23.1332 16.0353 21.9993 16C20.0544 16 18.1892 16.7726 16.8139 18.1479C15.4386 19.5232 14.666 21.3884 14.666 23.3333C14.666 28.56 20.9993 34.3333 23.9993 37.3333L27.0393 40.3733C27.2267 40.5609 27.4809 40.6664 27.746 40.6667H28.2527C28.5178 40.6664 28.772 40.5609 28.9593 40.3733L31.9993 37.3333C34.9993 34.3333 41.3327 28.56 41.3327 23.3333C41.3327 21.3884 40.5601 19.5232 39.1848 18.1479C37.8095 16.7726 35.9443 16 33.9993 16ZM30.9327 34.6667L27.9993 37.56L25.066 34.6667C22.3593 32 17.3327 27.0133 17.3327 23.3333C17.3327 22.0957 17.8243 20.9087 18.6995 20.0335C19.5747 19.1583 20.7617 18.6667 21.9993 18.6667C22.9917 18.7569 23.9511 19.0685 24.8072 19.5784C25.6633 20.0884 26.3941 20.7837 26.946 21.6133C27.0419 21.7336 27.1636 21.8308 27.302 21.8977C27.4405 21.9646 27.5922 21.9996 27.746 22H28.346C28.4493 21.999 28.5511 21.9744 28.6435 21.9282C28.7359 21.882 28.8166 21.8154 28.8793 21.7333C29.44 20.8722 30.1882 20.149 31.068 19.6179C31.9477 19.0869 32.9361 18.7617 33.9593 18.6667C34.5755 18.6614 35.1867 18.7782 35.7575 19.0103C36.3283 19.2425 36.8475 19.5854 37.2851 20.0193C37.7227 20.4531 38.07 20.9694 38.307 21.5382C38.544 22.107 38.666 22.7171 38.666 23.3333C38.666 27.0133 33.6393 32 30.9327 34.6667Z" fill="white"/>
</svg>
