<svg width="56" height="56" viewBox="0 0 56 56" fill="none" xmlns="http://www.w3.org/2000/svg">
<circle cx="28" cy="28" r="28" fill="#416FF4"/>
<path d="M28.0006 20.0002C26.2684 20.0026 24.5837 20.5673 23.1999 21.6093C21.816 22.6514 20.8078 24.1144 20.3268 25.7786C19.8457 27.4427 19.9178 29.218 20.5322 30.8377C21.1467 32.4573 22.2702 33.8338 23.734 34.7602C24.02 34.9405 24.2557 35.1904 24.4189 35.4865C24.5821 35.7827 24.6676 36.1154 24.6673 36.4535V36.6668C24.6673 36.8436 24.7376 37.0132 24.8626 37.1382C24.9876 37.2633 25.1572 37.3335 25.334 37.3335H30.6673C30.8441 37.3335 31.0137 37.2633 31.1387 37.1382C31.2637 37.0132 31.334 36.8436 31.334 36.6668V36.4535C31.3312 36.1149 31.4156 35.7812 31.579 35.4847C31.7425 35.1881 31.9795 34.9386 32.2673 34.7602C33.7311 33.8338 34.8546 32.4573 35.4691 30.8377C36.0835 29.218 36.1556 27.4427 35.6745 25.7786C35.1935 24.1144 34.1853 22.6514 32.8014 21.6093C31.4176 20.5673 29.7329 20.0026 28.0006 20.0002ZM28.0006 33.3335C26.9458 33.3335 25.9147 33.0207 25.0376 32.4347C24.1605 31.8486 23.477 31.0157 23.0733 30.0411C22.6696 29.0666 22.564 27.9942 22.7698 26.9597C22.9756 25.9251 23.4835 24.9748 24.2294 24.2289C24.9753 23.483 25.9256 22.9751 26.9602 22.7693C27.9947 22.5635 29.0671 22.6691 30.0416 23.0728C31.0162 23.4765 31.8491 24.1601 32.4352 25.0371C33.0212 25.9142 33.334 26.9453 33.334 28.0002C33.334 29.4146 32.7721 30.7712 31.7719 31.7714C30.7717 32.7716 29.4151 33.3335 28.0006 33.3335ZM25.334 40.7868C25.3355 41.1366 25.4743 41.4718 25.7206 41.7202L26.2806 42.2802C26.529 42.5265 26.8642 42.6654 27.214 42.6668H28.7873C29.1371 42.6654 29.4723 42.5265 29.7206 42.2802L30.2806 41.7202C30.527 41.4718 30.6658 41.1366 30.6673 40.7868V40.0002H25.334V40.7868ZM27.334 17.3335H28.6673C28.8441 17.3335 29.0137 17.2633 29.1387 17.1382C29.2637 17.0132 29.334 16.8436 29.334 16.6668V14.0002C29.334 13.8234 29.2637 13.6538 29.1387 13.5288C29.0137 13.4037 28.8441 13.3335 28.6673 13.3335H27.334C27.1572 13.3335 26.9876 13.4037 26.8626 13.5288C26.7376 13.6538 26.6673 13.8234 26.6673 14.0002V16.6668C26.6673 16.8436 26.7376 17.0132 26.8626 17.1382C26.9876 17.2633 27.1572 17.3335 27.334 17.3335ZM38.8406 18.1068L37.894 17.1602C37.8341 17.0964 37.7618 17.0456 37.6816 17.0108C37.6013 16.9761 37.5148 16.9581 37.4273 16.9581C37.3399 16.9581 37.2533 16.9761 37.1731 17.0108C37.0928 17.0456 37.0205 17.0964 36.9606 17.1602L35.0673 19.0402C34.9443 19.167 34.8755 19.3368 34.8755 19.5135C34.8755 19.6902 34.9443 19.86 35.0673 19.9868L36.0006 20.9335C36.1275 21.0565 36.2973 21.1253 36.474 21.1253C36.6507 21.1253 36.8204 21.0565 36.9473 20.9335L38.8273 19.0402C38.892 18.9812 38.9438 18.9097 38.9797 18.8299C39.0156 18.7501 39.0348 18.6638 39.036 18.5764C39.0373 18.4889 39.0206 18.4021 38.987 18.3214C38.9534 18.2406 38.9036 18.1676 38.8406 18.1068ZM20.934 19.0402L19.0407 17.1602C18.9808 17.0964 18.9085 17.0456 18.8282 17.0108C18.748 16.9761 18.6614 16.9581 18.574 16.9581C18.4865 16.9581 18.4 16.9761 18.3197 17.0108C18.2395 17.0456 18.1672 17.0964 18.1073 17.1602L17.1607 18.1068C17.0969 18.1667 17.046 18.239 17.0113 18.3192C16.9766 18.3995 16.9586 18.486 16.9586 18.5735C16.9586 18.661 16.9766 18.7475 17.0113 18.8278C17.046 18.908 17.0969 18.9803 17.1607 19.0402L19.0407 20.9335C19.1681 21.0605 19.3407 21.1318 19.5206 21.1318C19.7006 21.1318 19.8732 21.0605 20.0006 20.9335L20.934 20.0002C21.061 19.8727 21.1323 19.7001 21.1323 19.5202C21.1323 19.3402 21.061 19.1676 20.934 19.0402ZM42.0006 26.6668H39.334C39.1572 26.6668 38.9876 26.7371 38.8626 26.8621C38.7376 26.9871 38.6673 27.1567 38.6673 27.3335V28.6668C38.6673 28.8436 38.7376 29.0132 38.8626 29.1382C38.9876 29.2633 39.1572 29.3335 39.334 29.3335H42.0006C42.1775 29.3335 42.347 29.2633 42.4721 29.1382C42.5971 29.0132 42.6673 28.8436 42.6673 28.6668V27.3335C42.6673 27.1567 42.5971 26.9871 42.4721 26.8621C42.347 26.7371 42.1775 26.6668 42.0006 26.6668ZM16.6673 26.6668H14.0007C13.8238 26.6668 13.6543 26.7371 13.5292 26.8621C13.4042 26.9871 13.334 27.1567 13.334 27.3335V28.6668C13.334 28.8436 13.4042 29.0132 13.5292 29.1382C13.6543 29.2633 13.8238 29.3335 14.0007 29.3335H16.6673C16.8441 29.3335 17.0137 29.2633 17.1387 29.1382C17.2637 29.0132 17.334 28.8436 17.334 28.6668V27.3335C17.334 27.1567 17.2637 26.9871 17.1387 26.8621C17.0137 26.7371 16.8441 26.6668 16.6673 26.6668Z" fill="white"/>
</svg>
