<svg width="56" height="56" viewBox="0 0 56 56" fill="none" xmlns="http://www.w3.org/2000/svg">
<circle cx="28" cy="28" r="28" fill="#2DCA8C"/>
<path d="M40.9991 25.9333L40.7457 25.6666C40.6507 25.5629 40.5355 25.4797 40.407 25.4224C40.2786 25.3651 40.1397 25.3347 39.9991 25.3333H39.4791C37.651 25.3344 35.8403 25.6875 34.1457 26.3733C34.1008 24.23 33.6255 22.1176 32.7483 20.1615C31.8711 18.2055 30.6097 16.4457 29.0391 14.9866C28.8152 14.7772 28.5189 14.6625 28.2124 14.6666H27.7857C27.4792 14.6625 27.1829 14.7772 26.9591 14.9866C25.3885 16.4457 24.1271 18.2055 23.2498 20.1615C22.3726 22.1176 21.8974 24.23 21.8524 26.3733C20.1579 25.6875 18.3471 25.3344 16.5191 25.3333H15.9991C15.8616 25.3348 15.7259 25.3639 15.5999 25.4189C15.474 25.4739 15.3603 25.5536 15.2657 25.6533L15.0124 25.9199C14.9036 26.0115 14.8161 26.1258 14.7562 26.2548C14.6964 26.3838 14.6655 26.5244 14.6657 26.6666C14.5165 30.3725 15.8315 33.9883 18.3264 36.7327C20.8212 39.4771 24.2957 41.1296 27.9991 41.3333C31.7024 41.1296 35.1769 39.4771 37.6718 36.7327C40.1667 33.9883 41.4816 30.3725 41.3324 26.6666C41.3324 26.5277 41.3027 26.3903 41.2452 26.2638C41.1877 26.1374 41.1038 26.0246 40.9991 25.9333ZM24.5057 26.6666C24.5015 23.3508 25.7491 20.1556 27.9991 17.7199C30.249 20.1556 31.4967 23.3508 31.4924 26.6666C31.4924 27.0666 31.4924 27.4533 31.4924 27.8399C30.7685 28.3191 30.0902 28.8636 29.4657 29.4666C28.933 30.0153 28.4427 30.6036 27.9991 31.2266C27.5555 30.6036 27.0652 30.0153 26.5324 29.4666C25.9249 28.8661 25.2644 28.3217 24.5591 27.8399C24.5324 27.4533 24.5057 27.0666 24.5057 26.6666ZM35.3191 35.3333C33.3609 37.2908 30.7612 38.4746 27.9991 38.6666C25.2308 38.4822 22.6235 37.2992 20.6617 35.3373C18.6998 33.3755 17.5168 30.7683 17.3324 27.9999C20.0867 28.1923 22.6778 29.3766 24.6257 31.3333C25.0582 31.7769 25.455 32.2539 25.8124 32.7599L26.7591 34.0933C26.8818 34.2656 27.0437 34.4063 27.2315 34.5036C27.4193 34.601 27.6275 34.6523 27.8391 34.6533H28.1057C28.3173 34.6523 28.5255 34.601 28.7133 34.5036C28.9011 34.4063 29.063 34.2656 29.1857 34.0933L30.1324 32.7599C30.4898 32.2539 30.8866 31.7769 31.3191 31.3333C33.2805 29.3649 35.8927 28.1796 38.6657 27.9999C38.4745 30.7689 37.2854 33.3744 35.3191 35.3333Z" fill="white"/>
</svg>
