<svg width="168" height="95" viewBox="0 0 168 95" fill="none" xmlns="http://www.w3.org/2000/svg">
<g opacity="0.25">
<circle cx="2.27" cy="19.7524" r="1.77" fill="#27AAE1" stroke="black"/>
<circle cx="2.27" cy="2.27" r="1.77" fill="#27AAE1" stroke="black"/>
<circle cx="2.27" cy="37.9126" r="1.77" fill="#27AAE1" stroke="black"/>
<circle cx="2.27" cy="56.0718" r="1.77" fill="#27AAE1" stroke="black"/>
<circle cx="2.27" cy="74.2319" r="1.77" fill="#27AAE1" stroke="black"/>
<circle cx="2.27" cy="92.3921" r="1.77" fill="#27AAE1" stroke="black"/>
<circle cx="20.4304" cy="19.7524" r="1.77" fill="#27AAE1" stroke="black"/>
<circle cx="20.4304" cy="2.27" r="1.77" fill="#27AAE1" stroke="black"/>
<circle cx="20.4304" cy="37.9126" r="1.77" fill="#27AAE1" stroke="black"/>
<circle cx="20.4304" cy="56.0718" r="1.77" fill="#27AAE1" stroke="black"/>
<circle cx="20.4304" cy="74.2319" r="1.77" fill="#27AAE1" stroke="black"/>
<circle cx="20.4304" cy="92.3921" r="1.77" fill="#27AAE1" stroke="black"/>
<circle cx="38.5901" cy="19.7524" r="1.77" fill="#27AAE1" stroke="black"/>
<circle cx="38.5901" cy="2.27" r="1.77" fill="#27AAE1" stroke="black"/>
<circle cx="38.5901" cy="37.9126" r="1.77" fill="#27AAE1" stroke="black"/>
<circle cx="38.5901" cy="56.0718" r="1.77" fill="#27AAE1" stroke="black"/>
<circle cx="38.5901" cy="74.2319" r="1.77" fill="#27AAE1" stroke="black"/>
<circle cx="38.5901" cy="92.3921" r="1.77" fill="#27AAE1" stroke="black"/>
<circle cx="56.7502" cy="19.7524" r="1.77" fill="#27AAE1" stroke="black"/>
<circle cx="56.7502" cy="2.27" r="1.77" fill="#27AAE1" stroke="black"/>
<circle cx="56.7502" cy="37.9126" r="1.77" fill="#27AAE1" stroke="black"/>
<circle cx="56.7502" cy="56.0718" r="1.77" fill="#27AAE1" stroke="black"/>
<circle cx="56.7502" cy="74.2319" r="1.77" fill="#27AAE1" stroke="black"/>
<circle cx="56.7502" cy="92.3921" r="1.77" fill="#27AAE1" stroke="black"/>
<circle cx="74.9101" cy="19.7524" r="1.77" fill="#27AAE1" stroke="black"/>
<circle cx="74.9101" cy="2.27" r="1.77" fill="#27AAE1" stroke="black"/>
<circle cx="74.9101" cy="37.9126" r="1.77" fill="#27AAE1" stroke="black"/>
<circle cx="74.9101" cy="56.0718" r="1.77" fill="#27AAE1" stroke="black"/>
<circle cx="74.9101" cy="74.2319" r="1.77" fill="#27AAE1" stroke="black"/>
<circle cx="74.9101" cy="92.3921" r="1.77" fill="#27AAE1" stroke="black"/>
<circle cx="93.0703" cy="19.7524" r="1.77" fill="#27AAE1" stroke="black"/>
<circle cx="93.0703" cy="2.27" r="1.77" fill="#27AAE1" stroke="black"/>
<circle cx="93.0703" cy="37.9126" r="1.77" fill="#27AAE1" stroke="black"/>
<circle cx="93.0703" cy="56.0718" r="1.77" fill="#27AAE1" stroke="black"/>
<circle cx="93.0703" cy="74.2319" r="1.77" fill="#27AAE1" stroke="black"/>
<circle cx="93.0703" cy="92.3921" r="1.77" fill="#27AAE1" stroke="black"/>
<circle cx="111.23" cy="19.7524" r="1.77" fill="#27AAE1" stroke="black"/>
<circle cx="111.23" cy="2.27" r="1.77" fill="#27AAE1" stroke="black"/>
<circle cx="111.23" cy="37.9126" r="1.77" fill="#27AAE1" stroke="black"/>
<circle cx="111.23" cy="56.0718" r="1.77" fill="#27AAE1" stroke="black"/>
<circle cx="111.23" cy="74.2319" r="1.77" fill="#27AAE1" stroke="black"/>
<circle cx="111.23" cy="92.3921" r="1.77" fill="#27AAE1" stroke="black"/>
<circle cx="129.39" cy="19.7524" r="1.77" fill="#27AAE1" stroke="black"/>
<circle cx="129.39" cy="2.27" r="1.77" fill="#27AAE1" stroke="black"/>
<circle cx="129.39" cy="37.9126" r="1.77" fill="#27AAE1" stroke="black"/>
<circle cx="129.39" cy="56.0718" r="1.77" fill="#27AAE1" stroke="black"/>
<circle cx="129.39" cy="74.2319" r="1.77" fill="#27AAE1" stroke="black"/>
<circle cx="129.39" cy="92.3921" r="1.77" fill="#27AAE1" stroke="black"/>
<circle cx="147.55" cy="19.7524" r="1.77" fill="#27AAE1" stroke="black"/>
<circle cx="147.55" cy="2.27" r="1.77" fill="#27AAE1" stroke="black"/>
<circle cx="147.55" cy="37.9126" r="1.77" fill="#27AAE1" stroke="black"/>
<circle cx="147.55" cy="56.0718" r="1.77" fill="#27AAE1" stroke="black"/>
<circle cx="147.55" cy="74.2319" r="1.77" fill="#27AAE1" stroke="black"/>
<circle cx="147.55" cy="92.3921" r="1.77" fill="#27AAE1" stroke="black"/>
<circle cx="165.711" cy="19.7524" r="1.77" fill="#27AAE1" stroke="black"/>
<circle cx="165.711" cy="2.27" r="1.77" fill="#27AAE1" stroke="black"/>
<circle cx="165.711" cy="37.9126" r="1.77" fill="#27AAE1" stroke="black"/>
<circle cx="165.711" cy="56.0718" r="1.77" fill="#27AAE1" stroke="black"/>
<circle cx="165.711" cy="74.2319" r="1.77" fill="#27AAE1" stroke="black"/>
<circle cx="165.711" cy="92.3921" r="1.77" fill="#27AAE1" stroke="black"/>
</g>
</svg>
