<svg width="221" height="125" viewBox="0 0 221 125" fill="none" xmlns="http://www.w3.org/2000/svg">
<g opacity="0.25">
<circle cx="2.98649" cy="25.9865" r="2.98649" fill="#27AAE1"/>
<circle cx="2.98649" cy="2.98649" r="2.98649" fill="#27AAE1"/>
<circle cx="2.98649" cy="49.8781" r="2.98649" fill="#27AAE1"/>
<circle cx="2.98649" cy="73.7707" r="2.98649" fill="#27AAE1"/>
<circle cx="2.98649" cy="97.6623" r="2.98649" fill="#27AAE1"/>
<circle cx="2.98649" cy="121.554" r="2.98649" fill="#27AAE1"/>
<circle cx="26.8784" cy="25.9865" r="2.98649" fill="#27AAE1"/>
<circle cx="26.8784" cy="2.98649" r="2.98649" fill="#27AAE1"/>
<circle cx="26.8784" cy="49.8781" r="2.98649" fill="#27AAE1"/>
<circle cx="26.8784" cy="73.7707" r="2.98649" fill="#27AAE1"/>
<circle cx="26.8784" cy="97.6623" r="2.98649" fill="#27AAE1"/>
<circle cx="26.8784" cy="121.554" r="2.98649" fill="#27AAE1"/>
<circle cx="50.7703" cy="25.9865" r="2.98649" fill="#27AAE1"/>
<circle cx="50.7703" cy="2.98649" r="2.98649" fill="#27AAE1"/>
<circle cx="50.7703" cy="49.8781" r="2.98649" fill="#27AAE1"/>
<circle cx="50.7703" cy="73.7707" r="2.98649" fill="#27AAE1"/>
<circle cx="50.7703" cy="97.6623" r="2.98649" fill="#27AAE1"/>
<circle cx="50.7703" cy="121.554" r="2.98649" fill="#27AAE1"/>
<circle cx="74.6621" cy="25.9865" r="2.98649" fill="#27AAE1"/>
<circle cx="74.6621" cy="2.98649" r="2.98649" fill="#27AAE1"/>
<circle cx="74.6621" cy="49.8781" r="2.98649" fill="#27AAE1"/>
<circle cx="74.6621" cy="73.7707" r="2.98649" fill="#27AAE1"/>
<circle cx="74.6621" cy="97.6623" r="2.98649" fill="#27AAE1"/>
<circle cx="74.6621" cy="121.554" r="2.98649" fill="#27AAE1"/>
<circle cx="98.5541" cy="25.9865" r="2.98649" fill="#27AAE1"/>
<circle cx="98.5541" cy="2.98649" r="2.98649" fill="#27AAE1"/>
<circle cx="98.5541" cy="49.8781" r="2.98649" fill="#27AAE1"/>
<circle cx="98.5541" cy="73.7707" r="2.98649" fill="#27AAE1"/>
<circle cx="98.5541" cy="97.6623" r="2.98649" fill="#27AAE1"/>
<circle cx="98.5541" cy="121.554" r="2.98649" fill="#27AAE1"/>
<circle cx="122.446" cy="25.9865" r="2.98649" fill="#27AAE1"/>
<circle cx="122.446" cy="2.98649" r="2.98649" fill="#27AAE1"/>
<circle cx="122.446" cy="49.8781" r="2.98649" fill="#27AAE1"/>
<circle cx="122.446" cy="73.7707" r="2.98649" fill="#27AAE1"/>
<circle cx="122.446" cy="97.6623" r="2.98649" fill="#27AAE1"/>
<circle cx="122.446" cy="121.554" r="2.98649" fill="#27AAE1"/>
<circle cx="146.338" cy="25.9865" r="2.98649" fill="#27AAE1"/>
<circle cx="146.338" cy="2.98649" r="2.98649" fill="#27AAE1"/>
<circle cx="146.338" cy="49.8781" r="2.98649" fill="#27AAE1"/>
<circle cx="146.338" cy="73.7707" r="2.98649" fill="#27AAE1"/>
<circle cx="146.338" cy="97.6623" r="2.98649" fill="#27AAE1"/>
<circle cx="146.338" cy="121.554" r="2.98649" fill="#27AAE1"/>
<circle cx="170.23" cy="25.9865" r="2.98649" fill="#27AAE1"/>
<circle cx="170.23" cy="2.98649" r="2.98649" fill="#27AAE1"/>
<circle cx="170.23" cy="49.8781" r="2.98649" fill="#27AAE1"/>
<circle cx="170.23" cy="73.7707" r="2.98649" fill="#27AAE1"/>
<circle cx="170.23" cy="97.6623" r="2.98649" fill="#27AAE1"/>
<circle cx="170.23" cy="121.554" r="2.98649" fill="#27AAE1"/>
<circle cx="194.122" cy="25.9865" r="2.98649" fill="#27AAE1"/>
<circle cx="194.122" cy="2.98649" r="2.98649" fill="#27AAE1"/>
<circle cx="194.122" cy="49.8781" r="2.98649" fill="#27AAE1"/>
<circle cx="194.122" cy="73.7707" r="2.98649" fill="#27AAE1"/>
<circle cx="194.122" cy="97.6623" r="2.98649" fill="#27AAE1"/>
<circle cx="194.122" cy="121.554" r="2.98649" fill="#27AAE1"/>
<circle cx="218.013" cy="25.9865" r="2.98649" fill="#27AAE1"/>
<circle cx="218.014" cy="2.98649" r="2.98649" fill="#27AAE1"/>
<circle cx="218.013" cy="49.8781" r="2.98649" fill="#27AAE1"/>
<circle cx="218.013" cy="73.7707" r="2.98649" fill="#27AAE1"/>
<circle cx="218.013" cy="97.6623" r="2.98649" fill="#27AAE1"/>
<circle cx="218.013" cy="121.554" r="2.98649" fill="#27AAE1"/>
</g>
</svg>
