<svg width="221" height="81" viewBox="0 0 221 81" fill="none" xmlns="http://www.w3.org/2000/svg">
<g opacity="0.25">
<circle cx="2.98649" cy="26.216" r="2.98649" fill="#27AAE1"/>
<circle cx="2.98649" cy="3.21598" r="2.98649" fill="#27AAE1"/>
<circle cx="2.98649" cy="50.1076" r="2.98649" fill="#27AAE1"/>
<circle cx="2.98649" cy="74.0002" r="2.98649" fill="#27AAE1"/>
<circle cx="26.8784" cy="26.216" r="2.98649" fill="#27AAE1"/>
<circle cx="26.8784" cy="3.21598" r="2.98649" fill="#27AAE1"/>
<circle cx="26.8784" cy="50.1076" r="2.98649" fill="#27AAE1"/>
<circle cx="26.8784" cy="74.0002" r="2.98649" fill="#27AAE1"/>
<circle cx="50.7703" cy="26.216" r="2.98649" fill="#27AAE1"/>
<circle cx="50.7703" cy="3.21598" r="2.98649" fill="#27AAE1"/>
<circle cx="50.7703" cy="50.1076" r="2.98649" fill="#27AAE1"/>
<circle cx="50.7703" cy="74.0002" r="2.98649" fill="#27AAE1"/>
<circle cx="74.6621" cy="26.216" r="2.98649" fill="#27AAE1"/>
<circle cx="74.6621" cy="3.21598" r="2.98649" fill="#27AAE1"/>
<circle cx="74.6621" cy="50.1076" r="2.98649" fill="#27AAE1"/>
<circle cx="74.6621" cy="74.0002" r="2.98649" fill="#27AAE1"/>
<circle cx="98.5541" cy="26.216" r="2.98649" fill="#27AAE1"/>
<circle cx="98.5541" cy="3.21598" r="2.98649" fill="#27AAE1"/>
<circle cx="98.5541" cy="50.1076" r="2.98649" fill="#27AAE1"/>
<circle cx="98.5541" cy="74.0002" r="2.98649" fill="#27AAE1"/>
<circle cx="122.446" cy="26.216" r="2.98649" fill="#27AAE1"/>
<circle cx="122.446" cy="3.21598" r="2.98649" fill="#27AAE1"/>
<circle cx="122.446" cy="50.1076" r="2.98649" fill="#27AAE1"/>
<circle cx="122.446" cy="74.0002" r="2.98649" fill="#27AAE1"/>
<circle cx="146.338" cy="26.216" r="2.98649" fill="#27AAE1"/>
<circle cx="146.338" cy="3.21598" r="2.98649" fill="#27AAE1"/>
<circle cx="146.338" cy="50.1076" r="2.98649" fill="#27AAE1"/>
<circle cx="146.338" cy="74.0002" r="2.98649" fill="#27AAE1"/>
<circle cx="170.23" cy="26.216" r="2.98649" fill="#27AAE1"/>
<circle cx="170.23" cy="3.21598" r="2.98649" fill="#27AAE1"/>
<circle cx="170.23" cy="50.1076" r="2.98649" fill="#27AAE1"/>
<circle cx="170.23" cy="74.0002" r="2.98649" fill="#27AAE1"/>
<circle cx="194.122" cy="26.216" r="2.98649" fill="#27AAE1"/>
<circle cx="194.122" cy="3.21598" r="2.98649" fill="#27AAE1"/>
<circle cx="194.122" cy="50.1076" r="2.98649" fill="#27AAE1"/>
<circle cx="194.122" cy="74.0002" r="2.98649" fill="#27AAE1"/>
<circle cx="218.014" cy="26.216" r="2.98649" fill="#27AAE1"/>
<circle cx="218.014" cy="3.21598" r="2.98649" fill="#27AAE1"/>
<circle cx="218.014" cy="50.1076" r="2.98649" fill="#27AAE1"/>
<circle cx="218.014" cy="74.0002" r="2.98649" fill="#27AAE1"/>
</g>
</svg>
