<svg width="118" height="44" viewBox="0 0 118 44" fill="none" xmlns="http://www.w3.org/2000/svg">
<path d="M112.688 43H4.87688C2.46192 43 0.564453 40.69 0.564453 37.75V6.25C0.564453 3.31 2.46192 1 4.87688 1H112.688C115.103 1 117 3.31 117 6.25V37.75C117 40.69 115.103 43 112.688 43Z" fill="black" stroke="white" stroke-opacity="0.2"/>
<path fill-rule="evenodd" clip-rule="evenodd" d="M62.1459 16.1775C62.9221 16.1775 63.5258 15.9244 64.0433 15.4182C64.5608 14.9119 64.8196 14.3213 64.8196 13.5619C64.8196 12.8025 64.5608 12.2119 64.0433 11.7057C63.5258 11.1994 62.9221 10.9463 62.1459 10.9463C61.3696 10.9463 60.7659 11.1994 60.2484 11.7057C59.7309 12.2119 59.4722 12.8025 59.4722 13.5619C59.4722 14.3213 59.7309 14.9119 60.2484 15.4182C60.7659 15.9244 61.3696 16.1775 62.1459 16.1775ZM55.7635 16.0932H55.1597V11.6213H53.6935V11.0307H57.2297V11.6213H55.7635V16.0932ZM52.2273 11.0309V16.0934H52.9173V11.0309H52.2273ZM60.7659 14.9964C61.1109 15.3339 61.6284 15.587 62.1459 15.587C62.6634 15.587 63.1808 15.4182 63.5258 14.9964C63.8708 14.6589 64.1296 14.1526 64.1296 13.562C64.1296 12.9714 63.9571 12.4651 63.5258 12.1276C63.1808 11.7901 62.6634 11.537 62.1459 11.537C61.6284 11.537 61.1109 11.7057 60.7659 12.1276C60.4209 12.4651 60.1621 12.9714 60.1621 13.562C60.1621 14.1526 60.3346 14.6589 60.7659 14.9964ZM65.7683 11.0307V16.0932H66.3721V11.9588L69.0458 16.0932H69.7358V11.0307H69.0458V14.9963L66.5446 11.0307H65.7683Z" fill="white"/>
<path d="M64.0433 15.4182L63.9734 15.3467L63.9734 15.3467L64.0433 15.4182ZM64.0433 11.7057L63.9734 11.7771L63.9734 11.7771L64.0433 11.7057ZM60.2484 11.7057L60.3183 11.7771L60.3183 11.7771L60.2484 11.7057ZM60.2484 15.4182L60.3183 15.3467L60.3183 15.3467L60.2484 15.4182ZM55.1597 16.0932H55.0597V16.1932H55.1597V16.0932ZM55.7635 16.0932V16.1932H55.8635V16.0932H55.7635ZM55.1597 11.6213H55.2597V11.5213H55.1597V11.6213ZM53.6935 11.6213H53.5935V11.7213H53.6935V11.6213ZM53.6935 11.0307V10.9307H53.5935V11.0307H53.6935ZM57.2297 11.0307H57.3297V10.9307H57.2297V11.0307ZM57.2297 11.6213V11.7213H57.3297V11.6213H57.2297ZM55.7635 11.6213V11.5213H55.6635V11.6213H55.7635ZM52.2273 16.0934H52.1273V16.1934H52.2273V16.0934ZM52.2273 11.0309V10.9309H52.1273V11.0309H52.2273ZM52.9173 16.0934V16.1934H53.0173V16.0934H52.9173ZM52.9173 11.0309H53.0173V10.9309H52.9173V11.0309ZM60.7659 14.9964L60.8362 14.9244L60.8275 14.9176L60.7659 14.9964ZM63.5258 14.9964L63.4555 14.9244L63.4484 14.9331L63.5258 14.9964ZM63.5258 12.1276L63.4555 12.1995L63.4642 12.2064L63.5258 12.1276ZM60.7659 12.1276L60.8362 12.1995L60.8433 12.1909L60.7659 12.1276ZM65.7683 16.0932H65.6683V16.1932H65.7683V16.0932ZM65.7683 11.0307V10.9307H65.6683V11.0307H65.7683ZM66.3721 16.0932V16.1932H66.4721V16.0932H66.3721ZM66.3721 11.9588L66.456 11.9045L66.2721 11.6201V11.9588H66.3721ZM69.0458 16.0932L68.9618 16.1475L68.9913 16.1932H69.0458V16.0932ZM69.7358 16.0932V16.1932H69.8358V16.0932H69.7358ZM69.7358 11.0307H69.8358V10.9307H69.7358V11.0307ZM69.0458 11.0307V10.9307H68.9458V11.0307H69.0458ZM69.0458 14.9963L68.9612 15.0497L69.1458 15.3423V14.9963H69.0458ZM66.5446 11.0307L66.6291 10.9774L66.5997 10.9307H66.5446V11.0307ZM63.9734 15.3467C63.4749 15.8344 62.8963 16.0775 62.1459 16.0775V16.2775C62.9479 16.2775 63.5768 16.0144 64.1133 15.4896L63.9734 15.3467ZM64.7196 13.5619C64.7196 14.2941 64.4719 14.859 63.9734 15.3467L64.1133 15.4896C64.6498 14.9648 64.9196 14.3485 64.9196 13.5619H64.7196ZM63.9734 11.7771C64.4719 12.2648 64.7196 12.8297 64.7196 13.5619H64.9196C64.9196 12.7754 64.6498 12.159 64.1133 11.6342L63.9734 11.7771ZM62.1459 11.0463C62.8963 11.0463 63.4749 11.2894 63.9734 11.7771L64.1133 11.6342C63.5768 11.1094 62.9479 10.8463 62.1459 10.8463V11.0463ZM60.3183 11.7771C60.8169 11.2894 61.3954 11.0463 62.1459 11.0463V10.8463C61.3439 10.8463 60.7149 11.1094 60.1785 11.6342L60.3183 11.7771ZM59.5722 13.5619C59.5722 12.8297 59.8199 12.2648 60.3183 11.7771L60.1785 11.6342C59.6419 12.159 59.3722 12.7754 59.3722 13.5619H59.5722ZM60.3183 15.3467C59.8199 14.859 59.5722 14.2941 59.5722 13.5619H59.3722C59.3722 14.3485 59.6419 14.9648 60.1785 15.4896L60.3183 15.3467ZM62.1459 16.0775C61.3954 16.0775 60.8169 15.8344 60.3183 15.3467L60.1785 15.4896C60.7149 16.0144 61.3439 16.2775 62.1459 16.2775V16.0775ZM55.1597 16.1932H55.7635V15.9932H55.1597V16.1932ZM55.0597 11.6213V16.0932H55.2597V11.6213H55.0597ZM53.6935 11.7213H55.1597V11.5213H53.6935V11.7213ZM53.5935 11.0307V11.6213H53.7935V11.0307H53.5935ZM57.2297 10.9307H53.6935V11.1307H57.2297V10.9307ZM57.3297 11.6213V11.0307H57.1297V11.6213H57.3297ZM55.7635 11.7213H57.2297V11.5213H55.7635V11.7213ZM55.8635 16.0932V11.6213H55.6635V16.0932H55.8635ZM52.3273 16.0934V11.0309H52.1273V16.0934H52.3273ZM52.9173 15.9934H52.2273V16.1934H52.9173V15.9934ZM52.8173 11.0309V16.0934H53.0173V11.0309H52.8173ZM52.2273 11.1309H52.9173V10.9309H52.2273V11.1309ZM62.1459 15.487C61.6588 15.487 61.1655 15.2474 60.8358 14.9249L60.696 15.0678C61.0563 15.4204 61.5979 15.687 62.1459 15.687V15.487ZM63.4484 14.9331C63.1278 15.3251 62.6431 15.487 62.1459 15.487V15.687C62.6836 15.687 63.2338 15.5114 63.6032 15.0597L63.4484 14.9331ZM64.0296 13.562C64.0296 14.1229 63.7838 14.6041 63.4559 14.9249L63.5958 15.0678C63.9579 14.7136 64.2296 14.1823 64.2296 13.562H64.0296ZM63.4642 12.2064C63.8634 12.5187 64.0296 12.9905 64.0296 13.562H64.2296C64.2296 12.9522 64.0508 12.4115 63.5875 12.0489L63.4642 12.2064ZM62.1459 11.637C62.6329 11.637 63.1263 11.8766 63.4559 12.1991L63.5958 12.0561C63.2354 11.7036 62.6938 11.437 62.1459 11.437V11.637ZM60.8433 12.1909C61.1639 11.7989 61.6486 11.637 62.1459 11.637V11.437C61.6081 11.437 61.0579 11.6126 60.6885 12.0643L60.8433 12.1909ZM60.2621 13.562C60.2621 13.0011 60.5079 12.5199 60.8358 12.1991L60.696 12.0561C60.3339 12.4104 60.0621 12.9416 60.0621 13.562H60.2621ZM60.8275 14.9176C60.4284 14.6052 60.2621 14.1335 60.2621 13.562H60.0621C60.0621 14.1718 60.2409 14.7125 60.7043 15.0751L60.8275 14.9176ZM65.8683 16.0932V11.0307H65.6683V16.0932H65.8683ZM66.3721 15.9932H65.7683V16.1932H66.3721V15.9932ZM66.2721 11.9588V16.0932H66.4721V11.9588H66.2721ZM69.1297 16.0389L66.456 11.9045L66.2881 12.0131L68.9618 16.1475L69.1297 16.0389ZM69.7358 15.9932H69.0458V16.1932H69.7358V15.9932ZM69.6358 11.0307V16.0932H69.8358V11.0307H69.6358ZM69.0458 11.1307H69.7358V10.9307H69.0458V11.1307ZM69.1458 14.9963V11.0307H68.9458V14.9963H69.1458ZM66.46 11.0841L68.9612 15.0497L69.1304 14.943L66.6291 10.9774L66.46 11.0841ZM65.7683 11.1307H66.5446V10.9307H65.7683V11.1307Z" fill="white"/>
<path fill-rule="evenodd" clip-rule="evenodd" d="M41.7053 24.6162V26.135H45.414C45.3278 26.9787 44.9828 27.6537 44.5515 28.0756C44.0341 28.5818 43.1716 29.1725 41.7053 29.1725C39.3766 29.1725 37.6517 27.4006 37.6517 25.1225C37.6517 22.8443 39.4629 21.0725 41.7053 21.0725C42.9128 21.0725 43.8616 21.5787 44.5515 22.1693L45.6728 21.0725C44.724 20.2287 43.5166 19.5537 41.7916 19.5537C38.6866 19.5537 36.0129 22.085 36.0129 25.1225C36.0129 28.16 38.6866 30.6912 41.7916 30.6912C43.5166 30.6912 44.724 30.185 45.759 29.0881C46.794 28.0756 47.139 26.6412 47.139 25.5443C47.139 25.2068 47.139 24.8693 47.0528 24.6162L41.7053 24.6162ZM51.2789 23.5193C49.209 23.5193 47.5703 25.0381 47.5703 27.1475C47.5703 29.1725 49.209 30.7756 51.2789 30.7756C53.3489 30.7756 54.9876 29.2568 54.9876 27.1475C54.9876 24.9537 53.3489 23.5193 51.2789 23.5193ZM55.5914 27.1475C55.5914 25.0381 57.2301 23.5193 59.3001 23.5193C61.37 23.5193 63.0088 24.9537 63.0088 27.1475C63.0088 29.2568 61.37 30.7756 59.3001 30.7756C57.2301 30.7756 55.5914 29.1725 55.5914 27.1475ZM57.2301 27.0629C57.2301 28.3286 58.1788 29.2567 59.3001 29.2567C60.4213 29.2567 61.37 28.3286 61.37 27.0629C61.37 25.7129 60.4213 24.8692 59.3001 24.8692C58.1788 24.8692 57.2301 25.7973 57.2301 27.0629ZM49.209 27.0629C49.209 28.3286 50.1577 29.2567 51.279 29.2567C52.4002 29.2567 53.3489 28.3286 53.3489 27.0629C53.3489 25.7129 52.4002 24.8692 51.279 24.8692C50.1577 24.8692 49.209 25.7973 49.209 27.0629ZM77.7573 23.5193C79.6547 23.5193 80.5172 24.9537 80.8622 25.7975L81.0347 26.2193L76.1185 28.2443C76.5498 29.0037 77.0673 29.3412 77.9298 29.3412C78.7922 29.3412 79.3097 28.9193 79.741 28.3287L80.9485 29.1725C80.6035 29.7631 79.5685 30.7756 77.9298 30.7756C75.8598 30.7756 74.3073 29.1725 74.3073 27.1475C74.3073 24.9537 75.8598 23.5193 77.7573 23.5193ZM75.8598 26.9786C75.8598 25.6286 76.981 24.8692 77.7572 24.8692C78.361 24.8692 78.9647 25.2067 79.1372 25.6286L75.8598 26.9786ZM73.4448 30.438H71.8061V19.8911H73.4448V30.438ZM69.2186 24.2787C68.7874 23.8568 68.0974 23.4349 67.2349 23.4349C65.4237 23.4349 63.6987 25.0381 63.6987 27.0631C63.6987 29.0881 65.3374 30.6068 67.2349 30.6068C68.0974 30.6068 68.7874 30.1849 69.1324 29.7631H69.2186V30.2693C69.2186 31.6193 68.4424 32.3787 67.2349 32.3787C66.2862 32.3787 65.5962 31.7037 65.4237 31.1131L64.0437 31.7037C64.475 32.6318 65.5099 33.8131 67.3212 33.8131C69.2186 33.8131 70.7711 32.7162 70.7711 30.1006V23.6881H69.2186L69.2186 24.2787ZM65.2512 27.0629C65.2512 28.3286 66.2 29.2567 67.3212 29.2567C68.4424 29.2567 69.3049 28.3286 69.3049 27.0629C69.3049 25.7973 68.4424 24.8692 67.3212 24.8692C66.2 24.8692 65.2512 25.7973 65.2512 27.0629ZM88.3658 19.8911H84.4846V30.438H86.1234V26.4724H88.3658C90.177 26.4724 91.902 25.2067 91.902 23.1817C91.902 21.1567 90.177 19.8911 88.3658 19.8911ZM86.1234 24.9537H88.4521C89.5733 24.9537 90.2633 24.0256 90.3495 23.0974C90.3495 22.3381 89.6595 21.3256 88.4521 21.3256H86.1234V24.9537ZM98.3707 23.4349C97.1632 23.4349 95.9557 23.9412 95.5244 25.0381L96.9907 25.6287C97.3357 25.0381 97.8532 24.8693 98.4569 24.8693C99.3194 24.8693 100.096 25.3756 100.182 26.2193V26.3037C99.9231 26.1349 99.2331 25.8818 98.5431 25.8818C96.9907 25.8818 95.4382 26.7256 95.4382 28.2443C95.4382 29.6787 96.7319 30.6068 98.1119 30.6068C99.2331 30.6068 99.7506 30.1006 100.182 29.5943H100.268V30.4381H101.821V26.3881C101.648 24.5318 100.182 23.4349 98.3707 23.4349ZM96.9044 28.3287C96.9044 29.0037 97.6807 29.2568 98.1981 29.2568C99.0606 29.2568 99.9231 28.5818 100.096 27.5693C100.052 27.5523 100.009 27.5352 99.9672 27.5184L99.9671 27.5183C99.5911 27.3682 99.2497 27.2318 98.6294 27.2318C97.8531 27.2318 96.9044 27.4849 96.9044 28.3287ZM107.254 23.688L105.443 28.2442H105.357L103.459 23.688H101.734L104.581 30.1005L102.942 33.6442H104.581L108.979 23.688H107.254ZM94.4032 30.438H92.7645V19.8911H94.4032V30.438Z" fill="white"/>
<path d="M9.53445 11.4531C9.2757 11.7062 9.18945 12.1281 9.18945 12.6344V31.2813C9.18945 31.7875 9.36195 32.2094 9.6207 32.4625L9.70694 32.5469L20.4018 22.0844V21.9156L9.53445 11.4531Z" fill="url(#paint0_linear)"/>
<path d="M23.8521 25.6279L20.3159 22.1686V21.9154L23.8521 18.4561L23.9384 18.5404L28.1645 20.9029C29.372 21.5779 29.372 22.6748 28.1645 23.3498L23.8521 25.6279Z" fill="url(#paint1_linear)"/>
<path d="M23.9379 25.5428L20.3155 21.999L9.53442 32.5459C9.96567 32.9678 10.5694 32.9678 11.3456 32.6303L23.9379 25.5428" fill="url(#paint2_linear)"/>
<path d="M23.9379 18.4563L11.3456 11.4531C10.5694 11.0313 9.96567 11.1156 9.53442 11.5375L20.3155 22L23.9379 18.4563H23.9379Z" fill="url(#paint3_linear)"/>
<path opacity="0.2" d="M23.8517 25.459L11.3456 32.3777C10.6557 32.7996 10.0519 32.7152 9.62067 32.3777L9.53442 32.4621L9.62067 32.5465C10.0519 32.884 10.6557 32.9684 11.3456 32.5465L23.8517 25.459Z" fill="black"/>
<path opacity="0.12" fill-rule="evenodd" clip-rule="evenodd" d="M23.8517 25.4584L28.1641 23.0959C28.6816 22.7584 29.0266 22.4209 29.0266 21.999C29.0266 22.4209 28.7679 22.8428 28.1641 23.1803L23.938 25.5428L23.8517 25.4584ZM9.20502 31.5393C9.2398 31.892 9.3368 32.1838 9.53445 32.3771H9.54285C9.5678 32.407 9.59378 32.4352 9.6207 32.4615V32.3771H9.54285C9.37015 32.1703 9.24681 31.8805 9.20502 31.5393ZM9.20502 31.5393C9.19426 31.4303 9.18945 31.3154 9.18945 31.1959V31.2803C9.18945 31.3694 9.1948 31.4559 9.20502 31.5393Z" fill="black"/>
<path opacity="0.25" d="M11.3457 11.5373L28.1641 20.903C28.6816 21.2405 29.0266 21.578 29.0266 21.9998C29.0266 21.578 28.7679 21.1561 28.1641 20.8186L11.3457 11.453C10.1382 10.778 9.18945 11.2842 9.18945 12.6342V12.7186C9.18945 11.453 10.1382 10.8623 11.3457 11.5373Z" fill="white"/>
<defs>
<linearGradient id="paint0_linear" x1="23.1301" y1="19.5974" x2="6.04641" y2="14.8757" gradientUnits="userSpaceOnUse">
<stop stop-color="#00A0FF"/>
<stop offset="0.007" stop-color="#00A1FF"/>
<stop offset="0.26" stop-color="#00BEFF"/>
<stop offset="0.512" stop-color="#00D2FF"/>
<stop offset="0.76" stop-color="#00DFFF"/>
<stop offset="1" stop-color="#00E3FF"/>
</linearGradient>
<linearGradient id="paint1_linear" x1="29.7463" y1="15.1378" x2="8.87678" y2="15.1378" gradientUnits="userSpaceOnUse">
<stop stop-color="#FFE000"/>
<stop offset="0.409" stop-color="#FFBD00"/>
<stop offset="0.775" stop-color="#FFA500"/>
<stop offset="1" stop-color="#FF9C00"/>
</linearGradient>
<linearGradient id="paint2_linear" x1="34.694" y1="14.3395" x2="21.366" y2="-8.53378" gradientUnits="userSpaceOnUse">
<stop stop-color="#FF3A44"/>
<stop offset="1" stop-color="#C31162"/>
</linearGradient>
<linearGradient id="paint3_linear" x1="12.5634" y1="43.7076" x2="18.4674" y2="33.4807" gradientUnits="userSpaceOnUse">
<stop stop-color="#32A071"/>
<stop offset="0.069" stop-color="#2DA771"/>
<stop offset="0.476" stop-color="#15CF74"/>
<stop offset="0.801" stop-color="#06E775"/>
<stop offset="1" stop-color="#00F076"/>
</linearGradient>
</defs>
</svg>
